<svg xmlns="http://www.w3.org/2000/svg" xmlns:xlink="http://www.w3.org/1999/xlink" viewBox="0 0 590.71 162.36"><defs><style>.cls-1{fill:url(#linear-gradient);}.cls-2{fill:#fff;}.cls-3{fill:#6acc73;}</style><linearGradient id="linear-gradient" x1="389.38" y1="-81.68" x2="182.09" y2="277.36" gradientUnits="userSpaceOnUse"><stop offset="0" stop-color="#4a4a4a"/><stop offset="0.24" stop-color="#4a4a4a"/><stop offset="1" stop-color="#171717"/></linearGradient></defs><title>Gx0-Logo-Dark-Desriptor</title><g id="Layer_2" data-name="Layer 2"><g id="Layer_1-2" data-name="Layer 1"><rect class="cls-1" width="590.71" height="162.36" rx="12" ry="12"/><path class="cls-2" d="M85.36,88.25H99.67v24.5H53.45V49.61h60V35.7H43.62a4.08,4.08,0,0,0-4.08,4.08v82.8a4.08,4.08,0,0,0,4.08,4.08H109.5a4.08,4.08,0,0,0,4.08-4.08V74.29H85.36Z"/><path class="cls-2" d="M248.42,35.7H183.54A4.58,4.58,0,0,0,179,40.28v81.8a4.58,4.58,0,0,0,4.58,4.58h64.88a4.58,4.58,0,0,0,4.58-4.58V40.28A4.58,4.58,0,0,0,248.42,35.7ZM192.88,49.61h39.86l-39.86,47.7Zm46.21,63.14h-40.3l40.3-48.22Z"/><path class="cls-2" d="M156.24,74.62a1.29,1.29,0,0,0-1.12.64L146.6,90.08l-8.52-14.82a1.29,1.29,0,0,0-1.12-.64H125.88l14.81,25.74-14.81,25.75H137a1.3,1.3,0,0,0,1.12-.65l8.52-14.82,8.52,14.82a1.3,1.3,0,0,0,1.12.65h11.07l-14.8-25.75,14.8-25.74Z"/><path class="cls-3" d="M293.88,49.35,296,57.74l2.41-8.39h5.35V71.68h-4V65.07L300,54.62l-2.92,9.7h-2.14L292.3,55l.18,10v6.61h-4V49.35Z"/><path class="cls-3" d="M318,71.68a3.91,3.91,0,0,1-.26-.71q-.1-.39-.18-.84a5.22,5.22,0,0,1-.82.72,5,5,0,0,1-1,.59,6.12,6.12,0,0,1-1.23.4A6.75,6.75,0,0,1,313,72a7.27,7.27,0,0,1-2.34-.37,5.62,5.62,0,0,1-1.83-1,5,5,0,0,1,.33-7.62A9.86,9.86,0,0,1,315,61.54h2.38v-1a2.43,2.43,0,0,0-.78-1.9,3.29,3.29,0,0,0-2.25-.69,2.71,2.71,0,0,0-1.91.56,1.93,1.93,0,0,0-.59,1.49h-4.27a4.56,4.56,0,0,1,.47-2,5,5,0,0,1,1.36-1.67,6.82,6.82,0,0,1,2.2-1.14,9.59,9.59,0,0,1,3-.42,10,10,0,0,1,2.79.37,6.54,6.54,0,0,1,2.25,1.08,5,5,0,0,1,1.49,1.82,5.68,5.68,0,0,1,.54,2.54v7.12a12.17,12.17,0,0,0,.16,2.2,5.69,5.69,0,0,0,.5,1.51v.26Zm-4.06-3a4.13,4.13,0,0,0,1.19-.16,4.73,4.73,0,0,0,1-.39,3.82,3.82,0,0,0,.77-.56,3.11,3.11,0,0,0,.5-.64V64.09h-2.18a6.48,6.48,0,0,0-1.7.19,3.32,3.32,0,0,0-1.15.54,2.07,2.07,0,0,0-.66.82,2.66,2.66,0,0,0-.21,1,1.88,1.88,0,0,0,.6,1.43A2.62,2.62,0,0,0,313.9,68.69Z"/><path class="cls-3" d="M338.36,54.78a11.16,11.16,0,0,1,1.79.13,9.84,9.84,0,0,1,1.32.28l-.63,4.25a15.82,15.82,0,0,0-1.72-.3,14.24,14.24,0,0,0-1.68-.1,5.29,5.29,0,0,0-2.88.69,4.2,4.2,0,0,0-1.62,2v10h-4.26V55.08h4l.2,2.72a7.76,7.76,0,0,1,2.43-2.22A6.15,6.15,0,0,1,338.36,54.78Z"/><path class="cls-3" d="M351.53,64.82l-1.93,1.8v5.06h-4.26V48.12h4.26V61.59l1.29-1.48,4.59-5h5.12L354.34,62l7.13,9.68h-5.23Z"/><path class="cls-3" d="M372.19,72a9.22,9.22,0,0,1-3.48-.63A8.21,8.21,0,0,1,366,69.65a7.49,7.49,0,0,1-1.73-2.55,8.2,8.2,0,0,1-.6-3.14v-.61a9.83,9.83,0,0,1,.59-3.47A8.05,8.05,0,0,1,366,57.17a7.43,7.43,0,0,1,2.54-1.76,8.73,8.73,0,0,1,6.41,0A6.68,6.68,0,0,1,377.29,57a7.25,7.25,0,0,1,1.48,2.59,10.3,10.3,0,0,1,.51,3.33v1.81H368a4.57,4.57,0,0,0,.5,1.54,4.21,4.21,0,0,0,1,1.21,4.32,4.32,0,0,0,1.33.78,4.82,4.82,0,0,0,1.64.28,6.55,6.55,0,0,0,1.25-.13,5.86,5.86,0,0,0,1.19-.36,5.22,5.22,0,0,0,1.06-.59,4,4,0,0,0,.86-.83l2.13,2.3a6.21,6.21,0,0,1-1,1.12,7.23,7.23,0,0,1-1.51,1,9.64,9.64,0,0,1-1.92.68A9.28,9.28,0,0,1,372.19,72Zm-.5-13.76a3.34,3.34,0,0,0-1.32.25,3.06,3.06,0,0,0-1.05.73,4.15,4.15,0,0,0-.76,1.13,5.83,5.83,0,0,0-.46,1.48h7v-.34a4.1,4.1,0,0,0-.26-1.27,2.89,2.89,0,0,0-.66-1,3.2,3.2,0,0,0-1.05-.69A3.73,3.73,0,0,0,371.69,58.23Z"/><path class="cls-3" d="M390.81,51v4.06H397v3.15h-6.2v7.13a4.66,4.66,0,0,0,.21,1.51,2.34,2.34,0,0,0,.59,1,2.17,2.17,0,0,0,.93.51,4.58,4.58,0,0,0,1.22.15c.32,0,.66,0,1,0s.67-.07,1-.12l.88-.14a6.75,6.75,0,0,0,.7-.16l.41,2.93a5,5,0,0,1-1,.46,11.42,11.42,0,0,1-1.28.31c-.45.08-.91.15-1.4.19a14,14,0,0,1-1.43.07,8,8,0,0,1-2.48-.36,4.77,4.77,0,0,1-1.9-1.12A5,5,0,0,1,387,68.59a8.12,8.12,0,0,1-.43-2.82V58.23h-3.79V55.08h3.79V51Z"/><path class="cls-3" d="M403,55.08h9V68.21h4.49v3.47H403V68.21h4.73V58.57H403Zm4.42-4.24a2.32,2.32,0,0,1,.18-.92,2,2,0,0,1,.5-.72,2.37,2.37,0,0,1,.77-.47,2.93,2.93,0,0,1,1-.16,2.53,2.53,0,0,1,1.8.63,2.33,2.33,0,0,1,0,3.27,2.54,2.54,0,0,1-1.8.64,2.93,2.93,0,0,1-1-.17,2.37,2.37,0,0,1-.77-.47,2,2,0,0,1-.5-.72A2.31,2.31,0,0,1,407.39,50.84Z"/><path class="cls-3" d="M424.55,55.08l.26,2.3A6.4,6.4,0,0,1,427,55.46a5.82,5.82,0,0,1,2.82-.68,6.77,6.77,0,0,1,2.3.37,4.33,4.33,0,0,1,1.8,1.17,5.49,5.49,0,0,1,1.18,2.07,9.79,9.79,0,0,1,.43,3.07V71.68h-4.27V61.53a4.91,4.91,0,0,0-.22-1.62,2.34,2.34,0,0,0-.64-1,2.4,2.4,0,0,0-1-.51,5.32,5.32,0,0,0-1.32-.15,3.71,3.71,0,0,0-1.86.44,3.47,3.47,0,0,0-1.24,1.2v11.8h-4.28V55.08Z"/><path class="cls-3" d="M439.11,63.26a12,12,0,0,1,.47-3.45,8.08,8.08,0,0,1,1.34-2.69A6.11,6.11,0,0,1,443,55.39a6.2,6.2,0,0,1,2.8-.61,5.78,5.78,0,0,1,2.5.49,5,5,0,0,1,1.78,1.39l.17-1.58h3.88V71.14a7.52,7.52,0,0,1-.57,3A6.14,6.14,0,0,1,452,76.37a6.79,6.79,0,0,1-2.48,1.37,10.14,10.14,0,0,1-3.2.47,9.37,9.37,0,0,1-1.61-.15,8.82,8.82,0,0,1-1.7-.48,7.81,7.81,0,0,1-1.6-.82,5.2,5.2,0,0,1-1.28-1.19L442,73a5.85,5.85,0,0,0,1.84,1.41,5.22,5.22,0,0,0,2.23.48,3.9,3.9,0,0,0,2.8-1,3.59,3.59,0,0,0,1-2.72v-1a5.52,5.52,0,0,1-1.75,1.29,5.66,5.66,0,0,1-2.33.46,6,6,0,0,1-2.78-.64,6.28,6.28,0,0,1-2.11-1.76,8,8,0,0,1-1.34-2.66,11.54,11.54,0,0,1-.47-3.35Zm4.28.32a8.48,8.48,0,0,0,.21,1.94,4.92,4.92,0,0,0,.63,1.57,3.31,3.31,0,0,0,1.09,1,3.12,3.12,0,0,0,1.57.38,3.53,3.53,0,0,0,1.84-.43,3.11,3.11,0,0,0,1.16-1.2v-7a3.07,3.07,0,0,0-1.16-1.21,3.56,3.56,0,0,0-1.81-.42,3,3,0,0,0-1.57.39,3.43,3.43,0,0,0-1.1,1.08,5.2,5.2,0,0,0-.65,1.59,8.73,8.73,0,0,0-.21,2Z"/><path class="cls-3" d="M478.75,59.22h5.61v3.9h-5.61v6.32h-4.07V63.12h-5.62v-3.9h5.62v-6h4.07Z"/><path class="cls-3" d="M503.66,63.49v8.19h-4.31V49.35H507a9.52,9.52,0,0,1,3.3.53,7.33,7.33,0,0,1,2.51,1.47,6.35,6.35,0,0,1,1.59,2.26,7.32,7.32,0,0,1,.56,2.93,6.74,6.74,0,0,1-.56,2.78,6.31,6.31,0,0,1-1.59,2.2A7.46,7.46,0,0,1,510.29,63a10,10,0,0,1-3.3.52Zm0-3.5H507a4.29,4.29,0,0,0,1.6-.27,3.22,3.22,0,0,0,1.12-.76,3,3,0,0,0,.68-1.09,3.82,3.82,0,0,0,.22-1.3,4.6,4.6,0,0,0-.22-1.46,3.23,3.23,0,0,0-.68-1.18,3.15,3.15,0,0,0-1.12-.79,3.9,3.9,0,0,0-1.6-.3h-3.33Z"/><path class="cls-3" d="M525.5,63.34h-3.26v8.34h-4.31V49.35h7.48a12.06,12.06,0,0,1,3.36.43,7.48,7.48,0,0,1,2.57,1.29,5.55,5.55,0,0,1,1.64,2.1,7,7,0,0,1,.58,2.91,7.58,7.58,0,0,1-.29,2.16,5.86,5.86,0,0,1-2.08,3,8.06,8.06,0,0,1-1.67,1l4.8,9.22v.2h-4.61Zm-3.26-3.5h3.19a4,4,0,0,0,2.81-.93,3.31,3.31,0,0,0,1-2.54,3.42,3.42,0,0,0-1-2.6,3.94,3.94,0,0,0-2.85-.93h-3.17Z"/><path class="cls-3" d="M299.57,102.88h-6.7l-1.32,4.66H287l7.32-22.33h3.91l7.17,22.33h-4.54Zm-5.64-3.67h4.63L296.27,91Z"/><path class="cls-3" d="M307.16,99.12a12,12,0,0,1,.47-3.45A8.08,8.08,0,0,1,309,93a6,6,0,0,1,4.93-2.34,5.81,5.81,0,0,1,2.5.49,5,5,0,0,1,1.77,1.39l.17-1.58h3.88V107a7.52,7.52,0,0,1-.57,3,6.11,6.11,0,0,1-1.61,2.22,7,7,0,0,1-2.49,1.37,10.08,10.08,0,0,1-3.19.47,9.28,9.28,0,0,1-1.61-.15,8.91,8.91,0,0,1-1.71-.48,8,8,0,0,1-1.59-.82,5.43,5.43,0,0,1-1.29-1.19l1.92-2.59a5.6,5.6,0,0,0,1.84,1.4,5,5,0,0,0,2.22.49,3.88,3.88,0,0,0,2.8-1,3.59,3.59,0,0,0,1-2.72v-1a5.24,5.24,0,0,1-1.75,1.28,5.51,5.51,0,0,1-2.33.46,6,6,0,0,1-2.78-.63,6.48,6.48,0,0,1-2.11-1.76,8,8,0,0,1-1.34-2.66,11.54,11.54,0,0,1-.47-3.35Zm4.28.32a8.55,8.55,0,0,0,.21,1.94,4.78,4.78,0,0,0,.64,1.56,3,3,0,0,0,1.08,1,3,3,0,0,0,1.57.39,3.67,3.67,0,0,0,1.85-.43,3.16,3.16,0,0,0,1.15-1.2v-7a3.12,3.12,0,0,0-1.15-1.21A3.6,3.6,0,0,0,315,94.1a3,3,0,0,0-1.57.39,3.31,3.31,0,0,0-1.09,1.08,5,5,0,0,0-.65,1.59,8.17,8.17,0,0,0-.22,2Z"/><path class="cls-3" d="M334.49,107.84a9.49,9.49,0,0,1-3.48-.62,8.21,8.21,0,0,1-2.68-1.71A7.58,7.58,0,0,1,326.6,103a8.2,8.2,0,0,1-.6-3.14v-.61a9.83,9.83,0,0,1,.59-3.47A8.05,8.05,0,0,1,328.27,93a7.45,7.45,0,0,1,2.54-1.77,8.24,8.24,0,0,1,3.21-.62,8.11,8.11,0,0,1,3.2.59,6.56,6.56,0,0,1,2.37,1.66,7.15,7.15,0,0,1,1.48,2.58,10.4,10.4,0,0,1,.51,3.34v1.81H330.32a4.57,4.57,0,0,0,.5,1.54,4.21,4.21,0,0,0,1,1.21,4.52,4.52,0,0,0,1.33.78,4.82,4.82,0,0,0,1.64.27,6.54,6.54,0,0,0,1.25-.12,5.86,5.86,0,0,0,1.19-.36,5.22,5.22,0,0,0,1.06-.59,4,4,0,0,0,.86-.83l2.13,2.3a5.85,5.85,0,0,1-1,1.11,6.87,6.87,0,0,1-1.51,1,9.42,9.42,0,0,1-1.92.68A9.29,9.29,0,0,1,334.49,107.84ZM334,94.09a3.34,3.34,0,0,0-1.32.25,3.06,3.06,0,0,0-1.05.73,4.15,4.15,0,0,0-.76,1.13,5.83,5.83,0,0,0-.46,1.48h7v-.34a3.78,3.78,0,0,0-.26-1.27,2.89,2.89,0,0,0-.66-1,3,3,0,0,0-1.05-.69A3.73,3.73,0,0,0,334,94.09Z"/><path class="cls-3" d="M349.16,90.94l.26,2.3a6.28,6.28,0,0,1,2.16-1.92,5.82,5.82,0,0,1,2.82-.68,7,7,0,0,1,2.3.36,4.45,4.45,0,0,1,1.8,1.18,5.48,5.48,0,0,1,1.19,2.07,9.81,9.81,0,0,1,.42,3.07v10.22h-4.27V97.38a4.89,4.89,0,0,0-.22-1.61A2.2,2.2,0,0,0,354,94.25a5.32,5.32,0,0,0-1.32-.15,3.71,3.71,0,0,0-1.86.44,3.47,3.47,0,0,0-1.24,1.2v11.8h-4.28V90.94Z"/><path class="cls-3" d="M371.49,104.44a3.85,3.85,0,0,0,1.19-.18,3.29,3.29,0,0,0,1-.53,2.28,2.28,0,0,0,.67-.81,2,2,0,0,0,.2-1.06h4a4.91,4.91,0,0,1-.53,2.4,5.94,5.94,0,0,1-1.52,1.9,7.46,7.46,0,0,1-2.25,1.25,8.11,8.11,0,0,1-2.71.45,8.37,8.37,0,0,1-3.39-.65,6.87,6.87,0,0,1-2.43-1.79,7.66,7.66,0,0,1-1.47-2.66,10.56,10.56,0,0,1-.5-3.27V99a10.88,10.88,0,0,1,.49-3.28,7.52,7.52,0,0,1,1.48-2.66,6.87,6.87,0,0,1,2.43-1.79,8,8,0,0,1,3.36-.66,8.38,8.38,0,0,1,2.84.46,6.56,6.56,0,0,1,2.25,1.29,5.74,5.74,0,0,1,1.46,2,6.19,6.19,0,0,1,.49,2.66h-4a2.72,2.72,0,0,0-.18-1.17,2.55,2.55,0,0,0-.63-1,3.18,3.18,0,0,0-1-.64,3.46,3.46,0,0,0-1.27-.23,3.06,3.06,0,0,0-1.67.41,3.11,3.11,0,0,0-1.05,1.11,4.79,4.79,0,0,0-.55,1.57A10.19,10.19,0,0,0,368,99v.46a11.3,11.3,0,0,0,.15,1.86,4.76,4.76,0,0,0,.54,1.58,3.28,3.28,0,0,0,1.06,1.1A3.24,3.24,0,0,0,371.49,104.44Z"/><path class="cls-3" d="M390.06,100.57l.49,1.78L395,90.94h4.71L391.26,110a12.3,12.3,0,0,1-.72,1.37,6.32,6.32,0,0,1-1.09,1.36,5.85,5.85,0,0,1-1.61,1.06,5.25,5.25,0,0,1-2.23.43l-.56,0-.51-.06-.48-.1c-.16,0-.33-.08-.52-.13l.52-3.25.67,0,.65,0a1.39,1.39,0,0,0,.9-.31,3.86,3.86,0,0,0,.67-.67,5.88,5.88,0,0,0,.44-.68c.11-.2.19-.31.23-.31l1-1.93-7-15.89h4.66Z"/></g></g></svg>