<?xml version="1.0" standalone="no"?>
<!DOCTYPE svg PUBLIC "-//W3C//DTD SVG 1.1//EN" "http://www.w3.org/Graphics/SVG/1.1/DTD/svg11.dtd" >
<svg>
<metadata>
Created by FontForge 20090914 at Tue Oct  9 19:03:45 2018
 By www-data
Copyright &#194;&#169; 2013 Canada Type. All rights reserved.
</metadata>
<defs>
<font id="VoxWide-Semibold" horiz-adv-x="693" >
  <font-face 
    font-family="Vox"
    font-weight="400"
    font-stretch="normal"
    units-per-em="1000"
    panose-1="2 0 5 6 3 0 0 2 0 4"
    ascent="800"
    descent="-200"
    x-height="550"
    cap-height="722"
    bbox="-239 -281 1264 1036"
    underline-thickness="50"
    underline-position="-75"
    unicode-range="U+0020-U+F8FF"
  />
<missing-glyph horiz-adv-x="633" 
d="M563 722v-722h-493v722h493zM172 624v-526h289v526h-289z" />
    <glyph glyph-name=".notdef" horiz-adv-x="633" 
d="M563 722v-722h-493v722h493zM172 624v-526h289v526h-289z" />
    <glyph glyph-name="space" unicode=" " horiz-adv-x="234" 
 />
    <glyph glyph-name="exclam" unicode="!" horiz-adv-x="284" 
d="M197 176h-110v546h110v-546zM197 0h-110v102h110v-102z" />
    <glyph glyph-name="quotedbl" unicode="&#x22;" horiz-adv-x="405" 
d="M148 491h-75l-23 231h122zM332 491h-75l-23 231h122z" />
    <glyph glyph-name="numbersign" unicode="#" horiz-adv-x="828" 
d="M745 722l-82 -212h148l-30 -87h-148l-46 -121h148l-30 -88h-148l-82 -214h-92l82 214h-205l-82 -214h-91l81 214h-149l29 88h151l46 121h-150l30 87h150l82 212h91l-81 -212h204l82 212h92zM337 423l-47 -121h205l47 121h-205z" />
    <glyph glyph-name="dollar" unicode="$" horiz-adv-x="733" 
d="M534 0h-121v-76h-95v76h-117c-48 0 -82 7 -102 21s-30 42.333 -30 85v109h110v-83c0 -14.667 2.83301 -24.167 8.5 -28.5s18.5 -6.5 38.5 -6.5h92v215h-118c-48 0 -82 7 -102 21s-30 42.333 -30 85v198c0 42.667 10 71 30 85s54 21 102 21h118v78h95v-78h119
c48 0 82 -7 102 -21s30 -42.333 30 -85v-109h-109v82c0 14.667 -2.83301 24.167 -8.5 28.5s-18.5 6.5 -38.5 6.5h-95v-215h121c48 0 82 -7 102 -21s30 -42.333 30 -85v-197c0 -42.667 -10 -71 -30 -85s-54 -21 -102 -21zM556 132v145c0 14.667 -2.83301 24.167 -8.5 28.5
s-18.5 6.5 -38.5 6.5h-96v-215h96c20 0 32.833 2.16699 38.5 6.5s8.5 13.833 8.5 28.5zM318 409v215h-93c-20 0 -32.833 -2.16699 -38.5 -6.5s-8.5 -13.833 -8.5 -28.5v-145c0 -14.667 2.83301 -24.167 8.5 -28.5s18.5 -6.5 38.5 -6.5h93z" />
    <glyph glyph-name="percent" unicode="%" horiz-adv-x="922" 
d="M223 0h-110l586 722h113zM239 338h-73c-76 0 -114 25 -114 75v226c0 55.333 38 83 114 83h73c76 0 114 -27.667 114 -83v-218c0 -55.333 -38 -83 -114 -83zM269 436v187c0 10 -2.33301 16.667 -7 20s-14.667 5 -30 5h-59c-15.333 0 -25.333 -1.66699 -30 -5
s-7 -10 -7 -20v-187c0 -10 2.16699 -16.667 6.5 -20s14.5 -5 30.5 -5h59c15.333 0 25.333 1.66699 30 5s7 10 7 20zM756 0h-71.999c-36.667 0 -64.834 5.5 -84.501 16.5s-29.5 30.5 -29.5 58.5v226c0 55.333 38 83 114 83h72c76.667 0 115 -27.667 115 -83v-218
c0 -55.333 -38.333 -83 -115 -83zM786.001 98v187c0 10 -2.16699 16.667 -6.5 20s-14.166 5 -29.499 5h-60c-15.333 0 -25.166 -1.66699 -29.499 -5s-6.5 -10 -6.5 -20v-187c0 -10 2.16699 -16.667 6.5 -20s14.166 -5 29.499 -5h60c15.333 0 25.166 1.66699 29.499 5
s6.5 10 6.5 20z" />
    <glyph glyph-name="ampersand" unicode="&#x26;" horiz-adv-x="779" 
d="M545 0l-332 0.00292969c-48 0 -82 7 -102 21s-30 42.333 -30 85v139c0 25.333 3.5 44.666 10.5 57.999s19.5 23.666 37.5 30.999c-18 7.33301 -30.5 17.666 -37.5 30.999s-10.5 32.666 -10.5 57.999v193c0 42.667 10 71 30 85s54 21 102 21h332c48 0 82 -7 102 -21
s30 -42.333 30 -85v-109h-109v82c0 16 -3 25.833 -9 29.5s-20.333 5.5 -43 5.5h-278c-20 0 -32.833 -3.5 -38.5 -10.5s-8.5 -19.5 -8.5 -37.5v-151c0 -17.333 3.5 -28.166 10.5 -32.499s20.5 -6.5 40.5 -6.5h496v-99h-61v-181c0 -42.667 -10 -71 -30 -85s-54 -21 -102 -21z
M568 132.003v155h-331c-18 0 -30.167 -2 -36.5 -6s-9.5 -13.667 -9.5 -29v-120c0 -14.667 2.66699 -24.167 8 -28.5s18.333 -6.5 39 -6.5h283c20 0 32.833 2.16699 38.5 6.5s8.5 13.833 8.5 28.5z" />
    <glyph glyph-name="quotesingle" unicode="'" horiz-adv-x="221" 
d="M148 491h-75l-23 231h122z" />
    <glyph glyph-name="parenleft" unicode="(" horiz-adv-x="305" 
d="M265 -200h-55c-48 0 -82 7 -102 21s-30 42.333 -30 85v710c0 42.667 10 71 30 85s54 21 102 21h55v-98h-30c-20 0 -32.833 -2.16699 -38.5 -6.5s-8.5 -13.833 -8.5 -28.5v-657c0 -14.667 2.83301 -24.167 8.5 -28.5s18.5 -6.5 38.5 -6.5h30v-97z" />
    <glyph glyph-name="parenright" unicode=")" horiz-adv-x="306" 
d="M95 -200h-55v97h30c20 0 32.833 2.16699 38.5 6.5s8.5 13.833 8.5 28.5v657c0 14.667 -2.83301 24.167 -8.5 28.5s-18.5 6.5 -38.5 6.5h-30v98h55c48 0 82 -7 102 -21s30 -42.333 30 -85v-710c0 -42.667 -10 -71 -30 -85s-54 -21 -102 -21z" />
    <glyph glyph-name="asterisk" unicode="*" horiz-adv-x="385" 
d="M310 592l-67 -46l-51 74l-51 -74l-65 46l77 67l-115 13l22 77l108 -36l-20 87h88l-18 -87l101 36l29 -77l-115 -13z" />
    <glyph glyph-name="plus" unicode="+" horiz-adv-x="557" 
d="M333 71h-110v145h-180v102h180v145h110v-145h180v-102h-180v-145z" />
    <glyph glyph-name="comma" unicode="," horiz-adv-x="255" 
d="M167 -98h-80l-14 204h109z" />
    <glyph glyph-name="hyphen" unicode="-" horiz-adv-x="447" 
d="M383 216h-319v102h319v-102z" />
    <glyph glyph-name="period" unicode="." horiz-adv-x="216" 
d="M162 0h-108v103h108v-103z" />
    <glyph glyph-name="slash" unicode="/" horiz-adv-x="475" 
d="M128 -118h-106l325 867h106z" />
    <glyph glyph-name="zero" unicode="0" horiz-adv-x="761" 
d="M545 0h-330c-48 0 -82 7 -102 21s-30 42.333 -30 85v510c0 42.667 10 71 30 85s54 21 102 21h330c48 0 82 -7 102 -21s30 -42.333 30 -85v-510c0 -42.667 -10 -71 -30 -85s-54 -21 -102 -21zM568 132v457c0 14.667 -3 24.167 -9 28.5s-18.667 6.5 -38 6.5h-281
c-20 0 -32.833 -2.16699 -38.5 -6.5s-8.5 -13.833 -8.5 -28.5v-457c0 -14.667 2.83301 -24.167 8.5 -28.5s18.5 -6.5 38.5 -6.5h281c20 0 32.833 2.16699 38.5 6.5s8.5 13.833 8.5 28.5z" />
    <glyph glyph-name="one" unicode="1" horiz-adv-x="555" 
d="M531 0h-485v97h185v526h-185v98h295v-624h190v-97z" />
    <glyph glyph-name="two" unicode="2" horiz-adv-x="676" 
d="M608 0h-552v110l403 293c14.667 10.667 25.834 22.167 33.501 34.5s12.167 22.5 13.5 30.5s2 18.333 2 31v90c0 14.667 -2.83301 24.167 -8.5 28.5s-18.5 6.5 -38.5 6.5h-247c-20 0 -32.833 -2.16699 -38.5 -6.5s-8.5 -13.833 -8.5 -28.5v-83h-111v110
c0 42.667 10 71 30 85s54 21 102 21h298c48 0 82 -7 102 -21s30 -42.333 30 -85v-104c0 -50 -3.83301 -85.833 -11.5 -107.5s-28.834 -44.5 -63.501 -68.5l-340 -239h405v-97z" />
    <glyph glyph-name="three" unicode="3" horiz-adv-x="734" 
d="M521 0h-326.001c-48 0 -82 7 -102 21s-30 42.333 -30 85v110h110v-84c0 -14.667 2.66699 -24.167 8 -28.5s18.333 -6.5 39 -6.5h277c20.667 0 33.667 2.16699 39 6.5s8 13.833 8 28.5v143c0 14.667 -2.83301 24.167 -8.5 28.5s-18.5 6.5 -38.5 6.5h-189v98h188
c20.667 0 33.834 2.16699 39.501 6.5s8.5 13.5 8.5 27.5v147c0 14.667 -3 24.167 -9 28.5s-18.667 6.5 -38 6.5h-276c-20 0 -32.833 -2.16699 -38.5 -6.5s-8.5 -13.833 -8.5 -28.5v-83h-110v110c0 42.667 10 71 30 85s54 21 102 21h325c48 0 82 -7 102 -21
s30 -42.333 30 -85v-167c0 -26 -3.66699 -46.167 -11 -60.5s-20 -24.833 -38 -31.5c18 -6.66699 30.667 -17.167 38 -31.5s11 -34.5 11 -60.5v-159c0 -42.667 -10 -71 -30 -85s-54 -21 -102 -21z" />
    <glyph glyph-name="four" unicode="4" horiz-adv-x="652" 
d="M588 0h-109v179h-449v102l292 441h126l-298 -446h329v274h109v-550z" />
    <glyph glyph-name="five" unicode="5" horiz-adv-x="692" 
d="M500 0h-298c-48 0 -82 7 -102 21s-30 42.333 -30 85v110h111v-84c0 -14.667 2.83301 -24.167 8.5 -28.5s18.5 -6.5 38.5 -6.5h247c20 0 32.833 2.16699 38.5 6.5s8.5 13.833 8.5 28.5v188c0 14.667 -2.83301 24.167 -8.5 28.5s-18.5 6.5 -38.5 6.5h-405v367h528v-98h-418
v-171h320c48 0 82 -7 102 -21s30 -42.333 30 -85v-241c0 -42.667 -10 -71 -30 -85s-54 -21 -102 -21z" />
    <glyph glyph-name="six" unicode="6" horiz-adv-x="749" 
d="M549 0h-334c-48 0 -82 7 -102 21s-30 42.333 -30 85v510c0 42.667 10 71 30 85s54 21 102 21h333c48 0 82 -7 102 -21s30 -42.333 30 -85v-109h-110v82c0 14.667 -2.83301 24.167 -8.5 28.5s-18.5 6.5 -38.5 6.5h-283c-20 0 -32.833 -2.16699 -38.5 -6.5
s-8.5 -13.833 -8.5 -28.5v-157h356c48 0 82 -7 102 -21s30 -42.333 30 -85v-220c0 -42.667 -10 -71 -30 -85s-54 -21 -102 -21zM571 132v167c0 14.667 -2.83301 24.167 -8.5 28.5s-18.5 6.5 -38.5 6.5h-331v-202c0 -14.667 2.83301 -24.167 8.5 -28.5s18.5 -6.5 38.5 -6.5
h284c20.667 0 33.667 2.16699 39 6.5s8 13.833 8 28.5z" />
    <glyph glyph-name="seven" unicode="7" horiz-adv-x="631" 
d="M200 0h-128l415 624h-456v98h576v-103z" />
    <glyph glyph-name="eight" unicode="8" horiz-adv-x="752" 
d="M539 0l-326 -0.000976562c-48 0 -82 7 -102 21s-30 42.333 -30 85v159c0 48.667 16.667 79.334 50 92.001c-33.333 12.667 -50 43.334 -50 92.001v167c0 42.667 10 71 30 85s54 21 102 21h326c48 0 82 -7 102 -21s30 -42.333 30 -85v-167
c0 -26 -3.66699 -46.167 -11 -60.5s-20 -24.833 -38 -31.5c32.667 -12.667 49 -43.334 49 -92.001v-159c0 -42.667 -10 -71 -30 -85s-54 -21 -102 -21zM561 441.999l0.000976562 147c0 14.667 -2.83301 24.167 -8.5 28.5s-18.5 6.5 -38.5 6.5h-276
c-20 0 -32.833 -2.16699 -38.5 -6.5s-8.5 -13.833 -8.5 -28.5v-147c0 -14.667 2.66699 -24 8 -28s18.666 -6 39.999 -6h275c20.667 0 33.667 2 39 6s8 13.333 8 28zM562.001 131.999v143c0 14.667 -2.83301 24.167 -8.5 28.5s-18.5 6.5 -38.5 6.5h-277
c-20 0 -32.833 -2.16699 -38.5 -6.5s-8.5 -13.833 -8.5 -28.5v-143c0 -14.667 2.66699 -24.167 8 -28.5s18.333 -6.5 39 -6.5h277c20 0 32.833 2.16699 38.5 6.5s8.5 13.833 8.5 28.5z" />
    <glyph glyph-name="nine" unicode="9" horiz-adv-x="749" 
d="M533 0h-333c-48 0 -82 7 -102 21s-30 42.333 -30 85v109h110v-83c0 -14.667 2.83301 -24.167 8.5 -28.5s18.5 -6.5 38.5 -6.5h283c20 0 32.833 2.16699 38.5 6.5s8.5 13.833 8.5 28.5v158h-356c-48 0 -82 7 -102 21s-30 42.333 -30 85v220c0 42.667 10 71 30 85
s54 21 102 21h334c48 0 82 -7 102 -21s30 -42.333 30 -85v-510c0 -42.667 -10 -71 -30 -85s-54 -21 -102 -21zM555 387v202c0 14.667 -2.83301 24.167 -8.5 28.5s-18.5 6.5 -38.5 6.5h-284c-20.667 0 -33.667 -2 -39 -6s-8 -13.333 -8 -28v-168
c0 -14.667 2.83301 -24.167 8.5 -28.5s18.5 -6.5 38.5 -6.5h331z" />
    <glyph glyph-name="colon" unicode=":" horiz-adv-x="251" 
d="M183 0h-108v103h108v-103zM183 288h-108v103h108v-103z" />
    <glyph glyph-name="semicolon" unicode=";" horiz-adv-x="249" 
d="M183 288h-108v103h108v-103zM167 -98h-80l-14 204h109z" />
    <glyph glyph-name="less" unicode="&#x3c;" horiz-adv-x="427" 
d="M386 64l-81 -56l-283 271l284 285l79 -60l-236 -225z" />
    <glyph glyph-name="equal" unicode="=" horiz-adv-x="622" 
d="M546 322h-470v102h470v-102zM546 109h-470v103h470v-103z" />
    <glyph glyph-name="greater" unicode="&#x3e;" horiz-adv-x="427" 
d="M121 8l-80 56l236 215l-236 225l79 60l285 -285z" />
    <glyph glyph-name="question" unicode="?" horiz-adv-x="657" 
d="M469 269h-176v-93h-109v190h261c20 0 32.833 2.16699 38.5 6.5s8.5 13.833 8.5 28.5v188c0 14.667 -2.83301 24.167 -8.5 28.5s-18.5 6.5 -38.5 6.5h-247c-20 0 -32.833 -2.16699 -38.5 -6.5s-8.5 -13.833 -8.5 -28.5v-83h-111v110c0 42.667 10 71 30 85s54 21 102 21
h297c48 0 82 -7 102 -21s30 -42.333 30 -85v-241c0 -42.667 -10 -71 -30 -85s-54 -21 -102 -21zM293 0h-109v103h109v-103z" />
    <glyph glyph-name="at" unicode="@" horiz-adv-x="1173" 
d="M957 0h-528c-48 0 -82 7 -102 21s-30 42.333 -30 85v132c0 42.667 10 71 30 85s54 21 102 21h314v73c0 14.667 -2.83301 24.167 -8.5 28.5s-18.5 6.5 -38.5 6.5h-338v98h362c48 0 82 -7 102 -21s30 -42.333 30 -85v-347h80c20 0 32.833 2.16699 38.5 6.5
s8.5 13.833 8.5 28.5v457c0 14.667 -2.83301 24.167 -8.5 28.5s-18.5 6.5 -38.5 6.5h-693c-20 0 -32.833 -2.16699 -38.5 -6.5s-8.5 -13.833 -8.5 -28.5v-656c0 -14.667 2.83301 -24.167 8.5 -28.5s18.5 -6.5 38.5 -6.5h365v-97h-390c-48 0 -82 7 -102 21s-30 42.333 -30 85
v709c0 42.667 10 71 30 85s54 21 102 21h743c48 0 82 -7 102 -21s30 -42.333 30 -85v-510c0 -42.667 -10 -71 -30 -85s-54 -21 -102 -21zM743 120l-0.000976562 125.998h-289c-20 0 -32.833 -2.16699 -38.5 -6.5s-8.5 -13.833 -8.5 -28.5v-79
c0 -14.667 2.83301 -24.167 8.5 -28.5s18.5 -6.5 38.5 -6.5h241c10.667 0 18.834 0.333008 24.501 1s11 2.83398 16 6.50098s7.5 8.83398 7.5 15.501z" />
    <glyph glyph-name="A" unicode="A" horiz-adv-x="757" 
d="M677 0h-110v259h-377v-259h-110v616c0 42.667 10 71 30 85s54 21 102 21h333c48 0 82 -7 102 -21s30 -42.333 30 -85v-616zM567 356v233c0 14.667 -2.83301 24.167 -8.5 28.5s-18.5 6.5 -38.5 6.5h-283c-20 0 -32.833 -2.16699 -38.5 -6.5s-8.5 -13.833 -8.5 -28.5v-233
h377z" />
    <glyph glyph-name="B" unicode="B" horiz-adv-x="745" 
d="M536 0l-455 0.000976562v722h455c48 0 82 -7 102 -21s30 -42.333 30 -85v-167c0 -26 -3.83301 -46.167 -11.5 -60.5s-20.5 -24.833 -38.5 -31.5c33.333 -12.667 50 -43.334 50 -92.001v-159c0 -42.667 -10 -71 -30 -85s-54 -21 -102 -21zM558 131.001v146
c0 14.667 -2.83301 24.167 -8.5 28.5s-18.5 6.5 -38.5 6.5h-320v-215h320c20.667 0 33.667 2 39 6s8 13.333 8 28zM558 445.001v144c0 14.667 -2.83301 24.167 -8.5 28.5s-18.5 6.5 -38.5 6.5h-320v-213h320c20.667 0 33.667 2 39 6s8 13.333 8 28z" />
    <glyph glyph-name="C" unicode="C" horiz-adv-x="733" 
d="M543 0h-333c-48 0 -82 7 -102 21s-30 42.333 -30 85v510c0 42.667 10 71 30 85s54 21 102 21h333c48 0 82 -7 102 -21s30 -42.333 30 -85v-109h-110v82c0 14.667 -2.83301 24.167 -8.5 28.5s-18.5 6.5 -38.5 6.5h-283c-20 0 -32.833 -2.16699 -38.5 -6.5
s-8.5 -13.833 -8.5 -28.5v-457c0 -14.667 2.83301 -24.167 8.5 -28.5s18.5 -6.5 38.5 -6.5h283c20.667 0 33.667 2.16699 39 6.5s8 13.833 8 28.5v83h110v-109c0 -42.667 -10 -71 -30 -85s-54 -21 -102 -21z" />
    <glyph glyph-name="D" unicode="D" horiz-adv-x="778" 
d="M567 0h-486v722h486c48 0 82 -7 102 -21s30 -42.333 30 -85v-510c0 -42.667 -10 -71 -30 -85s-54 -21 -102 -21zM590 132v457c0 14.667 -3 24.167 -9 28.5s-18.667 6.5 -38 6.5h-352v-527h352c20 0 32.833 2.16699 38.5 6.5s8.5 13.833 8.5 28.5z" />
    <glyph glyph-name="E" unicode="E" horiz-adv-x="663" 
d="M621 0h-540v722h540v-98h-430v-214h352v-97h-352v-216h430v-97z" />
    <glyph glyph-name="F" unicode="F" horiz-adv-x="629" 
d="M191 0h-110v722h528v-98h-418v-214h340v-97h-340v-313z" />
    <glyph glyph-name="G" unicode="G" horiz-adv-x="758" 
d="M556 0h-346c-48 0 -82 7 -102 21s-30 42.333 -30 85v510c0 42.667 10 71 30 85s54 21 102 21h346c48 0 82 -7 102 -21s30 -42.333 30 -85v-109h-110v82c0 14.667 -2.83301 24.167 -8.5 28.5s-18.5 6.5 -38.5 6.5h-296c-20 0 -32.833 -2.16699 -38.5 -6.5
s-8.5 -13.833 -8.5 -28.5v-457c0 -14.667 2.83301 -24.167 8.5 -28.5s18.5 -6.5 38.5 -6.5h296c20.667 0 33.667 2.16699 39 6.5s8 13.833 8 28.5v131h-192v98h302v-255c0 -42.667 -10 -71 -30 -85s-54 -21 -102 -21z" />
    <glyph glyph-name="H" unicode="H" horiz-adv-x="794" 
d="M713 0h-109v313h-413v-313h-110v722h110v-312h413v312h109v-722z" />
    <glyph glyph-name="I" unicode="I" horiz-adv-x="272" 
d="M191 0h-110v722h110v-722z" />
    <glyph glyph-name="J" unicode="J" horiz-adv-x="463" 
d="M251 0h-239v97h214c20.667 0 33.667 2.16699 39 6.5s8 13.833 8 28.5v590h110v-616c0 -42.667 -10 -71 -30 -85s-54 -21 -102 -21z" />
    <glyph glyph-name="K" unicode="K" horiz-adv-x="721" 
d="M719 0h-152l-376 310v-310h-110v722h110v-317l376 317h152l-438 -361z" />
    <glyph glyph-name="L" unicode="L" horiz-adv-x="608" 
d="M597 0h-516v722h110v-625h406v-97z" />
    <glyph glyph-name="M" unicode="M" horiz-adv-x="929" 
d="M848 0h-109v588l-204 -588h-131l-213 590v-590h-110v722h175l213 -583l204 583h175v-722z" />
    <glyph glyph-name="N" unicode="N" horiz-adv-x="758" 
d="M677 0h-139l-347 547v-547h-110v722h135l351 -553v553h110v-722z" />
    <glyph glyph-name="O" unicode="O" horiz-adv-x="791" 
d="M580 0h-370c-48 0 -82 7 -102 21s-30 42.333 -30 85v510c0 42.667 10 71 30 85s54 21 102 21h370c48 0 82 -7 102 -21s30 -42.333 30 -85v-510c0 -42.667 -10 -71 -30 -85s-54 -21 -102 -21zM602 132v457c0 14.667 -2.83301 24.167 -8.5 28.5s-18.5 6.5 -38.5 6.5h-320
c-20 0 -32.833 -2.16699 -38.5 -6.5s-8.5 -13.833 -8.5 -28.5v-457c0 -14.667 2.83301 -24.167 8.5 -28.5s18.5 -6.5 38.5 -6.5h320c20.667 0 33.667 2.16699 39 6.5s8 13.833 8 28.5z" />
    <glyph glyph-name="P" unicode="P" horiz-adv-x="719" 
d="M191 0h-110v722h454c48 0 82 -7 102 -21s30 -42.333 30 -85v-233c0 -42.667 -10 -71 -30 -85s-54 -21 -102 -21h-344v-277zM557 409v180c0 14.667 -2.83301 24.167 -8.5 28.5s-18.5 6.5 -38.5 6.5h-319v-250h319c20.667 0 33.667 2.16699 39 6.5s8 13.833 8 28.5z" />
    <glyph glyph-name="Q" unicode="Q" horiz-adv-x="791" 
d="M452 -138h-110v138h-132c-48 0 -82 7 -102 21s-30 42.333 -30 85v510c0 42.667 10 71 30 85s54 21 102 21h370c48 0 82 -7 102 -21s30 -42.333 30 -85v-510c0 -42.667 -10 -71 -30 -85s-54 -21 -102 -21h-128v-138zM602 132v457c0 14.667 -2.83301 24.167 -8.5 28.5
s-18.5 6.5 -38.5 6.5h-320c-20 0 -32.833 -2.16699 -38.5 -6.5s-8.5 -13.833 -8.5 -28.5v-457c0 -14.667 2.83301 -24.167 8.5 -28.5s18.5 -6.5 38.5 -6.5h320c20.667 0 33.667 2.16699 39 6.5s8 13.833 8 28.5z" />
    <glyph glyph-name="R" unicode="R" horiz-adv-x="728" 
d="M663 0h-115l-202 277h-155v-277h-110v722h454c48 0 82 -7 102 -21s30 -42.333 30 -85v-233c0 -42.667 -10 -71 -30 -85s-54 -21 -102 -21h-74zM557 409v180c0 14.667 -2.83301 24.167 -8.5 28.5s-18.5 6.5 -38.5 6.5h-319v-250h319c20.667 0 33.667 2.16699 39 6.5
s8 13.833 8 28.5z" />
    <glyph glyph-name="S" unicode="S" horiz-adv-x="736" 
d="M535 0h-333c-48 0 -82 7 -102 21s-30 42.333 -30 85v109h110v-83c0 -14.667 2.83301 -24.167 8.5 -28.5s18.5 -6.5 38.5 -6.5h283c20 0 32.833 2.16699 38.5 6.5s8.5 13.833 8.5 28.5v145c0 14.667 -2.83301 24.167 -8.5 28.5s-18.5 6.5 -38.5 6.5h-309
c-48 0 -82 7 -102 21s-30 42.333 -30 85v198c0 42.667 10 71 30 85s54 21 102 21h332c48 0 82 -7 102 -21s30 -42.333 30 -85v-109h-109v82c0 14.667 -3 24.167 -9 28.5s-18.667 6.5 -38 6.5h-284c-19.333 0 -32 -2.16699 -38 -6.5s-9 -13.833 -9 -28.5v-145
c0 -14.667 3 -24.167 9 -28.5s18.667 -6.5 38 -6.5h310c48 0 82 -7 102 -21s30 -42.333 30 -85v-197c0 -42.667 -10 -71 -30 -85s-54 -21 -102 -21z" />
    <glyph glyph-name="T" unicode="T" horiz-adv-x="620" 
d="M364 0h-110v624h-241v98h593v-98h-242v-624z" />
    <glyph glyph-name="U" unicode="U" horiz-adv-x="793" 
d="M581 0h-369c-48 0 -82 7 -102 21s-30 42.333 -30 85v616h110v-590c0 -14.667 2.83301 -24.167 8.5 -28.5s18.5 -6.5 38.5 -6.5h319c20.667 0 33.667 2.16699 39 6.5s8 13.833 8 28.5v590h110v-616c0 -42.667 -10 -71 -30 -85s-54 -21 -102 -21z" />
    <glyph glyph-name="V" unicode="V" horiz-adv-x="675" 
d="M407 0h-140l-243 722h117l196 -581l198 581h115z" />
    <glyph glyph-name="W" unicode="W" horiz-adv-x="1090" 
d="M844 0h-141l-159 559l-157 -559h-141l-218 722h117l171 -579l157 579h143l157 -579l173 579h116z" />
    <glyph glyph-name="X" unicode="X" horiz-adv-x="662" 
d="M649 0h-119l-199 275l-198 -275h-120l258 360l-259 362h119l200 -278l200 278h119l-260 -362z" />
    <glyph glyph-name="Y" unicode="Y" horiz-adv-x="740" 
d="M427 0h-110v299h-132c-48 0 -82 7 -102 21s-30 42.333 -30 85v317h110v-291c0 -14.667 2.83301 -24.167 8.5 -28.5s18.5 -6.5 38.5 -6.5h320c20.667 0 33.667 2.16699 39 6.5s8 13.833 8 28.5v291h110v-317c0 -42.667 -10 -71 -30 -85s-54 -21 -102 -21h-128v-299z" />
    <glyph glyph-name="Z" unicode="Z" horiz-adv-x="659" 
d="M617 0h-575v104l451 520h-451v98h576v-104l-448 -521h447v-97z" />
    <glyph glyph-name="bracketleft" unicode="[" horiz-adv-x="370" 
d="M336 -200h-254v922h254v-98h-142v-726h142v-98z" />
    <glyph glyph-name="backslash" unicode="\" horiz-adv-x="502" 
d="M480 -50h-117l-341 799h117z" />
    <glyph glyph-name="bracketright" unicode="]" horiz-adv-x="370" 
d="M288 -200h-254v98h142v726h-142v98h254v-922z" />
    <glyph glyph-name="asciicircum" unicode="^" horiz-adv-x="551" 
d="M519 407h-108l-137 179l-135 -179h-107l214 301h60z" />
    <glyph glyph-name="underscore" unicode="_" horiz-adv-x="739" 
d="M669 -49h-600v97h600v-97z" />
    <glyph glyph-name="grave" unicode="`" horiz-adv-x="390" 
d="M317 604l-201 102l63 80l183 -122z" />
    <glyph glyph-name="a" unicode="a" horiz-adv-x="679" 
d="M479 0h-292c-48 0 -82 7 -102 21s-30 42.333 -30 85v132c0 42.667 10 71 30 85s54 21 102 21h314v73c0 14.667 -2.83301 24.167 -8.5 28.5s-18.5 6.5 -38.5 6.5h-386v98h411c48 0 82 -7 102 -21s30 -42.333 30 -85v-338c0 -42.667 -10 -71 -30 -85s-54 -21 -102 -21z
M501 132v114h-290c-19.333 0 -32 -2.16699 -38 -6.5s-9 -13.833 -9 -28.5v-79c0 -14.667 3 -24.167 9 -28.5s18.667 -6.5 38 -6.5h243c20 0 32.833 2.16699 38.5 6.5s8.5 13.833 8.5 28.5z" />
    <glyph glyph-name="b" unicode="b" 
d="M493 0h-292c-48 0 -82 7 -102 21s-30 42.333 -30 85v694h110v-250h314c48 0 82 -7 102 -21s30 -42.333 30 -85v-338c0 -42.667 -10 -71 -30 -85s-54 -21 -102 -21zM515 132v285c0 14.667 -2.83301 24.167 -8.5 28.5s-18.5 6.5 -38.5 6.5h-289v-320
c0 -14.667 2.83301 -24.167 8.5 -28.5s18.5 -6.5 38.5 -6.5h242c20 0 32.833 2.16699 38.5 6.5s8.5 13.833 8.5 28.5z" />
    <glyph glyph-name="c" unicode="c" horiz-adv-x="602" 
d="M561 0h-361c-48 0 -82 7 -102 21s-30 42.333 -30 85v338c0 42.667 10 71 30 85s54 21 102 21h361v-98h-336c-20 0 -32.833 -2.16699 -38.5 -6.5s-8.5 -13.833 -8.5 -28.5v-285c0 -14.667 2.83301 -24.167 8.5 -28.5s18.5 -6.5 38.5 -6.5h336v-97z" />
    <glyph glyph-name="d" unicode="d" 
d="M492 0h-292c-48 0 -82 7 -102 21s-30 42.333 -30 85v338c0 42.667 10 71 30 85s54 21 102 21h314v250h110v-694c0 -42.667 -10 -71 -30 -85s-54 -21 -102 -21zM514 132v320h-289c-20 0 -32.833 -2.16699 -38.5 -6.5s-8.5 -13.833 -8.5 -28.5v-285
c0 -14.667 2.83301 -24.167 8.5 -28.5s18.5 -6.5 38.5 -6.5h242c20 0 32.833 2.16699 38.5 6.5s8.5 13.833 8.5 28.5z" />
    <glyph glyph-name="e" unicode="e" horiz-adv-x="676" 
d="M597 0h-397c-48 0 -82 7 -102 21s-30 42.333 -30 85v338c0 42.667 10 71 30 85s54 21 102 21h292c48 0 82 -7 102 -21s30 -42.333 30 -85v-125c0 -42.667 -10 -71 -30 -85s-54 -21 -102 -21h-314v-81c0 -16 4.5 -25.833 13.5 -29.5s31.167 -5.5 66.5 -5.5h339v-97z
M514 345v72c0 14.667 -2.83301 24.167 -8.5 28.5s-18.5 6.5 -38.5 6.5h-242c-20 0 -32.833 -2.16699 -38.5 -6.5s-8.5 -13.833 -8.5 -28.5v-107h289c20 0 32.833 2.16699 38.5 6.5s8.5 13.833 8.5 28.5z" />
    <glyph glyph-name="f" unicode="f" horiz-adv-x="458" 
d="M241 0h-110v453h-109v98h109v143c0 42.667 10 71 30 85s54 21 102 21h177v-98h-152c-20 0 -32.833 -2.16699 -38.5 -6.5s-8.5 -13.833 -8.5 -28.5v-116h199v-98h-199v-453z" />
    <glyph glyph-name="g" unicode="g" 
d="M492 -200h-393v97h368c20 0 32.833 2.16699 38.5 6.5s8.5 13.833 8.5 28.5v68h-314c-48 0 -82 7 -102 21s-30 42.333 -30 85v338c0 42.667 10 71 30 85s54 21 102 21h292c48 0 82 -7 102 -21s30 -42.333 30 -85v-538c0 -42.667 -10 -71 -30 -85s-54 -21 -102 -21zM514 97
v320c0 14.667 -2.83301 24.167 -8.5 28.5s-18.5 6.5 -38.5 6.5h-242c-20 0 -32.833 -2.16699 -38.5 -6.5s-8.5 -13.833 -8.5 -28.5v-285c0 -14.667 2.83301 -24.167 8.5 -28.5s18.5 -6.5 38.5 -6.5h289z" />
    <glyph glyph-name="h" unicode="h" horiz-adv-x="695" 
d="M626 0h-110v417c0 14.667 -2.83301 24.167 -8.5 28.5s-18.5 6.5 -38.5 6.5h-289v-452h-110v800h110v-250h314c48 0 82 -7 102 -21s30 -42.333 30 -85v-444z" />
    <glyph glyph-name="i" unicode="i" horiz-adv-x="315" 
d="M245 0h-109v452h-125v98h234v-550zM245 624h-109v98h109v-98z" />
    <glyph glyph-name="j" unicode="j" horiz-adv-x="316" 
d="M114 -200h-192v97h167c20 0 32.833 2.16699 38.5 6.5s8.5 13.833 8.5 28.5v520h-125v98h235v-644c0 -42.667 -10 -71 -30 -85s-54 -21 -102 -21zM246 624h-110v98h110v-98z" />
    <glyph glyph-name="k" unicode="k" horiz-adv-x="573" 
d="M554 0h-119l-168 224h-87v-224h-110v800h110v-479h84l176 229h119l-206 -277z" />
    <glyph glyph-name="l" unicode="l" horiz-adv-x="341" 
d="M329 0h-128c-48 0 -82 7 -102 21s-30 42.333 -30 85v694h110v-668c0 -14.667 2.83301 -24.167 8.5 -28.5s18.5 -6.5 38.5 -6.5h103v-97z" />
    <glyph glyph-name="m" unicode="m" horiz-adv-x="1056" 
d="M987 0h-109v417c0 14.667 -3 24.167 -9 28.5s-18.667 6.5 -38 6.5h-200c-20 0 -32.833 -2.16699 -38.5 -6.5s-8.5 -13.833 -8.5 -28.5v-417h-109v417c0 14.667 -2.83301 24.167 -8.5 28.5s-18.5 6.5 -38.5 6.5h-202c-20 0 -32.833 -2.16699 -38.5 -6.5
s-8.5 -13.833 -8.5 -28.5v-417h-110v444c0 42.667 10 71 30 85s54 21 102 21h227c25.333 0 46 -2.66699 62 -8s29 -16 39 -32c10 16 22.833 26.667 38.5 32s36.167 8 61.5 8h226c48 0 82 -7 102 -21s30 -42.333 30 -85v-444z" />
    <glyph glyph-name="n" unicode="n" horiz-adv-x="694" 
d="M625 0h-110v417c0 14.667 -2.83301 24.167 -8.5 28.5s-18.5 6.5 -38.5 6.5h-242c-20 0 -32.833 -2.16699 -38.5 -6.5s-8.5 -13.833 -8.5 -28.5v-417h-110v444c0 42.667 10 71 30 85s54 21 102 21h292c48 0 82 -7 102 -21s30 -42.333 30 -85v-444z" />
    <glyph glyph-name="o" unicode="o" horiz-adv-x="692" 
d="M492 0h-292c-48 0 -82 7 -102 21s-30 42.333 -30 85v338c0 42.667 10 71 30 85s54 21 102 21h292c48 0 82 -7 102 -21s30 -42.333 30 -85v-338c0 -42.667 -10 -71 -30 -85s-54 -21 -102 -21zM514 132v285c0 14.667 -2.83301 24.167 -8.5 28.5s-18.5 6.5 -38.5 6.5h-242
c-20 0 -32.833 -2.16699 -38.5 -6.5s-8.5 -13.833 -8.5 -28.5v-285c0 -14.667 2.83301 -24.167 8.5 -28.5s18.5 -6.5 38.5 -6.5h242c20 0 32.833 2.16699 38.5 6.5s8.5 13.833 8.5 28.5z" />
    <glyph glyph-name="p" unicode="p" 
d="M493 0h-314v-200h-110v644c0 42.667 10 71 30 85s54 21 102 21h292c48 0 82 -7 102 -21s30 -42.333 30 -85v-338c0 -42.667 -10 -71 -30 -85s-54 -21 -102 -21zM515 132v285c0 14.667 -2.83301 24.167 -8.5 28.5s-18.5 6.5 -38.5 6.5h-242
c-20 0 -32.833 -2.16699 -38.5 -6.5s-8.5 -13.833 -8.5 -28.5v-320h289c20 0 32.833 2.16699 38.5 6.5s8.5 13.833 8.5 28.5z" />
    <glyph glyph-name="q" unicode="q" 
d="M624 -200h-110v200h-314c-48 0 -82 7 -102 21s-30 42.333 -30 85v338c0 42.667 10 71 30 85s54 21 102 21h292c48 0 82 -7 102 -21s30 -42.333 30 -85v-644zM514 97v320c0 14.667 -2.83301 24.167 -8.5 28.5s-18.5 6.5 -38.5 6.5h-242c-20 0 -32.833 -2.16699 -38.5 -6.5
s-8.5 -13.833 -8.5 -28.5v-285c0 -14.667 2.83301 -24.167 8.5 -28.5s18.5 -6.5 38.5 -6.5h289z" />
    <glyph glyph-name="r" unicode="r" horiz-adv-x="488" 
d="M179 0h-110v444c0 42.667 10 71 30 85s54 21 102 21h270v-98h-245c-20 0 -32.833 -2.16699 -38.5 -6.5s-8.5 -13.833 -8.5 -28.5v-417z" />
    <glyph glyph-name="s" unicode="s" horiz-adv-x="622" 
d="M441 0h-363v97h338c20 0 32.833 2.16699 38.5 6.5s8.5 13.833 8.5 28.5v58c0 14.667 -2.83301 24.167 -8.5 28.5s-18.5 6.5 -38.5 6.5h-234c-48 0 -82 7 -102 21s-30 42.333 -30 85v113c0 42.667 10 71 30 85s54 21 102 21h361v-98h-337c-19.333 0 -32 -2.16699 -38 -6.5
s-9 -13.833 -9 -28.5v-60c0 -13.333 2.5 -22.5 7.5 -27.5s15.5 -7.5 31.5 -7.5h243c48 0 82 -7 102 -21s30 -42.333 30 -85v-110c0 -42.667 -10 -71 -30 -85s-54 -21 -102 -21z" />
    <glyph glyph-name="t" unicode="t" horiz-adv-x="413" 
d="M393 0h-129c-48 0 -82 7 -102 21s-30 42.333 -30 85v346h-109v98h109v206h110v-206h151v-98h-151v-320c0 -14.667 2.83301 -24.167 8.5 -28.5s18.5 -6.5 38.5 -6.5h104v-97z" />
    <glyph glyph-name="u" unicode="u" horiz-adv-x="694" 
d="M493 0h-292c-48 0 -82 7 -102 21s-30 42.333 -30 85v444h110v-418c0 -14.667 2.83301 -24.167 8.5 -28.5s18.5 -6.5 38.5 -6.5h242c20 0 32.833 2.16699 38.5 6.5s8.5 13.833 8.5 28.5v418h110v-444c0 -42.667 -10 -71 -30 -85s-54 -21 -102 -21z" />
    <glyph glyph-name="v" unicode="v" horiz-adv-x="581" 
d="M356 0h-130l-217 550h116l166 -433l167 433h113z" />
    <glyph glyph-name="w" unicode="w" horiz-adv-x="883" 
d="M693 0h-138l-114 424l-113 -424h-136l-176 550h116l127 -433l114 433h139l112 -433l129 433h113z" />
    <glyph glyph-name="x" unicode="x" horiz-adv-x="543" 
d="M523 0h-116l-136 191l-138 -191h-116l196 273l-197 277h116l139 -196l141 196h116l-200 -277z" />
    <glyph glyph-name="y" unicode="y" horiz-adv-x="578" 
d="M266 -200h-98l75 198l-240 552h116l176 -419l160 419h110z" />
    <glyph glyph-name="z" unicode="z" horiz-adv-x="592" 
d="M548 0h-504v105l365 347h-365v98h504v-106l-366 -347h366v-97z" />
    <glyph glyph-name="braceleft" unicode="{" horiz-adv-x="327" 
d="M286 -200l-54 -0.00195312c-48 0 -82 7 -102 21s-30 42.333 -30 85v269c0 14.667 -3.16699 24.334 -9.5 29.001s-18.5 7 -36.5 7h-24v102h24c18 0 30.167 2.33301 36.5 7s9.5 14.334 9.5 29.001v267c0 42.667 10 71 30 85s54 21 102 21h54v-98h-30
c-20 0 -32.833 -2.16699 -38.5 -6.5s-8.5 -13.833 -8.5 -28.5v-242c0 -22 -3.16699 -39.667 -9.5 -53s-19.5 -24 -39.5 -32c20 -8 33.167 -18.667 39.5 -32s9.5 -31 9.5 -53v-245c0 -14.667 2.83301 -24.167 8.5 -28.5s18.5 -6.5 38.5 -6.5h30v-97z" />
    <glyph glyph-name="bar" unicode="|" horiz-adv-x="274" 
d="M192 -200h-110v922h110v-922z" />
    <glyph glyph-name="braceright" unicode="}" horiz-adv-x="326" 
d="M95 -200l-55 0.00195312v97h30c20 0 32.833 2.16699 38.5 6.5s8.5 13.833 8.5 28.5v245c0 22 3.16699 39.667 9.5 53s19.5 24 39.5 32c-20 8 -33.167 18.667 -39.5 32s-9.5 31 -9.5 53v242c0 14.667 -2.83301 24.167 -8.5 28.5s-18.5 6.5 -38.5 6.5h-30v98h55
c48 0 82 -7 102 -21s30 -42.333 30 -85v-267c0 -14.667 3.16699 -24.334 9.5 -29.001s18.5 -7 36.5 -7h23v-102h-23c-18 0 -30.167 -2.33301 -36.5 -7s-9.5 -14.334 -9.5 -29.001v-269c0 -42.667 -10 -71 -30 -85s-54 -21 -102 -21z" />
    <glyph glyph-name="asciitilde" unicode="~" horiz-adv-x="640" 
d="M548 677l57.001 -26.999c-16.667 -39.333 -40.5 -73.333 -71.5 -102s-63.5 -43 -97.5 -43c-29.333 0 -70.333 12 -123 36s-93.667 36 -123 36c-22 0 -40.5 -4.83301 -55.5 -14.5s-31.5 -27.834 -49.5 -54.501l-47 37c22 42 47.167 74 75.5 96s55.166 33 80.499 33
c30 0 72.333 -11.333 127 -34s96.667 -34 126 -34c22 0 40.333 5.16699 55 15.5s30 28.833 46 55.5z" />
    <glyph glyph-name="nonbreakingspace" unicode="&#xa0;" horiz-adv-x="234" 
 />
    <glyph glyph-name="exclamdown" unicode="&#xa1;" horiz-adv-x="268" 
d="M188 -172h-109v546h109v-546zM188 447h-109v103h109v-103z" />
    <glyph glyph-name="cent" unicode="&#xa2;" horiz-adv-x="610" 
d="M556 86h-148v-86h-95v86h-118c-48 0 -82 7 -102 21s-30 42.333 -30 85v338c0 42.667 10 71 30 85s54 21 102 21h118v86h95v-86h148v-98h-148v-355h148v-97zM313 183v355h-93c-20 0 -32.833 -2.16699 -38.5 -6.5s-8.5 -13.833 -8.5 -28.5v-285
c0 -14.667 2.83301 -24.167 8.5 -28.5s18.5 -6.5 38.5 -6.5h93z" />
    <glyph glyph-name="sterling" unicode="&#xa3;" 
d="M659 0h-600v97h78v96h-78v87h78v73h-78v87h78v176c0 42.667 10 71 30 85s54 21 102 21h189c48 0 82 -7 102 -21s30 -42.333 30 -85v-109h-110v82c0 14.667 -2.83301 24.167 -8.5 28.5s-18.5 6.5 -38.5 6.5h-140c-19.333 0 -32 -2.16699 -38 -6.5s-9 -13.833 -9 -28.5
v-149h289v-87h-289v-73h289v-87h-289v-96h413v-97z" />
    <glyph glyph-name="yen" unicode="&#xa5;" horiz-adv-x="764" 
d="M695 99h-257v-99h-109v99h-258v101h258v99h-133c-48 0 -82 7 -102 21s-30 42.333 -30 85v317h110v-291c0 -14.667 2.83301 -24.167 8.5 -28.5s18.5 -6.5 38.5 -6.5h320c20.667 0 33.667 2.16699 39 6.5s8 13.833 8 28.5v291h110v-317c0 -42.667 -10 -71 -30 -85
s-54 -21 -102 -21h-128v-99h257v-101z" />
    <glyph glyph-name="brokenbar" unicode="&#xa6;" horiz-adv-x="252" 
d="M181 -200h-110v362h110v-362zM181 360h-110v362h110v-362z" />
    <glyph glyph-name="section" unicode="&#xa7;" horiz-adv-x="641" 
d="M367 -141h-243.001v98h233c21.333 0 32 6.66699 32 20v95c0 13.333 -10.667 20 -32 20h-177c-48 0 -82 7 -102 21s-30 42.333 -30 85v133c0 41.333 9.83301 69.166 29.5 83.499s53.5 21.833 101.5 22.5c-7.33301 14.667 -11 39.667 -11 75v47c0 42.667 10 71 30 85
s54 21 102 21h217v-98h-207c-22 0 -33 -6.66699 -33 -20v-75c0 -12 2.33301 -20.833 7 -26.5s13.334 -8.5 26.001 -8.5h153c48 0 82 -7 102 -21s30 -42.333 30 -85v-133c0 -40 -8.5 -67.333 -25.5 -82s-44.5 -22.667 -82.5 -24c8 -11.333 12 -39.666 12 -84.999v-42
c0 -42.667 -10 -71 -30 -85s-54 -21 -102 -21zM484.999 225v80c0 14.667 -2.83301 24.167 -8.5 28.5s-18.5 6.5 -38.5 6.5h-234c-19.333 0 -32 -2.16699 -38 -6.5s-9 -13.833 -9 -28.5v-80c0 -13.333 2.5 -22.5 7.5 -27.5s15.5 -7.5 31.5 -7.5h242
c20 0 32.833 2.16699 38.5 6.5s8.5 13.833 8.5 28.5z" />
    <glyph glyph-name="dieresis" unicode="&#xa8;" horiz-adv-x="601" 
d="M258 600h-109v103h109v-103zM451 600h-109v103h109v-103z" />
    <glyph glyph-name="copyright" unicode="&#xa9;" horiz-adv-x="895" 
d="M448 -7c-112 0 -207.999 33.333 -287.999 100s-120 146.667 -120 240c0 95.333 40 176 120 242s177.667 99 293 99c109.333 0 203.666 -33.667 282.999 -101s119 -147.333 119 -240c0 -93.333 -39.833 -173.333 -119.5 -240s-175.5 -100 -287.5 -100zM448.001 65
c90 0 167 26.167 231 78.5s96 115.5 96 189.5c0 73.333 -31.833 136.5 -95.5 189.5s-139.5 79.5 -227.5 79.5c-92.667 0 -171.167 -26 -235.5 -78s-96.5 -115.667 -96.5 -191c0 -74 32 -137.167 96 -189.5s141.333 -78.5 232 -78.5zM507.001 140h-117c-48 0 -82 7 -102 21
s-30 42.333 -30 85v180c0 42.667 10 71 30 85s54 21 102 21h117c48 0 82 -7 102 -21s30 -42.333 30 -85v-49h-95v38c0 14.667 -3 24.167 -9 28.5s-18.667 6.5 -38 6.5h-96c-20 0 -32.833 -2.16699 -38.5 -6.5s-8.5 -13.833 -8.5 -28.5v-158
c0 -14.667 2.83301 -24.167 8.5 -28.5s18.5 -6.5 38.5 -6.5h96c20 0 32.833 2.16699 38.5 6.5s8.5 13.5 8.5 27.5v39h95v-49c0 -42.667 -10 -71 -30 -85s-54 -21 -102 -21z" />
    <glyph glyph-name="ordfeminine" unicode="&#xaa;" horiz-adv-x="460" 
d="M389 166h-319v88h319v-88zM280 333h-100c-48 0 -82 7 -102 21s-30 42.333 -30 85v32c0 42.667 10 71 30 85s54 21 102 21h136v28c0 16 -4.33301 25.833 -13 29.5s-31 5.5 -67 5.5h-127v82h171c48 0 82 -7 102 -21s30 -42.333 30 -85v-177c0 -42.667 -10 -71 -30 -85
s-54 -21 -102 -21zM316 450l-0.000976562 52h-107c-33.333 0 -53.833 -1.83301 -61.5 -5.5s-11.5 -13.5 -11.5 -29.5v-17c0 -13.333 2.83301 -22.5 8.5 -27.5s17.834 -7.5 36.501 -7.5h61c32.667 0 53.167 1.83301 61.5 5.5s12.5 13.5 12.5 29.5z" />
    <glyph glyph-name="guillemotleft" unicode="&#xab;" horiz-adv-x="537" 
d="M499 78l-86 -50l-158 250l143 247l87 -48l-115 -199zM272 78l-86 -50l-158 250l143 247l88 -48l-115 -199z" />
    <glyph glyph-name="logicalnot" unicode="&#xac;" horiz-adv-x="713" 
d="M638 100h-109v181h-475v97h584v-278z" />
    <glyph glyph-name="uni00AD" unicode="&#xad;" horiz-adv-x="443" 
d="M381 221h-319v97h319v-97z" />
    <glyph glyph-name="registered" unicode="&#xae;" horiz-adv-x="895" 
d="M448 -7c-112 0 -207.999 33.333 -287.999 100s-120 146.667 -120 240c0 95.333 40 176 120 242s177.667 99 293 99c109.333 0 203.666 -33.667 282.999 -101s119 -147.333 119 -240c0 -93.333 -39.833 -173.333 -119.5 -240s-175.5 -100 -287.5 -100zM448.001 65
c90 0 167 26.167 231 78.5s96 115.5 96 189.5c0 73.333 -31.833 136.5 -95.5 189.5s-139.5 79.5 -227.5 79.5c-92.667 0 -171.167 -26 -235.5 -78s-96.5 -115.667 -96.5 -191c0 -74 32 -137.167 96 -189.5s141.333 -78.5 232 -78.5zM629.001 147l-102 -0.000976562l-91 123
h-73v-123h-95v380h234c48 0 82 -7 102 -21s30 -42.333 30 -85v-45c0 -34.667 -7.66699 -59.667 -23 -75s-40.333 -24.666 -75 -27.999zM538.001 386.999v22c0 14.667 -2.83301 24.167 -8.5 28.5s-18.5 6.5 -38.5 6.5h-128v-91h128c20.667 0 33.667 2 39 6s8 13.333 8 28z
" />
    <glyph glyph-name="macron" unicode="&#xaf;" horiz-adv-x="600" 
d="M472 609h-345v93h345v-93z" />
    <glyph glyph-name="degree" unicode="&#xb0;" horiz-adv-x="332" 
d="M288 645c0 -36 -9.66699 -60.833 -29 -74.5s-49.333 -20.5 -90 -20.5c-44 0 -75.833 6.83301 -95.5 20.5s-29.5 38.5 -29.5 74.5s10 60.833 30 74.5s51.667 20.5 95 20.5c40.667 0 70.667 -6.83301 90 -20.5s29 -38.5 29 -74.5zM210 645
c0 10.667 -3.33203 18.333 -9.99902 23s-18 7 -34 7c-30 0 -45 -10 -45 -30c0 -10.667 3.16699 -18.334 9.5 -23.001s18.166 -7 35.499 -7c16 0 27.333 2.33301 34 7s10 12.334 10 23.001z" />
    <glyph glyph-name="plusminus" unicode="&#xb1;" horiz-adv-x="594" 
d="M351 150h-109v145h-180v102h180v145h109v-145h181v-102h-181v-145zM532 7h-470v103h470v-103z" />
    <glyph glyph-name="twosuperior" unicode="&#xb2;" horiz-adv-x="364" 
d="M324 478l-281.999 0.000976562v76l162 123c25.333 20 38 48.333 38 85c0 11.333 -2.83301 19.166 -8.5 23.499s-15.834 6.5 -30.501 6.5h-57c-14.667 0 -24.5 -2 -29.5 -6s-7.5 -11 -7.5 -21v-37h-75v27c0 47.333 7.66699 77 23 89s48.333 18 99 18h42
c30 0 51.333 -0.5 64 -1.5s24.5 -5 35.5 -12s17.833 -17.333 20.5 -31s4 -33.5 4 -59.5c0 -34 -4.5 -59.833 -13.5 -77.5s-28.833 -37.5 -59.5 -59.5l-104 -73h179v-70z" />
    <glyph glyph-name="threesuperior" unicode="&#xb3;" horiz-adv-x="386" 
d="M228 478l-81 -0.00390625c-40.667 0 -69.167 6.33301 -85.5 19s-24.5 35.334 -24.5 68.001v32h84v-21c0 -10 2.16699 -16.667 6.5 -20s14.5 -5 30.5 -5h59c16 0 26.167 1.83301 30.5 5.5s6.5 10.167 6.5 19.5v34c0 10.667 -2.66699 17.334 -8 20.001s-18 4 -38 4h-70v71
h78c16 0 26.333 1.66699 31 5s7 10 7 20v33c0 10 -2.33301 16.667 -7 20s-14.667 5 -30 5h-59c-15.333 0 -25.333 -1.66699 -30 -5s-7 -10 -7 -20v-21h-84v37c0 18 3.33301 32.833 10 44.5s17 20.167 31 25.5s28 8.83301 42 10.5s31.667 2.5 53 2.5h42
c78 0 118.667 -25.333 122 -76c0.666992 -7.33301 1 -18.333 1 -33c0 -27.333 -2.66699 -46.666 -8 -57.999s-17 -20 -35 -26c16 -5.33301 27.167 -13.166 33.5 -23.499s9.5 -25.833 9.5 -46.5v-26c0 -63.333 -36.667 -95 -110 -95z" />
    <glyph glyph-name="acute" unicode="&#xb4;" horiz-adv-x="445" 
d="M428 705l-200 -102l-45 60l183 121z" />
    <glyph glyph-name="micro" unicode="&#xb5;" horiz-adv-x="717" 
d="M504 0h-314v-200h-110v750h110v-453h289c20 0 32.833 2.16699 38.5 6.5s8.5 13.833 8.5 28.5v418h110v-444c0 -42.667 -10 -71 -30 -85s-54 -21 -102 -21z" />
    <glyph glyph-name="paragraph" unicode="&#xb6;" horiz-adv-x="715" 
d="M634 -172h-110v624h-92v-624h-110v277h-142c-48 0 -82 7 -102 21s-30 42.333 -30 85v233c0 42.667 10 71 30 85s54 21 102 21h454v-722z" />
    <glyph glyph-name="periodcentered" unicode="&#xb7;" horiz-adv-x="235" 
d="M171 287h-108v104h108v-104z" />
    <glyph glyph-name="cedilla" unicode="&#xb8;" horiz-adv-x="677" 
d="M348 -196l-30 0.000976562c-37.333 0 -63.166 4.16699 -77.499 12.5s-21.5 27.833 -21.5 58.5v22h55v-6c0 -11.333 2.66699 -19.833 8 -25.5s16.666 -8.5 33.999 -8.5h32c27.333 0 41 9.66699 41 29c0 9.33301 -0.5 16.166 -1.5 20.499s-4.66699 8.33301 -11 12
s-15.833 5.5 -28.5 5.5h-59v85h55v-33h11c34 0 57.333 -5.83301 70 -17.5s19 -34.5 19 -68.5c0 -32 -8 -54.333 -24 -67s-40 -19 -72 -19z" />
    <glyph glyph-name="onesuperior" unicode="&#xb9;" horiz-adv-x="346" 
d="M330 478h-298v77h105v230h-105v77h193v-307h105v-77z" />
    <glyph glyph-name="ordmasculine" unicode="&#xba;" horiz-adv-x="462" 
d="M281 332h-100c-48 0 -82 7 -102 21s-30 42.333 -30 85v178c0 42.667 10 71 30 85s54 21 102 21h100c48 0 82 -7 102 -21s30 -42.333 30 -85v-178c0 -42.667 -10 -71 -30 -85s-54 -21 -102 -21zM317 449v155c0 14.667 -2.83301 24.167 -8.5 28.5s-18.5 6.5 -38.5 6.5h-79
c-20 0 -32.833 -2.16699 -38.5 -6.5s-8.5 -13.833 -8.5 -28.5v-155c0 -14.667 2.83301 -24.167 8.5 -28.5s18.5 -6.5 38.5 -6.5h79c20 0 32.833 2.16699 38.5 6.5s8.5 13.833 8.5 28.5zM390 165h-319v88h319v-88z" />
    <glyph glyph-name="guillemotright" unicode="&#xbb;" horiz-adv-x="537" 
d="M123 28l-85 50l128 200l-115 199l88 48l143 -247zM350 28l-85 50l128 200l-115 199l88 48l143 -247z" />
    <glyph glyph-name="onequarter" unicode="&#xbc;" horiz-adv-x="884" 
d="M345 338h-298v77h105v230h-105v77h193v-307h105v-77zM825 0h-82v103h-240v75l150 206h95l-154 -211h149v91h82v-264zM242 0h-110l585 722h114z" />
    <glyph glyph-name="onehalf" unicode="&#xbd;" horiz-adv-x="945" 
d="M897 0h-280.999v76l162 123c12 9.33301 21 20 27 32s9.16699 20.833 9.5 26.5s0.5 14.5 0.5 26.5c0 11.333 -2.83301 19.166 -8.5 23.499s-15.834 6.5 -30.501 6.5h-56c-14.667 0 -24.5 -2 -29.5 -6s-7.5 -11 -7.5 -21v-37h-76v33c0 8.66699 0.666992 21 2 37
c4.66699 42.667 40.334 64 107.001 64h42c18.667 0 34.5 -0.666992 47.5 -2s26.667 -4.16602 41 -8.49902s25.5 -11.5 33.5 -21.5s12.667 -23 14 -39c0.666992 -7.33301 1 -18.333 1 -33c0 -34 -4.33301 -59.833 -13 -77.5s-28.334 -37.5 -59.001 -59.5l-104 -73h178v-70z
M345.001 338h-298v77h105v230h-105v77h193v-307h105v-77zM247.001 0h-110l586 722h113z" />
    <glyph glyph-name="threequarters" unicode="&#xbe;" horiz-adv-x="880" 
d="M821 0h-81v103h-240v75l150 206h95l-154 -211h149v91h81v-264zM237 0h-109l585 722h113zM239 338l-81 -0.00488281c-40.667 0 -69.167 6.33301 -85.5 19s-24.5 35.334 -24.5 68.001v32h84v-21c0 -10 2.16699 -16.667 6.5 -20s14.5 -5 30.5 -5h59
c16 0 26.167 1.83301 30.5 5.5s6.5 10.167 6.5 19.5v34c0 10.667 -2.66699 17.334 -8 20.001s-18 4 -38 4h-70v71h78c16 0 26.333 1.66699 31 5s7 10 7 20v33c0 10 -2.33301 16.667 -7 20s-14.667 5 -30 5h-59c-15.333 0 -25.333 -1.66699 -30 -5s-7 -10 -7 -20v-21h-84v37
c0 18 3.33301 32.833 10 44.5s17 20.167 31 25.5s28 8.83301 42 10.5s31.667 2.5 53 2.5h42c78 0 118.667 -25.333 122 -76c0 -4 0.166992 -9.66699 0.5 -17s0.5 -12.666 0.5 -15.999c0 -27.333 -2.66699 -46.666 -8 -57.999s-17 -20 -35 -26
c16 -5.33301 27.167 -13.166 33.5 -23.499s9.5 -25.833 9.5 -46.5v-26c0 -63.333 -36.667 -95 -110 -95z" />
    <glyph glyph-name="questiondown" unicode="&#xbf;" horiz-adv-x="655" 
d="M482 -172h-297c-48 0 -82 7 -102 21s-30 42.333 -30 85v241c0 42.667 10 71 30 85s54 21 102 21h175v93h111v-191h-261c-20 0 -32.833 -2.16699 -38.5 -6.5s-8.5 -13.833 -8.5 -28.5v-188c0 -14.667 2.83301 -24.167 8.5 -28.5s18.5 -6.5 38.5 -6.5h247
c20 0 32.833 2.16699 38.5 6.5s8.5 13.833 8.5 28.5v84h110v-110c0 -42.667 -10 -71 -30 -85s-54 -21 -102 -21zM470 447h-110v103h110v-103z" />
    <glyph glyph-name="Agrave" unicode="&#xc0;" horiz-adv-x="757" 
d="M677 0h-110v259h-377v-259h-110v616c0 42.667 10 71 30 85s54 21 102 21h333c48 0 82 -7 102 -21s30 -42.333 30 -85v-616zM567 356v233c0 14.667 -2.83301 24.167 -8.5 28.5s-18.5 6.5 -38.5 6.5h-283c-20 0 -32.833 -2.16699 -38.5 -6.5s-8.5 -13.833 -8.5 -28.5v-233
h377zM433 776l-201 102l63 80l183 -122z" />
    <glyph glyph-name="Aacute" unicode="&#xc1;" horiz-adv-x="757" 
d="M677 0h-110v259h-377v-259h-110v616c0 42.667 10 71 30 85s54 21 102 21h333c48 0 82 -7 102 -21s30 -42.333 30 -85v-616zM567 356v233c0 14.667 -2.83301 24.167 -8.5 28.5s-18.5 6.5 -38.5 6.5h-283c-20 0 -32.833 -2.16699 -38.5 -6.5s-8.5 -13.833 -8.5 -28.5v-233
h377zM568 877l-201 -102l-45 60l183 121z" />
    <glyph glyph-name="Acircumflex" unicode="&#xc2;" horiz-adv-x="757" 
d="M677 0h-110v259h-377v-259h-110v616c0 42.667 10 71 30 85s54 21 102 21h333c48 0 82 -7 102 -21s30 -42.333 30 -85v-616zM567 356v233c0 14.667 -2.83301 24.167 -8.5 28.5s-18.5 6.5 -38.5 6.5h-283c-20 0 -32.833 -2.16699 -38.5 -6.5s-8.5 -13.833 -8.5 -28.5v-233
h377zM495 774l-117 68l-119 -68l-46 59l156 103h18l155 -103z" />
    <glyph glyph-name="Atilde" unicode="&#xc3;" horiz-adv-x="757" 
d="M677 0h-110v259h-377v-259h-110v616c0 42.667 10 71 30 85s54 21 102 21h333c48 0 82 -7 102 -21s30 -42.333 30 -85v-616zM567 356v233c0 14.667 -2.83301 24.167 -8.5 28.5s-18.5 6.5 -38.5 6.5h-283c-20 0 -32.833 -2.16699 -38.5 -6.5s-8.5 -13.833 -8.5 -28.5v-233
h377zM505 895l59.001 -44c-25.333 -55.333 -63.333 -83 -114 -83c-16 0 -37.833 6 -65.5 18s-45.5 19 -53.5 21c-11.333 3.33301 -20 5 -26 5c-18 -1.33301 -33.667 -14 -47 -38l-67 32c16 31.333 35.167 54.333 57.5 69s44.166 22 65.499 22c22 0 46.5 -7.5 73.5 -22.5
s48.167 -22.5 63.5 -22.5c14.667 0 32.667 14.333 54 43z" />
    <glyph glyph-name="Adieresis" unicode="&#xc4;" horiz-adv-x="757" 
d="M677 0h-110v259h-377v-259h-110v616c0 42.667 10 71 30 85s54 21 102 21h333c48 0 82 -7 102 -21s30 -42.333 30 -85v-616zM567 356v233c0 14.667 -2.83301 24.167 -8.5 28.5s-18.5 6.5 -38.5 6.5h-283c-20 0 -32.833 -2.16699 -38.5 -6.5s-8.5 -13.833 -8.5 -28.5v-233
h377zM335 772h-108v103h108v-103zM528 772h-108v103h108v-103z" />
    <glyph glyph-name="Aring" unicode="&#xc5;" horiz-adv-x="757" 
d="M677 0h-110v259h-377v-259h-110v616c0 42.667 10 71 30 85s54 21 102 21h333c48 0 82 -7 102 -21s30 -42.333 30 -85v-616zM567 356v233c0 14.667 -2.83301 24.167 -8.5 28.5s-18.5 6.5 -38.5 6.5h-283c-20 0 -32.833 -2.16699 -38.5 -6.5s-8.5 -13.833 -8.5 -28.5v-233
h377zM379 752c-29.333 0 -53.167 7.66895 -71.5 23.002s-27.5 35.666 -27.5 60.999c0 24.667 9.33301 44.834 28 60.501s42.667 23.5 72 23.5c28 0 51.167 -7.83301 69.5 -23.5s27.5 -35.834 27.5 -60.501s-9.16699 -44.834 -27.5 -60.501s-41.833 -23.5 -70.5 -23.5z
M378.999 807.002c10.667 0 19.5 2.66699 26.5 8s10.5 12.333 10.5 21c0 8 -3.5 14.667 -10.5 20s-15.833 8 -26.5 8c-11.333 0 -20.666 -2.5 -27.999 -7.5s-11 -11.833 -11 -20.5s3.66699 -15.667 11 -21s16.666 -8 27.999 -8z" />
    <glyph glyph-name="AE" unicode="&#xc6;" horiz-adv-x="1148" 
d="M1107 0h-540v305h-377v-305h-110v616c0 42.667 10 71 30 85s54 21 102 21h895v-98h-430v-222h352v-97h-352v-208h430v-97zM567 402v222h-330c-20 0 -32.833 -2.16699 -38.5 -6.5s-8.5 -13.833 -8.5 -28.5v-187h377z" />
    <glyph glyph-name="Ccedilla" unicode="&#xc7;" horiz-adv-x="733" 
d="M392 -196l-39.999 0.000976562c-32 0 -54.833 4.66699 -68.5 14s-20.5 28.333 -20.5 57v22h55v-6c0 -11.333 2.66699 -19.833 8 -25.5s16.666 -8.5 33.999 -8.5h32c16.667 0 27.667 2.83301 33 8.5s8 14.167 8 25.5s-2.66699 19.666 -8 24.999s-16.333 8 -33 8h-60v76
h-122c-48 0 -82 7 -102 21s-30 42.333 -30 85v510c0 42.667 10 71 30 85s54 21 102 21h333c48 0 82 -7 102 -21s30 -42.333 30 -85v-109h-110v82c0 16 -3.66699 25.833 -11 29.5s-25.333 5.5 -54 5.5h-265c-20 0 -32.833 -2.16699 -38.5 -6.5s-8.5 -13.833 -8.5 -28.5v-457
c0 -16 3.66699 -25.833 11 -29.5s25.333 -5.5 54 -5.5h265c20.667 0 33.667 2.16699 39 6.5s8 13.833 8 28.5v83h110v-109c0 -42.667 -10 -71 -30 -85s-54 -21 -102 -21h-156v-24h12c34 0 57.333 -6 70 -18s19 -34.667 19 -68c0 -32 -8 -54.333 -24 -67s-40 -19 -72 -19z
" />
    <glyph glyph-name="Egrave" unicode="&#xc8;" horiz-adv-x="663" 
d="M621 0h-540v722h540v-98h-430v-214h352v-97h-352v-216h430v-97zM407 776l-201 102l63 80l184 -122z" />
    <glyph glyph-name="Eacute" unicode="&#xc9;" horiz-adv-x="663" 
d="M621 0h-540v722h540v-98h-430v-214h352v-97h-352v-216h430v-97zM517 877l-200 -102l-45 60l183 121z" />
    <glyph glyph-name="Ecircumflex" unicode="&#xca;" horiz-adv-x="663" 
d="M621 0h-540v722h540v-98h-430v-214h352v-97h-352v-216h430v-97zM488 774l-117 68l-119 -68l-46 59l157 103h17l155 -103z" />
    <glyph glyph-name="Edieresis" unicode="&#xcb;" horiz-adv-x="663" 
d="M621 0h-540v722h540v-98h-430v-214h352v-97h-352v-216h430v-97zM323 772h-108v103h108v-103zM516 772h-108v103h108v-103z" />
    <glyph glyph-name="Igrave" unicode="&#xcc;" horiz-adv-x="272" 
d="M191 0h-110v722h110v-722zM166 776l-201 102l63 80l184 -122z" />
    <glyph glyph-name="Iacute" unicode="&#xcd;" horiz-adv-x="271" 
d="M191 0h-110v722h110v-722zM300 877l-201 -102l-44 60l183 121z" />
    <glyph glyph-name="Icircumflex" unicode="&#xce;" horiz-adv-x="271" 
d="M191 0h-110v722h110v-722zM253 774l-117 68l-119 -68l-46 59l155 103h18l156 -103z" />
    <glyph glyph-name="Idieresis" unicode="&#xcf;" horiz-adv-x="271" 
d="M190 0h-109v722h109v-722zM93 772h-108v103h108v-103zM286 772h-108v103h108v-103z" />
    <glyph glyph-name="Eth" unicode="&#xd0;" horiz-adv-x="789" 
d="M579 0h-486v309h-78v102h78v311h486c48 0 82 -7 102 -21s30 -42.333 30 -85v-510c0 -42.667 -10 -71 -30 -85s-54 -21 -102 -21zM601 132v457c0 14.667 -2.83301 24.167 -8.5 28.5s-18.5 6.5 -38.5 6.5h-352v-213h180v-102h-180v-212h352c20.667 0 33.667 2.16699 39 6.5
s8 13.833 8 28.5z" />
    <glyph glyph-name="Ntilde" unicode="&#xd1;" horiz-adv-x="758" 
d="M506 895l59.002 -44c-13.333 -30 -30.333 -51.333 -51 -64s-41.667 -19 -63 -19c-16 0 -38.333 6 -67 18s-46.334 19 -53.001 21c-15.333 3.33301 -23.666 5 -24.999 5c-16.667 -1.33301 -32.334 -14 -47.001 -38l-67 32c16 31.333 35.167 54.333 57.5 69
s44.166 22 65.499 22c22 0 46.5 -7.5 73.5 -22.5s48.167 -22.5 63.5 -22.5s33.333 14.333 54 43zM677.002 0h-139l-347 547v-547h-110v722h135l351 -553v553h110v-722z" />
    <glyph glyph-name="Ograve" unicode="&#xd2;" horiz-adv-x="791" 
d="M580 0h-370c-48 0 -82 7 -102 21s-30 42.333 -30 85v510c0 42.667 10 71 30 85s54 21 102 21h370c48 0 82 -7 102 -21s30 -42.333 30 -85v-510c0 -42.667 -10 -71 -30 -85s-54 -21 -102 -21zM602 132v457c0 14.667 -2.83301 24.167 -8.5 28.5s-18.5 6.5 -38.5 6.5h-320
c-20 0 -32.833 -2.16699 -38.5 -6.5s-8.5 -13.833 -8.5 -28.5v-457c0 -14.667 2.83301 -24.167 8.5 -28.5s18.5 -6.5 38.5 -6.5h320c20.667 0 33.667 2.16699 39 6.5s8 13.833 8 28.5zM447 776l-201 102l63 80l184 -122z" />
    <glyph glyph-name="Oacute" unicode="&#xd3;" horiz-adv-x="791" 
d="M580 0h-370c-48 0 -82 7 -102 21s-30 42.333 -30 85v510c0 42.667 10 71 30 85s54 21 102 21h370c48 0 82 -7 102 -21s30 -42.333 30 -85v-510c0 -42.667 -10 -71 -30 -85s-54 -21 -102 -21zM602 132v457c0 14.667 -2.83301 24.167 -8.5 28.5s-18.5 6.5 -38.5 6.5h-320
c-20 0 -32.833 -2.16699 -38.5 -6.5s-8.5 -13.833 -8.5 -28.5v-457c0 -14.667 2.83301 -24.167 8.5 -28.5s18.5 -6.5 38.5 -6.5h320c20.667 0 33.667 2.16699 39 6.5s8 13.833 8 28.5zM579 877l-200 -102l-45 60l183 121z" />
    <glyph glyph-name="Ocircumflex" unicode="&#xd4;" horiz-adv-x="791" 
d="M580 0h-370c-48 0 -82 7 -102 21s-30 42.333 -30 85v510c0 42.667 10 71 30 85s54 21 102 21h370c48 0 82 -7 102 -21s30 -42.333 30 -85v-510c0 -42.667 -10 -71 -30 -85s-54 -21 -102 -21zM602 132v457c0 14.667 -2.83301 24.167 -8.5 28.5s-18.5 6.5 -38.5 6.5h-320
c-20 0 -32.833 -2.16699 -38.5 -6.5s-8.5 -13.833 -8.5 -28.5v-457c0 -14.667 2.83301 -24.167 8.5 -28.5s18.5 -6.5 38.5 -6.5h320c20.667 0 33.667 2.16699 39 6.5s8 13.833 8 28.5zM512 774l-117 61l-119 -61l-46 59l155 102l19 1l155 -103z" />
    <glyph glyph-name="Otilde" unicode="&#xd5;" horiz-adv-x="791" 
d="M580 0h-370c-48 0 -82 7 -102 21s-30 42.333 -30 85v510c0 42.667 10 71 30 85s54 21 102 21h370c48 0 82 -7 102 -21s30 -42.333 30 -85v-510c0 -42.667 -10 -71 -30 -85s-54 -21 -102 -21zM602 132v457c0 14.667 -2.83301 24.167 -8.5 28.5s-18.5 6.5 -38.5 6.5h-320
c-20 0 -32.833 -2.16699 -38.5 -6.5s-8.5 -13.833 -8.5 -28.5v-457c0 -14.667 2.83301 -24.167 8.5 -28.5s18.5 -6.5 38.5 -6.5h320c20.667 0 33.667 2.16699 39 6.5s8 13.833 8 28.5zM523 895l58.999 -44c-25.333 -55.333 -63.666 -83 -114.999 -83
c-16 0 -37.833 6 -65.5 18s-45.5 19 -53.5 21c-11.333 3.33301 -20 5 -26 5c-17.333 -1.33301 -32.666 -14 -45.999 -38l-68 32c32 60.667 73.333 91 124 91c22 0 46.333 -7.5 73 -22.5s47.667 -22.5 63 -22.5s33.666 14.333 54.999 43z" />
    <glyph glyph-name="Odieresis" unicode="&#xd6;" horiz-adv-x="791" 
d="M580 0h-370c-48 0 -82 7 -102 21s-30 42.333 -30 85v510c0 42.667 10 71 30 85s54 21 102 21h370c48 0 82 -7 102 -21s30 -42.333 30 -85v-510c0 -42.667 -10 -71 -30 -85s-54 -21 -102 -21zM602 132v457c0 14.667 -2.83301 24.167 -8.5 28.5s-18.5 6.5 -38.5 6.5h-320
c-20 0 -32.833 -2.16699 -38.5 -6.5s-8.5 -13.833 -8.5 -28.5v-457c0 -14.667 2.83301 -24.167 8.5 -28.5s18.5 -6.5 38.5 -6.5h320c20.667 0 33.667 2.16699 39 6.5s8 13.833 8 28.5zM352 772h-108v103h108v-103zM545 772h-108v103h108v-103z" />
    <glyph glyph-name="multiply" unicode="&#xd7;" horiz-adv-x="511" 
d="M382 92l-127 102l-127 -102l-78 73l128 102l-128 102l78 73l127 -103l127 103l78 -73l-127 -102l127 -102z" />
    <glyph glyph-name="Oslash" unicode="&#xd8;" horiz-adv-x="791" 
d="M580 0h-247l-21 -72h-92l21 72h-31c-48 0 -82 7 -102 21s-30 42.333 -30 85v510c0 42.667 10 71 30 85s54 21 102 21h243l22 73h92l-22 -73h35c48 0 82 -7 102 -21s30 -42.333 30 -85v-510c0 -42.667 -10 -71 -30 -85s-54 -21 -102 -21zM602 132v457
c0 14.667 -2.83301 24.167 -8.5 28.5s-18.5 6.5 -38.5 6.5h-39l-155 -527h194c20.667 0 33.667 2.16699 39 6.5s8 13.833 8 28.5zM270 97l154 527h-189c-20 0 -32.833 -2.16699 -38.5 -6.5s-8.5 -13.833 -8.5 -28.5v-457c0 -14.667 2.83301 -24.167 8.5 -28.5
s18.5 -6.5 38.5 -6.5h35z" />
    <glyph glyph-name="Ugrave" unicode="&#xd9;" horiz-adv-x="793" 
d="M581 0h-369c-48 0 -82 7 -102 21s-30 42.333 -30 85v616h110v-590c0 -14.667 2.83301 -24.167 8.5 -28.5s18.5 -6.5 38.5 -6.5h319c20.667 0 33.667 2.16699 39 6.5s8 13.833 8 28.5v590h110v-616c0 -42.667 -10 -71 -30 -85s-54 -21 -102 -21zM438 776l-201 102l64 80
l182 -122z" />
    <glyph glyph-name="Uacute" unicode="&#xda;" horiz-adv-x="793" 
d="M581 0h-369c-48 0 -82 7 -102 21s-30 42.333 -30 85v616h110v-590c0 -14.667 2.83301 -24.167 8.5 -28.5s18.5 -6.5 38.5 -6.5h319c20.667 0 33.667 2.16699 39 6.5s8 13.833 8 28.5v590h110v-616c0 -42.667 -10 -71 -30 -85s-54 -21 -102 -21zM589 877l-202 -102l-44 60
l183 121z" />
    <glyph glyph-name="Ucircumflex" unicode="&#xdb;" horiz-adv-x="793" 
d="M581 0h-369c-48 0 -82 7 -102 21s-30 42.333 -30 85v616h110v-590c0 -16.667 3.16699 -26.667 9.5 -30s21.5 -5 45.5 -5h311c20.667 0 33.667 2.16699 39 6.5s8 13.833 8 28.5v590h110v-616c0 -42.667 -10 -71 -30 -85s-54 -21 -102 -21zM513 774l-117 68l-119 -68
l-46 59l155 103h19l155 -103z" />
    <glyph glyph-name="Udieresis" unicode="&#xdc;" horiz-adv-x="793" 
d="M581 0h-369c-48 0 -82 7 -102 21s-30 42.333 -30 85v616h110v-590c0 -14.667 2.83301 -24.167 8.5 -28.5s18.5 -6.5 38.5 -6.5h319c20.667 0 33.667 2.16699 39 6.5s8 13.833 8 28.5v590h110v-616c0 -42.667 -10 -71 -30 -85s-54 -21 -102 -21zM353 772h-108v103h108
v-103zM546 772h-108v103h108v-103z" />
    <glyph glyph-name="Yacute" unicode="&#xdd;" horiz-adv-x="740" 
d="M427 0h-110v299h-132c-48 0 -82 7 -102 21s-30 42.333 -30 85v317h110v-291c0 -14.667 2.83301 -24.167 8.5 -28.5s18.5 -6.5 38.5 -6.5h320c20.667 0 33.667 2.16699 39 6.5s8 13.833 8 28.5v291h110v-317c0 -42.667 -10 -71 -30 -85s-54 -21 -102 -21h-128v-299z
M548 877l-201 -102l-45 60l184 121z" />
    <glyph glyph-name="Thorn" unicode="&#xde;" horiz-adv-x="721" 
d="M535 138h-344v-138h-110v722h110v-139h344c48 0 82 -7 102 -21s30 -42.333 30 -85v-233c0 -42.667 -10 -71 -30 -85s-54 -21 -102 -21zM557 270v180c0 14.667 -2.83301 24.167 -8.5 28.5s-18.5 6.5 -38.5 6.5h-319v-250h319c20.667 0 33.667 2.16699 39 6.5
s8 13.833 8 28.5z" />
    <glyph glyph-name="germandbls" unicode="&#xdf;" horiz-adv-x="635" 
d="M443 0l-186 -0.00292969v97h161c20 0 32.833 2.16699 38.5 6.5s8.5 13.833 8.5 28.5v185c0 14.667 -3.16699 24.334 -9.5 29.001s-18.166 7 -35.499 7h-163v102h115c17.333 0 29.166 2.33301 35.499 7s9.5 14.334 9.5 29.001v176c0 14.667 -2.83301 24.167 -8.5 28.5
s-18.5 6.5 -38.5 6.5h-143c-20 0 -32.833 -2.16699 -38.5 -6.5s-8.5 -13.833 -8.5 -28.5v-867h-110v894c0 42.667 10 71 30 85s54 21 102 21h193c48 0 82 -7 102 -21s30 -42.333 30 -85v-205c0 -20 -1.66699 -34.833 -5 -44.5s-11 -20.167 -23 -31.5
c14.667 -2 27 -5.66699 37 -11s17.5 -10.5 22.5 -15.5s8.83301 -12.167 11.5 -21.5s4.16699 -16.666 4.5 -21.999s0.5 -13.333 0.5 -24v-213c0 -42.667 -10 -71 -30 -85s-54 -21 -102 -21z" />
    <glyph glyph-name="agrave" unicode="&#xe0;" horiz-adv-x="679" 
d="M479 0h-292c-48 0 -82 7 -102 21s-30 42.333 -30 85v132c0 42.667 10 71 30 85s54 21 102 21h314v73c0 14.667 -2.83301 24.167 -8.5 28.5s-18.5 6.5 -38.5 6.5h-386v98h411c48 0 82 -7 102 -21s30 -42.333 30 -85v-338c0 -42.667 -10 -71 -30 -85s-54 -21 -102 -21z
M501 132v114h-290c-19.333 0 -32 -2.16699 -38 -6.5s-9 -13.833 -9 -28.5v-79c0 -14.667 3 -24.167 9 -28.5s18.667 -6.5 38 -6.5h243c20 0 32.833 2.16699 38.5 6.5s8.5 13.833 8.5 28.5zM386 604l-201 102l63 80l183 -122z" />
    <glyph glyph-name="aacute" unicode="&#xe1;" horiz-adv-x="679" 
d="M479 0h-292c-48 0 -82 7 -102 21s-30 42.333 -30 85v132c0 42.667 10 71 30 85s54 21 102 21h314v73c0 14.667 -2.83301 24.167 -8.5 28.5s-18.5 6.5 -38.5 6.5h-386v98h411c48 0 82 -7 102 -21s30 -42.333 30 -85v-338c0 -42.667 -10 -71 -30 -85s-54 -21 -102 -21z
M501 132v114h-290c-19.333 0 -32 -2.16699 -38 -6.5s-9 -13.833 -9 -28.5v-79c0 -14.667 3 -24.167 9 -28.5s18.667 -6.5 38 -6.5h243c20 0 32.833 2.16699 38.5 6.5s8.5 13.833 8.5 28.5zM510 705l-200 -102l-45 60l183 121z" />
    <glyph glyph-name="acircumflex" unicode="&#xe2;" horiz-adv-x="679" 
d="M479 0h-292c-48 0 -82 7 -102 21s-30 42.333 -30 85v132c0 42.667 10 71 30 85s54 21 102 21h314v73c0 16.667 -4.16699 26.667 -12.5 30s-29.5 5 -63.5 5h-357v98h411c48 0 82 -7 102 -21s30 -42.333 30 -85v-338c0 -42.667 -10 -71 -30 -85s-54 -21 -102 -21zM501 132
v114h-290c-19.333 0 -32 -2.16699 -38 -6.5s-9 -13.833 -9 -28.5v-79c0 -14.667 3 -24.167 9 -28.5s18.667 -6.5 38 -6.5h243c20 0 32.833 2.16699 38.5 6.5s8.5 13.833 8.5 28.5zM456 602l-118 68l-118 -68l-46 59l155 103h18l156 -103z" />
    <glyph glyph-name="atilde" unicode="&#xe3;" horiz-adv-x="679" 
d="M479 0h-292c-48 0 -82 7 -102 21s-30 42.333 -30 85v132c0 42.667 10 71 30 85s54 21 102 21h314v73c0 16.667 -4.16699 26.667 -12.5 30s-29.5 5 -63.5 5h-357v98h411c48 0 82 -7 102 -21s30 -42.333 30 -85v-338c0 -42.667 -10 -71 -30 -85s-54 -21 -102 -21zM501 132
v114h-290c-19.333 0 -32 -2.16699 -38 -6.5s-9 -13.833 -9 -28.5v-79c0 -14.667 3 -24.167 9 -28.5s18.667 -6.5 38 -6.5h243c20 0 32.833 2.16699 38.5 6.5s8.5 13.833 8.5 28.5zM466 723l58.001 -44c-13.333 -30 -30.333 -51.333 -51 -64s-41.334 -19 -62.001 -19
c-16.667 0 -39.167 6 -67.5 18s-45.833 19 -52.5 21c-15.333 3.33301 -23.666 5 -24.999 5c-18 -1.33301 -33.667 -14 -47 -38l-68 32c16.667 31.333 36.167 54.333 58.5 69s44.166 22 65.499 22c22 0 46.5 -7.5 73.5 -22.5s48.167 -22.5 63.5 -22.5
c14.667 0 32.667 14.333 54 43z" />
    <glyph glyph-name="adieresis" unicode="&#xe4;" horiz-adv-x="679" 
d="M479 0h-292c-48 0 -82 7 -102 21s-30 42.333 -30 85v132c0 42.667 10 71 30 85s54 21 102 21h314v73c0 16.667 -3 26.667 -9 30s-21 5 -45 5h-379v98h411c48 0 82 -7 102 -21s30 -42.333 30 -85v-338c0 -42.667 -10 -71 -30 -85s-54 -21 -102 -21zM501 132v114h-290
c-19.333 0 -32 -2.16699 -38 -6.5s-9 -13.833 -9 -28.5v-79c0 -14.667 3 -24.167 9 -28.5s18.667 -6.5 38 -6.5h243c20 0 32.833 2.16699 38.5 6.5s8.5 13.833 8.5 28.5zM296 600h-108v103h108v-103zM489 600h-108v103h108v-103z" />
    <glyph glyph-name="aring" unicode="&#xe5;" horiz-adv-x="679" 
d="M479 0h-292c-48 0 -82 7 -102 21s-30 42.333 -30 85v132c0 42.667 10 71 30 85s54 21 102 21h314v73c0 16.667 -3 26.667 -9 30s-21 5 -45 5h-379v98h411c48 0 82 -7 102 -21s30 -42.333 30 -85v-338c0 -42.667 -10 -71 -30 -85s-54 -21 -102 -21zM501 132v114h-290
c-19.333 0 -32 -2.16699 -38 -6.5s-9 -13.833 -9 -28.5v-79c0 -14.667 3 -24.167 9 -28.5s18.667 -6.5 38 -6.5h243c20 0 32.833 2.16699 38.5 6.5s8.5 13.833 8.5 28.5zM339 580c-29.333 0 -53.167 7.83301 -71.5 23.5s-27.5 35.834 -27.5 60.501s9.5 44.834 28.5 60.501
s43.167 23.5 72.5 23.5c28 0 51 -7.83301 69 -23.5s27 -35.834 27 -60.501s-9 -44.834 -27 -60.501s-41.667 -23.5 -71 -23.5zM338.999 635c11.333 0 20.5 2.66699 27.5 8s10.5 12.333 10.5 21c0 8 -3.66699 14.667 -11 20s-16.333 8 -27 8c-11.333 0 -20.5 -2.5 -27.5 -7.5
s-10.5 -11.833 -10.5 -20.5s3.5 -15.667 10.5 -21s16.167 -8 27.5 -8z" />
    <glyph glyph-name="ae" unicode="&#xe6;" horiz-adv-x="1108" 
d="M1030 0h-397c-37.333 -0 -63.333 5.33301 -78 16c-14.667 -10.667 -40 -16 -76 -16h-292c-48 0 -82 7 -102 21s-30 42.333 -30 85v132c0 42.667 10 71 30 85s54 21 102 21h314v73c0 14.667 -2.83301 24.167 -8.5 28.5s-18.5 6.5 -38.5 6.5h-386v98h411
c36 0 61.667 -5.66699 77 -17c15.333 11.333 41 17 77 17h291c48 0 82 -7 102 -21s30 -42.333 30 -85v-125c0 -42.667 -10 -71 -30 -85s-54 -21 -102 -21h-313v-81c0 -14.667 2.83301 -24.167 8.5 -28.5s18.5 -6.5 38.5 -6.5h372v-97zM501 133v114h-290
c-19.333 0 -32 -2.16699 -38 -6.5s-9 -13.833 -9 -28.5v-79c0 -14.667 3 -24.167 9 -28.5s18.667 -6.5 38 -6.5h243c20 0 32.833 2.16699 38.5 6.5s8.5 13.833 8.5 28.5zM947 345v72c0 14.667 -2.83301 24.167 -8.5 28.5s-18.5 6.5 -38.5 6.5h-242
c-20 0 -32.833 -2.16699 -38.5 -6.5s-8.5 -13.833 -8.5 -28.5v-107h289c20 0 32.833 2.16699 38.5 6.5s8.5 13.833 8.5 28.5z" />
    <glyph glyph-name="ccedilla" unicode="&#xe7;" horiz-adv-x="602" 
d="M351 -196l-39.998 0.000976562c-32 0 -54.833 4.66699 -68.5 14s-20.5 28.333 -20.5 57v22h55v-6c0 -11.333 2.66699 -19.833 8 -25.5s16.666 -8.5 33.999 -8.5h33c16.667 0 27.5 2.83301 32.5 8.5s7.5 14.167 7.5 25.5s-2.5 19.666 -7.5 24.999s-15.833 8 -32.5 8h-60
v76h-92c-48 0 -82 7 -102 21s-30 42.333 -30 85v338c0 42.667 10 71 30 85s54 21 102 21h361v-98h-336c-20 0 -32.833 -2.16699 -38.5 -6.5s-8.5 -13.833 -8.5 -28.5v-285c0 -16 3.66699 -25.833 11 -29.5s25.666 -5.5 54.999 -5.5h317v-97h-215v-24h13
c33.333 0 56.333 -6 69 -18s19 -34.667 19 -68c0 -32 -8 -54.333 -24 -67s-40 -19 -72 -19z" />
    <glyph glyph-name="egrave" unicode="&#xe8;" horiz-adv-x="676" 
d="M597 0h-397c-48 0 -82 7 -102 21s-30 42.333 -30 85v338c0 42.667 10 71 30 85s54 21 102 21h292c48 0 82 -7 102 -21s30 -42.333 30 -85v-125c0 -42.667 -10 -71 -30 -85s-54 -21 -102 -21h-314v-81c0 -14.667 4.5 -24.167 13.5 -28.5s28.833 -6.5 59.5 -6.5h346v-97z
M514 345v72c0 14.667 -2.83301 24.167 -8.5 28.5s-18.5 6.5 -38.5 6.5h-242c-20 0 -32.833 -2.16699 -38.5 -6.5s-8.5 -13.833 -8.5 -28.5v-107h289c20 0 32.833 2.16699 38.5 6.5s8.5 13.833 8.5 28.5zM411 604l-201 102l63 80l183 -122z" />
    <glyph glyph-name="eacute" unicode="&#xe9;" horiz-adv-x="676" 
d="M597 0h-397c-48 0 -82 7 -102 21s-30 42.333 -30 85v338c0 42.667 10 71 30 85s54 21 102 21h292c48 0 82 -7 102 -21s30 -42.333 30 -85v-125c0 -42.667 -10 -71 -30 -85s-54 -21 -102 -21h-314v-81c0 -16 4.5 -25.833 13.5 -29.5s31.167 -5.5 66.5 -5.5h339v-97z
M514 345v72c0 14.667 -2.83301 24.167 -8.5 28.5s-18.5 6.5 -38.5 6.5h-242c-20 0 -32.833 -2.16699 -38.5 -6.5s-8.5 -13.833 -8.5 -28.5v-107h289c20 0 32.833 2.16699 38.5 6.5s8.5 13.833 8.5 28.5zM514 705l-200 -102l-45 60l183 121z" />
    <glyph glyph-name="ecircumflex" unicode="&#xea;" horiz-adv-x="676" 
d="M597 0h-397c-48 0 -82 7 -102 21s-30 42.333 -30 85v338c0 42.667 10 71 30 85s54 21 102 21h292c48 0 82 -7 102 -21s30 -42.333 30 -85v-125c0 -42.667 -10 -71 -30 -85s-54 -21 -102 -21h-314v-81c0 -16 4.5 -25.833 13.5 -29.5s31.167 -5.5 66.5 -5.5h339v-97z
M514 345v72c0 14.667 -2.83301 24.167 -8.5 28.5s-18.5 6.5 -38.5 6.5h-242c-20 0 -32.833 -2.16699 -38.5 -6.5s-8.5 -13.833 -8.5 -28.5v-107h289c20 0 32.833 2.16699 38.5 6.5s8.5 13.833 8.5 28.5zM457 602l-118 68l-118 -68l-46 59l157 103h16l156 -103z" />
    <glyph glyph-name="edieresis" unicode="&#xeb;" horiz-adv-x="676" 
d="M597 0h-397c-48 0 -82 7 -102 21s-30 42.333 -30 85v338c0 42.667 10 71 30 85s54 21 102 21h292c48 0 82 -7 102 -21s30 -42.333 30 -85v-125c0 -42.667 -10 -71 -30 -85s-54 -21 -102 -21h-314v-81c0 -14.667 4.5 -24.167 13.5 -28.5s28.833 -6.5 59.5 -6.5h346v-97z
M514 345v72c0 14.667 -2.83301 24.167 -8.5 28.5s-18.5 6.5 -38.5 6.5h-242c-20 0 -32.833 -2.16699 -38.5 -6.5s-8.5 -13.833 -8.5 -28.5v-107h289c20 0 32.833 2.16699 38.5 6.5s8.5 13.833 8.5 28.5zM297 600h-109v103h109v-103zM490 600h-109v103h109v-103z" />
    <glyph glyph-name="igrave" unicode="&#xec;" horiz-adv-x="315" 
d="M245 0h-110v452h-124v98h234v-550zM185 604l-201 102l63 80l183 -122z" />
    <glyph glyph-name="iacute" unicode="&#xed;" horiz-adv-x="315" 
d="M245 0h-109v452h-125v98h234v-550zM326 705l-201 -102l-45 60l183 121z" />
    <glyph glyph-name="icircumflex" unicode="&#xee;" horiz-adv-x="315" 
d="M245 0h-109v452h-125v98h234v-550zM273 602l-117 68l-119 -68l-46 59l155 103h19l155 -103z" />
    <glyph glyph-name="idieresis" unicode="&#xef;" horiz-adv-x="316" 
d="M245 0h-109v452h-124v98h233v-550zM114 600h-109v103h109v-103zM307 600h-109v103h109v-103z" />
    <glyph glyph-name="eth" unicode="&#xf0;" 
d="M492 0h-292c-48 0 -82 7 -102 21s-30 42.333 -30 85v338c0 42.667 10 71 30 85s54 21 102 21h307l-96 92l-58 -36l-48 63l54 33l-92 98h117l49 -49l65 41l49 -61l-62 -39l110 -112c13.333 -14 21.5 -27 24.5 -39s4.5 -38.333 4.5 -79v-356c0 -42.667 -10 -71 -30 -85
s-54 -21 -102 -21zM514 132v283c0 17.333 -2.83301 27.833 -8.5 31.5s-20.5 5.5 -44.5 5.5h-236c-20 0 -32.833 -2.16699 -38.5 -6.5s-8.5 -13.833 -8.5 -28.5v-285c0 -14.667 2.83301 -24.167 8.5 -28.5s18.5 -6.5 38.5 -6.5h242c20 0 32.833 2.16699 38.5 6.5
s8.5 13.833 8.5 28.5z" />
    <glyph glyph-name="ntilde" unicode="&#xf1;" horiz-adv-x="694" 
d="M625 0h-110v417c0 16.667 -4.33301 26.667 -13 30s-30.667 5 -66 5h-210c-20 0 -32.833 -2.16699 -38.5 -6.5s-8.5 -13.833 -8.5 -28.5v-417h-110v444c0 42.667 10 71 30 85s54 21 102 21h292c48 0 82 -7 102 -21s30 -42.333 30 -85v-444zM474 723l58.998 -44
c-25.333 -55.333 -63.333 -83 -114 -83c-16 0 -38.167 6 -66.5 18s-46.166 19 -53.499 21c-11.333 3.33301 -20 5 -26 5c-17.333 -1.33301 -32.666 -14 -45.999 -38l-68 32c16 31.333 35.333 54.333 58 69s44.667 22 66 22c22 0 46.5 -7.5 73.5 -22.5
s48.167 -22.5 63.5 -22.5c14.667 0 32.667 14.333 54 43z" />
    <glyph glyph-name="ograve" unicode="&#xf2;" horiz-adv-x="692" 
d="M492 0h-292c-48 0 -82 7 -102 21s-30 42.333 -30 85v338c0 42.667 10 71 30 85s54 21 102 21h292c48 0 82 -7 102 -21s30 -42.333 30 -85v-338c0 -42.667 -10 -71 -30 -85s-54 -21 -102 -21zM514 132v285c0 14.667 -2.83301 24.167 -8.5 28.5s-18.5 6.5 -38.5 6.5h-242
c-20 0 -32.833 -2.16699 -38.5 -6.5s-8.5 -13.833 -8.5 -28.5v-285c0 -14.667 2.83301 -24.167 8.5 -28.5s18.5 -6.5 38.5 -6.5h242c20 0 32.833 2.16699 38.5 6.5s8.5 13.833 8.5 28.5zM388 604l-201 102l63 80l183 -122z" />
    <glyph glyph-name="oacute" unicode="&#xf3;" horiz-adv-x="692" 
d="M492 0h-292c-48 0 -82 7 -102 21s-30 42.333 -30 85v338c0 42.667 10 71 30 85s54 21 102 21h292c48 0 82 -7 102 -21s30 -42.333 30 -85v-338c0 -42.667 -10 -71 -30 -85s-54 -21 -102 -21zM514 132v285c0 14.667 -2.83301 24.167 -8.5 28.5s-18.5 6.5 -38.5 6.5h-242
c-20 0 -32.833 -2.16699 -38.5 -6.5s-8.5 -13.833 -8.5 -28.5v-285c0 -14.667 2.83301 -24.167 8.5 -28.5s18.5 -6.5 38.5 -6.5h242c20 0 32.833 2.16699 38.5 6.5s8.5 13.833 8.5 28.5zM522 705l-201 -102l-45 60l184 121z" />
    <glyph glyph-name="ocircumflex" unicode="&#xf4;" horiz-adv-x="692" 
d="M492 0h-292c-48 0 -82 7 -102 21s-30 42.333 -30 85v338c0 42.667 10 71 30 85s54 21 102 21h292c48 0 82 -7 102 -21s30 -42.333 30 -85v-338c0 -42.667 -10 -71 -30 -85s-54 -21 -102 -21zM514 132v285c0 14.667 -2.83301 24.167 -8.5 28.5s-18.5 6.5 -38.5 6.5h-242
c-20 0 -32.833 -2.16699 -38.5 -6.5s-8.5 -13.833 -8.5 -28.5v-285c0 -14.667 2.83301 -24.167 8.5 -28.5s18.5 -6.5 38.5 -6.5h242c20 0 32.833 2.16699 38.5 6.5s8.5 13.833 8.5 28.5zM463 602l-118 68l-118 -68l-46 59l155 103h18l156 -103z" />
    <glyph glyph-name="otilde" unicode="&#xf5;" horiz-adv-x="692" 
d="M492 0h-292c-48 0 -82 7 -102 21s-30 42.333 -30 85v338c0 42.667 10 71 30 85s54 21 102 21h292c48 0 82 -7 102 -21s30 -42.333 30 -85v-338c0 -42.667 -10 -71 -30 -85s-54 -21 -102 -21zM514 132v285c0 14.667 -2.83301 24.167 -8.5 28.5s-18.5 6.5 -38.5 6.5h-242
c-20 0 -32.833 -2.16699 -38.5 -6.5s-8.5 -13.833 -8.5 -28.5v-285c0 -14.667 2.83301 -24.167 8.5 -28.5s18.5 -6.5 38.5 -6.5h242c20 0 32.833 2.16699 38.5 6.5s8.5 13.833 8.5 28.5zM473 723l58.998 -44c-25.333 -55.333 -63.333 -83 -114 -83c-16 0 -38.167 6 -66.5 18
s-46.166 19 -53.499 21c-11.333 3.33301 -20 5 -26 5c-17.333 -1.33301 -32.666 -14 -45.999 -38l-68 32c16 31.333 35.333 54.333 58 69s44.667 22 66 22c22 0 46.5 -7.5 73.5 -22.5s48.167 -22.5 63.5 -22.5c14.667 0 32.667 14.333 54 43z" />
    <glyph glyph-name="odieresis" unicode="&#xf6;" horiz-adv-x="692" 
d="M492 0h-292c-48 0 -82 7 -102 21s-30 42.333 -30 85v338c0 42.667 10 71 30 85s54 21 102 21h292c48 0 82 -7 102 -21s30 -42.333 30 -85v-338c0 -42.667 -10 -71 -30 -85s-54 -21 -102 -21zM514 132v285c0 14.667 -2.83301 24.167 -8.5 28.5s-18.5 6.5 -38.5 6.5h-242
c-20 0 -32.833 -2.16699 -38.5 -6.5s-8.5 -13.833 -8.5 -28.5v-285c0 -14.667 2.83301 -24.167 8.5 -28.5s18.5 -6.5 38.5 -6.5h242c20 0 32.833 2.16699 38.5 6.5s8.5 13.833 8.5 28.5zM303 600h-109v103h109v-103zM496 600h-109v103h109v-103z" />
    <glyph glyph-name="divide" unicode="&#xf7;" horiz-adv-x="578" 
d="M531 216h-470v102h470v-102zM350 71h-108v103h108v-103zM350 359h-108v103h108v-103z" />
    <glyph glyph-name="oslash" unicode="&#xf8;" horiz-adv-x="692" 
d="M492 0h-177l-19 -72h-92l19 72h-23c-48 0 -82 7 -102 21s-30 42.333 -30 85v338c0 42.667 10 71 30 85s54 21 102 21h174l20 71h92l-20 -71h26c48 0 82 -7 102 -21s30 -42.333 30 -85v-338c0 -42.667 -10 -71 -30 -85s-54 -21 -102 -21zM514 132v285
c0 14.667 -2.83301 24.167 -8.5 28.5s-18.5 6.5 -38.5 6.5h-27l-98 -355h125c20 0 32.833 2.16699 38.5 6.5s8.5 13.833 8.5 28.5zM250 97l97 355h-122c-20 0 -32.833 -2.16699 -38.5 -6.5s-8.5 -13.833 -8.5 -28.5v-285c0 -14.667 2.83301 -24.167 8.5 -28.5
s18.5 -6.5 38.5 -6.5h25z" />
    <glyph glyph-name="ugrave" unicode="&#xf9;" horiz-adv-x="694" 
d="M493 0h-292c-48 0 -82 7 -102 21s-30 42.333 -30 85v444h110v-418c0 -14.667 2.83301 -24.167 8.5 -28.5s18.5 -6.5 38.5 -6.5h242c20 0 32.833 2.16699 38.5 6.5s8.5 13.833 8.5 28.5v418h110v-444c0 -42.667 -10 -71 -30 -85s-54 -21 -102 -21zM375 604l-201 102l63 80
l183 -122z" />
    <glyph glyph-name="uacute" unicode="&#xfa;" horiz-adv-x="694" 
d="M493 0h-292c-48 0 -82 7 -102 21s-30 42.333 -30 85v444h110v-418c0 -14.667 2.83301 -24.167 8.5 -28.5s18.5 -6.5 38.5 -6.5h242c20 0 32.833 2.16699 38.5 6.5s8.5 13.833 8.5 28.5v418h110v-444c0 -42.667 -10 -71 -30 -85s-54 -21 -102 -21zM524 705l-201 -102
l-45 60l184 121z" />
    <glyph glyph-name="ucircumflex" unicode="&#xfb;" horiz-adv-x="694" 
d="M493 0h-292.001c-48 0 -82 7 -102 21s-30 42.333 -30 85v444h110v-418c0 -16.667 4.33301 -26.667 13 -30s30.334 -5 65.001 -5h211c20 0 32.833 2.16699 38.5 6.5s8.5 13.833 8.5 28.5v418h110v-444c0 -42.667 -10 -71 -30 -85s-54 -21 -102 -21zM463.999 602l-118 68
l-118 -68l-46 59l155 103h18l156 -103z" />
    <glyph glyph-name="udieresis" unicode="&#xfc;" horiz-adv-x="694" 
d="M493 0h-292c-48 0 -82 7 -102 21s-30 42.333 -30 85v444h110v-418c0 -14.667 2.83301 -24.167 8.5 -28.5s18.5 -6.5 38.5 -6.5h242c20 0 32.833 2.16699 38.5 6.5s8.5 13.833 8.5 28.5v418h110v-444c0 -42.667 -10 -71 -30 -85s-54 -21 -102 -21zM304 600h-109v103h109
v-103zM497 600h-109v103h109v-103z" />
    <glyph glyph-name="yacute" unicode="&#xfd;" horiz-adv-x="578" 
d="M472 705l-201 -102l-44 60l183 121zM266 -200h-98l75 198l-240 552h116l176 -419l160 419h110z" />
    <glyph glyph-name="thorn" unicode="&#xfe;" horiz-adv-x="694" 
d="M494 0h-314v-200h-110v999h110v-249h314c48 0 82 -7 102 -21s30 -42.333 30 -85v-338c0 -42.667 -10 -71 -30 -85s-54 -21 -102 -21zM516 132v285c0 14.667 -2.83301 24.167 -8.5 28.5s-18.5 6.5 -38.5 6.5h-289v-355h289c20 0 32.833 2.16699 38.5 6.5
s8.5 13.833 8.5 28.5z" />
    <glyph glyph-name="ydieresis" unicode="&#xff;" horiz-adv-x="578" 
d="M242 600h-108v103h108v-103zM435 600h-108v103h108v-103zM266 -200h-98l75 198l-240 552h116l176 -419l160 419h110z" />
    <glyph glyph-name="Amacron" unicode="&#x100;" horiz-adv-x="757" 
d="M677 0h-110v259h-377v-259h-110v616c0 42.667 10 71 30 85s54 21 102 21h333c48 0 82 -7 102 -21s30 -42.333 30 -85v-616zM567 356v233c0 14.667 -2.83301 24.167 -8.5 28.5s-18.5 6.5 -38.5 6.5h-283c-20 0 -32.833 -2.16699 -38.5 -6.5s-8.5 -13.833 -8.5 -28.5v-233
h377zM550 781h-345v93h345v-93z" />
    <glyph glyph-name="amacron" unicode="&#x101;" horiz-adv-x="679" 
d="M479 0h-292c-48 0 -82 7 -102 21s-30 42.333 -30 85v132c0 42.667 10 71 30 85s54 21 102 21h314v73c0 14.667 -2.83301 24.167 -8.5 28.5s-18.5 6.5 -38.5 6.5h-386v98h411c48 0 82 -7 102 -21s30 -42.333 30 -85v-338c0 -42.667 -10 -71 -30 -85s-54 -21 -102 -21z
M501 132v114h-290c-19.333 0 -32 -2.16699 -38 -6.5s-9 -13.833 -9 -28.5v-79c0 -14.667 3 -24.167 9 -28.5s18.667 -6.5 38 -6.5h243c20 0 32.833 2.16699 38.5 6.5s8.5 13.833 8.5 28.5zM511 610h-345v92h345v-92z" />
    <glyph glyph-name="Abreve" unicode="&#x102;" horiz-adv-x="757" 
d="M677 0h-110v259h-377v-259h-110v616c0 42.667 10 71 30 85s54 21 102 21h333c48 0 82 -7 102 -21s30 -42.333 30 -85v-616zM567 356v233c0 14.667 -2.83301 24.167 -8.5 28.5s-18.5 6.5 -38.5 6.5h-283c-20 0 -32.833 -2.16699 -38.5 -6.5s-8.5 -13.833 -8.5 -28.5v-233
h377zM469 901h89.001c-6.66699 -36.667 -25.334 -68.667 -56.001 -96s-71.667 -41 -123 -41c-50 0 -90.667 13.333 -122 40s-51 59 -59 97h91c5.33301 -18 15.833 -32.667 31.5 -44s35.167 -17 58.5 -17c46 0 76 20.333 90 61z" />
    <glyph glyph-name="abreve" unicode="&#x103;" horiz-adv-x="679" 
d="M479 0h-292c-48 0 -82 7 -102 21s-30 42.333 -30 85v132c0 42.667 10 71 30 85s54 21 102 21h314v73c0 14.667 -2.83301 24.167 -8.5 28.5s-18.5 6.5 -38.5 6.5h-386v98h411c48 0 82 -7 102 -21s30 -42.333 30 -85v-338c0 -42.667 -10 -71 -30 -85s-54 -21 -102 -21z
M501 132v114h-290c-19.333 0 -32 -2.16699 -38 -6.5s-9 -13.833 -9 -28.5v-79c0 -14.667 3 -24.167 9 -28.5s18.667 -6.5 38 -6.5h243c20 0 32.833 2.16699 38.5 6.5s8.5 13.833 8.5 28.5zM430 729h89.001c-6.66699 -36.667 -25.334 -68.667 -56.001 -96s-72 -41 -124 -41
c-50 0 -90.5 13.333 -121.5 40s-50.5 59 -58.5 97h90c12.667 -40.667 42.667 -61 90 -61c46.667 0 77 20.333 91 61z" />
    <glyph glyph-name="Aogonek" unicode="&#x104;" horiz-adv-x="757" 
d="M679 -111l-0.000976562 -67c-15.333 -10 -36.666 -15 -63.999 -15c-36.667 0 -65.834 8.16699 -87.501 24.5s-32.5 36.5 -32.5 60.5c0 16.667 6.33301 33.834 19 51.501s30.334 32.5 53.001 44.5v271h-377v-259h-110v616c0 42.667 10 71 30 85s54 21 102 21h333
c48 0 82 -7 102 -21s30 -42.333 30 -85v-616c-28 -6.66699 -52 -20.334 -72 -41.001s-30 -38 -30 -52c0 -22 17.667 -33 53 -33c16 0 33 5 51 15zM566.999 356v233c0 14.667 -2.83301 24.167 -8.5 28.5s-18.5 6.5 -38.5 6.5h-283c-20 0 -32.833 -2.16699 -38.5 -6.5
s-8.5 -13.833 -8.5 -28.5v-233h377z" />
    <glyph glyph-name="aogonek" unicode="&#x105;" horiz-adv-x="678" 
d="M487 -102v-67.001c-15.333 -10 -36.666 -15 -63.999 -15c-36.667 0 -65.834 8.16699 -87.501 24.5s-32.5 36.5 -32.5 60.5c0 16.667 6.5 34.334 19.5 53.001s30.5 34 52.5 46h-189c-48 0 -82 7 -102 21s-30 42.333 -30 85v132c0 42.667 10 71 30 85s54 21 102 21h314v73
c0 14.667 -2.83301 24.167 -8.5 28.5s-18.5 6.5 -38.5 6.5h-381v98h406c48 0 82 -7 102 -21s30 -42.333 30 -85v-338c0 -42.667 -10 -71 -30 -85s-54 -21 -102 -21h-20c-22 -11.333 -40 -25 -54 -41s-21 -30.333 -21 -43c0 -22 17.667 -33 53 -33c16 0 33 5 51 15z
M500 131.999v114h-289c-20 0 -32.833 -2.16699 -38.5 -6.5s-8.5 -13.833 -8.5 -28.5v-79c0 -14.667 2.83301 -24.167 8.5 -28.5s18.5 -6.5 38.5 -6.5h242c20 0 32.833 2.16699 38.5 6.5s8.5 13.833 8.5 28.5z" />
    <glyph glyph-name="Cacute" unicode="&#x106;" horiz-adv-x="733" 
d="M543 0h-333c-48 0 -82 7 -102 21s-30 42.333 -30 85v510c0 42.667 10 71 30 85s54 21 102 21h333c48 0 82 -7 102 -21s30 -42.333 30 -85v-109h-110v82c0 14.667 -2.83301 24.167 -8.5 28.5s-18.5 6.5 -38.5 6.5h-283c-20 0 -32.833 -2.16699 -38.5 -6.5
s-8.5 -13.833 -8.5 -28.5v-457c0 -14.667 2.83301 -24.167 8.5 -28.5s18.5 -6.5 38.5 -6.5h283c20.667 0 33.667 2.16699 39 6.5s8 13.833 8 28.5v83h110v-109c0 -42.667 -10 -71 -30 -85s-54 -21 -102 -21zM556 877l-201 -102l-45 60l184 121z" />
    <glyph glyph-name="cacute" unicode="&#x107;" horiz-adv-x="602" 
d="M561 0h-361c-48 0 -82 7 -102 21s-30 42.333 -30 85v338c0 42.667 10 71 30 85s54 21 102 21h361v-98h-336c-20 0 -32.833 -2.16699 -38.5 -6.5s-8.5 -13.833 -8.5 -28.5v-285c0 -14.667 2.83301 -24.167 8.5 -28.5s18.5 -6.5 38.5 -6.5h336v-97zM502 705l-200 -102
l-45 60l183 121z" />
    <glyph glyph-name="Ccircumflex" unicode="&#x108;" horiz-adv-x="733" 
d="M492 774l-118 68l-118 -68l-46 59l156 103h17l156 -103zM543 0h-333c-48 0 -82 7 -102 21s-30 42.333 -30 85v510c0 42.667 10 71 30 85s54 21 102 21h333c48 0 82 -7 102 -21s30 -42.333 30 -85v-109h-110v82c0 14.667 -2.83301 24.167 -8.5 28.5s-18.5 6.5 -38.5 6.5
h-283c-20 0 -32.833 -2.16699 -38.5 -6.5s-8.5 -13.833 -8.5 -28.5v-457c0 -14.667 2.83301 -24.167 8.5 -28.5s18.5 -6.5 38.5 -6.5h283c20.667 0 33.667 2.16699 39 6.5s8 13.833 8 28.5v83h110v-109c0 -42.667 -10 -71 -30 -85s-54 -21 -102 -21z" />
    <glyph glyph-name="ccircumflex" unicode="&#x109;" horiz-adv-x="602" 
d="M452 602l-117 68l-119 -68l-46 59l156 103h18l155 -103zM561 0h-361c-48 0 -82 7 -102 21s-30 42.333 -30 85v338c0 42.667 10 71 30 85s54 21 102 21h361v-98h-336c-20 0 -32.833 -2.16699 -38.5 -6.5s-8.5 -13.833 -8.5 -28.5v-285
c0 -14.667 2.83301 -24.167 8.5 -28.5s18.5 -6.5 38.5 -6.5h336v-97z" />
    <glyph glyph-name="Cdotaccent" unicode="&#x10a;" horiz-adv-x="733" 
d="M543 0h-333c-48 0 -82 7 -102 21s-30 42.333 -30 85v510c0 42.667 10 71 30 85s54 21 102 21h333c48 0 82 -7 102 -21s30 -42.333 30 -85v-109h-110v82c0 14.667 -2.83301 24.167 -8.5 28.5s-18.5 6.5 -38.5 6.5h-283c-20 0 -32.833 -2.16699 -38.5 -6.5
s-8.5 -13.833 -8.5 -28.5v-457c0 -14.667 2.83301 -24.167 8.5 -28.5s18.5 -6.5 38.5 -6.5h283c20.667 0 33.667 2.16699 39 6.5s8 13.833 8 28.5v83h110v-109c0 -42.667 -10 -71 -30 -85s-54 -21 -102 -21zM429 772h-110v102h110v-102z" />
    <glyph glyph-name="cdotaccent" unicode="&#x10b;" horiz-adv-x="602" 
d="M561 0h-361c-48 0 -82 7 -102 21s-30 42.333 -30 85v338c0 42.667 10 71 30 85s54 21 102 21h361v-98h-336c-20 0 -32.833 -2.16699 -38.5 -6.5s-8.5 -13.833 -8.5 -28.5v-285c0 -14.667 2.83301 -24.167 8.5 -28.5s18.5 -6.5 38.5 -6.5h336v-97zM397 600h-110v102h110
v-102z" />
    <glyph glyph-name="Ccaron" unicode="&#x10c;" horiz-adv-x="733" 
d="M379 850l118 70l44 -47l-155 -103h-14l-155 103l43 47zM543 0h-333c-48 0 -82 7 -102 21s-30 42.333 -30 85v510c0 42.667 10 71 30 85s54 21 102 21h333c48 0 82 -7 102 -21s30 -42.333 30 -85v-109h-110v82c0 14.667 -2.83301 24.167 -8.5 28.5s-18.5 6.5 -38.5 6.5
h-283c-20 0 -32.833 -2.16699 -38.5 -6.5s-8.5 -13.833 -8.5 -28.5v-457c0 -14.667 2.83301 -24.167 8.5 -28.5s18.5 -6.5 38.5 -6.5h283c20.667 0 33.667 2.16699 39 6.5s8 13.833 8 28.5v83h110v-109c0 -42.667 -10 -71 -30 -85s-54 -21 -102 -21z" />
    <glyph glyph-name="ccaron" unicode="&#x10d;" horiz-adv-x="602" 
d="M500 705l-156 -102c-2 0 -5 -0.166992 -9 -0.5s-7 -0.5 -9 -0.5l-155 103l46 59l118 -68l117 68zM561 0h-361c-48 0 -82 7 -102 21s-30 42.333 -30 85v338c0 42.667 10 71 30 85s54 21 102 21h361v-98h-336c-20 0 -32.833 -2.16699 -38.5 -6.5s-8.5 -13.833 -8.5 -28.5
v-285c0 -14.667 2.83301 -24.167 8.5 -28.5s18.5 -6.5 38.5 -6.5h336v-97z" />
    <glyph glyph-name="Dcaron" unicode="&#x10e;" horiz-adv-x="778" 
d="M567 0h-486v722h486c48 0 82 -7 102 -21s30 -42.333 30 -85v-510c0 -42.667 -10 -71 -30 -85s-54 -21 -102 -21zM590 132v457c0 14.667 -3 24.167 -9 28.5s-18.667 6.5 -38 6.5h-352v-527h352c20 0 32.833 2.16699 38.5 6.5s8.5 13.833 8.5 28.5zM554 876l-156 -103h-18
l-155 103l46 58l118 -68l118 68z" />
    <glyph glyph-name="dcaron" unicode="&#x10f;" horiz-adv-x="745" 
d="M492 0h-292c-48 0 -82 7 -102 21s-30 42.333 -30 85v338c0 42.667 10 71 30 85s54 21 102 21h314v250h110v-694c0 -42.667 -10 -71 -30 -85s-54 -21 -102 -21zM514 132v320h-289c-20 0 -32.833 -2.16699 -38.5 -6.5s-8.5 -13.833 -8.5 -28.5v-285
c0 -14.667 2.83301 -24.167 8.5 -28.5s18.5 -6.5 38.5 -6.5h242c20 0 32.833 2.16699 38.5 6.5s8.5 13.833 8.5 28.5zM740 491h-75l72 231h121z" />
    <glyph glyph-name="Dcroat" unicode="&#x110;" horiz-adv-x="789" 
d="M579 0h-486v309h-78v102h78v311h486c48 0 82 -7 102 -21s30 -42.333 30 -85v-510c0 -42.667 -10 -71 -30 -85s-54 -21 -102 -21zM601 132v457c0 14.667 -2.83301 24.167 -8.5 28.5s-18.5 6.5 -38.5 6.5h-352v-213h180v-102h-180v-212h352c20.667 0 33.667 2.16699 39 6.5
s8 13.833 8 28.5z" />
    <glyph glyph-name="dcroat" unicode="&#x111;" 
d="M492 0h-292c-48 0 -82 7 -102 21s-30 42.333 -30 85v338c0 42.667 10 71 30 85s54 21 102 21h314v87h-250v87h250v76h110v-76h68v-87h-68v-531c0 -42.667 -10 -71 -30 -85s-54 -21 -102 -21zM514 132v320h-289c-20 0 -32.833 -2.16699 -38.5 -6.5
s-8.5 -13.833 -8.5 -28.5v-285c0 -14.667 2.83301 -24.167 8.5 -28.5s18.5 -6.5 38.5 -6.5h242c20 0 32.833 2.16699 38.5 6.5s8.5 13.833 8.5 28.5z" />
    <glyph glyph-name="Emacron" unicode="&#x112;" horiz-adv-x="663" 
d="M621 0h-540v722h540v-98h-430v-214h352v-97h-352v-216h430v-97zM529 781h-345v93h345v-93z" />
    <glyph glyph-name="emacron" unicode="&#x113;" horiz-adv-x="676" 
d="M597 0h-397c-48 0 -82 7 -102 21s-30 42.333 -30 85v338c0 42.667 10 71 30 85s54 21 102 21h292c48 0 82 -7 102 -21s30 -42.333 30 -85v-125c0 -42.667 -10 -71 -30 -85s-54 -21 -102 -21h-314v-81c0 -16 4.5 -25.833 13.5 -29.5s31.167 -5.5 66.5 -5.5h339v-97z
M514 345v72c0 14.667 -2.83301 24.167 -8.5 28.5s-18.5 6.5 -38.5 6.5h-242c-20 0 -32.833 -2.16699 -38.5 -6.5s-8.5 -13.833 -8.5 -28.5v-107h289c20 0 32.833 2.16699 38.5 6.5s8.5 13.833 8.5 28.5zM518 610h-344v92h344v-92z" />
    <glyph glyph-name="Ebreve" unicode="&#x114;" horiz-adv-x="663" 
d="M621 0h-540v722h540v-98h-430v-214h352v-97h-352v-216h430v-97zM452 901h90c-6.66699 -36 -25.5 -67.833 -56.5 -95.5s-72.167 -41.5 -123.5 -41.5c-50 0 -90.667 13.333 -122 40s-51 59 -59 97h91c5.33301 -18 15.833 -32.667 31.5 -44s35.167 -17 58.5 -17
c46 0 76 20.333 90 61z" />
    <glyph glyph-name="ebreve" unicode="&#x115;" horiz-adv-x="676" 
d="M597 0h-397c-48 0 -82 7 -102 21s-30 42.333 -30 85v338c0 42.667 10 71 30 85s54 21 102 21h292c48 0 82 -7 102 -21s30 -42.333 30 -85v-125c0 -42.667 -10 -71 -30 -85s-54 -21 -102 -21h-314v-81c0 -14.667 2.83301 -24.167 8.5 -28.5s18.5 -6.5 38.5 -6.5h372v-97z
M514 345v72c0 14.667 -2.83301 24.167 -8.5 28.5s-18.5 6.5 -38.5 6.5h-242c-20 0 -32.833 -2.16699 -38.5 -6.5s-8.5 -13.833 -8.5 -28.5v-107h289c20 0 32.833 2.16699 38.5 6.5s8.5 13.833 8.5 28.5zM431 729h89.001c-6.66699 -36.667 -25.334 -68.667 -56.001 -96
s-72 -41 -124 -41c-50 0 -90.667 13.333 -122 40s-51 59 -59 97h91c12.667 -40.667 42.667 -61 90 -61c46.667 0 77 20.333 91 61z" />
    <glyph glyph-name="Edotaccent" unicode="&#x116;" horiz-adv-x="663" 
d="M621 0h-540v722h540v-98h-430v-214h352v-97h-352v-216h430v-97zM429 772h-109v102h109v-102z" />
    <glyph glyph-name="edotaccent" unicode="&#x117;" horiz-adv-x="676" 
d="M597 0h-397c-48 0 -82 7 -102 21s-30 42.333 -30 85v338c0 42.667 10 71 30 85s54 21 102 21h292c48 0 82 -7 102 -21s30 -42.333 30 -85v-125c0 -42.667 -10 -71 -30 -85s-54 -21 -102 -21h-314v-81c0 -16 4.5 -25.833 13.5 -29.5s31.167 -5.5 66.5 -5.5h339v-97z
M514 345v72c0 14.667 -2.83301 24.167 -8.5 28.5s-18.5 6.5 -38.5 6.5h-242c-20 0 -32.833 -2.16699 -38.5 -6.5s-8.5 -13.833 -8.5 -28.5v-107h289c20 0 32.833 2.16699 38.5 6.5s8.5 13.833 8.5 28.5zM394 600h-110v102h110v-102z" />
    <glyph glyph-name="Eogonek" unicode="&#x118;" horiz-adv-x="663" 
d="M557 -105v-66.001c-16 -10.667 -37.333 -16 -64 -16c-36 0 -64.833 8.16699 -86.5 24.5s-32.5 36.5 -32.5 60.5c0 18 7 36.333 21 55s33.333 34.334 58 47.001h-372v722h540v-98h-430v-214h352v-97h-352v-216h430v-97h-86c-24 -12 -43.667 -26.167 -59 -42.5
s-23 -30.833 -23 -43.5c0 -22 17.667 -33 53 -33c15.333 0 32.333 4.66699 51 14z" />
    <glyph glyph-name="eogonek" unicode="&#x119;" horiz-adv-x="676" 
d="M532 -104l-0.000976562 -67.001c-15.333 -10 -36.666 -15 -63.999 -15c-36.667 0 -65.667 8.16699 -87 24.5s-32 36.5 -32 60.5c0 17.333 7 35.333 21 54s33 34.334 57 47.001h-227c-48 0 -82 7 -102 21s-30 42.333 -30 85v338c0 42.667 10 71 30 85s54 21 102 21h292
c48 0 82 -7 102 -21s30 -42.333 30 -85v-125c0 -42.667 -10 -71 -30 -85s-54 -21 -102 -21h-314v-81c0 -16 3.83301 -25.833 11.5 -29.5s27.167 -5.5 58.5 -5.5h349v-97h-87c-24 -12 -43.667 -26.167 -59 -42.5s-23 -30.833 -23 -43.5c0 -10 4.66699 -18 14 -24
s22.333 -9 39 -9c16 0 33 5 51 15zM513.999 344.999v72c0 14.667 -2.83301 24.167 -8.5 28.5s-18.5 6.5 -38.5 6.5h-242c-20 0 -32.833 -2.16699 -38.5 -6.5s-8.5 -13.833 -8.5 -28.5v-107h289c20 0 32.833 2.16699 38.5 6.5s8.5 13.833 8.5 28.5z" />
    <glyph glyph-name="Ecaron" unicode="&#x11a;" horiz-adv-x="663" 
d="M621 0h-540v722h540v-98h-430v-214h352v-97h-352v-216h430v-97zM526 876l-156 -103h-18l-155 103l46 58l118 -68l118 68z" />
    <glyph glyph-name="ecaron" unicode="&#x11b;" horiz-adv-x="676" 
d="M597 0h-397c-48 0 -82 7 -102 21s-30 42.333 -30 85v338c0 42.667 10 71 30 85s54 21 102 21h292c48 0 82 -7 102 -21s30 -42.333 30 -85v-125c0 -42.667 -10 -71 -30 -85s-54 -21 -102 -21h-314v-81c0 -16 4.5 -25.833 13.5 -29.5s31.167 -5.5 66.5 -5.5h339v-97z
M514 345v72c0 14.667 -2.83301 24.167 -8.5 28.5s-18.5 6.5 -38.5 6.5h-242c-20 0 -32.833 -2.16699 -38.5 -6.5s-8.5 -13.833 -8.5 -28.5v-107h289c20 0 32.833 2.16699 38.5 6.5s8.5 13.833 8.5 28.5zM504 704l-156 -103h-18l-155 103l46 58l118 -68l118 68z" />
    <glyph glyph-name="Gcircumflex" unicode="&#x11c;" horiz-adv-x="758" 
d="M556 0h-346c-48 0 -82 7 -102 21s-30 42.333 -30 85v510c0 42.667 10 71 30 85s54 21 102 21h346c48 0 82 -7 102 -21s30 -42.333 30 -85v-109h-110v82c0 16.667 -4.33301 26.667 -13 30s-30 5 -64 5h-266c-20 0 -32.833 -2.16699 -38.5 -6.5s-8.5 -13.833 -8.5 -28.5
v-457c0 -16 4.33301 -25.833 13 -29.5s29.667 -5.5 63 -5.5h267c20.667 0 33.667 2.16699 39 6.5s8 13.833 8 28.5v131h-192v98h302v-255c0 -42.667 -10 -71 -30 -85s-54 -21 -102 -21zM505 774l-118 68l-118 -68l-47 59l156 102l18 1l156 -103z" />
    <glyph glyph-name="gcircumflex" unicode="&#x11d;" 
d="M492 -200h-393v97h368c20 0 32.833 2.16699 38.5 6.5s8.5 13.833 8.5 28.5v68h-314c-48 0 -82 7 -102 21s-30 42.333 -30 85v338c0 42.667 10 71 30 85s54 21 102 21h292c48 0 82 -7 102 -21s30 -42.333 30 -85v-538c0 -42.667 -10 -71 -30 -85s-54 -21 -102 -21zM514 97
v320c0 14.667 -2.83301 24.167 -8.5 28.5s-18.5 6.5 -38.5 6.5h-242c-20 0 -32.833 -2.16699 -38.5 -6.5s-8.5 -13.833 -8.5 -28.5v-285c0 -14.667 2.83301 -24.167 8.5 -28.5s18.5 -6.5 38.5 -6.5h289zM463 602l-118 68l-118 -68l-46 59l155 102l18 1l156 -103z" />
    <glyph glyph-name="Gbreve" unicode="&#x11e;" horiz-adv-x="758" 
d="M556 0h-346c-48 0 -82 7 -102 21s-30 42.333 -30 85v510c0 42.667 10 71 30 85s54 21 102 21h346c48 0 82 -7 102 -21s30 -42.333 30 -85v-109h-110v82c0 14.667 -2.83301 24.167 -8.5 28.5s-18.5 6.5 -38.5 6.5h-296c-20 0 -32.833 -2.16699 -38.5 -6.5
s-8.5 -13.833 -8.5 -28.5v-457c0 -14.667 2.83301 -24.167 8.5 -28.5s18.5 -6.5 38.5 -6.5h296c20.667 0 33.667 2.16699 39 6.5s8 13.833 8 28.5v131h-192v98h302v-255c0 -42.667 -10 -71 -30 -85s-54 -21 -102 -21zM475 901h89.001
c-6.66699 -36.667 -25.334 -68.667 -56.001 -96s-71.667 -41 -123 -41c-50 0 -90.667 13.333 -122 40s-51 59 -59 97h90c12.667 -40.667 43 -61 91 -61c46 0 76 20.333 90 61z" />
    <glyph glyph-name="gbreve" unicode="&#x11f;" 
d="M492 -200h-393v97h368c20 0 32.833 2.16699 38.5 6.5s8.5 13.833 8.5 28.5v68h-314c-48 0 -82 7 -102 21s-30 42.333 -30 85v338c0 42.667 10 71 30 85s54 21 102 21h292c48 0 82 -7 102 -21s30 -42.333 30 -85v-538c0 -42.667 -10 -71 -30 -85s-54 -21 -102 -21zM514 97
v320c0 14.667 -2.83301 24.167 -8.5 28.5s-18.5 6.5 -38.5 6.5h-242c-20 0 -32.833 -2.16699 -38.5 -6.5s-8.5 -13.833 -8.5 -28.5v-285c0 -14.667 2.83301 -24.167 8.5 -28.5s18.5 -6.5 38.5 -6.5h289zM437 729h89.001c-6.66699 -36.667 -25.334 -68.667 -56.001 -96
s-72 -41 -124 -41c-50 0 -90.667 13.333 -122 40s-51 59 -59 97h91c12.667 -40.667 42.667 -61 90 -61c46.667 0 77 20.333 91 61z" />
    <glyph glyph-name="Gdotaccent" unicode="&#x120;" horiz-adv-x="758" 
d="M556 0h-346c-48 0 -82 7 -102 21s-30 42.333 -30 85v510c0 42.667 10 71 30 85s54 21 102 21h346c48 0 82 -7 102 -21s30 -42.333 30 -85v-109h-110v82c0 14.667 -2.83301 24.167 -8.5 28.5s-18.5 6.5 -38.5 6.5h-296c-20 0 -32.833 -2.16699 -38.5 -6.5
s-8.5 -13.833 -8.5 -28.5v-457c0 -14.667 2.83301 -24.167 8.5 -28.5s18.5 -6.5 38.5 -6.5h296c20.667 0 33.667 2.16699 39 6.5s8 13.833 8 28.5v131h-192v98h302v-255c0 -42.667 -10 -71 -30 -85s-54 -21 -102 -21zM440 772h-110v102h110v-102z" />
    <glyph glyph-name="gdotaccent" unicode="&#x121;" 
d="M492 -200h-393v97h368c20 0 32.833 2.16699 38.5 6.5s8.5 13.833 8.5 28.5v68h-314c-48 0 -82 7 -102 21s-30 42.333 -30 85v338c0 42.667 10 71 30 85s54 21 102 21h292c48 0 82 -7 102 -21s30 -42.333 30 -85v-538c0 -42.667 -10 -71 -30 -85s-54 -21 -102 -21zM514 97
v320c0 14.667 -2.83301 24.167 -8.5 28.5s-18.5 6.5 -38.5 6.5h-242c-20 0 -32.833 -2.16699 -38.5 -6.5s-8.5 -13.833 -8.5 -28.5v-285c0 -14.667 2.83301 -24.167 8.5 -28.5s18.5 -6.5 38.5 -6.5h289zM400 600h-110v102h110v-102z" />
    <glyph glyph-name="Gcommaaccent" unicode="&#x122;" horiz-adv-x="758" 
d="M556 0h-346c-48 0 -82 7 -102 21s-30 42.333 -30 85v510c0 42.667 10 71 30 85s54 21 102 21h346c48 0 82 -7 102 -21s30 -42.333 30 -85v-109h-110v82c0 14.667 -2.83301 24.167 -8.5 28.5s-18.5 6.5 -38.5 6.5h-296c-20 0 -32.833 -2.16699 -38.5 -6.5
s-8.5 -13.833 -8.5 -28.5v-457c0 -14.667 2.83301 -24.167 8.5 -28.5s18.5 -6.5 38.5 -6.5h296c20.667 0 33.667 2.16699 39 6.5s8 13.833 8 28.5v131h-192v98h302v-255c0 -42.667 -10 -71 -30 -85s-54 -21 -102 -21zM416 -253h-80l-14 203h108z" />
    <glyph glyph-name="gcommaaccent" unicode="&#x123;" 
d="M492 -200h-393v97h368c20 0 32.833 2.16699 38.5 6.5s8.5 13.833 8.5 28.5v68h-314c-48 0 -82 7 -102 21s-30 42.333 -30 85v338c0 42.667 10 71 30 85s54 21 102 21h292c48 0 82 -7 102 -21s30 -42.333 30 -85v-538c0 -42.667 -10 -71 -30 -85s-54 -21 -102 -21zM514 97
v320c0 14.667 -2.83301 24.167 -8.5 28.5s-18.5 6.5 -38.5 6.5h-242c-20 0 -32.833 -2.16699 -38.5 -6.5s-8.5 -13.833 -8.5 -28.5v-285c0 -14.667 2.83301 -24.167 8.5 -28.5s18.5 -6.5 38.5 -6.5h289zM409 638h-111l13 231h86z" />
    <glyph glyph-name="Hcircumflex" unicode="&#x124;" horiz-adv-x="794" 
d="M713 0h-109v313h-413v-313h-110v722h110v-312h413v312h109v-722zM514 774l-117 68l-119 -68l-46 59l156 103h18l155 -103z" />
    <glyph glyph-name="hcircumflex" unicode="&#x125;" horiz-adv-x="694" 
d="M243 844l-117 68l-119 -68l-46 58l155 103h19l155 -103zM626 0h-110v417c0 14.667 -2.83301 24.167 -8.5 28.5s-18.5 6.5 -38.5 6.5h-289v-452h-110v800h110v-250h314c48 0 82 -7 102 -21s30 -42.333 30 -85v-444z" />
    <glyph glyph-name="Hbar" unicode="&#x126;" horiz-adv-x="810" 
d="M721 0h-109v313h-414v-313h-109v510h-72v102h72v110h109v-110h414v110h109v-110h71v-102h-71v-510zM612 410v100h-414v-100h414z" />
    <glyph glyph-name="hbar" unicode="&#x127;" horiz-adv-x="695" 
d="M626 0h-109v417c0 14.667 -3 24.167 -9 28.5s-18.667 6.5 -38 6.5h-290v-452h-110v630h-68v101h68v69h110v-69h356v-101h-356v-80h314c48 0 82 -7 102 -21s30 -42.333 30 -85v-444z" />
    <glyph glyph-name="Itilde" unicode="&#x128;" horiz-adv-x="272" 
d="M191 0h-110v722h110v-722zM264 895l58.999 -44c-25.333 -55.333 -63.333 -83 -114 -83c-16 0 -38.167 6 -66.5 18s-46.166 19 -53.499 21c-11.333 3.33301 -20 5 -26 5c-17.333 -1.33301 -32.666 -14 -45.999 -38l-68 32c16.667 31.333 36.167 54.333 58.5 69
s44.166 22 65.499 22c22 0 46.5 -7.5 73.5 -22.5s48.167 -22.5 63.5 -22.5c14.667 0 32.667 14.333 54 43z" />
    <glyph glyph-name="itilde" unicode="&#x129;" horiz-adv-x="315" 
d="M245 0h-110v452h-124v98h234v-550zM283 723l58.999 -44c-25.333 -55.333 -63.333 -83 -114 -83c-16 0 -38.167 6 -66.5 18s-46.166 19 -53.499 21c-11.333 3.33301 -20 5 -26 5c-17.333 -1.33301 -32.666 -14 -45.999 -38l-68 32c16.667 31.333 36.167 54.333 58.5 69
s44.166 22 65.499 22c22 0 46.5 -7.5 73.5 -22.5s48.167 -22.5 63.5 -22.5c14.667 0 32.667 14.333 54 43z" />
    <glyph glyph-name="Imacron" unicode="&#x12a;" horiz-adv-x="271" 
d="M190 0h-109v722h109v-722zM308 781h-345v93h345v-93z" />
    <glyph glyph-name="imacron" unicode="&#x12b;" horiz-adv-x="316" 
d="M245 0h-109v452h-125v98h234v-550zM328 610h-345v92h345v-92z" />
    <glyph glyph-name="Ibreve" unicode="&#x12c;" horiz-adv-x="272" 
d="M191 0h-110v722h110v-722zM227 901h90c-6.66699 -36 -25.5 -67.833 -56.5 -95.5s-72.167 -41.5 -123.5 -41.5c-50 0 -90.667 13.333 -122 40s-51 59 -59 97h90c6 -18.667 16.833 -33.5 32.5 -44.5s35.167 -16.5 58.5 -16.5c46 0 76 20.333 90 61z" />
    <glyph glyph-name="ibreve" unicode="&#x12d;" horiz-adv-x="315" 
d="M245 0h-110v452h-124v98h234v-550zM246 729h90c-6.66699 -36 -25.5 -67.833 -56.5 -95.5s-72.167 -41.5 -123.5 -41.5c-50 0 -90.667 13.333 -122 40s-51 59 -59 97h90c6 -18.667 16.833 -33.5 32.5 -44.5s35.167 -16.5 58.5 -16.5c46 0 76 20.333 90 61z" />
    <glyph glyph-name="Iogonek" unicode="&#x12e;" horiz-adv-x="271" 
d="M207 -104l-0.000976562 -67c-15.333 -10 -36.666 -15 -63.999 -15c-36.667 0 -65.667 8.16699 -87 24.5s-32 36.5 -32 60.5c0 29.333 19 57 57 83v740h109v-722c-24.667 -8 -45.334 -21.167 -62.001 -39.5s-25 -33.833 -25 -46.5c0 -22 18 -33 54 -33
c16.667 0 33.334 5 50.001 15z" />
    <glyph glyph-name="iogonek" unicode="&#x12f;" horiz-adv-x="315" 
d="M246 -111l-0.000976562 -67c-16 -9.33301 -39.333 -14 -70 -14c-29.333 0 -55.666 7 -78.999 21s-35 35 -35 63c0 17.333 6.5 34.833 19.5 52.5s31.167 32.5 54.5 44.5v463h-125v98h234v-550c-28 -6 -52.167 -19.5 -72.5 -40.5s-30.5 -38.5 -30.5 -52.5
c0 -22 17.667 -33 53 -33c15.333 0 32.333 5 51 15zM244.999 625h-109v97h109v-97z" />
    <glyph glyph-name="Idotaccent" unicode="&#x130;" horiz-adv-x="272" 
d="M191 0h-110v722h110v-722zM191 772h-110v102h110v-102z" />
    <glyph glyph-name="dotlessi" unicode="&#x131;" horiz-adv-x="315" 
d="M245 0h-109v452h-125v98h234v-550z" />
    <glyph glyph-name="Jcircumflex" unicode="&#x134;" horiz-adv-x="463" 
d="M251 0h-239v97h214c20.667 0 33.667 2.16699 39 6.5s8 13.833 8 28.5v590h110v-616c0 -42.667 -10 -71 -30 -85s-54 -21 -102 -21zM444 774l-117 68l-118 -68l-47 59l156 103h17l157 -103z" />
    <glyph glyph-name="jcircumflex" unicode="&#x135;" horiz-adv-x="316" 
d="M114 -200h-192v97h167c20 0 32.833 2.16699 38.5 6.5s8.5 13.833 8.5 28.5v520h-125v98h235v-644c0 -42.667 -10 -71 -30 -85s-54 -21 -102 -21zM287 602l-118 68l-118 -68l-46 59l155 103h18l156 -103z" />
    <glyph glyph-name="Kcommaaccent" unicode="&#x136;" horiz-adv-x="721" 
d="M400 -253h-80l-14 203h108zM719 0h-152l-376 310v-310h-110v722h110v-317l376 317h152l-438 -361z" />
    <glyph glyph-name="kcommaaccent" unicode="&#x137;" horiz-adv-x="573" 
d="M554 0h-119l-168 224h-87v-224h-110v800h110v-479h84l176 229h119l-206 -277zM321 -253h-79l-15 203h109z" />
    <glyph glyph-name="kgreenlandic" unicode="&#x138;" horiz-adv-x="573" 
d="M554 0h-119l-168 224h-87v-224h-110v550h110v-229h84l176 229h119l-206 -277z" />
    <glyph glyph-name="Lacute" unicode="&#x139;" horiz-adv-x="608" 
d="M597 0h-516v722h110v-625h406v-97zM328 877l-201 -102l-44 60l183 121z" />
    <glyph glyph-name="lacute" unicode="&#x13a;" horiz-adv-x="341" 
d="M329 0h-129c-48 0 -82 7 -102 21s-30 42.333 -30 85v694h110v-668c0 -14.667 2.83301 -24.167 8.5 -28.5s18.5 -6.5 38.5 -6.5h104v-97zM285 950l-200 -102l-45 60l183 122z" />
    <glyph glyph-name="Lcommaaccent" unicode="&#x13b;" horiz-adv-x="608" 
d="M597 0h-516v722h110v-625h406v-97zM394 -253h-80l-14 203h108z" />
    <glyph glyph-name="lcommaaccent" unicode="&#x13c;" horiz-adv-x="341" 
d="M329 0h-128c-48 0 -82 7 -102 21s-30 42.333 -30 85v694h110v-668c0 -14.667 2.83301 -24.167 8.5 -28.5s18.5 -6.5 38.5 -6.5h103v-97zM237 -253h-80l-15 203h109z" />
    <glyph glyph-name="Lcaron" unicode="&#x13d;" horiz-adv-x="613" 
d="M597 0h-516v722h110v-625h406v-97zM449 491h-75l71 231h122z" />
    <glyph glyph-name="lcaron" unicode="&#x13e;" horiz-adv-x="345" 
d="M329 0h-128c-48 0 -82 7 -102 21s-30 42.333 -30 85v694h110v-668c0 -14.667 2.83301 -24.167 8.5 -28.5s18.5 -6.5 38.5 -6.5h103v-97zM304 491h-75l72 231h122z" />
    <glyph glyph-name="Ldot" unicode="&#x13f;" horiz-adv-x="609" 
d="M597 0h-516v722h110v-625h406v-97zM489 406h-109v104h109v-104z" />
    <glyph glyph-name="ldot" unicode="&#x140;" horiz-adv-x="387" 
d="M329 0h-128c-48 0 -82 7 -102 21s-30 42.333 -30 85v694h110v-668c0 -14.667 2.83301 -24.167 8.5 -28.5s18.5 -6.5 38.5 -6.5h103v-97zM378 407h-109v103h109v-103z" />
    <glyph glyph-name="Lslash" unicode="&#x141;" horiz-adv-x="617" 
d="M606 0h-516v239l-73 -37v102l73 37v381h110v-320l167 83v-102l-167 -84v-202h406v-97z" />
    <glyph glyph-name="lslash" unicode="&#x142;" horiz-adv-x="370" 
d="M356 0h-129c-48 0 -82 7 -102 21s-30 42.333 -30 85v133l-73 -37v102l73 37v459h110v-398l93 46v-102l-93 -47v-167c0 -14.667 2.83301 -24.167 8.5 -28.5s18.5 -6.5 38.5 -6.5h104v-97z" />
    <glyph glyph-name="Nacute" unicode="&#x143;" horiz-adv-x="758" 
d="M578 877l-200 -102l-45 60l183 121zM677 0h-139l-347 547v-547h-110v722h135l351 -553v553h110v-722z" />
    <glyph glyph-name="nacute" unicode="&#x144;" horiz-adv-x="694" 
d="M625 0h-110v417c0 14.667 -2.83301 24.167 -8.5 28.5s-18.5 6.5 -38.5 6.5h-242c-20 0 -32.833 -2.16699 -38.5 -6.5s-8.5 -13.833 -8.5 -28.5v-417h-110v444c0 42.667 10 71 30 85s54 21 102 21h292c48 0 82 -7 102 -21s30 -42.333 30 -85v-444zM531 705l-200 -102
l-46 60l184 121z" />
    <glyph glyph-name="Ncommaaccent" unicode="&#x145;" horiz-adv-x="758" 
d="M419 -253h-80l-14 203h108zM677 0h-139l-347 547v-547h-110v722h135l351 -553v553h110v-722z" />
    <glyph glyph-name="ncommaaccent" unicode="&#x146;" horiz-adv-x="694" 
d="M625 0h-110v417c0 14.667 -2.83301 24.167 -8.5 28.5s-18.5 6.5 -38.5 6.5h-242c-20 0 -32.833 -2.16699 -38.5 -6.5s-8.5 -13.833 -8.5 -28.5v-417h-110v444c0 42.667 10 71 30 85s54 21 102 21h292c48 0 82 -7 102 -21s30 -42.333 30 -85v-444zM386 -253h-79l-15 203
h109z" />
    <glyph glyph-name="Ncaron" unicode="&#x147;" horiz-adv-x="758" 
d="M554 876l-155 -103h-19l-155 103l46 58l119 -68l117 68zM677 0h-139l-347 547v-547h-110v722h135l351 -553v553h110v-722z" />
    <glyph glyph-name="ncaron" unicode="&#x148;" horiz-adv-x="694" 
d="M625 0h-110v417c0 16.667 -4.33301 26.667 -13 30s-30.667 5 -66 5h-210c-20 0 -32.833 -2.16699 -38.5 -6.5s-8.5 -13.833 -8.5 -28.5v-417h-110v444c0 42.667 10 71 30 85s54 21 102 21h292c48 0 82 -7 102 -21s30 -42.333 30 -85v-444zM511 704l-156 -103h-18
l-155 103l46 58l118 -68l118 68z" />
    <glyph glyph-name="Eng" unicode="&#x14a;" horiz-adv-x="759" 
d="M546 -200h-239v97h214c20.667 0 33.667 2.16699 39 6.5s8 13.833 8 28.5v68h-30l-347 547v-547h-110v722h135l351 -553v553h111v-816c0 -42.667 -10 -71 -30 -85s-54 -21 -102 -21z" />
    <glyph glyph-name="eng" unicode="&#x14b;" horiz-adv-x="694" 
d="M493 -200h-144v97h119c20 0 32.833 2.16699 38.5 6.5s8.5 13.833 8.5 28.5v485c0 14.667 -2.83301 24.167 -8.5 28.5s-18.5 6.5 -38.5 6.5h-242c-20 0 -32.833 -2.16699 -38.5 -6.5s-8.5 -13.833 -8.5 -28.5v-417h-110v444c0 42.667 10 71 30 85s54 21 102 21h292
c48 0 82 -7 102 -21s30 -42.333 30 -85v-538c0 -42.667 -10 -71 -30 -85s-54 -21 -102 -21z" />
    <glyph glyph-name="Omacron" unicode="&#x14c;" horiz-adv-x="791" 
d="M580 0h-370c-48 0 -82 7 -102 21s-30 42.333 -30 85v510c0 42.667 10 71 30 85s54 21 102 21h370c48 0 82 -7 102 -21s30 -42.333 30 -85v-510c0 -42.667 -10 -71 -30 -85s-54 -21 -102 -21zM602 132v457c0 14.667 -2.83301 24.167 -8.5 28.5s-18.5 6.5 -38.5 6.5h-320
c-20 0 -32.833 -2.16699 -38.5 -6.5s-8.5 -13.833 -8.5 -28.5v-457c0 -14.667 2.83301 -24.167 8.5 -28.5s18.5 -6.5 38.5 -6.5h320c20.667 0 33.667 2.16699 39 6.5s8 13.833 8 28.5zM567 781h-345v93h345v-93z" />
    <glyph glyph-name="omacron" unicode="&#x14d;" horiz-adv-x="692" 
d="M492 0h-292c-48 0 -82 7 -102 21s-30 42.333 -30 85v338c0 42.667 10 71 30 85s54 21 102 21h292c48 0 82 -7 102 -21s30 -42.333 30 -85v-338c0 -42.667 -10 -71 -30 -85s-54 -21 -102 -21zM514 132v285c0 14.667 -2.83301 24.167 -8.5 28.5s-18.5 6.5 -38.5 6.5h-242
c-20 0 -32.833 -2.16699 -38.5 -6.5s-8.5 -13.833 -8.5 -28.5v-285c0 -14.667 2.83301 -24.167 8.5 -28.5s18.5 -6.5 38.5 -6.5h242c20 0 32.833 2.16699 38.5 6.5s8.5 13.833 8.5 28.5zM518 610h-345v92h345v-92z" />
    <glyph glyph-name="Obreve" unicode="&#x14e;" horiz-adv-x="791" 
d="M580 0h-370c-48 0 -82 7 -102 21s-30 42.333 -30 85v510c0 42.667 10 71 30 85s54 21 102 21h370c48 0 82 -7 102 -21s30 -42.333 30 -85v-510c0 -42.667 -10 -71 -30 -85s-54 -21 -102 -21zM602 132v457c0 14.667 -2.83301 24.167 -8.5 28.5s-18.5 6.5 -38.5 6.5h-320
c-20 0 -32.833 -2.16699 -38.5 -6.5s-8.5 -13.833 -8.5 -28.5v-457c0 -14.667 2.83301 -24.167 8.5 -28.5s18.5 -6.5 38.5 -6.5h320c20.667 0 33.667 2.16699 39 6.5s8 13.833 8 28.5zM485 901h89.001c-6.66699 -36.667 -25.334 -68.667 -56.001 -96s-71.667 -41 -123 -41
c-50 0 -90.667 13.333 -122 40s-51 59 -59 97h91c5.33301 -18 15.833 -32.667 31.5 -44s35.167 -17 58.5 -17c46 0 76 20.333 90 61z" />
    <glyph glyph-name="obreve" unicode="&#x14f;" horiz-adv-x="692" 
d="M492 0h-292c-48 0 -82 7 -102 21s-30 42.333 -30 85v338c0 42.667 10 71 30 85s54 21 102 21h292c48 0 82 -7 102 -21s30 -42.333 30 -85v-338c0 -42.667 -10 -71 -30 -85s-54 -21 -102 -21zM514 132v285c0 14.667 -2.83301 24.167 -8.5 28.5s-18.5 6.5 -38.5 6.5h-242
c-20 0 -32.833 -2.16699 -38.5 -6.5s-8.5 -13.833 -8.5 -28.5v-285c0 -14.667 2.83301 -24.167 8.5 -28.5s18.5 -6.5 38.5 -6.5h242c20 0 32.833 2.16699 38.5 6.5s8.5 13.833 8.5 28.5zM437 729h89.001c-6.66699 -36.667 -25.334 -68.667 -56.001 -96s-72 -41 -124 -41
c-50 0 -90.667 13.333 -122 40s-51 59 -59 97h91c12.667 -40.667 42.667 -61 90 -61c46.667 0 77 20.333 91 61z" />
    <glyph glyph-name="Ohungarumlaut" unicode="&#x150;" horiz-adv-x="791" 
d="M580 0h-370c-48 0 -82 7 -102 21s-30 42.333 -30 85v510c0 42.667 10 71 30 85s54 21 102 21h370c48 0 82 -7 102 -21s30 -42.333 30 -85v-510c0 -42.667 -10 -71 -30 -85s-54 -21 -102 -21zM602 132v457c0 14.667 -2.83301 24.167 -8.5 28.5s-18.5 6.5 -38.5 6.5h-320
c-20 0 -32.833 -2.16699 -38.5 -6.5s-8.5 -13.833 -8.5 -28.5v-457c0 -14.667 2.83301 -24.167 8.5 -28.5s18.5 -6.5 38.5 -6.5h320c20.667 0 33.667 2.16699 39 6.5s8 13.833 8 28.5zM670 897l-174 -131l-57 49l152 147zM472 897l-173 -131l-58 49l153 147z" />
    <glyph glyph-name="ohungarumlaut" unicode="&#x151;" horiz-adv-x="692" 
d="M492 0h-292c-48 0 -82 7 -102 21s-30 42.333 -30 85v338c0 42.667 10 71 30 85s54 21 102 21h292c48 0 82 -7 102 -21s30 -42.333 30 -85v-338c0 -42.667 -10 -71 -30 -85s-54 -21 -102 -21zM514 132v285c0 14.667 -2.83301 24.167 -8.5 28.5s-18.5 6.5 -38.5 6.5h-242
c-20 0 -32.833 -2.16699 -38.5 -6.5s-8.5 -13.833 -8.5 -28.5v-285c0 -14.667 2.83301 -24.167 8.5 -28.5s18.5 -6.5 38.5 -6.5h242c20 0 32.833 2.16699 38.5 6.5s8.5 13.833 8.5 28.5zM620 725l-174 -131l-57 49l152 147zM422 725l-173 -131l-58 49l153 147z" />
    <glyph glyph-name="OE" unicode="&#x152;" horiz-adv-x="1183" 
d="M1142 0h-932c-48 0 -82 7 -102 21s-30 42.333 -30 85v510c0 42.667 10 71 30 85s54 21 102 21h932v-98h-430v-214h352v-97h-352v-216h430v-97zM188 132c0 -14.667 2.83301 -24.167 8.5 -28.5s18.5 -6.5 38.5 -6.5h369v527h-369c-20 0 -32.833 -2.16699 -38.5 -6.5
s-8.5 -13.833 -8.5 -28.5v-457z" />
    <glyph glyph-name="oe" unicode="&#x153;" horiz-adv-x="1122" 
d="M1043 0h-397c-37.333 -0 -63 5.33301 -77 16c-14.667 -10.667 -40.334 -16 -77.001 -16h-292c-48 0 -82 7 -102 21s-30 42.333 -30 85v338c0 42.667 10 71 30 85s54 21 102 21h292c36 0 61.667 -5.66699 77 -17c14.667 11.333 40.334 17 77.001 17h292
c48 0 82 -7 102 -21s30 -42.333 30 -85v-125c0 -42.667 -10 -71 -30 -85s-54 -21 -102 -21h-314v-81c0 -14.667 2.83301 -24.167 8.5 -28.5s18.5 -6.5 38.5 -6.5h372v-97zM514 132v285c0 14.667 -2.83301 24.167 -8.5 28.5s-18.5 6.5 -38.5 6.5h-242
c-20 0 -32.833 -2.16699 -38.5 -6.5s-8.5 -13.833 -8.5 -28.5v-285c0 -14.667 2.83301 -24.167 8.5 -28.5s18.5 -6.5 38.5 -6.5h242c20 0 32.833 2.16699 38.5 6.5s8.5 13.833 8.5 28.5zM960 345v72c0 14.667 -2.83301 24.167 -8.5 28.5s-18.5 6.5 -38.5 6.5h-242
c-19.333 0 -32 -2 -38 -6s-9 -11.667 -9 -23v-113h289c20 0 32.833 2.16699 38.5 6.5s8.5 13.833 8.5 28.5z" />
    <glyph glyph-name="Racute" unicode="&#x154;" horiz-adv-x="728" 
d="M663 0h-115l-202 277h-155v-277h-110v722h454c48 0 82 -7 102 -21s30 -42.333 30 -85v-233c0 -42.667 -10 -71 -30 -85s-54 -21 -102 -21h-74zM557 409v180c0 14.667 -2.83301 24.167 -8.5 28.5s-18.5 6.5 -38.5 6.5h-319v-250h319c20.667 0 33.667 2.16699 39 6.5
s8 13.833 8 28.5zM537 877l-202 -102l-44 60l183 121z" />
    <glyph glyph-name="racute" unicode="&#x155;" horiz-adv-x="488" 
d="M179 0h-110v444c0 42.667 10 71 30 85s54 21 102 21h270v-98h-245c-20 0 -32.833 -2.16699 -38.5 -6.5s-8.5 -13.833 -8.5 -28.5v-417zM448 705l-200 -102l-45 60l184 121z" />
    <glyph glyph-name="Rcommaaccent" unicode="&#x156;" horiz-adv-x="728" 
d="M663 0h-115l-202 277h-155v-277h-110v722h454c48 0 82 -7 102 -21s30 -42.333 30 -85v-233c0 -42.667 -10 -71 -30 -85s-54 -21 -102 -21h-74zM557 409v180c0 14.667 -2.83301 24.167 -8.5 28.5s-18.5 6.5 -38.5 6.5h-319v-250h319c20.667 0 33.667 2.16699 39 6.5
s8 13.833 8 28.5zM407 -253h-80l-14 203h108z" />
    <glyph glyph-name="rcommaaccent" unicode="&#x157;" horiz-adv-x="488" 
d="M179 0h-110v444c0 42.667 10 71 30 85s54 21 102 21h270v-98h-245c-20 0 -32.833 -2.16699 -38.5 -6.5s-8.5 -13.833 -8.5 -28.5v-417zM165 -253h-80l-14 203h108z" />
    <glyph glyph-name="Rcaron" unicode="&#x158;" horiz-adv-x="728" 
d="M663 0h-115l-202 277h-155v-277h-110v722h454c48 0 82 -7 102 -21s30 -42.333 30 -85v-233c0 -42.667 -10 -71 -30 -85s-54 -21 -102 -21h-74zM557 409v180c0 14.667 -2.83301 24.167 -8.5 28.5s-18.5 6.5 -38.5 6.5h-319v-250h319c20.667 0 33.667 2.16699 39 6.5
s8 13.833 8 28.5zM532 876l-155 -103h-19l-155 103l47 58l118 -68l117 68z" />
    <glyph glyph-name="rcaron" unicode="&#x159;" horiz-adv-x="488" 
d="M179 0l-110 0.000976562v444c0 42.667 10 71 30 85s54 21 102 21h270v-98h-245c-20 0 -32.833 -3.83301 -38.5 -11.5s-8.5 -20.834 -8.5 -39.501v-401zM458 704.001l-156 -103h-18l-155 103l46 58l118 -68l118 68z" />
    <glyph glyph-name="Sacute" unicode="&#x15a;" horiz-adv-x="736" 
d="M535 0h-333c-48 0 -82 7 -102 21s-30 42.333 -30 85v109h110v-83c0 -14.667 2.83301 -24.167 8.5 -28.5s18.5 -6.5 38.5 -6.5h283c20 0 32.833 2.16699 38.5 6.5s8.5 13.833 8.5 28.5v145c0 14.667 -2.83301 24.167 -8.5 28.5s-18.5 6.5 -38.5 6.5h-309
c-48 0 -82 7 -102 21s-30 42.333 -30 85v198c0 42.667 10 71 30 85s54 21 102 21h332c48 0 82 -7 102 -21s30 -42.333 30 -85v-109h-109v82c0 14.667 -3 24.167 -9 28.5s-18.667 6.5 -38 6.5h-284c-19.333 0 -32 -2.16699 -38 -6.5s-9 -13.833 -9 -28.5v-145
c0 -14.667 3 -24.167 9 -28.5s18.667 -6.5 38 -6.5h310c48 0 82 -7 102 -21s30 -42.333 30 -85v-197c0 -42.667 -10 -71 -30 -85s-54 -21 -102 -21zM548 877l-201 -102l-44 60l182 121z" />
    <glyph glyph-name="sacute" unicode="&#x15b;" horiz-adv-x="622" 
d="M441 0h-363v97h338c20 0 32.833 2.16699 38.5 6.5s8.5 13.833 8.5 28.5v58c0 14.667 -2.83301 24.167 -8.5 28.5s-18.5 6.5 -38.5 6.5h-234c-48 0 -82 7 -102 21s-30 42.333 -30 85v113c0 42.667 10 71 30 85s54 21 102 21h361v-98h-337c-19.333 0 -32 -2.16699 -38 -6.5
s-9 -13.833 -9 -28.5v-60c0 -13.333 2.5 -22.5 7.5 -27.5s15.5 -7.5 31.5 -7.5h243c48 0 82 -7 102 -21s30 -42.333 30 -85v-110c0 -42.667 -10 -71 -30 -85s-54 -21 -102 -21zM492 705l-201 -102l-44 60l183 121z" />
    <glyph glyph-name="Scircumflex" unicode="&#x15c;" horiz-adv-x="736" 
d="M535 0h-332.999c-48 0 -82 7 -102 21s-30 42.333 -30 85v109h110v-83c0 -16 4 -25.833 12 -29.5s27.667 -5.5 59 -5.5h259c20 0 32.833 2.16699 38.5 6.5s8.5 13.833 8.5 28.5v145c0 16 -4 25.833 -12 29.5s-27.667 5.5 -59 5.5h-285
c-52.667 0 -87.834 8.5 -105.501 25.5s-26.5 53.833 -26.5 110.5v168c0 42.667 10 71 30 85s54 21 102 21h332c48 0 82 -7 102 -21s30 -42.333 30 -85v-109h-109v82c0 16 -4 25.833 -12 29.5s-28 5.5 -60 5.5h-259c-19.333 0 -32 -2.16699 -38 -6.5s-9 -13.833 -9 -28.5
v-145c0 -16 4 -25.833 12 -29.5s27.667 -5.5 59 -5.5h286c52 0 87 -8.66699 105 -26s27 -54.333 27 -111v-166c0 -42.667 -10 -71 -30 -85s-54 -21 -102 -21zM485.001 774l-117 68l-119 -68l-46 59l155 103h19l155 -103z" />
    <glyph glyph-name="scircumflex" unicode="&#x15d;" horiz-adv-x="622" 
d="M441 0l-362.999 0.000976562v97h338c20 0 32.833 3.16699 38.5 9.5s8.5 18.166 8.5 35.499v48c0 16 -2.83301 25.833 -8.5 29.5s-19.834 5.5 -42.501 5.5h-230c-54 0 -89.5 8.5 -106.5 25.5s-25.5 54.167 -25.5 111.5v82c0 42.667 10 71 30 85s54 21 102 21h361v-98h-337
c-19.333 0 -32 -2.16699 -38 -6.5s-9 -13.833 -9 -28.5v-60c0 -14.667 4.66699 -24.167 14 -28.5s30 -6.5 62 -6.5h206c54 0 89.5 -8.5 106.5 -25.5s25.5 -53.5 25.5 -109.5v-81c0 -42.667 -10 -71 -30 -85s-54 -21 -102 -21zM429.001 602.001l-117 68l-119 -68l-46 59
l155 103h19l155 -103z" />
    <glyph glyph-name="Scedilla" unicode="&#x15e;" horiz-adv-x="736" 
d="M398 -196l-39.998 -0.000976562c-32 0 -54.833 4.66699 -68.5 14s-20.5 28.333 -20.5 57v22h55v-6c0 -11.333 2.66699 -19.833 8 -25.5s16.666 -8.5 33.999 -8.5h33c16.667 0 27.667 2.83301 33 8.5s8 14.167 8 25.5c0 10.667 -2.66699 18.834 -8 24.501
s-16.333 8.5 -33 8.5h-60v76h-137c-48 0 -82 7 -102 21s-30 42.333 -30 85v109h110v-83c0 -16 3.83301 -25.833 11.5 -29.5s25.5 -5.5 53.5 -5.5h265c20 0 32.833 2.16699 38.5 6.5s8.5 13.833 8.5 28.5v145c0 16 -3.83301 25.833 -11.5 29.5s-25.5 5.5 -53.5 5.5h-291
c-52 0 -87 8.33301 -105 25s-27 52 -27 106v173c0 42.667 10 71 30 85s54 21 102 21h332c48 0 82 -7 102 -21s30 -42.333 30 -85v-109h-109v82c0 16 -4 25.833 -12 29.5s-26 5.5 -54 5.5h-265c-19.333 0 -32 -2.16699 -38 -6.5s-9 -13.833 -9 -28.5v-145
c0 -16 3.83301 -25.833 11.5 -29.5s25.5 -5.5 53.5 -5.5h292c51.333 0 86.166 -8.33301 104.499 -25s27.5 -52 27.5 -106v-172c0 -42.667 -10 -71 -30 -85s-54 -21 -102 -21h-141v-24h12c34 0 57.333 -6 70 -18s19 -34.667 19 -68c0 -32 -8.16699 -54.333 -24.5 -67
s-40.5 -19 -72.5 -19z" />
    <glyph glyph-name="scedilla" unicode="&#x15f;" horiz-adv-x="622" 
d="M328 -196l-40 0.000976562c-32 0 -54.833 4.66699 -68.5 14s-20.5 28.333 -20.5 57v22h55v-6c0 -11.333 2.66699 -19.833 8 -25.5s16.666 -8.5 33.999 -8.5h32c27.333 0 41 9.66699 41 29c0 9.33301 -0.5 16.166 -1.5 20.499s-4.66699 8.33301 -11 12
s-15.833 5.5 -28.5 5.5h-60v76h-190v97h338c20 0 32.833 2.16699 38.5 6.5s8.5 13.833 8.5 28.5v58c0 16 -3.66699 25.833 -11 29.5s-24.333 5.5 -51 5.5h-219c-51.333 0 -86.166 8.33301 -104.499 25s-27.5 51.334 -27.5 104.001v90c0 42.667 10 71 30 85s54 21 102 21h361
v-98h-337c-19.333 0 -32 -2.16699 -38 -6.5s-9 -13.833 -9 -28.5v-60c0 -14 3.33301 -23.333 10 -28s21.667 -7 45 -7h227c54 0 89.5 -9.33301 106.5 -28s25.5 -59.334 25.5 -122.001v-59c0 -46 -9.5 -76.333 -28.5 -91s-53.5 -22 -103.5 -22h-118v-24h12
c34 0 57.333 -6 70 -18s19 -34.667 19 -68c0 -31.333 -8 -53.5 -24 -66.5s-40 -19.5 -72 -19.5z" />
    <glyph glyph-name="Scaron" unicode="&#x160;" horiz-adv-x="736" 
d="M535 0h-332.999c-48 0 -82 7 -102 21s-30 42.333 -30 85v109h110v-83c0 -16 4 -25.833 12 -29.5s27.667 -5.5 59 -5.5h259c20 0 32.833 2.16699 38.5 6.5s8.5 13.833 8.5 28.5v145c0 16 -4 25.833 -12 29.5s-27.667 5.5 -59 5.5h-285
c-52.667 0 -87.834 8.5 -105.501 25.5s-26.5 53.833 -26.5 110.5v168c0 42.667 10 71 30 85s54 21 102 21h332c48 0 82 -7 102 -21s30 -42.333 30 -85v-109h-109v82c0 16 -4 25.833 -12 29.5s-28 5.5 -60 5.5h-259c-19.333 0 -32 -2.16699 -38 -6.5s-9 -13.833 -9 -28.5
v-145c0 -16 4 -25.833 12 -29.5s27.667 -5.5 59 -5.5h286c52 0 87 -8.66699 105 -26s27 -54.333 27 -111v-166c0 -42.667 -10 -71 -30 -85s-54 -21 -102 -21zM532.001 876l-155 -103h-19l-155 103l46 58l119 -68l117 68z" />
    <glyph glyph-name="scaron" unicode="&#x161;" horiz-adv-x="622" 
d="M441 0l-362.999 0.000976562v97h338c20 0 32.833 3.16699 38.5 9.5s8.5 18.166 8.5 35.499v48c0 16 -2.83301 25.833 -8.5 29.5s-19.834 5.5 -42.501 5.5h-230c-54 0 -89.5 8.5 -106.5 25.5s-25.5 54.167 -25.5 111.5v82c0 42.667 10 71 30 85s54 21 102 21h361v-98h-337
c-19.333 0 -32 -2.16699 -38 -6.5s-9 -13.833 -9 -28.5v-60c0 -14.667 4.66699 -24.167 14 -28.5s30 -6.5 62 -6.5h206c54 0 89.5 -8.5 106.5 -25.5s25.5 -53.5 25.5 -109.5v-81c0 -42.667 -10 -71 -30 -85s-54 -21 -102 -21zM476.001 704.001l-155 -103h-19l-155 103l46 58
l119 -68l117 68z" />
    <glyph glyph-name="Tcommaaccent" unicode="&#x162;" horiz-adv-x="620" 
d="M364 0h-110v624h-241v98h593v-98h-242v-624zM348 -253h-79l-15 203h109z" />
    <glyph glyph-name="tcommaaccent" unicode="&#x163;" horiz-adv-x="413" 
d="M393 0h-129c-48 0 -82 7 -102 21s-30 42.333 -30 85v346h-109v98h109v206h110v-206h151v-98h-151v-320c0 -14.667 2.83301 -24.167 8.5 -28.5s18.5 -6.5 38.5 -6.5h104v-97zM289 -253h-80l-14 203h108z" />
    <glyph glyph-name="Tcaron" unicode="&#x164;" horiz-adv-x="620" 
d="M364 0h-110v624h-241v98h593v-98h-242v-624zM474 876l-156 -103h-18l-155 103l46 58l118 -68l118 68z" />
    <glyph glyph-name="tcaron" unicode="&#x165;" horiz-adv-x="413" 
d="M393 0h-129c-48 0 -82 7 -102 21s-30 42.333 -30 85v346h-109v98h109v206h110v-206h151v-98h-151v-320c0 -14.667 2.83301 -24.167 8.5 -28.5s18.5 -6.5 38.5 -6.5h104v-97zM407 624h-76l72 231h122z" />
    <glyph glyph-name="Tbar" unicode="&#x166;" horiz-adv-x="635" 
d="M372 0h-110v399h-178v102h178v123h-241v98h593v-98h-242v-123h179v-102h-179v-399z" />
    <glyph glyph-name="tbar" unicode="&#x167;" horiz-adv-x="418" 
d="M396 0h-129c-48 0 -82 7 -102 21s-30 42.333 -30 85v165h-99v79h99v102h-109v98h109v206h110v-206h151v-98h-151v-102h131v-79h-131v-139c0 -14.667 2.83301 -24.167 8.5 -28.5s18.5 -6.5 38.5 -6.5h104v-97z" />
    <glyph glyph-name="Utilde" unicode="&#x168;" horiz-adv-x="793" 
d="M581 0h-369c-48 0 -82 7 -102 21s-30 42.333 -30 85v616h110v-590c0 -16.667 3.16699 -26.667 9.5 -30s21.5 -5 45.5 -5h311c20.667 0 33.667 2.16699 39 6.5s8 13.833 8 28.5v590h110v-616c0 -42.667 -10 -71 -30 -85s-54 -21 -102 -21zM524 895l57.999 -44
c-13.333 -30 -30.333 -51.333 -51 -64s-41.667 -19 -63 -19c-16.667 0 -41.167 7.33301 -73.5 22s-56.166 22 -71.499 22s-31 -12.667 -47 -38l-67 32c32.667 60.667 74 91 124 91c22 0 46.333 -7.5 73 -22.5s48 -22.5 64 -22.5c14.667 0 32.667 14.333 54 43z" />
    <glyph glyph-name="utilde" unicode="&#x169;" horiz-adv-x="694" 
d="M493 0h-292.001c-48 0 -82 7 -102 21s-30 42.333 -30 85v444h110v-418c0 -16.667 4.33301 -26.667 13 -30s30.334 -5 65.001 -5h211c20 0 32.833 2.16699 38.5 6.5s8.5 13.833 8.5 28.5v418h110v-444c0 -42.667 -10 -71 -30 -85s-54 -21 -102 -21zM473.999 723
l59.0029 -44c-13.333 -30 -30.333 -51.333 -51 -64s-41.667 -19 -63 -19c-16 0 -38.333 6 -67 18s-46.334 19 -53.001 21c-14.667 3.33301 -23 5 -25 5c-16.667 -1.33301 -32.334 -14 -47.001 -38l-67 32c16 31.333 35.167 54.333 57.5 69s44.166 22 65.499 22
c22 0 46.5 -7.5 73.5 -22.5s48.167 -22.5 63.5 -22.5s33.333 14.333 54 43z" />
    <glyph glyph-name="Umacron" unicode="&#x16a;" horiz-adv-x="793" 
d="M581 0h-369c-48 0 -82 7 -102 21s-30 42.333 -30 85v616h110v-590c0 -14.667 2.83301 -24.167 8.5 -28.5s18.5 -6.5 38.5 -6.5h319c20.667 0 33.667 2.16699 39 6.5s8 13.833 8 28.5v590h110v-616c0 -42.667 -10 -71 -30 -85s-54 -21 -102 -21zM568 779h-345v94h345v-94z
" />
    <glyph glyph-name="umacron" unicode="&#x16b;" horiz-adv-x="694" 
d="M493 0h-292c-48 0 -82 7 -102 21s-30 42.333 -30 85v444h110v-418c0 -14.667 2.83301 -24.167 8.5 -28.5s18.5 -6.5 38.5 -6.5h242c20 0 32.833 2.16699 38.5 6.5s8.5 13.833 8.5 28.5v418h110v-444c0 -42.667 -10 -71 -30 -85s-54 -21 -102 -21zM519 610h-345v92h345
v-92z" />
    <glyph glyph-name="Ubreve" unicode="&#x16c;" horiz-adv-x="793" 
d="M581 0h-369c-48 0 -82 7 -102 21s-30 42.333 -30 85v616h110v-590c0 -14.667 2.83301 -24.167 8.5 -28.5s18.5 -6.5 38.5 -6.5h319c20.667 0 33.667 2.16699 39 6.5s8 13.833 8 28.5v590h110v-616c0 -42.667 -10 -71 -30 -85s-54 -21 -102 -21zM487 901h89.001
c-6.66699 -36.667 -25.334 -68.667 -56.001 -96s-71.667 -41 -123 -41c-50 0 -90.667 13.333 -122 40s-51 59 -59 97h91c5.33301 -18 15.833 -32.667 31.5 -44s35.167 -17 58.5 -17c46 0 76 20.333 90 61z" />
    <glyph glyph-name="ubreve" unicode="&#x16d;" horiz-adv-x="694" 
d="M493 0h-292c-48 0 -82 7 -102 21s-30 42.333 -30 85v444h110v-418c0 -14.667 2.83301 -24.167 8.5 -28.5s18.5 -6.5 38.5 -6.5h242c20 0 32.833 2.16699 38.5 6.5s8.5 13.833 8.5 28.5v418h110v-444c0 -42.667 -10 -71 -30 -85s-54 -21 -102 -21zM438 729h89.001
c-6.66699 -36.667 -25.334 -68.667 -56.001 -96s-72 -41 -124 -41c-50 0 -90.667 13.333 -122 40s-51 59 -59 97h91c12.667 -40.667 42.667 -61 90 -61c46.667 0 77 20.333 91 61z" />
    <glyph glyph-name="Uring" unicode="&#x16e;" horiz-adv-x="793" 
d="M581 0h-369c-48 0 -82 7 -102 21s-30 42.333 -30 85v616h110v-590c0 -14.667 2.83301 -24.167 8.5 -28.5s18.5 -6.5 38.5 -6.5h319c20.667 0 33.667 2.16699 39 6.5s8 13.833 8 28.5v590h110v-616c0 -42.667 -10 -71 -30 -85s-54 -21 -102 -21zM397 752
c-29.333 0 -53.167 7.66895 -71.5 23.002s-27.5 35.666 -27.5 60.999c0 24.667 9.33301 44.834 28 60.501s42.667 23.5 72 23.5c28 0 51.167 -7.83301 69.5 -23.5s27.5 -35.834 27.5 -60.501s-9.16699 -44.834 -27.5 -60.501s-41.833 -23.5 -70.5 -23.5zM396.999 807.002
c10.667 0 19.5 2.66699 26.5 8s10.5 12.333 10.5 21c0 8 -3.5 14.667 -10.5 20s-15.833 8 -26.5 8c-11.333 0 -20.666 -2.5 -27.999 -7.5s-11 -11.833 -11 -20.5s3.66699 -15.667 11 -21s16.666 -8 27.999 -8z" />
    <glyph glyph-name="uring" unicode="&#x16f;" horiz-adv-x="694" 
d="M493 0h-292c-48 0 -82 7 -102 21s-30 42.333 -30 85v444h110v-418c0 -14.667 2.83301 -24.167 8.5 -28.5s18.5 -6.5 38.5 -6.5h242c20 0 32.833 2.16699 38.5 6.5s8.5 13.833 8.5 28.5v418h110v-444c0 -42.667 -10 -71 -30 -85s-54 -21 -102 -21zM347 580
c-29.333 0 -53.168 7.83301 -71.501 23.5s-27.5 35.834 -27.5 60.501s9.5 44.834 28.5 60.501s43.167 23.5 72.5 23.5c28 0 51.167 -7.83301 69.5 -23.5s27.5 -35.834 27.5 -60.501s-9.16699 -44.834 -27.5 -60.501s-42.166 -23.5 -71.499 -23.5zM346.998 635
c11.333 0 20.5 2.66699 27.5 8s10.5 12.333 10.5 21c0 8 -3.66699 14.667 -11 20s-16.333 8 -27 8s-19.667 -2.66699 -27 -8s-11 -12 -11 -20c0 -8.66699 3.5 -15.667 10.5 -21s16.167 -8 27.5 -8z" />
    <glyph glyph-name="Uhungarumlaut" unicode="&#x170;" horiz-adv-x="793" 
d="M581 0h-369c-48 0 -82 7 -102 21s-30 42.333 -30 85v616h110v-590c0 -14.667 2.83301 -24.167 8.5 -28.5s18.5 -6.5 38.5 -6.5h319c20.667 0 33.667 2.16699 39 6.5s8 13.833 8 28.5v590h110v-616c0 -42.667 -10 -71 -30 -85s-54 -21 -102 -21zM660 897l-173 -131l-58 49
l153 147zM463 897l-174 -131l-57 49l152 147z" />
    <glyph glyph-name="uhungarumlaut" unicode="&#x171;" horiz-adv-x="694" 
d="M493 0h-292c-48 0 -82 7 -102 21s-30 42.333 -30 85v444h110v-418c0 -14.667 2.83301 -24.167 8.5 -28.5s18.5 -6.5 38.5 -6.5h242c20 0 32.833 2.16699 38.5 6.5s8.5 13.833 8.5 28.5v418h110v-444c0 -42.667 -10 -71 -30 -85s-54 -21 -102 -21zM610 725l-174 -131
l-57 49l152 147zM412 725l-173 -131l-57 49l152 147z" />
    <glyph glyph-name="Uogonek" unicode="&#x172;" horiz-adv-x="793" 
d="M513 -104v-67c-15.333 -10 -36.666 -15 -63.999 -15c-36.667 0 -65.834 8 -87.501 24s-32.5 36.333 -32.5 61c0 17.333 7 35.333 21 54s33.333 34.334 58 47.001h-196c-48 0 -82 7 -102 21s-30 42.333 -30 85v616h110v-590c0 -14.667 2.83301 -24.167 8.5 -28.5
s18.5 -6.5 38.5 -6.5h319c20.667 0 33.667 2.16699 39 6.5s8 13.833 8 28.5v590h110v-616c0 -42.667 -10 -71 -30 -85s-54 -21 -102 -21h-91c-24 -11.333 -43.5 -25.333 -58.5 -42s-22.5 -31.334 -22.5 -44.001c0 -22 17.667 -33 53 -33c16 0 33 5 51 15z" />
    <glyph glyph-name="uogonek" unicode="&#x173;" horiz-adv-x="694" 
d="M454 -105l-0.000976562 -66.001c-16 -10.667 -37.667 -16 -65 -16c-36 0 -64.833 8.16699 -86.5 24.5s-32.5 36.5 -32.5 60.5c0 18 7.16699 36.333 21.5 55s33.833 34.334 58.5 47.001h-149c-48 0 -82 7 -102 21s-30 42.333 -30 85v444h110v-418
c0 -14.667 2.83301 -24.167 8.5 -28.5s18.5 -6.5 38.5 -6.5h242c20 0 32.833 2.16699 38.5 6.5s8.5 13.833 8.5 28.5v418h110v-444c0 -42.667 -10 -71 -30 -85s-54 -21 -102 -21h-60c-25.333 -11.333 -45.666 -25.333 -60.999 -42s-23 -31.667 -23 -45
c0 -21.333 18 -32 54 -32c17.333 0 34.333 4.66699 51 14z" />
    <glyph glyph-name="Wcircumflex" unicode="&#x174;" horiz-adv-x="1090" 
d="M844 0h-141l-159 559l-157 -559h-141l-218 722h117l171 -579l157 579h143l157 -579l173 579h116zM662 774l-118 68l-118 -68l-46 59l155 103h18l156 -103z" />
    <glyph glyph-name="wcircumflex" unicode="&#x175;" horiz-adv-x="883" 
d="M693 0h-138l-114 424l-113 -424h-136l-176 550h116l127 -433l114 433h139l112 -433l129 433h113zM559 602l-118 68l-118 -68l-46 59l155 103h18l156 -103z" />
    <glyph glyph-name="Ycircumflex" unicode="&#x176;" horiz-adv-x="740" 
d="M427 0h-110v299h-132c-48 0 -82 7 -102 21s-30 42.333 -30 85v317h110v-291c0 -14.667 2.83301 -24.167 8.5 -28.5s18.5 -6.5 38.5 -6.5h320c20.667 0 33.667 2.16699 39 6.5s8 13.833 8 28.5v291h110v-317c0 -42.667 -10 -71 -30 -85s-54 -21 -102 -21h-128v-299z
M487 774l-117 68l-119 -68l-46 59l155 103h19l155 -103z" />
    <glyph glyph-name="ycircumflex" unicode="&#x177;" horiz-adv-x="578" 
d="M401 602l-117 68l-118 -68l-47 59l156 103h17l157 -103zM266 -200h-98l75 198l-240 552h116l176 -419l160 419h110z" />
    <glyph glyph-name="Ydieresis" unicode="&#x178;" horiz-adv-x="740" 
d="M427 0h-110v299h-132c-48 0 -82 7 -102 21s-30 42.333 -30 85v317h110v-291c0 -14.667 2.83301 -24.167 8.5 -28.5s18.5 -6.5 38.5 -6.5h320c20.667 0 33.667 2.16699 39 6.5s8 13.833 8 28.5v291h110v-317c0 -42.667 -10 -71 -30 -85s-54 -21 -102 -21h-128v-299z
M327 772h-108v103h108v-103zM520 772h-108v103h108v-103z" />
    <glyph glyph-name="Zacute" unicode="&#x179;" horiz-adv-x="659" 
d="M617 0h-575v104l451 520h-451v98h576v-104l-448 -521h447v-97zM501 877l-202 -102l-44 60l183 121z" />
    <glyph glyph-name="zacute" unicode="&#x17a;" horiz-adv-x="592" 
d="M548 0h-504v105l365 347h-365v98h504v-106l-366 -347h366v-97zM465 705l-201 -102l-44 60l183 121z" />
    <glyph glyph-name="Zdotaccent" unicode="&#x17b;" horiz-adv-x="659" 
d="M617 0h-575v104l451 520h-451v98h576v-104l-448 -521h447v-97zM385 772h-110v102h110v-102z" />
    <glyph glyph-name="zdotaccent" unicode="&#x17c;" horiz-adv-x="592" 
d="M548 0h-504v105l365 347h-365v98h504v-106l-366 -347h366v-97zM350 600h-109v102h109v-102z" />
    <glyph glyph-name="Zcaron" unicode="&#x17d;" horiz-adv-x="659" 
d="M617 0h-575v104l451 520h-451v98h576v-104l-448 -521h447v-97zM495 876l-157 -103h-17l-156 103l47 58l118 -60l118 60z" />
    <glyph glyph-name="zcaron" unicode="&#x17e;" horiz-adv-x="592" 
d="M548 0h-504v105l365 347h-365v98h504v-106l-366 -347h366v-97zM461 704l-156 -103h-18l-156 103l47 58l118 -68l118 68z" />
    <glyph glyph-name="florin" unicode="&#x192;" horiz-adv-x="381" 
d="M93 -200h-105v97h80c20 0 32.833 2.16699 38.5 6.5s8.5 13.833 8.5 28.5v447h-84v97h84v218c0 42.667 10 71 30 85s54 21 102 21h106v-98h-81c-20 0 -32.833 -2.16699 -38.5 -6.5s-8.5 -13.833 -8.5 -28.5v-191h128v-97h-128v-473c0 -42.667 -10 -71 -30 -85
s-54 -21 -102 -21z" />
    <glyph glyph-name="AEacute" unicode="&#x1fc;" horiz-adv-x="1148" 
d="M1107 0h-540v305h-377v-305h-110v616c0 42.667 10 71 30 85s54 21 102 21h895v-98h-430v-222h352v-97h-352v-208h430v-97zM567 402v222h-330c-20 0 -32.833 -2.16699 -38.5 -6.5s-8.5 -13.833 -8.5 -28.5v-187h377zM839 877l-201 -102l-45 60l184 121z" />
    <glyph glyph-name="aeacute" unicode="&#x1fd;" horiz-adv-x="1108" 
d="M1030 0h-397c-37.333 -0 -63.333 5.33301 -78 16c-14.667 -10.667 -40 -16 -76 -16h-292c-48 0 -82 7 -102 21s-30 42.333 -30 85v132c0 42.667 10 71 30 85s54 21 102 21h314v73c0 14.667 -2.83301 24.167 -8.5 28.5s-18.5 6.5 -38.5 6.5h-386v98h411
c36 0 61.667 -5.66699 77 -17c15.333 11.333 41 17 77 17h291c48 0 82 -7 102 -21s30 -42.333 30 -85v-125c0 -42.667 -10 -71 -30 -85s-54 -21 -102 -21h-313v-81c0 -14.667 2.83301 -24.167 8.5 -28.5s18.5 -6.5 38.5 -6.5h372v-97zM501 133v114h-290
c-19.333 0 -32 -2.16699 -38 -6.5s-9 -13.833 -9 -28.5v-79c0 -14.667 3 -24.167 9 -28.5s18.667 -6.5 38 -6.5h243c20 0 32.833 2.16699 38.5 6.5s8.5 13.833 8.5 28.5zM947 345v72c0 14.667 -2.83301 24.167 -8.5 28.5s-18.5 6.5 -38.5 6.5h-242
c-20 0 -32.833 -2.16699 -38.5 -6.5s-8.5 -13.833 -8.5 -28.5v-107h289c20 0 32.833 2.16699 38.5 6.5s8.5 13.833 8.5 28.5zM743 705l-200 -102l-45 60l184 121z" />
    <glyph glyph-name="Oslashacute" unicode="&#x1fe;" horiz-adv-x="791" 
d="M541 877l-200 -102l-45 60l183 121zM580 0h-247l-21 -72h-92l21 72h-31c-48 0 -82 7 -102 21s-30 42.333 -30 85v510c0 42.667 10 71 30 85s54 21 102 21h243l22 73h92l-22 -73h35c48 0 82 -7 102 -21s30 -42.333 30 -85v-510c0 -42.667 -10 -71 -30 -85
s-54 -21 -102 -21zM602 132v457c0 14.667 -2.83301 24.167 -8.5 28.5s-18.5 6.5 -38.5 6.5h-39l-155 -527h194c20.667 0 33.667 2.16699 39 6.5s8 13.833 8 28.5zM270 97l154 527h-189c-20 0 -32.833 -2.16699 -38.5 -6.5s-8.5 -13.833 -8.5 -28.5v-457
c0 -14.667 2.83301 -24.167 8.5 -28.5s18.5 -6.5 38.5 -6.5h35z" />
    <glyph glyph-name="oslashacute" unicode="&#x1ff;" horiz-adv-x="692" 
d="M483 705l-200 -102l-45 60l183 121zM492 0h-177l-19 -72h-92l19 72h-23c-48 0 -82 7 -102 21s-30 42.333 -30 85v338c0 42.667 10 71 30 85s54 21 102 21h174l20 71h92l-20 -71h26c48 0 82 -7 102 -21s30 -42.333 30 -85v-338c0 -42.667 -10 -71 -30 -85
s-54 -21 -102 -21zM514 132v285c0 14.667 -2.83301 24.167 -8.5 28.5s-18.5 6.5 -38.5 6.5h-27l-98 -355h125c20 0 32.833 2.16699 38.5 6.5s8.5 13.833 8.5 28.5zM250 97l97 355h-122c-20 0 -32.833 -2.16699 -38.5 -6.5s-8.5 -13.833 -8.5 -28.5v-285
c0 -14.667 2.83301 -24.167 8.5 -28.5s18.5 -6.5 38.5 -6.5h25z" />
    <glyph glyph-name="Scommaaccent" unicode="&#x218;" horiz-adv-x="736" 
d="M535 0h-333c-48 0 -82 7 -102 21s-30 42.333 -30 85v109h110v-83c0 -14.667 2.83301 -24.167 8.5 -28.5s18.5 -6.5 38.5 -6.5h283c20 0 32.833 2.16699 38.5 6.5s8.5 13.833 8.5 28.5v145c0 14.667 -2.83301 24.167 -8.5 28.5s-18.5 6.5 -38.5 6.5h-309
c-48 0 -82 7 -102 21s-30 42.333 -30 85v198c0 42.667 10 71 30 85s54 21 102 21h332c48 0 82 -7 102 -21s30 -42.333 30 -85v-109h-109v82c0 14.667 -3 24.167 -9 28.5s-18.667 6.5 -38 6.5h-284c-19.333 0 -32 -2.16699 -38 -6.5s-9 -13.833 -9 -28.5v-145
c0 -14.667 3 -24.167 9 -28.5s18.667 -6.5 38 -6.5h310c48 0 82 -7 102 -21s30 -42.333 30 -85v-197c0 -42.667 -10 -71 -30 -85s-54 -21 -102 -21zM415 -253h-80l-14 203h108z" />
    <glyph glyph-name="scommaaccent" unicode="&#x219;" horiz-adv-x="622" 
d="M441 0h-363v97h338c20 0 32.833 2.16699 38.5 6.5s8.5 13.833 8.5 28.5v58c0 14.667 -2.83301 24.167 -8.5 28.5s-18.5 6.5 -38.5 6.5h-234c-48 0 -82 7 -102 21s-30 42.333 -30 85v113c0 42.667 10 71 30 85s54 21 102 21h361v-98h-337c-19.333 0 -32 -2.16699 -38 -6.5
s-9 -13.833 -9 -28.5v-60c0 -13.333 2.5 -22.5 7.5 -27.5s15.5 -7.5 31.5 -7.5h243c48 0 82 -7 102 -21s30 -42.333 30 -85v-110c0 -42.667 -10 -71 -30 -85s-54 -21 -102 -21zM351 -253h-80l-14 203h108z" />
    <glyph glyph-name="dotlessj" unicode="&#x237;" horiz-adv-x="316" 
d="M114 -200h-192v97h167c20 0 32.833 2.16699 38.5 6.5s8.5 13.833 8.5 28.5v520h-125v98h235v-644c0 -42.667 -10 -71 -30 -85s-54 -21 -102 -21z" />
    <glyph glyph-name="circumflex" unicode="&#x2c6;" horiz-adv-x="476" 
d="M356 602l-117 68l-119 -68l-46 59l156 103h18l155 -103z" />
    <glyph glyph-name="caron" unicode="&#x2c7;" horiz-adv-x="476" 
d="M120 762l119 -68l117 68l47 -59l-155 -103h-18l-156 103z" />
    <glyph glyph-name="breve" unicode="&#x2d8;" horiz-adv-x="600" 
d="M390 729h89.001c-6.66699 -36.667 -25.334 -68.667 -56.001 -96s-71.667 -41 -123 -41c-50 0 -90.667 13.333 -122 40s-51 59 -59 97h91c12.667 -40.667 42.667 -61 90 -61c46 0 76 20.333 90 61z" />
    <glyph glyph-name="dotaccent" unicode="&#x2d9;" horiz-adv-x="600" 
d="M354 600h-109v102h109v-102z" />
    <glyph glyph-name="ring" unicode="&#x2da;" horiz-adv-x="600" 
d="M300 580c-29.333 0 -53.333 7.83301 -72 23.5s-28 35.834 -28 60.501s9.5 44.834 28.5 60.501s43.167 23.5 72.5 23.5c28 0 51.167 -7.83301 69.5 -23.5s27.5 -35.834 27.5 -60.501s-9.16699 -44.834 -27.5 -60.501s-41.833 -23.5 -70.5 -23.5zM300 635
c10.667 0 19.5 2.66699 26.5 8s10.5 12.333 10.5 21c0 8 -3.5 14.667 -10.5 20s-15.833 8 -26.5 8c-11.333 0 -20.666 -2.5 -27.999 -7.5s-11 -11.833 -11 -20.5s3.66699 -15.667 11 -21s16.666 -8 27.999 -8z" />
    <glyph glyph-name="ogonek" unicode="&#x2db;" horiz-adv-x="600" 
d="M480 -105l-0.000976562 -67c-14 -6.66699 -29.333 -11 -46 -13c-7.33301 -0.666992 -17.666 -1 -30.999 -1c-33.333 1.33301 -59.5 10 -78.5 26s-28.5 35.333 -28.5 58c0 20 8.5 40.333 25.5 61s39.833 36.667 68.5 48h85c-24.667 -8 -45.667 -19.5 -63 -34.5
s-28.333 -29.833 -33 -44.5c-2 -8 -2.66699 -14.667 -2 -20c4.66699 -18.667 22 -28 52 -28c16 0 33 5 51 15z" />
    <glyph glyph-name="tilde" unicode="&#x2dc;" horiz-adv-x="601" 
d="M425 723l58.999 -44c-25.333 -55.333 -63.333 -83 -114 -83c-16 0 -38.167 6 -66.5 18s-46.166 19 -53.499 21c-11.333 3.33301 -20 5 -26 5c-17.333 -1.33301 -32.666 -14 -45.999 -38l-68 32c16.667 31.333 36.167 54.333 58.5 69s44.166 22 65.499 22
c22 0 46.5 -7.5 73.5 -22.5s48.167 -22.5 63.5 -22.5c14.667 0 32.667 14.333 54 43z" />
    <glyph glyph-name="hungarumlaut" unicode="&#x2dd;" horiz-adv-x="599" 
d="M586 725l-173 -131l-58 49l153 147zM389 725l-173 -131l-58 49l153 147z" />
    <glyph glyph-name="tonos" unicode="&#x384;" horiz-adv-x="482" 
d="M255 586h-96l107 173h111z" />
    <glyph glyph-name="dieresistonos" unicode="&#x385;" horiz-adv-x="706" 
d="M362 585h-75l91 184h112zM591 615h-108v103h108v-103zM272 615h-108v103h108v-103z" />
    <glyph glyph-name="Alphatonos" unicode="&#x386;" horiz-adv-x="725" 
d="M121 566h-96l108 178h111zM699 0h-115l-49 149h-298l-47 -149h-117l243 722h140zM502 250l-117 358l-115 -358h232z" />
    <glyph glyph-name="Epsilontonos" unicode="&#x388;" horiz-adv-x="841" 
d="M799 0h-540v722h540v-98h-430v-214h352v-97h-352v-216h430v-97zM96 566h-96l107 178h111z" />
    <glyph glyph-name="Etatonos" unicode="&#x389;" horiz-adv-x="970" 
d="M889 0h-110v313h-413v-313h-110v722h110v-312h413v312h110v-722zM97 566h-97l108 178h111z" />
    <glyph glyph-name="Iotatonos" unicode="&#x38a;" horiz-adv-x="685" 
d="M646 0h-401v97h146v527h-146v98h401v-98h-145v-527h145v-97zM98 566h-96l107 178h111z" />
    <glyph glyph-name="Omicrontonos" unicode="&#x38c;" horiz-adv-x="964" 
d="M754 0h-369c-48 0 -82 7 -102 21s-30 42.333 -30 85v510c0 42.667 10 71 30 85s54 21 102 21h369c48 0 82 -7 102 -21s30 -42.333 30 -85v-510c0 -42.667 -10 -71 -30 -85s-54 -21 -102 -21zM776 132v457c0 14.667 -2.83301 24.167 -8.5 28.5s-18.5 6.5 -38.5 6.5h-320
c-20 0 -32.833 -2.16699 -38.5 -6.5s-8.5 -13.833 -8.5 -28.5v-457c0 -14.667 2.83301 -24.167 8.5 -28.5s18.5 -6.5 38.5 -6.5h320c20.667 0 33.667 2.16699 39 6.5s8 13.833 8 28.5zM97 566h-97l108 178h111z" />
    <glyph glyph-name="Upsilontonos" unicode="&#x38e;" horiz-adv-x="954" 
d="M108 566h-96l107 178h111zM656 0h-110v321l-296 401h118l233 -315l231 315h119l-295 -401v-321z" />
    <glyph glyph-name="Omegatonos" unicode="&#x38f;" horiz-adv-x="999" 
d="M96 566h-96l107 178h111zM373 0h-131v97h148c20 0 32.833 2.16699 38.5 6.5s8.5 13.833 8.5 28.5v22c0 14.667 -2.83301 24.167 -8.5 28.5s-18.5 6.5 -38.5 6.5h-19c-48 0 -82 7 -102 21s-30 42.333 -30 85v321c0 42.667 10 71 30 85s54 21 102 21h426
c48 0 82 -7 102 -21s30 -42.333 30 -85v-321c0 -42.667 -10 -71 -30 -85s-54 -21 -102 -21h-19c-20 0 -32.833 -2.16699 -38.5 -6.5s-8.5 -13.833 -8.5 -28.5v-22c0 -14.667 2.83301 -24.167 8.5 -28.5s18.5 -6.5 38.5 -6.5h148v-97h-131c-26.667 -0 -46.5 0.333008 -59.5 1
s-26.833 2.66699 -41.5 6s-24.667 7.83301 -30 13.5s-10.833 14.5 -16.5 26.5s-9 25.833 -10 41.5s-1.5 36.5 -1.5 62.5c0 53.333 6.83301 89.333 20.5 108s46.167 28 97.5 28h5c27.333 0 44.333 3 51 9s10 18 10 36v257c0 14.667 -2.83301 24.167 -8.5 28.5
s-18.5 6.5 -38.5 6.5h-378c-20 0 -32.833 -2.16699 -38.5 -6.5s-8.5 -13.833 -8.5 -28.5v-257c0 -18 3.33301 -30 10 -36s23.667 -9 51 -9h5c51.333 0 83.833 -9.33301 97.5 -28s20.5 -54.667 20.5 -108c0 -26 -0.5 -46.833 -1.5 -62.5s-4.33301 -29.5 -10 -41.5
s-11.167 -20.833 -16.5 -26.5s-15.333 -10.167 -30 -13.5s-28.5 -5.33301 -41.5 -6s-32.833 -1 -59.5 -1z" />
    <glyph glyph-name="iotadieresistonos" unicode="&#x390;" horiz-adv-x="290" 
d="M275 0h-46.001c-26 -0 -45.667 0.333008 -59 1s-27.666 2.83398 -42.999 6.50098s-26.5 9.16699 -33.5 16.5s-12.833 17.666 -17.5 30.999s-7 30.333 -7 51v444h109v-415c0 -14.667 3 -24.667 9 -30s18.667 -8 38 -8h50v-97zM111.999 585h-75l91 184h112zM340.999 615
h-108v103h108v-103zM21.999 615h-108v103h108v-103z" />
    <glyph glyph-name="Alpha" unicode="&#x391;" horiz-adv-x="678" 
d="M652 0h-115l-49 149h-298l-47 -149h-117l243 722h140zM455 250l-117 358l-115 -358h232z" />
    <glyph glyph-name="Beta" unicode="&#x392;" horiz-adv-x="745" 
d="M536 0l-455 0.000976562v722h455c48 0 82 -7 102 -21s30 -42.333 30 -85v-167c0 -26 -3.83301 -46.167 -11.5 -60.5s-20.5 -24.833 -38.5 -31.5c33.333 -12.667 50 -43.334 50 -92.001v-159c0 -42.667 -10 -71 -30 -85s-54 -21 -102 -21zM558 131.001v146
c0 14.667 -2.83301 24.167 -8.5 28.5s-18.5 6.5 -38.5 6.5h-320v-215h320c20.667 0 33.667 2 39 6s8 13.333 8 28zM558 445.001v144c0 14.667 -2.83301 24.167 -8.5 28.5s-18.5 6.5 -38.5 6.5h-320v-213h320c20.667 0 33.667 2 39 6s8 13.333 8 28z" />
    <glyph glyph-name="Gamma" unicode="&#x393;" horiz-adv-x="608" 
d="M191 0h-110v722h516v-98h-406v-624z" />
    <glyph glyph-name="uni0394" unicode="&#x394;" horiz-adv-x="678" 
d="M652 0h-626l243 722h140zM504 101l-166 507l-164 -507h330z" />
    <glyph glyph-name="Epsilon" unicode="&#x395;" horiz-adv-x="663" 
d="M621 0h-540v722h540v-98h-430v-214h352v-97h-352v-216h430v-97z" />
    <glyph glyph-name="Zeta" unicode="&#x396;" horiz-adv-x="659" 
d="M617 0h-575v104l451 520h-451v98h576v-104l-448 -521h447v-97z" />
    <glyph glyph-name="Eta" unicode="&#x397;" horiz-adv-x="794" 
d="M713 0h-109v313h-413v-313h-110v722h110v-312h413v312h109v-722z" />
    <glyph glyph-name="Theta" unicode="&#x398;" horiz-adv-x="791" 
d="M506 310h-223v102h223v-102zM580 0h-370c-48 0 -82 7 -102 21s-30 42.333 -30 85v510c0 42.667 10 71 30 85s54 21 102 21h370c48 0 82 -7 102 -21s30 -42.333 30 -85v-510c0 -42.667 -10 -71 -30 -85s-54 -21 -102 -21zM602 132v457c0 14.667 -2.83301 24.167 -8.5 28.5
s-18.5 6.5 -38.5 6.5h-320c-20 0 -32.833 -2.16699 -38.5 -6.5s-8.5 -13.833 -8.5 -28.5v-457c0 -14.667 2.83301 -24.167 8.5 -28.5s18.5 -6.5 38.5 -6.5h320c20.667 0 33.667 2.16699 39 6.5s8 13.833 8 28.5z" />
    <glyph glyph-name="Iota" unicode="&#x399;" horiz-adv-x="480" 
d="M440 0h-401v97h145v527h-145v98h401v-98h-146v-527h146v-97z" />
    <glyph glyph-name="Kappa" unicode="&#x39a;" horiz-adv-x="721" 
d="M719 0h-152l-376 310v-310h-110v722h110v-317l376 317h152l-438 -361z" />
    <glyph glyph-name="Lambda" unicode="&#x39b;" horiz-adv-x="678" 
d="M652 0h-115l-199 608l-195 -608h-117l243 722h140z" />
    <glyph glyph-name="Mu" unicode="&#x39c;" horiz-adv-x="929" 
d="M848 0h-109v588l-204 -588h-131l-213 590v-590h-110v722h175l213 -573l204 573h175v-722z" />
    <glyph glyph-name="Nu" unicode="&#x39d;" horiz-adv-x="758" 
d="M677 0h-139l-347 547v-547h-110v722h135l351 -553v553h110v-722z" />
    <glyph glyph-name="Xi" unicode="&#x39e;" horiz-adv-x="625" 
d="M582 624h-540v98h540v-98zM582 0h-540v97h540v-97zM509 312h-404v98h404v-98z" />
    <glyph glyph-name="Omicron" unicode="&#x39f;" horiz-adv-x="791" 
d="M580 0h-370c-48 0 -82 7 -102 21s-30 42.333 -30 85v510c0 42.667 10 71 30 85s54 21 102 21h370c48 0 82 -7 102 -21s30 -42.333 30 -85v-510c0 -42.667 -10 -71 -30 -85s-54 -21 -102 -21zM602 132v457c0 14.667 -2.83301 24.167 -8.5 28.5s-18.5 6.5 -38.5 6.5h-320
c-20 0 -32.833 -2.16699 -38.5 -6.5s-8.5 -13.833 -8.5 -28.5v-457c0 -14.667 2.83301 -24.167 8.5 -28.5s18.5 -6.5 38.5 -6.5h320c20.667 0 33.667 2.16699 39 6.5s8 13.833 8 28.5z" />
    <glyph glyph-name="Pi" unicode="&#x3a0;" horiz-adv-x="794" 
d="M713 0h-109v624h-413v-624h-110v722h632v-722z" />
    <glyph glyph-name="Rho" unicode="&#x3a1;" horiz-adv-x="719" 
d="M191 0h-110v722h454c48 0 82 -7 102 -21s30 -42.333 30 -85v-233c0 -42.667 -10 -71 -30 -85s-54 -21 -102 -21h-344v-277zM557 409v180c0 14.667 -2.83301 24.167 -8.5 28.5s-18.5 6.5 -38.5 6.5h-319v-250h319c20.667 0 33.667 2.16699 39 6.5s8 13.833 8 28.5z" />
    <glyph glyph-name="Sigma" unicode="&#x3a3;" horiz-adv-x="629" 
d="M589 0h-551v102l277 259l-277 258v103h551v-98h-428l276 -248v-31l-276 -248h428v-97z" />
    <glyph glyph-name="Tau" unicode="&#x3a4;" horiz-adv-x="618" 
d="M363 0h-109v624h-242v98h593v-98h-242v-624z" />
    <glyph glyph-name="Upsilon" unicode="&#x3a5;" horiz-adv-x="706" 
d="M408 0h-110v321l-296 401h118l233 -315l231 315h119l-295 -401v-321z" />
    <glyph glyph-name="Phi" unicode="&#x3a6;" horiz-adv-x="754" 
d="M434 -3h-109v103h-133c-48 0 -82 7 -102 21s-30 42.333 -30 85v310c0 42.667 10 71 30 85s54 21 102 21h133v102h109v-102h128c48 0 82 -7 102 -21s30 -42.333 30 -85v-310c0 -42.667 -10 -71 -30 -85s-54 -21 -102 -21h-128v-103zM325 197v327h-108
c-20 0 -32.833 -2.16699 -38.5 -6.5s-8.5 -13.833 -8.5 -28.5v-257c0 -14.667 2.83301 -24.167 8.5 -28.5s18.5 -6.5 38.5 -6.5h108zM584 232l0.000976562 257c0 16 -3.83301 25.833 -11.5 29.5s-26.834 5.5 -57.501 5.5h-81v-327h103c20 0 32.833 2.16699 38.5 6.5
s8.5 13.833 8.5 28.5z" />
    <glyph glyph-name="Chi" unicode="&#x3a7;" horiz-adv-x="662" 
d="M649 0h-119l-199 275l-198 -275h-120l258 360l-259 362h119l200 -278l200 278h119l-260 -362z" />
    <glyph glyph-name="Psi" unicode="&#x3a8;" horiz-adv-x="776" 
d="M445 -3h-110v254h-146c-48 0 -82 7 -102 21s-30 42.333 -30 85v365h109v-339c0 -14.667 3 -24.167 9 -28.5s18.667 -6.5 38 -6.5h122v376h110v-376h117c20 0 32.833 2.16699 38.5 6.5s8.5 13.833 8.5 28.5v339h110v-365c0 -42.667 -10 -71 -30 -85s-54 -21 -102 -21h-142
v-254z" />
    <glyph glyph-name="uni03A9" unicode="&#x3a9;" horiz-adv-x="829" 
d="M202 0h-131v97h148c20 0 32.833 2.16699 38.5 6.5s8.5 13.833 8.5 28.5v22c0 14.667 -2.83301 24.167 -8.5 28.5s-18.5 6.5 -38.5 6.5h-19c-48 0 -82 7 -102 21s-30 42.333 -30 85v321c0 42.667 10 71 30 85s54 21 102 21h426c48 0 82 -7 102 -21s30 -42.333 30 -85v-321
c0 -42.667 -10 -71 -30 -85s-54 -21 -102 -21h-19c-20 0 -32.833 -2.16699 -38.5 -6.5s-8.5 -13.833 -8.5 -28.5v-22c0 -14.667 2.83301 -24.167 8.5 -28.5s18.5 -6.5 38.5 -6.5h148v-97h-131c-26.667 -0 -46.5 0.333008 -59.5 1s-26.833 2.66699 -41.5 6
s-24.667 7.83301 -30 13.5s-10.833 14.5 -16.5 26.5s-9 25.833 -10 41.5s-1.5 36.5 -1.5 62.5c0 53.333 6.83301 89.333 20.5 108s46.167 28 97.5 28h5c27.333 0 44.333 3 51 9s10 18 10 36v257c0 14.667 -2.83301 24.167 -8.5 28.5s-18.5 6.5 -38.5 6.5h-378
c-20 0 -32.833 -2.16699 -38.5 -6.5s-8.5 -13.833 -8.5 -28.5v-257c0 -18 3.33301 -30 10 -36s23.667 -9 51 -9h5c51.333 0 83.833 -9.33301 97.5 -28s20.5 -54.667 20.5 -108c0 -26 -0.5 -46.833 -1.5 -62.5s-4.33301 -29.5 -10 -41.5s-11.167 -20.833 -16.5 -26.5
s-15.333 -10.167 -30 -13.5s-28.5 -5.33301 -41.5 -6s-32.833 -1 -59.5 -1z" />
    <glyph glyph-name="Iotadieresis" unicode="&#x3aa;" horiz-adv-x="480" 
d="M440 0h-401v97h145v527h-145v98h401v-98h-146v-527h146v-97zM197 772h-108v103h108v-103zM390 772h-108v103h108v-103z" />
    <glyph glyph-name="Upsilondieresis" unicode="&#x3ab;" horiz-adv-x="706" 
d="M310 772h-109v103h109v-103zM503 772h-109v103h109v-103zM408 0h-110v321l-296 401h118l233 -315l231 315h119l-295 -401v-321z" />
    <glyph glyph-name="alphatonos" unicode="&#x3ac;" horiz-adv-x="798" 
d="M780 0h-117l-87 160l-32 -55l-13.5 -24c-6.33301 -11.333 -10.5 -18.5 -12.5 -21.5l-10.5 -16.5c-5 -8 -8.83301 -13 -11.5 -15s-6.5 -5.33301 -11.5 -10s-9.5 -7.5 -13.5 -8.5s-9.33301 -2.66699 -16 -5s-13.5 -3.66602 -20.5 -3.99902s-15.167 -0.5 -24.5 -0.5h-210
c-48 0 -82 7 -102 21s-30 42.333 -30 85v338c0 42.667 10 71 30 85s54 21 102 21h210c10.667 0 20.167 -0.666992 28.5 -2s15.5 -2.33301 21.5 -3s11.833 -3.33398 17.5 -8.00098s10 -7.83398 13 -9.50098s7.33301 -6.66699 13 -15s9.5 -14.166 11.5 -17.499
s6.33301 -11.333 13 -24s11.667 -21.667 15 -27l33 -57l89 163h115l-148 -276zM452 147l69 126l-70 129c-10 18.667 -20.5 31.667 -31.5 39s-30.833 11 -59.5 11h-135c-20 0 -32.833 -2.16699 -38.5 -6.5s-8.5 -13.833 -8.5 -28.5v-285c0 -14.667 2.83301 -24.167 8.5 -28.5
s18.5 -6.5 38.5 -6.5h159c18 0 31.667 4.16699 41 12.5s18.333 20.833 27 37.5zM359 586h-96l108 173h111z" />
    <glyph glyph-name="epsilontonos" unicode="&#x3ad;" horiz-adv-x="628" 
d="M447 0h-249c-48 0 -82 7 -102 21s-30 42.333 -30 85v84c0 39.333 9.33301 67 28 83c-19.333 14 -29 42 -29 84v87c0 42.667 10 71 30 85s54 21 102 21h248c48 0 82 -7 102 -21s30 -42.333 30 -85v-49h-109v22c0 14.667 -2.83301 24.167 -8.5 28.5s-18.5 6.5 -38.5 6.5
h-199c-20 0 -32.833 -2.16699 -38.5 -6.5s-8.5 -13.833 -8.5 -28.5v-60c0 -14.667 2.66699 -24.167 8 -28.5s18 -6.5 38 -6.5h229v-97h-231c-18 0 -29.667 -2.33301 -35 -7s-8 -14 -8 -28v-58c0 -14.667 2.83301 -24.167 8.5 -28.5s18.5 -6.5 38.5 -6.5h199
c20 0 32.833 2.16699 38.5 6.5s8.5 13.833 8.5 28.5v26h110v-52c0 -42.667 -10 -71 -30 -85s-54 -21 -102 -21zM348 586h-96l108 173h111z" />
    <glyph glyph-name="etatonos" unicode="&#x3ae;" horiz-adv-x="694" 
d="M625 -200h-110v617c0 14.667 -2.83301 24.167 -8.5 28.5s-18.5 6.5 -38.5 6.5h-242c-20 0 -32.833 -2.16699 -38.5 -6.5s-8.5 -13.833 -8.5 -28.5v-417h-110v444c0 42.667 10 71 30 85s54 21 102 21h292c48 0 82 -7 102 -21s30 -42.333 30 -85v-644zM367 586h-96l108 173
h111z" />
    <glyph glyph-name="iotatonos" unicode="&#x3af;" horiz-adv-x="291" 
d="M275 0h-74c-48 0 -82 7 -102 21s-30 42.333 -30 85v444h110v-415c0 -14.667 3 -24.667 9 -30s18.667 -8 38 -8h49v-97zM172 588h-96l68 171h111z" />
    <glyph glyph-name="upsilondieresistonos" unicode="&#x3b0;" 
d="M493 0h-292c-48 0 -82 7 -102 21s-30 42.333 -30 85v444h110v-418c0 -16 4 -25.833 12 -29.5s28 -5.5 60 -5.5h217c20 0 32.833 2.16699 38.5 6.5s8.5 13.833 8.5 28.5v282c0 14.667 -3 24.667 -9 30s-18.667 8 -38 8h-25v98h50c48 0 82 -7 102 -21s30 -42.333 30 -85
v-338c0 -42 -10 -70.167 -30 -84.5s-54 -21.5 -102 -21.5zM313 585h-75l91 184h112zM542 615h-108v103h108v-103zM223 615h-108v103h108v-103z" />
    <glyph glyph-name="alpha" unicode="&#x3b1;" horiz-adv-x="798" 
d="M780 0h-117l-87 160l-32 -55l-13.5 -24c-6.33301 -11.333 -10.5 -18.5 -12.5 -21.5l-10.5 -16.5c-5 -8 -8.83301 -13 -11.5 -15s-6.5 -5.33301 -11.5 -10s-9.5 -7.5 -13.5 -8.5s-9.33301 -2.66699 -16 -5s-13.5 -3.66602 -20.5 -3.99902s-15.167 -0.5 -24.5 -0.5h-210
c-48 0 -82 7 -102 21s-30 42.333 -30 85v338c0 42.667 10 71 30 85s54 21 102 21h210c10.667 0 20.167 -0.666992 28.5 -2s15.5 -2.33301 21.5 -3s11.833 -3.33398 17.5 -8.00098s10 -7.83398 13 -9.50098s7.33301 -6.66699 13 -15s9.5 -14.166 11.5 -17.499
s6.33301 -11.333 13 -24s11.667 -21.667 15 -27l33 -57l89 163h115l-148 -276zM452 147l69 126l-70 129c-10 18.667 -20.5 31.667 -31.5 39s-30.833 11 -59.5 11h-135c-20 0 -32.833 -2.16699 -38.5 -6.5s-8.5 -13.833 -8.5 -28.5v-285c0 -14.667 2.83301 -24.167 8.5 -28.5
s18.5 -6.5 38.5 -6.5h159c18 0 31.667 4.16699 41 12.5s18.333 20.833 27 37.5z" />
    <glyph glyph-name="beta" unicode="&#x3b2;" horiz-adv-x="633" 
d="M443 0l-195 -0.00292969v97h170c20 0 32.833 2.16699 38.5 6.5s8.5 13.833 8.5 28.5v171c0 14.667 -3.16699 24.334 -9.5 29.001s-18.166 7 -35.499 7h-153v102h105c17.333 0 29.166 2.33301 35.499 7s9.5 14.334 9.5 29.001v171c0 14.667 -2.83301 24.167 -8.5 28.5
s-18.5 6.5 -38.5 6.5h-143c-20 0 -32.833 -2.16699 -38.5 -6.5s-8.5 -13.833 -8.5 -28.5v-848h-110v874c0 42.667 10 71 30 85s54 21 102 21h193c48 0 82 -7 102 -21s30 -42.333 30 -85v-199c0 -20 -1.66699 -34.833 -5 -44.5s-11 -20.167 -23 -31.5
c14.667 -2 27 -5.66699 37 -11s17.5 -10.5 22.5 -15.5s8.83301 -12.167 11.5 -21.5s4.16699 -16.666 4.5 -21.999s0.5 -13.333 0.5 -24v-199c0 -42.667 -10 -71 -30 -85s-54 -21 -102 -21z" />
    <glyph glyph-name="gamma" unicode="&#x3b3;" horiz-adv-x="597" 
d="M353 -200h-109v200l-238 550h116l177 -433l177 433h114l-237 -550v-200z" />
    <glyph glyph-name="delta" unicode="&#x3b4;" horiz-adv-x="681" 
d="M492 0l-292 -0.000976562c-48 0 -82 7 -102 21s-30 42.333 -30 85v338c0 42.667 10 71 30 85s54 21 102 21h84c-40.667 24 -90 51.333 -148 82h-30v90h487v-90h-313c112 -55.333 197.333 -112.166 256 -170.499s88 -125.833 88 -202.5v-153c0 -42.667 -10 -71 -30 -85
s-54 -21 -102 -21zM514 131.999v116c0 38 -8.5 73 -25.5 105s-47.5 65 -91.5 99h-172c-20 0 -32.833 -2.16699 -38.5 -6.5s-8.5 -13.833 -8.5 -28.5v-285c0 -14.667 2.83301 -24.167 8.5 -28.5s18.5 -6.5 38.5 -6.5h242c20 0 32.833 2.16699 38.5 6.5s8.5 13.833 8.5 28.5z
" />
    <glyph glyph-name="epsilon" unicode="&#x3b5;" horiz-adv-x="628" 
d="M447 0h-249c-48 0 -82 7 -102 21s-30 42.333 -30 85v84c0 39.333 9.33301 67 28 83c-19.333 14 -29 42 -29 84v87c0 42.667 10 71 30 85s54 21 102 21h248c48 0 82 -7 102 -21s30 -42.333 30 -85v-49h-109v22c0 14.667 -2.83301 24.167 -8.5 28.5s-18.5 6.5 -38.5 6.5
h-199c-20 0 -32.833 -2.16699 -38.5 -6.5s-8.5 -13.833 -8.5 -28.5v-60c0 -14.667 2.66699 -24.167 8 -28.5s18 -6.5 38 -6.5h229v-97h-231c-18 0 -29.667 -2.33301 -35 -7s-8 -14 -8 -28v-58c0 -14.667 2.83301 -24.167 8.5 -28.5s18.5 -6.5 38.5 -6.5h199
c20 0 32.833 2.16699 38.5 6.5s8.5 13.833 8.5 28.5v26h110v-52c0 -42.667 -10 -71 -30 -85s-54 -21 -102 -21z" />
    <glyph glyph-name="zeta" unicode="&#x3b6;" horiz-adv-x="555" 
d="M416 -200l-73.998 -0.000976562v97h56c20 0 32.833 2.16699 38.5 6.5s8.5 13.833 8.5 28.5v33c0 14.667 -2.83301 24.167 -8.5 28.5s-18.5 6.5 -38.5 6.5h-225c-22.667 0 -39.334 0.333008 -50.001 1s-23 2.83398 -37 6.50098s-24 9.16699 -30 16.5
s-11.167 17.833 -15.5 31.5s-6.5 31.167 -6.5 52.5c0 63.333 33 144.166 99 242.499s153.333 189.5 262 273.5h-344v98h494v-98h-14c-104.667 -76.667 -194.334 -164 -269.001 -262s-112 -171.333 -112 -220c0 -19.333 2.83301 -31.666 8.5 -36.999s18.5 -8 38.5 -8h219
c48 0 82 -7 102 -21s30 -42.333 30 -85v-85c0 -42.667 -10 -71 -30 -85s-54 -21 -102 -21z" />
    <glyph glyph-name="eta" unicode="&#x3b7;" horiz-adv-x="694" 
d="M625 -200h-110v617c0 14.667 -2.83301 24.167 -8.5 28.5s-18.5 6.5 -38.5 6.5h-242c-20 0 -32.833 -2.16699 -38.5 -6.5s-8.5 -13.833 -8.5 -28.5v-417h-110v444c0 42.667 10 71 30 85s54 21 102 21h292c48 0 82 -7 102 -21s30 -42.333 30 -85v-644z" />
    <glyph glyph-name="theta" unicode="&#x3b8;" horiz-adv-x="598" 
d="M397 0h-196c-48 0 -82 7 -102 21s-30 42.333 -30 85v510c0 42.667 10 71 30 85s54 21 102 21h196c48 0 82 -7 102 -21s30 -42.333 30 -85v-510c0 -42.667 -10 -71 -30 -85s-54 -21 -102 -21zM420 412v178c0 14.667 -3 24.167 -9 28.5s-18.667 6.5 -38 6.5h-147
c-20 0 -32.833 -2.16699 -38.5 -6.5s-8.5 -13.833 -8.5 -28.5v-178h241zM420 132v178h-241v-178c0 -14.667 2.83301 -24.167 8.5 -28.5s18.5 -6.5 38.5 -6.5h147c19.333 0 32 2.16699 38 6.5s9 13.833 9 28.5z" />
    <glyph glyph-name="iota" unicode="&#x3b9;" horiz-adv-x="291" 
d="M275 0h-74c-48 0 -82 7 -102 21s-30 42.333 -30 85v444h110v-415c0 -14.667 3 -24.667 9 -30s18.667 -8 38 -8h49v-97z" />
    <glyph glyph-name="kappa" unicode="&#x3ba;" horiz-adv-x="571" 
d="M563 0h-140l-243 204v-204h-110v550h110v-205l244 205h139l-325 -275z" />
    <glyph glyph-name="lambda" unicode="&#x3bb;" horiz-adv-x="600" 
d="M591 0h-111l-177 419l-180 -419h-114l239 550l-73 172h104z" />
    <glyph glyph-name="uni03BC" unicode="&#x3bc;" horiz-adv-x="695" 
d="M494 0h-314v-200h-110v750h110v-453h289c20 0 32.833 2.16699 38.5 6.5s8.5 13.833 8.5 28.5v418h110v-444c0 -42.667 -10 -71 -30 -85s-54 -21 -102 -21z" />
    <glyph glyph-name="nu" unicode="&#x3bd;" horiz-adv-x="581" 
d="M356 0h-130l-217 550h116l166 -433l167 433h113z" />
    <glyph glyph-name="xi" unicode="&#x3be;" horiz-adv-x="570" 
d="M437 -200l-80.001 0.000976562v97h56c19.333 0 32 2.16699 38 6.5s9 13.833 9 28.5v33c0 14.667 -3 24.167 -9 28.5s-18.667 6.5 -38 6.5h-224c-48 0 -82 7 -102 21s-30 42.333 -30 85v157c0 10.667 0.166992 18.667 0.5 24s1.83301 12.666 4.5 21.999
s6.5 16.5 11.5 21.5s12.333 10.167 22 15.5s21.834 9 36.501 11c-12 10.667 -19.5 20.834 -22.5 30.501s-4.5 24.834 -4.5 45.501v191h-82v98h436v-98h-245v-196c0 -14.667 3.16699 -24.334 9.5 -29.001s18.5 -7 36.5 -7h200v-95h-248c-18 0 -30.167 -2.33301 -36.5 -7
s-9.5 -14.334 -9.5 -29.001v-129c0 -14.667 3 -24.167 9 -28.5s18.667 -6.5 38 -6.5h224c48 0 82 -7 102 -21s30 -42.333 30 -85v-85c0 -42.667 -10 -71 -30 -85s-54 -21 -102 -21z" />
    <glyph glyph-name="omicron" unicode="&#x3bf;" horiz-adv-x="692" 
d="M492 0h-292c-48 0 -82 7 -102 21s-30 42.333 -30 85v338c0 42.667 10 71 30 85s54 21 102 21h292c48 0 82 -7 102 -21s30 -42.333 30 -85v-338c0 -42.667 -10 -71 -30 -85s-54 -21 -102 -21zM514 132v285c0 14.667 -2.83301 24.167 -8.5 28.5s-18.5 6.5 -38.5 6.5h-242
c-20 0 -32.833 -2.16699 -38.5 -6.5s-8.5 -13.833 -8.5 -28.5v-285c0 -14.667 2.83301 -24.167 8.5 -28.5s18.5 -6.5 38.5 -6.5h242c20 0 32.833 2.16699 38.5 6.5s8.5 13.833 8.5 28.5z" />
    <glyph glyph-name="pi" unicode="&#x3c0;" horiz-adv-x="702" 
d="M659 0h-61c-48 0 -82 7 -102 21s-30 42.333 -30 85v346h-240v-452h-110v452h-92v98h635v-98h-83v-320c0 -14.667 2.83301 -24.167 8.5 -28.5s18.5 -6.5 38.5 -6.5h36v-97z" />
    <glyph glyph-name="rho" unicode="&#x3c1;" 
d="M493 0h-314v-200h-110v644c0 42.667 10 71 30 85s54 21 102 21h292c48 0 82 -7 102 -21s30 -42.333 30 -85v-338c0 -42.667 -10 -71 -30 -85s-54 -21 -102 -21zM515 132v285c0 14.667 -2.83301 24.167 -8.5 28.5s-18.5 6.5 -38.5 6.5h-242
c-20 0 -32.833 -2.16699 -38.5 -6.5s-8.5 -13.833 -8.5 -28.5v-320h289c20 0 32.833 2.16699 38.5 6.5s8.5 13.833 8.5 28.5z" />
    <glyph glyph-name="sigma1" unicode="&#x3c2;" horiz-adv-x="619" 
d="M449 -200h-81v97h56c20 0 32.833 2.16699 38.5 6.5s8.5 13.833 8.5 28.5v33c0 14.667 -2.83301 24.167 -8.5 28.5s-18.5 6.5 -38.5 6.5h-224c-48 0 -82 7 -102 21s-30 42.333 -30 85v338c0 42.667 10 71 30 85s54 21 102 21h248c48 0 82 -7 102 -21s30 -42.333 30 -85
v-49h-109v22c0 14.667 -2.83301 24.167 -8.5 28.5s-18.5 6.5 -38.5 6.5h-199c-20 0 -32.833 -2.16699 -38.5 -6.5s-8.5 -13.833 -8.5 -28.5v-285c0 -14.667 2.83301 -24.167 8.5 -28.5s18.5 -6.5 38.5 -6.5h224c48 0 82 -7 102 -21s30 -42.333 30 -85v-85
c0 -42.667 -10 -71 -30 -85s-54 -21 -102 -21z" />
    <glyph glyph-name="sigma" unicode="&#x3c3;" horiz-adv-x="707" 
d="M492 0h-292c-48 0 -82 7 -102 21s-30 42.333 -30 85v338c0 42.667 10 71 30 85s54 21 102 21h479v-98h-55v-346c0 -42.667 -10 -71 -30 -85s-54 -21 -102 -21zM514 132v320h-289c-20 0 -32.833 -2.16699 -38.5 -6.5s-8.5 -13.833 -8.5 -28.5v-285
c0 -14.667 2.83301 -24.167 8.5 -28.5s18.5 -6.5 38.5 -6.5h242c20 0 32.833 2.16699 38.5 6.5s8.5 13.833 8.5 28.5z" />
    <glyph glyph-name="tau" unicode="&#x3c4;" horiz-adv-x="490" 
d="M385 0h-63c-48 0 -82 7 -102 21s-30 42.333 -30 85v346h-172v98h452v-98h-171v-320c0 -14.667 2.83301 -24.167 8.5 -28.5s18.5 -6.5 38.5 -6.5h39v-97z" />
    <glyph glyph-name="upsilon" unicode="&#x3c5;" 
d="M493 0h-292c-48 0 -82 7 -102 21s-30 42.333 -30 85v444h110v-418c0 -14.667 2.83301 -24.167 8.5 -28.5s18.5 -6.5 38.5 -6.5h242c20 0 32.833 2.16699 38.5 6.5s8.5 13.833 8.5 28.5v282c0 14.667 -3 24.667 -9 30s-18.667 8 -38 8h-25v98h50c48 0 82 -7 102 -21
s30 -42.333 30 -85v-338c0 -42.667 -10 -71 -30 -85s-54 -21 -102 -21z" />
    <glyph glyph-name="phi" unicode="&#x3c6;" horiz-adv-x="757" 
d="M435 -200h-110v200h-125c-48 0 -82 7 -102 21s-30 42.333 -30 85v338c0 42.667 10 71 30 85s54 21 102 21h49v-98h-24c-20 0 -32.833 -2.16699 -38.5 -6.5s-8.5 -13.833 -8.5 -28.5v-285c0 -14.667 2.83301 -24.167 8.5 -28.5s18.5 -6.5 38.5 -6.5h100v347
c0 42.667 10 71 30 85s54 21 102 21h100c48 0 82 -7 102 -21s30 -42.333 30 -85v-338c0 -42.667 -10 -71 -30 -85s-54 -21 -102 -21h-122v-200zM580 132v285c0 14.667 -2.83301 24.167 -8.5 28.5s-18.5 6.5 -38.5 6.5h-51c-20 0 -32.833 -2.16699 -38.5 -6.5
s-8.5 -13.833 -8.5 -28.5v-320h98c20 0 32.833 2.16699 38.5 6.5s8.5 13.833 8.5 28.5z" />
    <glyph glyph-name="chi" unicode="&#x3c7;" horiz-adv-x="561" 
d="M556 -200h-119l-158 267l-156 -267h-119l216 373l-217 377h119l157 -271l159 271h120l-219 -377z" />
    <glyph glyph-name="psi" unicode="&#x3c8;" horiz-adv-x="722" 
d="M419 -200h-110v200h-108c-48 0 -82 7 -102 21s-30 42.333 -30 85v444h110v-418c0 -14.667 2.83301 -24.167 8.5 -28.5s18.5 -6.5 38.5 -6.5h83v625h110v-625h78c19.333 0 32 2.16699 38 6.5s9 13.833 9 28.5v418h109v-444c0 -42.667 -10 -71 -30 -85s-54 -21 -102 -21
h-102v-200z" />
    <glyph glyph-name="omega" unicode="&#x3c9;" horiz-adv-x="803" 
d="M603 0h-99c-50.667 0 -84.667 7 -102 21c-18 -14 -52 -21 -102 -21h-100c-48 0 -82 7 -102 21s-30 42.333 -30 85v338c0 42.667 10 71 30 85s54 21 102 21h60v-98h-35c-20 0 -32.833 -2.16699 -38.5 -6.5s-8.5 -13.833 -8.5 -28.5v-285
c0 -14.667 2.83301 -24.167 8.5 -28.5s18.5 -6.5 38.5 -6.5h75c19.333 0 32 2.16699 38 6.5s9 13.833 9 28.5v258h109v-258c0 -14.667 3 -24.167 9 -28.5s18.667 -6.5 38 -6.5h76c20 0 32.833 2.16699 38.5 6.5s8.5 13.833 8.5 28.5v285c0 14.667 -2.83301 24.167 -8.5 28.5
s-18.5 6.5 -38.5 6.5h-36v98h60c48 0 82 -7 102 -21s30 -42.333 30 -85v-338c0 -42.667 -10 -71 -30 -85s-54 -21 -102 -21z" />
    <glyph glyph-name="iotadieresis" unicode="&#x3ca;" horiz-adv-x="290" 
d="M274 0h-74c-48 0 -82 7 -102 21s-30 42.333 -30 85v444h110v-415c0 -14.667 3 -24.667 9 -30s18.667 -8 38 -8h49v-97zM83 600h-108v103h108v-103zM276 600h-108v103h108v-103z" />
    <glyph glyph-name="upsilondieresis" unicode="&#x3cb;" 
d="M493 0h-292c-48 0 -82 7 -102 21s-30 42.333 -30 85v444h110v-418c0 -14.667 2.83301 -24.167 8.5 -28.5s18.5 -6.5 38.5 -6.5h242c20 0 32.833 2.16699 38.5 6.5s8.5 13.833 8.5 28.5v282c0 14.667 -3 24.667 -9 30s-18.667 8 -38 8h-25v98h50c48 0 82 -7 102 -21
s30 -42.333 30 -85v-338c0 -42.667 -10 -71 -30 -85s-54 -21 -102 -21zM285 600h-109v103h109v-103zM477 600h-108v103h108v-103z" />
    <glyph glyph-name="omicrontonos" unicode="&#x3cc;" horiz-adv-x="692" 
d="M492 0h-292c-48 0 -82 7 -102 21s-30 42.333 -30 85v338c0 42.667 10 71 30 85s54 21 102 21h292c48 0 82 -7 102 -21s30 -42.333 30 -85v-338c0 -42.667 -10 -71 -30 -85s-54 -21 -102 -21zM514 132v285c0 14.667 -2.83301 24.167 -8.5 28.5s-18.5 6.5 -38.5 6.5h-242
c-20 0 -32.833 -2.16699 -38.5 -6.5s-8.5 -13.833 -8.5 -28.5v-285c0 -14.667 2.83301 -24.167 8.5 -28.5s18.5 -6.5 38.5 -6.5h242c20 0 32.833 2.16699 38.5 6.5s8.5 13.833 8.5 28.5zM371 586h-96l108 173h111z" />
    <glyph glyph-name="upsilontonos" unicode="&#x3cd;" 
d="M493 0h-292c-48 0 -82 7 -102 21s-30 42.333 -30 85v444h110v-418c0 -14.667 2.83301 -24.167 8.5 -28.5s18.5 -6.5 38.5 -6.5h242c20 0 32.833 2.16699 38.5 6.5s8.5 13.833 8.5 28.5v282c0 14.667 -3 24.667 -9 30s-18.667 8 -38 8h-25v98h50c48 0 82 -7 102 -21
s30 -42.333 30 -85v-338c0 -42.667 -10 -71 -30 -85s-54 -21 -102 -21zM335 586h-96l108 173h111z" />
    <glyph glyph-name="omegatonos" unicode="&#x3ce;" horiz-adv-x="803" 
d="M603 0h-99c-50.667 0 -84.667 7 -102 21c-18 -14 -52 -21 -102 -21h-100c-48 0 -82 7 -102 21s-30 42.333 -30 85v338c0 42.667 10 71 30 85s54 21 102 21h60v-98h-35c-20 0 -32.833 -2.16699 -38.5 -6.5s-8.5 -13.833 -8.5 -28.5v-285
c0 -14.667 2.83301 -24.167 8.5 -28.5s18.5 -6.5 38.5 -6.5h75c19.333 0 32 2.16699 38 6.5s9 13.833 9 28.5v258h109v-258c0 -14.667 3 -24.167 9 -28.5s18.667 -6.5 38 -6.5h76c20 0 32.833 2.16699 38.5 6.5s8.5 13.833 8.5 28.5v285c0 14.667 -2.83301 24.167 -8.5 28.5
s-18.5 6.5 -38.5 6.5h-36v98h60c48 0 82 -7 102 -21s30 -42.333 30 -85v-338c0 -42.667 -10 -71 -30 -85s-54 -21 -102 -21zM426 586h-96l108 173h111z" />
    <glyph glyph-name="uni0400" unicode="&#x400;" horiz-adv-x="663" 
d="M621 0h-540v722h540v-98h-430v-214h352v-97h-352v-216h430v-97zM407 776l-201 102l63 80l184 -122z" />
    <glyph glyph-name="uni0401" unicode="&#x401;" horiz-adv-x="663" 
d="M621 0h-540v722h540v-98h-430v-214h352v-97h-352v-216h430v-97zM323 772h-108v103h108v-103zM516 772h-108v103h108v-103z" />
    <glyph glyph-name="uni0402" unicode="&#x402;" horiz-adv-x="887" 
d="M702 0h-186v97h162c19.333 0 32 2.16699 38 6.5s9 13.833 9 28.5v180c0 14.667 -3 24.167 -9 28.5s-18.667 6.5 -38 6.5h-315v-347h-109v624h-242v98h593v-98h-242v-179h339c48 0 82 -7 102 -21s30 -42.333 30 -85v-233c0 -42.667 -10 -71 -30 -85s-54 -21 -102 -21z" />
    <glyph glyph-name="uni0403" unicode="&#x403;" horiz-adv-x="608" 
d="M191 0h-110v722h516v-98h-406v-624zM530 877l-201 -102l-45 60l183 121z" />
    <glyph glyph-name="uni0404" unicode="&#x404;" horiz-adv-x="733" 
d="M543 0h-333c-48 0 -82 7 -102 21s-30 42.333 -30 85v510c0 42.667 10 71 30 85s54 21 102 21h333c48 0 82 -7 102 -21s30 -42.333 30 -85v-109h-110v82c0 14.667 -2.83301 24.167 -8.5 28.5s-18.5 6.5 -38.5 6.5h-283c-20 0 -32.833 -2.16699 -38.5 -6.5
s-8.5 -13.833 -8.5 -28.5v-179h352v-97h-352v-181c0 -14.667 2.83301 -24.167 8.5 -28.5s18.5 -6.5 38.5 -6.5h283c20.667 0 33.667 2.16699 39 6.5s8 13.833 8 28.5v83h110v-109c0 -42.667 -10 -71 -30 -85s-54 -21 -102 -21z" />
    <glyph glyph-name="uni0405" unicode="&#x405;" horiz-adv-x="736" 
d="M535 0h-333c-48 0 -82 7 -102 21s-30 42.333 -30 85v109h110v-83c0 -14.667 2.83301 -24.167 8.5 -28.5s18.5 -6.5 38.5 -6.5h283c20 0 32.833 2.16699 38.5 6.5s8.5 13.833 8.5 28.5v145c0 14.667 -2.83301 24.167 -8.5 28.5s-18.5 6.5 -38.5 6.5h-309
c-48 0 -82 7 -102 21s-30 42.333 -30 85v198c0 42.667 10 71 30 85s54 21 102 21h332c48 0 82 -7 102 -21s30 -42.333 30 -85v-109h-109v82c0 14.667 -3 24.167 -9 28.5s-18.667 6.5 -38 6.5h-284c-19.333 0 -32 -2.16699 -38 -6.5s-9 -13.833 -9 -28.5v-145
c0 -14.667 3 -24.167 9 -28.5s18.667 -6.5 38 -6.5h310c48 0 82 -7 102 -21s30 -42.333 30 -85v-197c0 -42.667 -10 -71 -30 -85s-54 -21 -102 -21z" />
    <glyph glyph-name="uni0406" unicode="&#x406;" horiz-adv-x="480" 
d="M440 0h-401v97h145v527h-145v98h401v-98h-146v-527h146v-97z" />
    <glyph glyph-name="uni0407" unicode="&#x407;" horiz-adv-x="480" 
d="M440 0h-401v97h145v527h-145v98h401v-98h-146v-527h146v-97zM197 772h-108v103h108v-103zM390 772h-108v103h108v-103z" />
    <glyph glyph-name="uni0408" unicode="&#x408;" horiz-adv-x="463" 
d="M251 0h-239v97h214c20.667 0 33.667 2.16699 39 6.5s8 13.833 8 28.5v590h110v-616c0 -42.667 -10 -71 -30 -85s-54 -21 -102 -21z" />
    <glyph glyph-name="uni0409" unicode="&#x409;" horiz-adv-x="1235" 
d="M1051 0h-454v624h-304l-85 -518c-7.33301 -43.333 -19.833 -71.833 -37.5 -85.5s-49.167 -20.5 -94.5 -20.5h-68v97h35c12.667 0 23 1 31 3s14 5.83301 18 11.5s6.5 10.5 7.5 14.5s2.5 11 4.5 21l90 575h512v-277h345c48 0 82 -7 102 -21s30 -42.333 30 -85v-233
c0 -42.667 -10 -71 -30 -85s-54 -21 -102 -21zM1073 132v180c0 14.667 -2.83301 24.167 -8.5 28.5s-18.5 6.5 -38.5 6.5h-320v-250h320c20 0 32.833 2.16699 38.5 6.5s8.5 13.833 8.5 28.5z" />
    <glyph glyph-name="uni040A" unicode="&#x40a;" horiz-adv-x="1242" 
d="M1058 0h-454v347h-413v-347h-110v722h110v-277h413v277h109v-277h345c48 0 82 -7 102 -21s30 -42.333 30 -85v-233c0 -42.667 -10 -71 -30 -85s-54 -21 -102 -21zM1080 132v180c0 14.667 -2.83301 24.167 -8.5 28.5s-18.5 6.5 -38.5 6.5h-320v-250h320
c20 0 32.833 2.16699 38.5 6.5s8.5 13.833 8.5 28.5z" />
    <glyph glyph-name="uni040B" unicode="&#x40b;" horiz-adv-x="890" 
d="M834 0h-109v312c0 14.667 -3 24.167 -9 28.5s-18.667 6.5 -38 6.5h-315v-347h-109v624h-242v98h593v-98h-242v-179h339c48 0 82 -7 102 -21s30 -42.333 30 -85v-339z" />
    <glyph glyph-name="uni040C" unicode="&#x40c;" horiz-adv-x="688" 
d="M676 0h-132l-230 312h-123v-312h-110v722h110v-313h122l231 313h131l-271 -361zM531 877l-200 -102l-45 60l183 121z" />
    <glyph glyph-name="uni040D" unicode="&#x40d;" horiz-adv-x="758" 
d="M445 836l-46 -60l-201 102l63 80zM220 0h-139v722h110v-553l351 553h135v-722h-110v547z" />
    <glyph glyph-name="uni040E" unicode="&#x40e;" horiz-adv-x="714" 
d="M189 0h-123l231 312l-304 410h123l243 -328l242 328h123zM449 857h89.001c-6.66699 -36.667 -25.334 -68.667 -56.001 -96s-71.667 -41 -123 -41c-50 0 -90.833 13.333 -122.5 40s-51.5 59 -59.5 97h91c12.667 -40.667 43 -61 91 -61c46 0 76 20.333 90 61z" />
    <glyph glyph-name="uni040F" unicode="&#x40f;" horiz-adv-x="794" 
d="M713 0h-258v-138h-110v138h-264v722h110v-625h413v625h109v-722z" />
    <glyph glyph-name="uni0410" unicode="&#x410;" horiz-adv-x="678" 
d="M652 0h-115l-49 149h-298l-47 -149h-117l243 722h140zM455 250l-117 358l-115 -358h232z" />
    <glyph glyph-name="uni0411" unicode="&#x411;" horiz-adv-x="729" 
d="M535 0h-454v722h566v-98h-456v-179h344c48 0 82 -7 102 -21s30 -42.333 30 -85v-233c0 -42.667 -10 -71 -30 -85s-54 -21 -102 -21zM557 132v181c0 14.667 -2.66699 24 -8 28s-18.333 6 -39 6h-319v-250h319c20 0 32.833 2.16699 38.5 6.5s8.5 13.833 8.5 28.5z" />
    <glyph glyph-name="uni0412" unicode="&#x412;" horiz-adv-x="745" 
d="M536 0l-455 0.000976562v722h455c48 0 82 -7 102 -21s30 -42.333 30 -85v-167c0 -26 -3.83301 -46.167 -11.5 -60.5s-20.5 -24.833 -38.5 -31.5c33.333 -12.667 50 -43.334 50 -92.001v-159c0 -42.667 -10 -71 -30 -85s-54 -21 -102 -21zM558 131.001v146
c0 14.667 -2.83301 24.167 -8.5 28.5s-18.5 6.5 -38.5 6.5h-320v-215h320c20.667 0 33.667 2 39 6s8 13.333 8 28zM558 445.001v144c0 14.667 -2.83301 24.167 -8.5 28.5s-18.5 6.5 -38.5 6.5h-320v-213h320c20.667 0 33.667 2 39 6s8 13.333 8 28z" />
    <glyph glyph-name="uni0413" unicode="&#x413;" horiz-adv-x="608" 
d="M191 0h-110v722h516v-98h-406v-624z" />
    <glyph glyph-name="uni0414" unicode="&#x414;" horiz-adv-x="814" 
d="M784 -139l-108.999 0.000976562v139h-558v-139h-109v236h35c12.667 0 23.167 1.16699 31.5 3.5s14.333 6.33301 18 12s6.16699 10.667 7.5 15s2.66602 11.166 3.99902 20.499l90 574h512v-625h78v-236zM597.001 97.001v527h-305l-78 -465c-4 -28 -10 -48.667 -18 -62h401
z" />
    <glyph glyph-name="uni0415" unicode="&#x415;" horiz-adv-x="663" 
d="M621 0h-540v722h540v-98h-430v-214h352v-97h-352v-216h430v-97z" />
    <glyph glyph-name="uni0416" unicode="&#x416;" horiz-adv-x="906" 
d="M893 0h-115l-234 307h-37v-307h-110v307h-37l-232 -307h-116l267 360l-268 362h116l238 -318h32v318h110v-318h31l241 318h115l-269 -362z" />
    <glyph glyph-name="uni0417" unicode="&#x417;" horiz-adv-x="726" 
d="M516 0h-326.001c-48 0 -82 7 -102 21s-30 42.333 -30 85v110h110v-84c0 -14.667 2.66699 -24.167 8 -28.5s18.333 -6.5 39 -6.5h277c20.667 0 33.667 2.16699 39 6.5s8 13.833 8 28.5v143c0 14.667 -2.83301 24.167 -8.5 28.5s-18.5 6.5 -38.5 6.5h-189v98h188
c20.667 0 33.834 2.16699 39.501 6.5s8.5 13.5 8.5 27.5v147c0 14.667 -3 24.167 -9 28.5s-18.667 6.5 -38 6.5h-276c-20 0 -32.833 -2.16699 -38.5 -6.5s-8.5 -13.833 -8.5 -28.5v-83h-110v110c0 42.667 10 71 30 85s54 21 102 21h325c48 0 82 -7 102 -21
s30 -42.333 30 -85v-167c0 -26 -3.66699 -46.167 -11 -60.5s-20 -24.833 -38 -31.5c18 -6.66699 30.667 -17.167 38 -31.5s11 -34.5 11 -60.5v-159c0 -42.667 -10 -71 -30 -85s-54 -21 -102 -21z" />
    <glyph glyph-name="uni0418" unicode="&#x418;" horiz-adv-x="758" 
d="M220 0h-139v722h110v-553l351 553h135v-722h-110v547z" />
    <glyph glyph-name="uni0419" unicode="&#x419;" horiz-adv-x="758" 
d="M457 876h89.001c-6.66699 -36.667 -25.334 -68.667 -56.001 -96s-71.667 -41 -123 -41c-50 0 -90.667 13.333 -122 40s-51 59 -59 97h90c12.667 -40.667 43 -61 91 -61c46 0 76 20.333 90 61zM220.001 0h-139v722h110v-553l351 553h135v-722h-110v547z" />
    <glyph glyph-name="uni041A" unicode="&#x41a;" horiz-adv-x="688" 
d="M676 0h-132l-230 312h-123v-312h-110v722h110v-313h122l231 313h131l-271 -361z" />
    <glyph glyph-name="uni041B" unicode="&#x41b;" horiz-adv-x="787" 
d="M706 0h-108.999v624h-306l-83 -518c-6.66699 -43.333 -18.834 -71.833 -36.501 -85.5s-49.5 -20.5 -95.5 -20.5h-68v97h35c12.667 0 23 1 31 3s14 5.83301 18 11.5s6.5 10.5 7.5 14.5s2.5 11 4.5 21l90 575h512v-722z" />
    <glyph glyph-name="uni041C" unicode="&#x41c;" horiz-adv-x="929" 
d="M848 0h-109v588l-204 -588h-131l-213 590v-590h-110v722h175l213 -583l204 583h175v-722z" />
    <glyph glyph-name="uni041D" unicode="&#x41d;" horiz-adv-x="794" 
d="M713 0h-109v313h-413v-313h-110v722h110v-312h413v312h109v-722z" />
    <glyph glyph-name="uni041E" unicode="&#x41e;" horiz-adv-x="791" 
d="M580 0h-370c-48 0 -82 7 -102 21s-30 42.333 -30 85v510c0 42.667 10 71 30 85s54 21 102 21h370c48 0 82 -7 102 -21s30 -42.333 30 -85v-510c0 -42.667 -10 -71 -30 -85s-54 -21 -102 -21zM602 132v457c0 14.667 -2.83301 24.167 -8.5 28.5s-18.5 6.5 -38.5 6.5h-320
c-20 0 -32.833 -2.16699 -38.5 -6.5s-8.5 -13.833 -8.5 -28.5v-457c0 -14.667 2.83301 -24.167 8.5 -28.5s18.5 -6.5 38.5 -6.5h320c20.667 0 33.667 2.16699 39 6.5s8 13.833 8 28.5z" />
    <glyph glyph-name="uni041F" unicode="&#x41f;" horiz-adv-x="794" 
d="M713 0h-109v624h-413v-624h-110v722h632v-722z" />
    <glyph glyph-name="uni0420" unicode="&#x420;" horiz-adv-x="719" 
d="M191 0h-110v722h454c48 0 82 -7 102 -21s30 -42.333 30 -85v-233c0 -42.667 -10 -71 -30 -85s-54 -21 -102 -21h-344v-277zM557 409v180c0 14.667 -2.83301 24.167 -8.5 28.5s-18.5 6.5 -38.5 6.5h-319v-250h319c20.667 0 33.667 2.16699 39 6.5s8 13.833 8 28.5z" />
    <glyph glyph-name="uni0421" unicode="&#x421;" horiz-adv-x="733" 
d="M543 0h-333c-48 0 -82 7 -102 21s-30 42.333 -30 85v510c0 42.667 10 71 30 85s54 21 102 21h333c48 0 82 -7 102 -21s30 -42.333 30 -85v-109h-110v82c0 14.667 -2.83301 24.167 -8.5 28.5s-18.5 6.5 -38.5 6.5h-283c-20 0 -32.833 -2.16699 -38.5 -6.5
s-8.5 -13.833 -8.5 -28.5v-457c0 -14.667 2.83301 -24.167 8.5 -28.5s18.5 -6.5 38.5 -6.5h283c20.667 0 33.667 2.16699 39 6.5s8 13.833 8 28.5v83h110v-109c0 -42.667 -10 -71 -30 -85s-54 -21 -102 -21z" />
    <glyph glyph-name="uni0422" unicode="&#x422;" horiz-adv-x="618" 
d="M363 0h-109v624h-242v98h593v-98h-242v-624z" />
    <glyph glyph-name="uni0423" unicode="&#x423;" horiz-adv-x="714" 
d="M189 0h-123l231 312l-304 410h123l243 -328l242 328h123z" />
    <glyph glyph-name="uni0424" unicode="&#x424;" horiz-adv-x="754" 
d="M434 -3h-109v103h-133c-48 0 -82 7 -102 21s-30 42.333 -30 85v310c0 42.667 10 71 30 85s54 21 102 21h133v102h109v-102h128c48 0 82 -7 102 -21s30 -42.333 30 -85v-310c0 -42.667 -10 -71 -30 -85s-54 -21 -102 -21h-128v-103zM325 197v327h-108
c-20 0 -32.833 -2.16699 -38.5 -6.5s-8.5 -13.833 -8.5 -28.5v-257c0 -14.667 2.83301 -24.167 8.5 -28.5s18.5 -6.5 38.5 -6.5h108zM584 232l0.000976562 257c0 16 -3.83301 25.833 -11.5 29.5s-26.834 5.5 -57.501 5.5h-81v-327h103c20 0 32.833 2.16699 38.5 6.5
s8.5 13.833 8.5 28.5z" />
    <glyph glyph-name="uni0425" unicode="&#x425;" horiz-adv-x="662" 
d="M649 0h-119l-199 275l-198 -275h-120l258 360l-259 362h119l200 -278l200 278h119l-260 -362z" />
    <glyph glyph-name="uni0426" unicode="&#x426;" horiz-adv-x="815" 
d="M773 -138h-109v138h-583v722h110v-625h413v625h109v-625h60v-235z" />
    <glyph glyph-name="uni0427" unicode="&#x427;" horiz-adv-x="723" 
d="M642 0h-110v251h-344c-48 0 -82 7 -102 21s-30 42.333 -30 85v365h110v-339c0 -14.667 2.83301 -24.167 8.5 -28.5s18.5 -6.5 38.5 -6.5h319v374h110v-722z" />
    <glyph glyph-name="uni0428" unicode="&#x428;" horiz-adv-x="940" 
d="M859 0h-778v722h110v-625h226v625h110v-625h222v625h110v-722z" />
    <glyph glyph-name="uni0429" unicode="&#x429;" horiz-adv-x="961" 
d="M919 -138h-110v138h-728v722h110v-625h226v625h110v-625h222v625h110v-625h60v-235z" />
    <glyph glyph-name="uni042A" unicode="&#x42a;" horiz-adv-x="1012" 
d="M828 0h-454v624h-366v98h476v-277h344c48 0 82 -7 102 -21s30 -42.333 30 -85v-233c0 -42.667 -10 -71 -30 -85s-54 -21 -102 -21zM850 132v181c0 14.667 -2.66699 24 -8 28s-18.333 6 -39 6h-319v-250h319c20 0 32.833 2.16699 38.5 6.5s8.5 13.833 8.5 28.5z" />
    <glyph glyph-name="uni042B" unicode="&#x42b;" horiz-adv-x="982" 
d="M535 0h-454v722h110v-277h344c48 0 82 -7 102 -21s30 -42.333 30 -85v-233c0 -42.667 -10 -71 -30 -85s-54 -21 -102 -21zM557 132v181c0 14.667 -2.66699 24 -8 28s-18.333 6 -39 6h-319v-250h319c20 0 32.833 2.16699 38.5 6.5s8.5 13.833 8.5 28.5zM901 0h-109v722
h109v-722z" />
    <glyph glyph-name="uni042C" unicode="&#x42c;" horiz-adv-x="719" 
d="M535 0h-454v722h110v-277h344c48 0 82 -7 102 -21s30 -42.333 30 -85v-233c0 -42.667 -10 -71 -30 -85s-54 -21 -102 -21zM557 132v181c0 14.667 -2.66699 24 -8 28s-18.333 6 -39 6h-319v-250h319c20 0 32.833 2.16699 38.5 6.5s8.5 13.833 8.5 28.5z" />
    <glyph glyph-name="uni042D" unicode="&#x42d;" horiz-adv-x="734" 
d="M524 0h-334c-48 0 -82 7 -102 21s-30 42.333 -30 85v109h110v-83c0 -14.667 2.66699 -24.167 8 -28.5s18.333 -6.5 39 -6.5h284c20 0 32.833 2.16699 38.5 6.5s8.5 13.833 8.5 28.5v181h-352v97h352v179c0 14.667 -2.83301 24.167 -8.5 28.5s-18.5 6.5 -38.5 6.5h-284
c-20 0 -32.833 -2.16699 -38.5 -6.5s-8.5 -13.833 -8.5 -28.5v-82h-110v109c0 42.667 10 71 30 85s54 21 102 21h334c48 0 82 -7 102 -21s30 -42.333 30 -85v-510c0 -42.667 -10 -71 -30 -85s-54 -21 -102 -21z" />
    <glyph glyph-name="uni042E" unicode="&#x42e;" horiz-adv-x="1046" 
d="M835 0h-350c-48 0 -82 7 -102 21s-30 42.333 -30 85v203h-162v-309h-110v722h110v-311h162v205c0 42.667 10 71 30 85s54 21 102 21h350c48 0 82 -7 102 -21s30 -42.333 30 -85v-510c0 -42.667 -10 -71 -30 -85s-54 -21 -102 -21zM858 132v457
c0 14.667 -2.83301 24.167 -8.5 28.5s-18.5 6.5 -38.5 6.5h-301c-20 0 -32.833 -2.16699 -38.5 -6.5s-8.5 -13.833 -8.5 -28.5v-457c0 -14.667 2.83301 -24.167 8.5 -28.5s18.5 -6.5 38.5 -6.5h301c20 0 32.833 2.16699 38.5 6.5s8.5 13.833 8.5 28.5z" />
    <glyph glyph-name="uni042F" unicode="&#x42f;" horiz-adv-x="728" 
d="M647 0h-110v277h-155l-202 -277h-115l201 277h-73c-48 0 -82 7 -102 21s-30 42.333 -30 85v233c0 42.667 10 71 30 85s54 21 102 21h454v-722zM537 374v250h-319c-20 0 -32.833 -2.16699 -38.5 -6.5s-8.5 -13.833 -8.5 -28.5v-180c0 -14.667 2.66699 -24.167 8 -28.5
s18.333 -6.5 39 -6.5h319z" />
    <glyph glyph-name="uni0430" unicode="&#x430;" horiz-adv-x="679" 
d="M479 0h-292c-48 0 -82 7 -102 21s-30 42.333 -30 85v132c0 42.667 10 71 30 85s54 21 102 21h314v73c0 14.667 -2.83301 24.167 -8.5 28.5s-18.5 6.5 -38.5 6.5h-386v98h411c48 0 82 -7 102 -21s30 -42.333 30 -85v-338c0 -42.667 -10 -71 -30 -85s-54 -21 -102 -21z
M501 132v114h-290c-19.333 0 -32 -2.16699 -38 -6.5s-9 -13.833 -9 -28.5v-79c0 -14.667 3 -24.167 9 -28.5s18.667 -6.5 38 -6.5h243c20 0 32.833 2.16699 38.5 6.5s8.5 13.833 8.5 28.5z" />
    <glyph glyph-name="uni0431" unicode="&#x431;" 
d="M493 0h-292c-48 0 -82 7 -102 21s-30 42.333 -30 85v510c0 42.667 10 71 30 85s54 21 102 21h362v-98h-337c-20 0 -32.833 -2.16699 -38.5 -6.5s-8.5 -13.833 -8.5 -28.5v-40h314c48 0 82 -7 102 -21s30 -42.333 30 -85v-337c0 -42.667 -10 -71 -30 -85s-54 -21 -102 -21
zM515 132v285c0 14.667 -2.83301 24.167 -8.5 28.5s-18.5 6.5 -38.5 6.5h-289v-320c0 -14.667 2.83301 -24.167 8.5 -28.5s18.5 -6.5 38.5 -6.5h242c20 0 32.833 2.16699 38.5 6.5s8.5 13.833 8.5 28.5z" />
    <glyph glyph-name="uni0432" unicode="&#x432;" horiz-adv-x="644" 
d="M446 0h-376.001v550h374c48 0 82 -7 102 -21s30 -42.333 30 -85v-87c0 -22 -3.66699 -39.5 -11 -52.5s-21 -23.167 -41 -30.5c20.667 -7.33301 34.834 -17.5 42.501 -30.5s11.5 -30.833 11.5 -53.5v-84c0 -42.667 -10 -71 -30 -85s-54 -21 -102 -21zM466.999 357v60
c0 14.667 -2.83301 24.167 -8.5 28.5s-18.5 6.5 -38.5 6.5h-240v-130h239c20 0 33 2.16699 39 6.5s9 13.833 9 28.5zM467.999 132v58c0 14.667 -2.83301 24.167 -8.5 28.5s-18.5 6.5 -38.5 6.5h-241v-128h241c20 0 32.833 2.16699 38.5 6.5s8.5 13.833 8.5 28.5z" />
    <glyph glyph-name="uni0433" unicode="&#x433;" horiz-adv-x="484" 
d="M180 0h-110v550h397v-98h-287v-452z" />
    <glyph glyph-name="uni0434" unicode="&#x434;" horiz-adv-x="724" 
d="M696 -82l-110.002 0.000976562v82h-471v-82h-109v179h47c20.667 0 35.334 4.16699 44.001 12.5s14.334 20.833 17.001 37.5c1.33301 7.33301 23.333 141.666 66 402.999h442v-453h74v-179zM511.998 97.001v354.999h-236l-53 -294c-6 -29.333 -13 -49.666 -21 -60.999h310
z" />
    <glyph glyph-name="uni0435" unicode="&#x435;" horiz-adv-x="676" 
d="M597 0h-397c-48 0 -82 7 -102 21s-30 42.333 -30 85v338c0 42.667 10 71 30 85s54 21 102 21h292c48 0 82 -7 102 -21s30 -42.333 30 -85v-125c0 -42.667 -10 -71 -30 -85s-54 -21 -102 -21h-314v-81c0 -16 4.5 -25.833 13.5 -29.5s31.167 -5.5 66.5 -5.5h339v-97z
M514 345v72c0 14.667 -2.83301 24.167 -8.5 28.5s-18.5 6.5 -38.5 6.5h-242c-20 0 -32.833 -2.16699 -38.5 -6.5s-8.5 -13.833 -8.5 -28.5v-107h289c20 0 32.833 2.16699 38.5 6.5s8.5 13.833 8.5 28.5z" />
    <glyph glyph-name="uni0436" unicode="&#x436;" horiz-adv-x="774" 
d="M756 0h-116l-167 224h-31v-224h-109v224h-32l-166 -224h-116l201 273l-206 277h116l174 -229h29v229h109v-229h29l174 229h115l-206 -277z" />
    <glyph glyph-name="uni0437" unicode="&#x437;" horiz-adv-x="629" 
d="M429 0h-248c-48 0 -82 7 -102 21s-30 42.333 -30 85v52h110v-26c0 -14.667 2.83301 -24.167 8.5 -28.5s18.5 -6.5 38.5 -6.5h199c20 0 32.833 2.16699 38.5 6.5s8.5 13.833 8.5 28.5v58c0 14 -2.66699 23.333 -8 28s-17 7 -35 7h-232v97h229
c20 0 32.833 2.16699 38.5 6.5s8.5 13.833 8.5 28.5v60c0 14.667 -2.83301 24.167 -8.5 28.5s-18.5 6.5 -38.5 6.5h-199c-20 0 -32.833 -2.16699 -38.5 -6.5s-8.5 -13.833 -8.5 -28.5v-22h-110v49c0 42.667 10 71 30 85s54 21 102 21h249c48 0 82 -7 102 -21
s30 -42.333 30 -85v-87c0 -41.333 -9.66699 -69.333 -29 -84c18 -15.333 27 -43 27 -83v-84c0 -42.667 -10 -71 -30 -85s-54 -21 -102 -21z" />
    <glyph glyph-name="uni0438" unicode="&#x438;" horiz-adv-x="625" 
d="M555 0h-109v402l-236 -402h-140v550h110v-407l238 407h137v-550z" />
    <glyph glyph-name="uni0439" unicode="&#x439;" horiz-adv-x="625" 
d="M403 724h90.001c-6.66699 -36.667 -25.334 -68.667 -56.001 -96s-72 -41 -124 -41c-50 0 -90.667 13.333 -122 40s-51 59 -59 97h91c12.667 -40.667 42.667 -61 90 -61c46 0 76 20.333 90 61zM555.001 0h-109v402l-236 -402h-140v550h110v-407l238 407h137v-550z" />
    <glyph glyph-name="uni043A" unicode="&#x43a;" horiz-adv-x="573" 
d="M554 0h-119l-168 224h-87v-224h-110v550h110v-229h84l176 229h119l-206 -277z" />
    <glyph glyph-name="uni043B" unicode="&#x43b;" horiz-adv-x="671" 
d="M601 0h-109.999v452h-235l-59 -346c-7.33301 -43.333 -20 -71.833 -38 -85.5s-49.333 -20.5 -94 -20.5h-56v97h24c21.333 0 36.166 4.16699 44.499 12.5s13.833 20.833 16.5 37.5l65 403h442v-550z" />
    <glyph glyph-name="uni043C" unicode="&#x43c;" horiz-adv-x="737" 
d="M667 0h-110v388l-139 -388h-88l-150 390v-390h-110v550h161l143 -382l132 382h161v-550z" />
    <glyph glyph-name="uni043D" unicode="&#x43d;" horiz-adv-x="648" 
d="M578 0h-110v225h-288v-225h-110v550h110v-228h288v228h110v-550z" />
    <glyph glyph-name="uni043E" unicode="&#x43e;" horiz-adv-x="692" 
d="M492 0h-292c-48 0 -82 7 -102 21s-30 42.333 -30 85v338c0 42.667 10 71 30 85s54 21 102 21h292c48 0 82 -7 102 -21s30 -42.333 30 -85v-338c0 -42.667 -10 -71 -30 -85s-54 -21 -102 -21zM514 132v285c0 14.667 -2.83301 24.167 -8.5 28.5s-18.5 6.5 -38.5 6.5h-242
c-20 0 -32.833 -2.16699 -38.5 -6.5s-8.5 -13.833 -8.5 -28.5v-285c0 -14.667 2.83301 -24.167 8.5 -28.5s18.5 -6.5 38.5 -6.5h242c20 0 32.833 2.16699 38.5 6.5s8.5 13.833 8.5 28.5z" />
    <glyph glyph-name="uni043F" unicode="&#x43f;" horiz-adv-x="696" 
d="M626 0h-110v452h-336v-452h-110v550h556v-550z" />
    <glyph glyph-name="uni0440" unicode="&#x440;" 
d="M493 0h-314v-200h-110v644c0 42.667 10 71 30 85s54 21 102 21h292c48 0 82 -7 102 -21s30 -42.333 30 -85v-338c0 -42.667 -10 -71 -30 -85s-54 -21 -102 -21zM515 132v285c0 14.667 -2.83301 24.167 -8.5 28.5s-18.5 6.5 -38.5 6.5h-242
c-20 0 -32.833 -2.16699 -38.5 -6.5s-8.5 -13.833 -8.5 -28.5v-320h289c20 0 32.833 2.16699 38.5 6.5s8.5 13.833 8.5 28.5z" />
    <glyph glyph-name="uni0441" unicode="&#x441;" horiz-adv-x="602" 
d="M561 0h-361c-48 0 -82 7 -102 21s-30 42.333 -30 85v338c0 42.667 10 71 30 85s54 21 102 21h361v-98h-336c-20 0 -32.833 -2.16699 -38.5 -6.5s-8.5 -13.833 -8.5 -28.5v-285c0 -14.667 2.83301 -24.167 8.5 -28.5s18.5 -6.5 38.5 -6.5h336v-97z" />
    <glyph glyph-name="uni0442" unicode="&#x442;" horiz-adv-x="488" 
d="M299 0h-109v453h-172v97h452v-97h-171v-453z" />
    <glyph glyph-name="uni0443" unicode="&#x443;" horiz-adv-x="578" 
d="M266 -200h-98l75 198l-240 552h116l176 -419l160 419h110z" />
    <glyph glyph-name="uni0444" unicode="&#x444;" horiz-adv-x="692" 
d="M397 -200h-102v200h-95c-48 0 -82 7 -102 21s-30 42.333 -30 85v338c0 42.667 10 71 30 85s54 21 102 21h95v172h102v-172h95c48 0 82 -7 102 -21s30 -42.333 30 -85v-338c0 -42.667 -10 -71 -30 -85s-54 -21 -102 -21h-95v-200zM295 97v355h-70
c-20 0 -32.833 -2.16699 -38.5 -6.5s-8.5 -13.833 -8.5 -28.5v-285c0 -14.667 2.83301 -24.167 8.5 -28.5s18.5 -6.5 38.5 -6.5h70zM514 132v285c0 14.667 -2.83301 24.167 -8.5 28.5s-18.5 6.5 -38.5 6.5h-70v-355h70c20 0 32.833 2.16699 38.5 6.5s8.5 13.833 8.5 28.5z
" />
    <glyph glyph-name="uni0445" unicode="&#x445;" horiz-adv-x="543" 
d="M523 0h-116l-136 191l-138 -191h-116l196 273l-197 277h116l139 -196l141 196h116l-200 -277z" />
    <glyph glyph-name="uni0446" unicode="&#x446;" horiz-adv-x="719" 
d="M686 -82h-110v82h-506v550h110v-453h336v453h110v-453h60v-179z" />
    <glyph glyph-name="uni0447" unicode="&#x447;" horiz-adv-x="628" 
d="M558 0h-110v179h-266c-48 0 -82 7 -102 21s-30 42.333 -30 85v265h109v-239c0 -14.667 3 -24.167 9 -28.5s18.667 -6.5 38 -6.5h242v274h110v-550z" />
    <glyph glyph-name="uni0448" unicode="&#x448;" horiz-adv-x="805" 
d="M735 0h-665v550h110v-453h167v453h110v-453h168v453h110v-550z" />
    <glyph glyph-name="uni0449" unicode="&#x449;" horiz-adv-x="828" 
d="M795 -82h-110v82h-615v550h110v-453h167v453h110v-453h168v453h110v-453h60v-179z" />
    <glyph glyph-name="uni044A" unicode="&#x44a;" horiz-adv-x="853" 
d="M675 0h-376v452h-283v98h393v-205h266c48 0 82 -7 102 -21s30 -42.333 30 -85v-133c0 -42.667 -10 -71 -30 -85s-54 -21 -102 -21zM697 132v80c0 14.667 -2.83301 24.167 -8.5 28.5s-18.5 6.5 -38.5 6.5h-241v-150h241c20 0 32.833 2.16699 38.5 6.5s8.5 13.833 8.5 28.5
z" />
    <glyph glyph-name="uni044B" unicode="&#x44b;" horiz-adv-x="862" 
d="M446 0h-376v550h110v-205h266c48 0 82 -7 102 -21s30 -42.333 30 -85v-133c0 -42.667 -10 -71 -30 -85s-54 -21 -102 -21zM792 0h-110v550h110v-550zM468 132v80c0 14.667 -2.83301 24.167 -8.5 28.5s-18.5 6.5 -38.5 6.5h-241v-150h241c20 0 32.833 2.16699 38.5 6.5
s8.5 13.833 8.5 28.5z" />
    <glyph glyph-name="uni044C" unicode="&#x44c;" horiz-adv-x="623" 
d="M446 0h-376v550h110v-205h266c48 0 82 -7 102 -21s30 -42.333 30 -85v-133c0 -42.667 -10 -71 -30 -85s-54 -21 -102 -21zM468 132v80c0 14.667 -2.83301 24.167 -8.5 28.5s-18.5 6.5 -38.5 6.5h-241v-150h241c20 0 32.833 2.16699 38.5 6.5s8.5 13.833 8.5 28.5z" />
    <glyph glyph-name="uni044D" unicode="&#x44d;" horiz-adv-x="626" 
d="M426 0h-244c-48 0 -82 7 -102 21s-30 42.333 -30 85v49h110v-23c0 -14.667 2.83301 -24.167 8.5 -28.5s18.5 -6.5 38.5 -6.5h194c20 0 32.833 2.16699 38.5 6.5s8.5 13.833 8.5 28.5v93h-255v97h255v95c0 14.667 -2.83301 24.167 -8.5 28.5s-18.5 6.5 -38.5 6.5h-194
c-20 0 -32.833 -2.16699 -38.5 -6.5s-8.5 -13.833 -8.5 -28.5v-22h-110v49c0 42.667 10 71 30 85s54 21 102 21h244c48 0 82 -7 102 -21s30 -42.333 30 -85v-338c0 -42.667 -10 -71 -30 -85s-54 -21 -102 -21z" />
    <glyph glyph-name="uni044E" unicode="&#x44e;" horiz-adv-x="929" 
d="M729 0h-281c-48 0 -82 7 -102 21s-30 42.333 -30 85v112h-136v-218h-110v550h110v-230h136v124c0 42.667 10 71 30 85s54 21 102 21h281c48 0 82 -7 102 -21s30 -42.333 30 -85v-338c0 -42.667 -10 -71 -30 -85s-54 -21 -102 -21zM752 132v285
c0 14.667 -3 24.167 -9 28.5s-18.667 6.5 -38 6.5h-233c-20 0 -32.833 -2.16699 -38.5 -6.5s-8.5 -13.833 -8.5 -28.5v-285c0 -14.667 2.83301 -24.167 8.5 -28.5s18.5 -6.5 38.5 -6.5h233c19.333 0 32 2.16699 38 6.5s9 13.833 9 28.5z" />
    <glyph glyph-name="uni044F" unicode="&#x44f;" horiz-adv-x="631" 
d="M561 0h-110v205h-111l-165 -205h-118l165 205h-37c-48 0 -82 7 -102 21s-30 42.333 -30 85v133c0 42.667 10 71 30 85s54 21 102 21h376v-550zM451 302v150h-241c-20 0 -32.833 -2.16699 -38.5 -6.5s-8.5 -13.833 -8.5 -28.5v-80c0 -14.667 2.83301 -24.167 8.5 -28.5
s18.5 -6.5 38.5 -6.5h241z" />
    <glyph glyph-name="uni0450" unicode="&#x450;" horiz-adv-x="676" 
d="M597 0h-397c-48 0 -82 7 -102 21s-30 42.333 -30 85v338c0 42.667 10 71 30 85s54 21 102 21h292c48 0 82 -7 102 -21s30 -42.333 30 -85v-125c0 -42.667 -10 -71 -30 -85s-54 -21 -102 -21h-314v-81c0 -14.667 2.83301 -24.167 8.5 -28.5s18.5 -6.5 38.5 -6.5h372v-97z
M514 345v72c0 14.667 -2.83301 24.167 -8.5 28.5s-18.5 6.5 -38.5 6.5h-242c-20 0 -32.833 -2.16699 -38.5 -6.5s-8.5 -13.833 -8.5 -28.5v-107h289c20 0 32.833 2.16699 38.5 6.5s8.5 13.833 8.5 28.5zM411 604l-201 102l63 80l183 -122z" />
    <glyph glyph-name="uni0451" unicode="&#x451;" horiz-adv-x="676" 
d="M597 0h-397c-48 0 -82 7 -102 21s-30 42.333 -30 85v338c0 42.667 10 71 30 85s54 21 102 21h292c48 0 82 -7 102 -21s30 -42.333 30 -85v-125c0 -42.667 -10 -71 -30 -85s-54 -21 -102 -21h-314v-81c0 -16 4.5 -25.833 13.5 -29.5s31.167 -5.5 66.5 -5.5h339v-97z
M514 345v72c0 14.667 -2.83301 24.167 -8.5 28.5s-18.5 6.5 -38.5 6.5h-242c-20 0 -32.833 -2.16699 -38.5 -6.5s-8.5 -13.833 -8.5 -28.5v-107h289c20 0 32.833 2.16699 38.5 6.5s8.5 13.833 8.5 28.5zM297 600h-109v103h109v-103zM490 600h-109v103h109v-103z" />
    <glyph glyph-name="uni0452" unicode="&#x452;" horiz-adv-x="695" 
d="M494 -160h-192v97h168c19.333 0 32 2.16699 38 6.5s9 13.833 9 28.5v445c0 14.667 -3 24.167 -9 28.5s-18.667 6.5 -38 6.5h-290v-452h-110v605h-74v75h74v42h110v-42h145v-75h-145v-55h314c48 0 82 -7 102 -21s30 -42.333 30 -85v-498c0 -42.667 -10 -71 -30 -85
s-54 -21 -102 -21z" />
    <glyph glyph-name="uni0453" unicode="&#x453;" horiz-adv-x="484" 
d="M180 0h-110v550h397v-98h-287v-452zM419 705l-201 -102l-45 60l184 121z" />
    <glyph glyph-name="uni0454" unicode="&#x454;" horiz-adv-x="626" 
d="M444 0h-244c-48 0 -82 7 -102 21s-30 42.333 -30 85v338c0 42.667 10 71 30 85s54 21 102 21h244c48 0 82 -7 102 -21s30 -42.333 30 -85v-49h-110v22c0 14.667 -2.83301 24.167 -8.5 28.5s-18.5 6.5 -38.5 6.5h-194c-20 0 -32.833 -2.16699 -38.5 -6.5
s-8.5 -13.833 -8.5 -28.5v-95h255v-97h-255v-93c0 -14.667 2.83301 -24.167 8.5 -28.5s18.5 -6.5 38.5 -6.5h194c20 0 32.833 2.16699 38.5 6.5s8.5 13.833 8.5 28.5v23h110v-49c0 -42.667 -10 -71 -30 -85s-54 -21 -102 -21z" />
    <glyph glyph-name="uni0455" unicode="&#x455;" horiz-adv-x="622" 
d="M441 0h-363v97h338c20 0 32.833 2.16699 38.5 6.5s8.5 13.833 8.5 28.5v58c0 14.667 -2.83301 24.167 -8.5 28.5s-18.5 6.5 -38.5 6.5h-234c-48 0 -82 7 -102 21s-30 42.333 -30 85v113c0 42.667 10 71 30 85s54 21 102 21h361v-98h-337c-19.333 0 -32 -2.16699 -38 -6.5
s-9 -13.833 -9 -28.5v-60c0 -13.333 2.5 -22.5 7.5 -27.5s15.5 -7.5 31.5 -7.5h243c48 0 82 -7 102 -21s30 -42.333 30 -85v-110c0 -42.667 -10 -71 -30 -85s-54 -21 -102 -21z" />
    <glyph glyph-name="uni0456" unicode="&#x456;" horiz-adv-x="315" 
d="M245 0h-109v452h-125v98h234v-550zM245 624h-109v98h109v-98z" />
    <glyph glyph-name="uni0457" unicode="&#x457;" horiz-adv-x="316" 
d="M245 0h-109v452h-124v98h233v-550zM114 600h-109v103h109v-103zM307 600h-109v103h109v-103z" />
    <glyph glyph-name="uni0458" unicode="&#x458;" horiz-adv-x="316" 
d="M114 -200h-192v97h167c20 0 32.833 2.16699 38.5 6.5s8.5 13.833 8.5 28.5v520h-125v98h235v-644c0 -42.667 -10 -71 -30 -85s-54 -21 -102 -21zM246 624h-110v98h110v-98z" />
    <glyph glyph-name="uni0459" unicode="&#x459;" horiz-adv-x="1045" 
d="M867 0h-375.999v452h-235l-59 -346c-7.33301 -43.333 -20 -71.833 -38 -85.5s-49.333 -20.5 -94 -20.5h-56v97h24c21.333 0 36.166 4.16699 44.499 12.5s13.833 20.833 16.5 37.5l65 403h442v-205h266c48 0 82 -7 102 -21s30 -42.333 30 -85v-133
c0 -42.667 -10 -71 -30 -85s-54 -21 -102 -21zM889.001 132v80c0 14.667 -2.83301 24.167 -8.5 28.5s-18.5 6.5 -38.5 6.5h-241v-150h241c20 0 32.833 2.16699 38.5 6.5s8.5 13.833 8.5 28.5z" />
    <glyph glyph-name="uni045A" unicode="&#x45a;" horiz-adv-x="1020" 
d="M844 0h-376v244h-288v-244h-110v550h110v-209h288v209h110v-209h266c48 0 82 -7 102 -21s30 -42.333 30 -85v-129c0 -42.667 -10 -71 -30 -85s-54 -21 -102 -21zM866 132v77c0 14.667 -2.83301 24.167 -8.5 28.5s-18.5 6.5 -38.5 6.5h-241v-147h241
c20 0 32.833 2.16699 38.5 6.5s8.5 13.833 8.5 28.5z" />
    <glyph glyph-name="uni045B" unicode="&#x45b;" horiz-adv-x="695" 
d="M626 0h-109v417c0 14.667 -3 24.167 -9 28.5s-18.667 6.5 -38 6.5h-290v-452h-110v605h-74v75h74v42h110v-42h145v-75h-145v-55h314c48 0 82 -7 102 -21s30 -42.333 30 -85v-444z" />
    <glyph glyph-name="uni045C" unicode="&#x45c;" horiz-adv-x="573" 
d="M554 0h-119l-168 224h-87v-224h-110v550h110v-229h84l176 229h119l-206 -277zM477 705l-201 -102l-44 60l183 121z" />
    <glyph glyph-name="uni045D" unicode="&#x45d;" horiz-adv-x="625" 
d="M340 604l-201 102l63 80l183 -122zM555 0h-109v402l-236 -402h-140v550h110v-407l238 407h137v-550z" />
    <glyph glyph-name="uni045E" unicode="&#x45e;" horiz-adv-x="578" 
d="M377 688h90.001c-6.66699 -36 -25.5 -67.833 -56.5 -95.5s-72.167 -41.5 -123.5 -41.5c-50 0 -90.667 13.333 -122 40s-51 59 -59 97h91c5.33301 -18.667 15.666 -33.667 30.999 -45s35 -17 59 -17c46 0 76 20.667 90 62zM266.001 -200h-98l75 198l-240 552h116l176 -419
l160 419h110z" />
    <glyph glyph-name="uni045F" unicode="&#x45f;" horiz-adv-x="696" 
d="M626 0h-224v-102h-110v102h-222v550h110v-453h336v453h110v-550z" />
    <glyph glyph-name="uni0490" unicode="&#x490;" horiz-adv-x="608" 
d="M191 0h-110v722h407v78h109v-176h-406v-624z" />
    <glyph glyph-name="uni0491" unicode="&#x491;" horiz-adv-x="484" 
d="M180 0h-110v550h289v88h108v-186h-287v-452z" />
    <glyph glyph-name="uni1E02" unicode="&#x1e02;" horiz-adv-x="745" 
d="M430 772h-110v102h110v-102zM536 0l-455 0.000976562v722h455c48 0 82 -7 102 -21s30 -42.333 30 -85v-167c0 -26 -3.83301 -46.167 -11.5 -60.5s-20.5 -24.833 -38.5 -31.5c33.333 -12.667 50 -43.334 50 -92.001v-159c0 -42.667 -10 -71 -30 -85s-54 -21 -102 -21z
M558 131.001v146c0 14.667 -2.83301 24.167 -8.5 28.5s-18.5 6.5 -38.5 6.5h-320v-215h320c20.667 0 33.667 2 39 6s8 13.333 8 28zM558 445.001v144c0 14.667 -2.83301 24.167 -8.5 28.5s-18.5 6.5 -38.5 6.5h-320v-213h320c20.667 0 33.667 2 39 6s8 13.333 8 28z" />
    <glyph glyph-name="uni1E03" unicode="&#x1e03;" 
d="M493 0h-292c-48 0 -82 7 -102 21s-30 42.333 -30 85v694h110v-250h314c48 0 82 -7 102 -21s30 -42.333 30 -85v-338c0 -42.667 -10 -71 -30 -85s-54 -21 -102 -21zM515 132v285c0 14.667 -2.83301 24.167 -8.5 28.5s-18.5 6.5 -38.5 6.5h-289v-320
c0 -14.667 2.83301 -24.167 8.5 -28.5s18.5 -6.5 38.5 -6.5h242c20 0 32.833 2.16699 38.5 6.5s8.5 13.833 8.5 28.5zM440 627h-109v103h109v-103z" />
    <glyph glyph-name="uni1E0A" unicode="&#x1e0a;" horiz-adv-x="778" 
d="M567 0h-486v722h486c48 0 82 -7 102 -21s30 -42.333 30 -85v-510c0 -42.667 -10 -71 -30 -85s-54 -21 -102 -21zM590 132v457c0 14.667 -3 24.167 -9 28.5s-18.667 6.5 -38 6.5h-352v-527h352c20 0 32.833 2.16699 38.5 6.5s8.5 13.833 8.5 28.5zM444 772h-110v102h110
v-102z" />
    <glyph glyph-name="uni1E0B" unicode="&#x1e0b;" 
d="M492 0h-292c-48 0 -82 7 -102 21s-30 42.333 -30 85v338c0 42.667 10 71 30 85s54 21 102 21h314v250h110v-694c0 -42.667 -10 -71 -30 -85s-54 -21 -102 -21zM514 132v320h-289c-20 0 -32.833 -2.16699 -38.5 -6.5s-8.5 -13.833 -8.5 -28.5v-285
c0 -14.667 2.83301 -24.167 8.5 -28.5s18.5 -6.5 38.5 -6.5h242c20 0 32.833 2.16699 38.5 6.5s8.5 13.833 8.5 28.5zM370 627h-109v103h109v-103z" />
    <glyph glyph-name="uni1E1E" unicode="&#x1e1e;" horiz-adv-x="629" 
d="M191 0h-110v722h528v-98h-418v-214h340v-97h-340v-313zM423 772h-110v102h110v-102z" />
    <glyph glyph-name="uni1E1F" unicode="&#x1e1f;" horiz-adv-x="458" 
d="M241 0h-110v453h-109v98h109v143c0 42.667 10 71 30 85s54 21 102 21h177v-98h-152c-20 0 -32.833 -2.16699 -38.5 -6.5s-8.5 -13.833 -8.5 -28.5v-116h199v-98h-199v-453zM357 862h-110v103h110v-103z" />
    <glyph glyph-name="uni1E22" unicode="&#x1e22;" horiz-adv-x="794" 
d="M713 0h-109v313h-413v-313h-110v722h110v-312h413v312h109v-722zM451 766h-109v103h109v-103z" />
    <glyph glyph-name="uni1E23" unicode="&#x1e23;" horiz-adv-x="695" 
d="M626 0h-110v417c0 14.667 -2.83301 24.167 -8.5 28.5s-18.5 6.5 -38.5 6.5h-289v-452h-110v800h110v-250h314c48 0 82 -7 102 -21s30 -42.333 30 -85v-444zM446 627h-110v103h110v-103z" />
    <glyph glyph-name="uni1E40" unicode="&#x1e40;" horiz-adv-x="929" 
d="M520 772h-110v102h110v-102zM848 0h-109v588l-204 -588h-131l-213 590v-590h-110v722h175l213 -583l204 583h175v-722z" />
    <glyph glyph-name="uni1E41" unicode="&#x1e41;" horiz-adv-x="1056" 
d="M987 0h-109v417c0 14.667 -3 24.167 -9 28.5s-18.667 6.5 -38 6.5h-200c-20 0 -32.833 -2.16699 -38.5 -6.5s-8.5 -13.833 -8.5 -28.5v-417h-109v417c0 14.667 -2.83301 24.167 -8.5 28.5s-18.5 6.5 -38.5 6.5h-202c-20 0 -32.833 -2.16699 -38.5 -6.5
s-8.5 -13.833 -8.5 -28.5v-417h-110v444c0 42.667 10 71 30 85s54 21 102 21h227c25.333 0 46 -2.66699 62 -8s29 -16 39 -32c10 16 22.833 26.667 38.5 32s36.167 8 61.5 8h226c48 0 82 -7 102 -21s30 -42.333 30 -85v-444zM583 600h-109v102h109v-102z" />
    <glyph glyph-name="uni1E56" unicode="&#x1e56;" horiz-adv-x="719" 
d="M191 0h-110v722h454c48 0 82 -7 102 -21s30 -42.333 30 -85v-233c0 -42.667 -10 -71 -30 -85s-54 -21 -102 -21h-344v-277zM557 409v180c0 14.667 -2.83301 24.167 -8.5 28.5s-18.5 6.5 -38.5 6.5h-319v-250h319c20.667 0 33.667 2.16699 39 6.5s8 13.833 8 28.5z
M423 772h-110v102h110v-102z" />
    <glyph glyph-name="uni1E57" unicode="&#x1e57;" 
d="M493 0h-314v-200h-110v644c0 42.667 10 71 30 85s54 21 102 21h292c48 0 82 -7 102 -21s30 -42.333 30 -85v-338c0 -42.667 -10 -71 -30 -85s-54 -21 -102 -21zM515 132v285c0 14.667 -2.83301 24.167 -8.5 28.5s-18.5 6.5 -38.5 6.5h-242
c-20 0 -32.833 -2.16699 -38.5 -6.5s-8.5 -13.833 -8.5 -28.5v-320h289c20 0 32.833 2.16699 38.5 6.5s8.5 13.833 8.5 28.5zM405 600h-109v102h109v-102z" />
    <glyph glyph-name="uni1E60" unicode="&#x1e60;" horiz-adv-x="736" 
d="M535 0h-333c-48 0 -82 7 -102 21s-30 42.333 -30 85v109h110v-83c0 -14.667 2.83301 -24.167 8.5 -28.5s18.5 -6.5 38.5 -6.5h283c20 0 32.833 2.16699 38.5 6.5s8.5 13.833 8.5 28.5v145c0 14.667 -2.83301 24.167 -8.5 28.5s-18.5 6.5 -38.5 6.5h-309
c-48 0 -82 7 -102 21s-30 42.333 -30 85v198c0 42.667 10 71 30 85s54 21 102 21h332c48 0 82 -7 102 -21s30 -42.333 30 -85v-109h-109v82c0 14.667 -3 24.167 -9 28.5s-18.667 6.5 -38 6.5h-284c-19.333 0 -32 -2.16699 -38 -6.5s-9 -13.833 -9 -28.5v-145
c0 -14.667 3 -24.167 9 -28.5s18.667 -6.5 38 -6.5h310c48 0 82 -7 102 -21s30 -42.333 30 -85v-197c0 -42.667 -10 -71 -30 -85s-54 -21 -102 -21zM422 772h-109v102h109v-102z" />
    <glyph glyph-name="uni1E61" unicode="&#x1e61;" horiz-adv-x="622" 
d="M441 0h-363v97h338c20 0 32.833 2.16699 38.5 6.5s8.5 13.833 8.5 28.5v58c0 14.667 -2.83301 24.167 -8.5 28.5s-18.5 6.5 -38.5 6.5h-234c-48 0 -82 7 -102 21s-30 42.333 -30 85v113c0 42.667 10 71 30 85s54 21 102 21h361v-98h-337c-19.333 0 -32 -2.16699 -38 -6.5
s-9 -13.833 -9 -28.5v-60c0 -13.333 2.5 -22.5 7.5 -27.5s15.5 -7.5 31.5 -7.5h243c48 0 82 -7 102 -21s30 -42.333 30 -85v-110c0 -42.667 -10 -71 -30 -85s-54 -21 -102 -21zM380 600h-109v102h109v-102z" />
    <glyph glyph-name="uni1E6A" unicode="&#x1e6a;" horiz-adv-x="620" 
d="M364 0h-110v624h-241v98h593v-98h-242v-624zM364 772h-110v102h110v-102z" />
    <glyph glyph-name="uni1E6B" unicode="&#x1e6b;" horiz-adv-x="413" 
d="M393 0h-129c-48 0 -82 7 -102 21s-30 42.333 -30 85v346h-109v98h109v206h110v-206h151v-98h-151v-320c0 -14.667 2.83301 -24.167 8.5 -28.5s18.5 -6.5 38.5 -6.5h104v-97zM242 812h-110v103h110v-103z" />
    <glyph glyph-name="Wgrave" unicode="&#x1e80;" horiz-adv-x="1090" 
d="M844 0h-141l-159 559l-157 -559h-141l-218 722h117l171 -579l157 579h143l157 -579l173 579h116zM603 776l-201 102l62 80l184 -122z" />
    <glyph glyph-name="wgrave" unicode="&#x1e81;" horiz-adv-x="883" 
d="M693 0h-138l-114 424l-113 -424h-136l-176 550h116l127 -433l114 433h139l112 -433l129 433h113zM505 604l-201 102l63 80l183 -122z" />
    <glyph glyph-name="Wacute" unicode="&#x1e82;" horiz-adv-x="1090" 
d="M844 0h-141l-159 559l-157 -559h-141l-218 722h117l171 -579l157 579h143l157 -579l173 579h116zM700 877l-201 -102l-45 60l184 121z" />
    <glyph glyph-name="wacute" unicode="&#x1e83;" horiz-adv-x="883" 
d="M693 0h-138l-114 424l-113 -424h-136l-176 550h116l127 -433l114 433h139l112 -433l129 433h113zM589 705l-200 -102l-45 60l183 121z" />
    <glyph glyph-name="Wdieresis" unicode="&#x1e84;" horiz-adv-x="1090" 
d="M844 0h-141l-159 559l-157 -559h-141l-218 722h117l171 -579l157 579h143l157 -579l173 579h116zM502 772h-108v103h108v-103zM695 772h-108v103h108v-103z" />
    <glyph glyph-name="wdieresis" unicode="&#x1e85;" horiz-adv-x="883" 
d="M693 0h-138l-114 424l-113 -424h-136l-176 550h116l127 -433l114 433h139l112 -433l129 433h113zM399 600h-109v103h109v-103zM592 600h-109v103h109v-103z" />
    <glyph glyph-name="Ygrave" unicode="&#x1ef2;" horiz-adv-x="740" 
d="M427 0h-110v299h-132c-48 0 -82 7 -102 21s-30 42.333 -30 85v317h110v-291c0 -14.667 2.83301 -24.167 8.5 -28.5s18.5 -6.5 38.5 -6.5h320c20.667 0 33.667 2.16699 39 6.5s8 13.833 8 28.5v291h110v-317c0 -42.667 -10 -71 -30 -85s-54 -21 -102 -21h-128v-299z
M409 776l-201 102l63 80l183 -122z" />
    <glyph glyph-name="ygrave" unicode="&#x1ef3;" horiz-adv-x="578" 
d="M316 604l-201 102l63 80l183 -122zM266 -200h-98l75 198l-240 552h116l176 -419l160 419h110z" />
    <glyph glyph-name="endash" unicode="&#x2013;" horiz-adv-x="598" 
d="M534 216h-470v102h470v-102z" />
    <glyph glyph-name="emdash" unicode="&#x2014;" horiz-adv-x="952" 
d="M888 216h-824v102h824v-102z" />
    <glyph glyph-name="afii00208" unicode="&#x2015;" horiz-adv-x="1328" 
d="M1264 216h-1200v102h1200v-102z" />
    <glyph glyph-name="quoteleft" unicode="&#x2018;" horiz-adv-x="249" 
d="M214 722l-59 -231h-122l106 231h75z" />
    <glyph glyph-name="quoteright" unicode="&#x2019;" horiz-adv-x="245" 
d="M223 722l-106 -231h-75l59 231h122z" />
    <glyph glyph-name="quotesinglbase" unicode="&#x201a;" horiz-adv-x="223" 
d="M190 98l-106 -231h-75l59 231h122z" />
    <glyph glyph-name="quotedblleft" unicode="&#x201c;" horiz-adv-x="426" 
d="M214 722l-59 -231h-122l106 231h75zM391 722l-59 -231h-122l106 231h75z" />
    <glyph glyph-name="quotedblright" unicode="&#x201d;" horiz-adv-x="422" 
d="M400 722l-106 -231h-75l59 231h122zM223 722l-106 -231h-75l59 231h122z" />
    <glyph glyph-name="quotedblbase" unicode="&#x201e;" horiz-adv-x="400" 
d="M367 98l-106 -231h-75l59 231h122zM190 98l-106 -231h-75l59 231h122z" />
    <glyph glyph-name="dagger" unicode="&#x2020;" horiz-adv-x="465" 
d="M287 -200h-109v598h-151v102h151v222h109v-222h151v-102h-151v-598z" />
    <glyph glyph-name="daggerdbl" unicode="&#x2021;" horiz-adv-x="497" 
d="M303 -200h-109v371h-151v103h151v124h-151v102h151v222h109v-222h151v-102h-151v-124h151v-103h-151v-371z" />
    <glyph glyph-name="bullet" unicode="&#x2022;" horiz-adv-x="486" 
d="M388 244h-290v252h290v-252z" />
    <glyph glyph-name="ellipsis" unicode="&#x2026;" horiz-adv-x="648" 
d="M162 0h-108v103h108v-103zM378 0h-108v103h108v-103zM594 0h-108v103h108v-103z" />
    <glyph glyph-name="perthousand" unicode="&#x2030;" horiz-adv-x="1293" 
d="M223 0h-110l586 722h113zM239 338h-73c-76 0 -114 25 -114 75v226c0 55.333 38 83 114 83h73c76 0 114 -27.667 114 -83v-218c0 -55.333 -38 -83 -114 -83zM269 436v187c0 10 -2.33301 16.667 -7 20s-14.667 5 -30 5h-59c-15.333 0 -25.333 -1.66699 -30 -5
s-7 -10 -7 -20v-187c0 -10 2.16699 -16.667 6.5 -20s14.5 -5 30.5 -5h59c15.333 0 25.333 1.66699 30 5s7 10 7 20zM756 0h-71.999c-36.667 0 -64.834 5.5 -84.501 16.5s-29.5 30.5 -29.5 58.5v226c0 55.333 38 83 114 83h72c76.667 0 115 -27.667 115 -83v-218
c0 -55.333 -38.333 -83 -115 -83zM786.001 98v187c0 10 -2.16699 16.667 -6.5 20s-14.166 5 -29.499 5h-60c-15.333 0 -25.166 -1.66699 -29.499 -5s-6.5 -10 -6.5 -20v-187c0 -10 2.16699 -16.667 6.5 -20s14.166 -5 29.499 -5h60c15.333 0 25.166 1.66699 29.499 5
s6.5 10 6.5 20zM1130 0h-71.999c-36.667 0 -64.834 5.5 -84.501 16.5s-29.5 30.5 -29.5 58.5v226c0 55.333 38 83 114 83h72c76.667 0 115 -27.667 115 -83v-218c0 -55.333 -38.333 -83 -115 -83zM1161 98v187c0 10 -2.33301 16.667 -7 20s-14.667 5 -30 5h-59
c-16 0 -26.167 -1.66699 -30.5 -5s-6.5 -10 -6.5 -20v-187c0 -10 2.16699 -16.667 6.5 -20s14.5 -5 30.5 -5h59c15.333 0 25.333 1.66699 30 5s7 10 7 20z" />
    <glyph glyph-name="guilsinglleft" unicode="&#x2039;" horiz-adv-x="310" 
d="M272 78l-86 -50l-158 250l143 247l88 -48l-115 -199z" />
    <glyph glyph-name="guilsinglright" unicode="&#x203a;" horiz-adv-x="310" 
d="M124 28l-86 50l129 200l-116 199l89 48l142 -247z" />
    <glyph glyph-name="fraction" unicode="&#x2044;" horiz-adv-x="221" 
d="M-130 0h-109l586 722h113z" />
    <glyph glyph-name="zerosuperior" unicode="&#x2070;" horiz-adv-x="405" 
d="M353 762v-185c0 -34 -9 -59 -27 -75s-45.667 -24 -83 -24h-65c-45.333 0 -77.666 7 -96.999 21s-29 40 -29 78v185c0 39.333 10 65.833 30 79.5s52 20.5 96 20.5h49c45.333 0 77.666 -7.16699 96.999 -21.5s29 -40.5 29 -78.5zM269 576v181c0 12.667 -2.16699 21 -6.5 25
s-14.833 6 -31.5 6h-58c-16 0 -26.167 -2 -30.5 -6s-6.5 -12.333 -6.5 -25v-173c0 -14 2 -23 6 -27s14.333 -6 31 -6h59c15.333 0 25.333 1.66699 30 5s7 10 7 20z" />
    <glyph glyph-name="foursuperior" unicode="&#x2074;" horiz-adv-x="379" 
d="M341 478h-81v103h-240v75l150 206h94l-153 -211h149v91h81v-264z" />
    <glyph glyph-name="fivesuperior" unicode="&#x2075;" horiz-adv-x="380" 
d="M234 478l-83 0.000976562c-74 0 -111 27 -111 81v29h85v-12c0 -9.33301 2.33301 -15.666 7 -18.999s14.667 -5 30 -5h59c15.333 0 25.333 1.66699 30 5s7 9.66602 7 18.999v57c0 9.33301 -2.16699 15.666 -6.5 18.999s-14.5 5 -30.5 5h-180v205h287v-73h-203v-61h116
c34 0 59.333 -6.5 76 -19.5s25 -34.167 25 -63.5v-81c0 -57.333 -36 -86 -108 -86z" />
    <glyph glyph-name="sixsuperior" unicode="&#x2076;" horiz-adv-x="395" 
d="M245 478h-82c-74 0 -111 27.667 -111 83v215c0 57.333 36.333 86 109 86h78c76 0 114 -27 114 -81v-31h-84v14c0 10 -2.16699 16.667 -6.5 20s-14.5 5 -30.5 5h-59c-15.333 0 -25.333 -1.66699 -30 -5s-7 -10 -7 -20v-54h109c72 0 108 -27 108 -81v-66
c0 -56.667 -36 -85 -108 -85zM269 576v39.001c0 9.33301 -2.16699 15.666 -6.5 18.999s-14.5 5 -30.5 5h-96v-63c0 -9.33301 2.33301 -15.666 7 -18.999s14.667 -5 30 -5h59c15.333 0 25.333 1.66699 30 5s7 9.66602 7 18.999z" />
    <glyph glyph-name="sevensuperior" unicode="&#x2077;" horiz-adv-x="335" 
d="M117 478h-89l209 311h-214v73h298v-77z" />
    <glyph glyph-name="eightsuperior" unicode="&#x2078;" horiz-adv-x="396" 
d="M238 478l-65.001 -0.000976562c-45.333 0 -77.666 7 -96.999 21s-29 40 -29 78v18c0 22 3 38.333 9 49s17.333 19 34 25c-18 7.33301 -29.5 17 -34.5 29s-7.5 33.333 -7.5 64c0 39.333 10 65.833 30 79.5s52 20.5 96 20.5h47c45.333 0 77.833 -7.16699 97.5 -21.5
s29.5 -40.5 29.5 -78.5c0 -30 -2.66699 -51.167 -8 -63.5s-17 -22.166 -35 -29.499c16.667 -6 28 -14.167 34 -24.5s9 -26.833 9 -49.5v-18c0 -34 -9 -59 -27 -75s-45.667 -24 -83 -24zM263.999 729.999v27c0 12.667 -2.16699 21 -6.5 25s-14.833 6 -31.5 6h-57
c-16 0 -26.167 -2 -30.5 -6s-6.5 -12.333 -6.5 -25v-21c0 -13.333 2 -21.833 6 -25.5s14.333 -5.5 31 -5.5h57c16 0 26.333 1.66699 31 5s7 10 7 20zM263.999 575.999v25.999c0 14 -2 22.833 -6 26.5s-14.333 5.5 -31 5.5h-59c-15.333 0 -25.333 -1.66699 -30 -5
s-7 -9.66602 -7 -18.999v-26c0 -14 2 -23 6 -27s14.333 -6 31 -6h59c15.333 0 25.333 1.66699 30 5s7 10 7 20z" />
    <glyph glyph-name="ninesuperior" unicode="&#x2079;" horiz-adv-x="394" 
d="M234 478h-79c-76 0 -114 26.667 -114 80v32h84v-14c0 -10 2.16699 -16.667 6.5 -20s14.5 -5 30.5 -5h59c15.333 0 25.333 1.66699 30 5s7 10 7 20v55h-109c-72 0 -108 27 -108 81v64c0 57.333 36 86 108 86h85c72 0 108 -28 108 -84v-215c0 -56.667 -36 -85 -108 -85z
M258 702v61c0 10 -2.33301 16.667 -7 20s-14.667 5 -30 5h-59c-15.333 0 -25.333 -1.66699 -30 -5s-7 -10 -7 -20v-36c0 -10 2.16699 -16.667 6.5 -20s14.5 -5 30.5 -5h96z" />
    <glyph glyph-name="zeroinferior" unicode="&#x2080;" horiz-adv-x="405" 
d="M353 144v-185c0 -34 -9 -59 -27 -75s-45.667 -24 -83 -24h-65c-45.333 0 -77.666 7 -96.999 21s-29 40 -29 78v185c0 39.333 10 65.833 30 79.5s52 20.5 96 20.5h49c45.333 0 77.666 -7.16699 96.999 -21.5s29 -40.5 29 -78.5zM269 -42v181c0 12.667 -2.16699 21 -6.5 25
s-14.833 6 -31.5 6h-58c-16 0 -26.167 -2 -30.5 -6s-6.5 -12.333 -6.5 -25v-173c0 -14 2 -23 6 -27s14.333 -6 31 -6h59c15.333 0 25.333 1.66699 30 5s7 10 7 20z" />
    <glyph glyph-name="oneinferior" unicode="&#x2081;" horiz-adv-x="345" 
d="M330 -140h-298v77h105v230h-105v77h194v-307h104v-77z" />
    <glyph glyph-name="twoinferior" unicode="&#x2082;" horiz-adv-x="363" 
d="M324 -140l-281.999 0.00195312v76l162 123c25.333 19.333 38 47.666 38 84.999c0 11.333 -2.83301 19.166 -8.5 23.499s-15.834 6.5 -30.501 6.5h-57c-14.667 0 -24.5 -2 -29.5 -6s-7.5 -11 -7.5 -21v-37h-75v46c0 40.667 7.16699 65.5 21.5 74.5s45.5 13.5 93.5 13.5h57
c50 0 81.833 -5.5 95.5 -16.5s20.5 -40.167 20.5 -87.5c0 -34 -4.5 -59.833 -13.5 -77.5s-28.833 -37.5 -59.5 -59.5l-104 -73h179v-70z" />
    <glyph glyph-name="threeinferior" unicode="&#x2083;" horiz-adv-x="384" 
d="M227 -140l-81 -0.00390625c-40.667 0 -69.167 6.33301 -85.5 19s-24.5 35.334 -24.5 68.001v32h84v-21c0 -10 2.16699 -16.667 6.5 -20s14.5 -5 30.5 -5h59c16 0 26.167 1.83301 30.5 5.5s6.5 10.167 6.5 19.5v34c0 10.667 -2.66699 17.334 -8 20.001s-18 4 -38 4h-70v71
h78c16 0 26.333 1.66699 31 5s7 10 7 20v33c0 10 -2.33301 16.667 -7 20s-14.667 5 -30 5h-59c-15.333 0 -25.333 -1.66699 -30 -5s-7 -10 -7 -20v-21h-84v37c0 18 3.33301 32.833 10 44.5s17 20.167 31 25.5s28 8.83301 42 10.5s31.667 2.5 53 2.5h42
c78 0 118.667 -25.333 122 -76c0.666992 -7.33301 1 -18.333 1 -33c0 -27.333 -2.66699 -46.666 -8 -57.999s-17 -20 -35 -26c16 -5.33301 27.167 -13.166 33.5 -23.499s9.5 -25.833 9.5 -46.5v-26c0 -63.333 -36.667 -95 -110 -95z" />
    <glyph glyph-name="fourinferior" unicode="&#x2084;" horiz-adv-x="381" 
d="M341 -140h-81v103h-240v75l150 206h94l-153 -211h149v91h81v-264z" />
    <glyph glyph-name="fiveinferior" unicode="&#x2085;" horiz-adv-x="380" 
d="M234 -140l-83 0.000976562c-74 0 -111 27 -111 81v29h85v-12c0 -9.33301 2.33301 -15.666 7 -18.999s14.667 -5 30 -5h59c15.333 0 25.333 1.66699 30 5s7 9.66602 7 18.999v57c0 9.33301 -2.16699 15.666 -6.5 18.999s-14.5 5 -30.5 5h-180v205h287v-73h-203v-61h116
c34 0 59.333 -6.5 76 -19.5s25 -34.167 25 -63.5v-81c0 -57.333 -36 -86 -108 -86z" />
    <glyph glyph-name="sixinferior" unicode="&#x2086;" horiz-adv-x="393" 
d="M245 -140h-82c-74 0 -111 27.667 -111 83v215c0 57.333 36.333 86 109 86h78c76 0 114 -27 114 -81v-31h-84v14c0 10 -2.16699 16.667 -6.5 20s-14.5 5 -30.5 5h-59c-15.333 0 -25.333 -1.66699 -30 -5s-7 -10 -7 -20v-54h109c72 0 108 -27 108 -81v-66
c0 -56.667 -36 -85 -108 -85zM269 -42v39.001c0 9.33301 -2.16699 15.666 -6.5 18.999s-14.5 5 -30.5 5h-96v-63c0 -9.33301 2.33301 -15.666 7 -18.999s14.667 -5 30 -5h59c15.333 0 25.333 1.66699 30 5s7 9.66602 7 18.999z" />
    <glyph glyph-name="seveninferior" unicode="&#x2087;" horiz-adv-x="337" 
d="M118 -140h-89l209 311h-214v73h298v-77z" />
    <glyph glyph-name="eightinferior" unicode="&#x2088;" horiz-adv-x="394" 
d="M237 -140h-65c-45.333 0 -77.666 7 -96.999 21s-29 40 -29 78v18c0 22 3 38.333 9 49s17.333 19 34 25c-18 7.33301 -29.5 17.166 -34.5 29.499s-7.5 33.5 -7.5 63.5c0 39.333 10 65.833 30 79.5s52 20.5 96 20.5h48c45.333 0 77.666 -7.16699 96.999 -21.5
s29 -40.5 29 -78.5c0 -30 -2.66699 -51.167 -8 -63.5s-17 -22.166 -35 -29.499c16.667 -6 28 -14.167 34 -24.5s9 -26.833 9 -49.5v-18c0 -34 -9 -59 -27 -75s-45.667 -24 -83 -24zM263 112v27c0 12.667 -2.16699 21 -6.5 25s-14.5 6 -30.5 6h-58c-16 0 -26.167 -2 -30.5 -6
s-6.5 -12.333 -6.5 -25v-21c0 -13.333 2 -21.833 6 -25.5s14.333 -5.5 31 -5.5h57c16 0 26.333 1.66699 31 5s7 10 7 20zM263 -42v25.999c0 14 -2 22.833 -6 26.5s-14.333 5.5 -31 5.5h-59c-15.333 0 -25.333 -1.66699 -30 -5s-7 -9.66602 -7 -18.999v-26c0 -14 2 -23 6 -27
s14.333 -6 31 -6h59c16 0 26.167 1.66699 30.5 5s6.5 10 6.5 20z" />
    <glyph glyph-name="nineinferior" unicode="&#x2089;" horiz-adv-x="394" 
d="M233 -140h-78c-76.667 0 -115 26.667 -115 80v32h84v-14c0 -10 2.16699 -16.667 6.5 -20s14.5 -5 30.5 -5h59c16 0 26.167 1.66699 30.5 5s6.5 10 6.5 20v55h-108c-72.667 0 -109 27 -109 81v64c0 57.333 36.333 86 109 86h84c72.667 0 109 -28 109 -84v-215
c0 -56.667 -36.333 -85 -109 -85zM257 84v61c0 10 -2.33301 16.667 -7 20s-14.667 5 -30 5h-59c-15.333 0 -25.333 -1.66699 -30 -5s-7 -10 -7 -20v-36c0 -10 2.16699 -16.667 6.5 -20s14.5 -5 30.5 -5h96z" />
    <glyph glyph-name="Euro" unicode="&#x20ac;" horiz-adv-x="776" 
d="M581 0h-333c-48 0 -82 7 -102 21s-30 42.333 -30 85v122h-66v88h66v72h-66v88h66v140c0 42.667 10 71 30 85s54 21 102 21h333c48 0 82 -7 102 -21s30 -42.333 30 -85v-109h-110v82c0 14.667 -2.83301 24.167 -8.5 28.5s-18.5 6.5 -38.5 6.5h-283
c-20 0 -32.833 -2.16699 -38.5 -6.5s-8.5 -13.833 -8.5 -28.5v-113h300v-88h-300v-72h300v-88h-300v-96c0 -14.667 2.83301 -24.167 8.5 -28.5s18.5 -6.5 38.5 -6.5h283c20.667 0 33.667 2.16699 39 6.5s8 13.833 8 28.5v83h110v-109c0 -42.667 -10 -71 -30 -85
s-54 -21 -102 -21z" />
    <glyph glyph-name="uni2116" unicode="&#x2116;" horiz-adv-x="1187" 
d="M994 247h-100c-48 0 -82 7 -102 21s-30 42.333 -30 85v178c0 42.667 10 71 30 85s54 21 102 21h100c48 0 82 -7 102 -21s30 -42.333 30 -85v-178c0 -42.667 -10 -71 -30 -85s-54 -21 -102 -21zM1030 365v155c0 14.667 -2.83301 24.167 -8.5 28.5s-18.5 6.5 -38.5 6.5h-79
c-20 0 -32.833 -2.16699 -38.5 -6.5s-8.5 -13.833 -8.5 -28.5v-155c0 -14.667 2.83301 -24.167 8.5 -28.5s18.5 -6.5 38.5 -6.5h79c20 0 32.833 2.16699 38.5 6.5s8.5 13.833 8.5 28.5zM1103 81h-319v87h319v-87zM684 0h-139l-347 547v-547h-110v722h135l351 -553v553h110
v-722z" />
    <glyph glyph-name="trademark" unicode="&#x2122;" horiz-adv-x="913" 
d="M249 408h-83v317h-111v73h305v-73h-111v-317zM841 408h-84v263l-98 -263h-58l-101 265v-265h-83v390h101l115 -256l106 256h102v-390z" />
    <glyph glyph-name="ohm" unicode="&#x2126;" horiz-adv-x="827" 
d="M202 0h-131v97h148c20 0 32.833 2.16699 38.5 6.5s8.5 13.833 8.5 28.5v22c0 14.667 -2.83301 24.167 -8.5 28.5s-18.5 6.5 -38.5 6.5h-19c-48 0 -82 7 -102 21s-30 42.333 -30 85v321c0 42.667 10 71 30 85s54 21 102 21h426c48 0 82 -7 102 -21s30 -42.333 30 -85v-321
c0 -42.667 -10 -71 -30 -85s-54 -21 -102 -21h-19c-20 0 -32.833 -2.16699 -38.5 -6.5s-8.5 -13.833 -8.5 -28.5v-22c0 -14.667 2.83301 -24.167 8.5 -28.5s18.5 -6.5 38.5 -6.5h148v-97h-131c-26.667 -0 -46.5 0.333008 -59.5 1s-26.833 2.66699 -41.5 6
s-24.667 7.83301 -30 13.5s-10.833 14.5 -16.5 26.5s-9 25.833 -10 41.5s-1.5 36.5 -1.5 62.5c0 53.333 6.83301 89.333 20.5 108s46.167 28 97.5 28h5c27.333 0 44.333 3 51 9s10 18 10 36v257c0 14.667 -2.83301 24.167 -8.5 28.5s-18.5 6.5 -38.5 6.5h-378
c-20 0 -32.833 -2.16699 -38.5 -6.5s-8.5 -13.833 -8.5 -28.5v-257c0 -18 3.33301 -30 10 -36s23.667 -9 51 -9h5c51.333 0 83.833 -9.33301 97.5 -28s20.5 -54.667 20.5 -108c0 -26 -0.5 -46.833 -1.5 -62.5s-4.33301 -29.5 -10 -41.5s-11.167 -20.833 -16.5 -26.5
s-15.333 -10.167 -30 -13.5s-28.5 -5.33301 -41.5 -6s-32.833 -1 -59.5 -1z" />
    <glyph glyph-name="partialdiff" unicode="&#x2202;" horiz-adv-x="735" 
d="M534 0h-334c-48 0 -82 7 -102 21s-30 42.333 -30 85v283c0 42.667 10 71 30 85s54 21 102 21h355v94c0 14.667 -2.83301 24.167 -8.5 28.5s-18.5 6.5 -38.5 6.5h-158v98h184c48 0 82 -7 102 -21s30 -42.333 30 -85v-510c0 -42.667 -10 -71 -30 -85s-54 -21 -102 -21z
M555 132v265h-330c-20 0 -32.833 -2.16699 -38.5 -6.5s-8.5 -13.833 -8.5 -28.5v-230c0 -14.667 2.83301 -24.167 8.5 -28.5s18.5 -6.5 38.5 -6.5h283c20 0 32.833 2.16699 38.5 6.5s8.5 13.833 8.5 28.5z" />
    <glyph glyph-name="Delta" unicode="&#x2206;" horiz-adv-x="668" 
d="M647 0h-626l243 722h140zM499 101l-166 507l-163 -507h329z" />
    <glyph glyph-name="product" unicode="&#x220f;" horiz-adv-x="804" 
d="M718 -200h-109v824h-413v-824h-110v922h632v-922z" />
    <glyph glyph-name="summation" unicode="&#x2211;" horiz-adv-x="634" 
d="M592 -200h-551v102l298 360l-298 357v103h551v-98h-421l290 -347v-31l-290 -349h421v-97z" />
    <glyph glyph-name="minus" unicode="&#x2212;" horiz-adv-x="613" 
d="M541 216h-470v102h470v-102z" />
    <glyph glyph-name="radical" unicode="&#x221a;" horiz-adv-x="605" 
d="M328 0h-131l-183 300h128l112 -165l222 587h116z" />
    </font>
</defs>
</svg>
