<?xml version="1.0" encoding="utf-8"?>
<!-- Generator: Adobe Illustrator 21.0.0, SVG Export Plug-In . SVG Version: 6.00 Build 0)  -->
<svg version="1.1" id="Layer_1" xmlns="http://www.w3.org/2000/svg" xmlns:xlink="http://www.w3.org/1999/xlink" x="0px" y="0px"
	 viewBox="0 0 75.4 32.1" style="enable-background:new 0 0 75.4 32.1;" xml:space="preserve">
<style type="text/css">
	.st0{fill:#69CD78;}
</style>
<title>Gx0-Logo</title>
<g id="Layer_2">
	<g id="Layer_1-2">
		<path class="st0" d="M16.2,18.6h5v8.6H4.9V4.9h21.2V0H1.4C0.6,0,0,0.6,0,1.4v29.2c0,0.8,0.6,1.4,1.4,1.4h23.3
			c0.8,0,1.4-0.6,1.4-1.4c0,0,0,0,0,0V13.6h-10L16.2,18.6z"/>
		<path class="st0" d="M73.8,0H50.8c-0.9,0-1.6,0.7-1.6,1.6c0,0,0,0,0,0v28.9c0,0.9,0.7,1.6,1.6,1.6h22.9c0.9,0,1.6-0.7,1.6-1.6V1.6
			C75.4,0.7,74.7,0,73.8,0C73.8,0,73.8,0,73.8,0z M54.1,4.9h14.1L54.1,21.7V4.9z M70.5,27.2H56.2l14.2-17V27.2z"/>
		<path class="st0" d="M41.2,13.7c-0.2,0-0.3,0.1-0.4,0.2l-3,5.2l-3-5.2c-0.1-0.1-0.2-0.2-0.4-0.2h-3.9l5.2,9.1l-5.2,9.1h3.9
			c0.2,0,0.3-0.1,0.4-0.2l3-5.2l3,5.2c0.1,0.1,0.2,0.2,0.4,0.2h3.9l-5.2-9.1l5.2-9.1H41.2z"/>
	</g>
</g>
</svg>
