<?xml version="1.0" standalone="no"?>
<!DOCTYPE svg PUBLIC "-//W3C//DTD SVG 1.1//EN" "http://www.w3.org/Graphics/SVG/1.1/DTD/svg11.dtd" >
<svg>
<metadata>
Created by FontForge 20090914 at Tue Oct  9 19:03:29 2018
 By www-data
Copyright &#194;&#169; 2013 Canada Type. All rights reserved.
</metadata>
<defs>
<font id="Vox-Regular2" horiz-adv-x="690" >
  <font-face 
    font-family="Vox 19"
    font-weight="400"
    font-stretch="normal"
    units-per-em="1000"
    panose-1="2 0 5 6 3 0 0 2 0 4"
    ascent="800"
    descent="-200"
    x-height="550"
    cap-height="722"
    bbox="-242 -281 1265 1051"
    underline-thickness="50"
    underline-position="-75"
    unicode-range="U+0020-U+F8FF"
  />
<missing-glyph horiz-adv-x="638" 
d="M568 722v-722h-498v722h498zM190 607v-492h258v492h-258z" />
    <glyph glyph-name=".notdef" horiz-adv-x="638" 
d="M568 722v-722h-498v722h498zM190 607v-492h258v492h-258z" />
    <glyph glyph-name="space" unicode=" " horiz-adv-x="231" 
 />
    <glyph glyph-name="exclam" unicode="!" horiz-adv-x="298" 
d="M213 185h-128v537h128v-537zM213 0h-128v120h128v-120z" />
    <glyph glyph-name="quotedbl" unicode="&#x22;" horiz-adv-x="426" 
d="M158 491h-85l-27 231h140zM353 491h-85l-27 231h139z" />
    <glyph glyph-name="numbersign" unicode="#" horiz-adv-x="827" 
d="M751 722l-78 -202h141l-33 -100h-143l-44 -115h142l-34 -100h-142l-79 -205h-105l80 205h-191l-80 -205h-104l80 205h-145l33 100h145l45 115h-145l34 100h145l78 202h104l-78 -202h191l78 202h105zM343 420l-45 -115h191l45 115h-191z" />
    <glyph glyph-name="dollar" unicode="$" horiz-adv-x="731" 
d="M532 0h-114.001v-76h-108v76h-111c-48 0 -82 7 -102 21s-30 42.333 -30 85v109h128v-70c0 -14 2.33301 -22.5 7 -25.5s16.334 -4.5 35.001 -4.5h73v188h-112c-48 0 -82 7 -102 21s-30 42.333 -30 85v207c0 42.667 10 71 30 85s54 21 102 21h112v78h108v-78h112
c48 0 82 -7 102 -21s30 -42.333 30 -85v-109h-127v70c0 14 -2.33301 22.5 -7 25.5s-16 4.5 -34 4.5h-76v-189h114c48 0 82 -7 102 -21s30 -42.333 30 -85v-206c0 -42.667 -10 -71 -30 -85s-54 -21 -102 -21zM536.999 145v128c0 14 -2.5 22.5 -7.5 25.5s-16.5 4.5 -34.5 4.5
h-77v-188h77c18 0 29.5 1.5 34.5 4.5s7.5 11.5 7.5 25.5zM309.999 418v189h-74c-18.667 0 -30.334 -1.5 -35.001 -4.5s-7 -11.5 -7 -25.5v-129c0 -14 2.33301 -22.5 7 -25.5s16.334 -4.5 35.001 -4.5h74z" />
    <glyph glyph-name="percent" unicode="%" horiz-adv-x="921" 
d="M231 0h-127l586 722h130zM248 338h-94c-30 0 -54.667 5.5 -74 16.5s-29 27.5 -29 49.5v242c0 22.667 10 41 30 55s44.333 21 73 21h94c29.333 0 54 -7 74 -21s30 -32.333 30 -55v-232c0 -22.667 -10 -41 -30 -55s-44.667 -21 -74 -21zM256 439v181
c0 7.33301 -1.5 11.833 -4.5 13.5s-10.833 2.5 -23.5 2.5h-54c-12 0 -19.667 -0.833008 -23 -2.5s-5 -6.16699 -5 -13.5v-181c0 -7.33301 1.5 -11.833 4.5 -13.5s10.833 -2.5 23.5 -2.5h54c12.667 0 20.5 0.833008 23.5 2.5s4.5 6.16699 4.5 13.5zM767 0h-94
c-30 0 -54.667 5.5 -74 16.5s-29 27.5 -29 49.5v242c0 22.667 10 41 30 55s44.333 21 73 21h94c29.333 0 54 -7 74 -21s30 -32.333 30 -55v-232c0 -22.667 -10 -41 -30 -55s-44.667 -21 -74 -21zM774 101v181c0 7.33301 -1.5 11.833 -4.5 13.5s-10.833 2.5 -23.5 2.5h-53
c-12.667 0 -20.5 -0.833008 -23.5 -2.5s-4.5 -6.16699 -4.5 -13.5v-181c0 -7.33301 1.5 -11.833 4.5 -13.5s10.833 -2.5 23.5 -2.5h53c12.667 0 20.5 0.833008 23.5 2.5s4.5 6.16699 4.5 13.5z" />
    <glyph glyph-name="ampersand" unicode="&#x26;" horiz-adv-x="778" 
d="M543 0l-331.999 0.00195312c-48 0 -82 7 -102 21s-30 42.333 -30 85v138c0 26.667 3.66699 46.5 11 59.5s19.666 23.167 36.999 30.5c-17.333 7.33301 -29.666 17.666 -36.999 30.999s-11 33.333 -11 60v191c0 42.667 10 71 30 85s54 21 102 21h332c48 0 82 -7 102 -21
s30 -42.333 30 -85v-109h-127v70c0 14 -3 22.5 -9 25.5s-20.667 4.5 -44 4.5h-246c-20.667 0 -32.834 -1.33301 -36.501 -4s-5.5 -11.334 -5.5 -26.001v-153c0 -13.333 3.16699 -21.5 9.5 -24.5s20.833 -4.5 43.5 -4.5h477v-115h-62v-174c0 -42.667 -10 -71 -30 -85
s-54 -21 -102 -21zM548.001 144.002l0.000976562 135.999h-299c-12 0 -20.5 -0.5 -25.5 -1.5s-9 -3.66699 -12 -8s-4.5 -11.166 -4.5 -20.499v-106c0 -14 2.16699 -22.333 6.5 -25s16.166 -4 35.499 -4h258c18.667 0 30.167 1.33301 34.5 4s6.5 11 6.5 25z" />
    <glyph glyph-name="quotesingle" unicode="'" horiz-adv-x="232" 
d="M158 491h-85l-27 231h140z" />
    <glyph glyph-name="parenleft" unicode="(" horiz-adv-x="316" 
d="M273 -200h-64c-48 0 -82 7 -102 21s-30 42.333 -30 85v710c0 42.667 10 71 30 85s54 21 102 21h64v-115h-26c-18.667 0 -30.334 -1.5 -35.001 -4.5s-7 -11.5 -7 -25.5v-632c0 -14 2.33301 -22.5 7 -25.5s16.334 -4.5 35.001 -4.5h26v-115z" />
    <glyph glyph-name="parenright" unicode=")" horiz-adv-x="316" 
d="M107 -200h-64v115h27c18 0 29.5 1.5 34.5 4.5s7.5 11.5 7.5 25.5v632c0 14 -2.5 22.5 -7.5 25.5s-16.5 4.5 -34.5 4.5h-27v115h64c48 0 82 -7 102 -21s30 -42.333 30 -85v-710c0 -42.667 -10 -71 -30 -85s-54 -21 -102 -21z" />
    <glyph glyph-name="asterisk" unicode="*" horiz-adv-x="396" 
d="M322 584l-73 -51l-51 73l-50 -73l-72 51l81 68l-120 11l23 86l113 -36l-24 87h97l-21 -87l104 36l32 -86l-120 -11z" />
    <glyph glyph-name="plus" unicode="+" horiz-adv-x="557" 
d="M343 71h-128v136h-172v120h172v136h128v-136h170v-120h-170v-136z" />
    <glyph glyph-name="comma" unicode="," horiz-adv-x="251" 
d="M171 -100h-92l-17 221h127z" />
    <glyph glyph-name="hyphen" unicode="-" horiz-adv-x="448" 
d="M384 207h-319v120h319v-120z" />
    <glyph glyph-name="period" unicode="." horiz-adv-x="236" 
d="M181 0h-126v121h126v-121z" />
    <glyph glyph-name="slash" unicode="/" horiz-adv-x="494" 
d="M146 -118h-124l325 867h125z" />
    <glyph glyph-name="zero" unicode="0" horiz-adv-x="757" 
d="M543 0h-330c-48 0 -82 7 -102 21s-30 42.333 -30 85v510c0 42.667 10 71 30 85s54 21 102 21h330c48 0 82 -7 102 -21s30 -42.333 30 -85v-510c0 -42.667 -10 -71 -30 -85s-54 -21 -102 -21zM548 144l0.00195312 433c0 14 -2.33301 22.5 -7 25.5s-16.334 4.5 -35.001 4.5
h-255c-18.667 0 -30.334 -1.5 -35.001 -4.5s-7 -11.5 -7 -25.5v-432c0 -14 2.33301 -22.5 7 -25.5s16.334 -4.5 35.001 -4.5h255c19.333 0 31.166 1.5 35.499 4.5s6.5 11.167 6.5 24.5z" />
    <glyph glyph-name="one" unicode="1" horiz-adv-x="558" 
d="M533 0h-485v115h176v491h-176v115h303v-606h182v-115z" />
    <glyph glyph-name="two" unicode="2" horiz-adv-x="675" 
d="M608 0l-551.999 0.000976562v128l385 279c22 16 35.833 30.167 41.5 42.5s8.5 27.166 8.5 44.499v83c0 14 -2.5 22.5 -7.5 25.5s-16.5 4.5 -34.5 4.5h-222c-18.667 0 -30.334 -1.5 -35.001 -4.5s-7 -11.5 -7 -25.5v-71h-129v110c0 42.667 10 71 30 85s54 21 102 21h298
c48 0 82 -7 102 -21s30 -42.333 30 -85v-111c0 -50 -4 -86 -12 -108s-29.333 -45 -64 -69l-309 -213h375v-115z" />
    <glyph glyph-name="three" unicode="3" horiz-adv-x="732" 
d="M520 0h-325.998c-48 0 -82 7 -102 21s-30 42.333 -30 85v110h128v-72c0 -14 2.16699 -22.333 6.5 -25s16.166 -4 35.499 -4h252c18.667 0 30.167 1.33301 34.5 4s6.5 11 6.5 25v129c0 14 -2.33301 22.5 -7 25.5s-16 4.5 -34 4.5h-177v115h176
c18.667 0 30.167 1.33301 34.5 4s6.5 11 6.5 25v130c0 14 -2.33301 22.5 -7 25.5s-16 4.5 -34 4.5h-251c-18.667 0 -30.334 -1.5 -35.001 -4.5s-7 -11.5 -7 -25.5v-71h-128v110c0 42.667 10 71 30 85s54 21 102 21h326c48 0 82 -7 102 -21s30 -42.333 30 -85v-164
c0 -50 -15.667 -81.667 -47 -95c31.333 -12.667 47 -44 47 -94v-157c0 -42.667 -10 -71 -30 -85s-54 -21 -102 -21z" />
    <glyph glyph-name="four" unicode="4" horiz-adv-x="661" 
d="M598 0h-126v179h-441v120l280 423h147l-288 -428h302v256h126v-550z" />
    <glyph glyph-name="five" unicode="5" horiz-adv-x="689" 
d="M498 0h-297.001c-48 0 -82 7 -102 21s-30 42.333 -30 85v110h127v-71c0 -14 2.33301 -22.5 7 -25.5s16.334 -4.5 35.001 -4.5h222c18 0 29.5 1.5 34.5 4.5s7.5 11.5 7.5 25.5v163c0 14 -2.5 22.5 -7.5 25.5s-16.5 4.5 -34.5 4.5h-392v384h528v-115h-400v-154h302
c48 0 82 -7 102 -21s30 -42.333 30 -85v-241c0 -42.667 -10 -71 -30 -85s-54 -21 -102 -21z" />
    <glyph glyph-name="six" unicode="6" horiz-adv-x="746" 
d="M547 0h-333.999c-48 0 -82 7 -102 21s-30 42.333 -30 85v510c0 42.667 10 71 30 85s54 21 102 21h334c48 0 82 -7 102 -21s30 -42.333 30 -85v-109h-127v70c0 14 -2.5 22.5 -7.5 25.5s-16.5 4.5 -34.5 4.5h-259c-18.667 0 -30.334 -1.5 -35.001 -4.5s-7 -11.5 -7 -25.5
v-145h338c48 0 82 -7 102 -21s30 -42.333 30 -85v-220c0 -42.667 -10 -71 -30 -85s-54 -21 -102 -21zM552.001 144v143c0 14 -2.5 22.5 -7.5 25.5s-16.5 4.5 -34.5 4.5h-301v-172c0 -14 2.33301 -22.5 7 -25.5s16.334 -4.5 35.001 -4.5h259c19.333 0 31.166 1.5 35.499 4.5
s6.5 11.167 6.5 24.5z" />
    <glyph glyph-name="seven" unicode="7" horiz-adv-x="634" 
d="M213 0h-149l406 607h-437v115h576v-120z" />
    <glyph glyph-name="eight" unicode="8" horiz-adv-x="749" 
d="M537 0h-326c-48 0 -82 7 -102 21s-30 42.333 -30 85v157c0 50 16.333 81.333 49 94c-32 13.333 -48 45 -48 95v164c0 42.667 10 71 30 85s54 21 102 21h325c48 0 82 -7 102 -21s30 -42.333 30 -85v-164c0 -50 -15.667 -81.667 -47 -95c31.333 -12 47 -43.333 47 -94v-157
c0 -42.667 -10 -71 -30 -85s-54 -21 -102 -21zM542 447l0.00292969 130c0 14 -2.33301 22.5 -7 25.5s-16 4.5 -34 4.5h-252c-18.667 0 -30.334 -1.5 -35.001 -4.5s-7 -11.5 -7 -25.5v-130c0 -14 2.16699 -22.333 6.5 -25s16.166 -4 35.499 -4h251
c19.333 0 31.166 1.33301 35.499 4s6.5 11 6.5 25zM542.003 144l0.00195312 129c0 14 -2.33301 22.5 -7 25.5s-16 4.5 -34 4.5h-252c-18.667 0 -30.334 -1.5 -35.001 -4.5s-7 -11.5 -7 -25.5v-129c0 -14 2.16699 -22.333 6.5 -25s16.166 -4 35.499 -4h252
c18.667 0 30.167 1.33301 34.5 4s6.5 11 6.5 25z" />
    <glyph glyph-name="nine" unicode="9" horiz-adv-x="746" 
d="M532 0h-334.001c-48 0 -82 7 -102 21s-30 42.333 -30 85v109h128v-70c0 -14 2.33301 -22.5 7 -25.5s16.334 -4.5 35.001 -4.5h258c18 0 29.5 1.5 34.5 4.5s7.5 11.5 7.5 25.5v145h-338c-48 0 -82 7 -102 21s-30 42.333 -30 85v220c0 42.667 10 71 30 85s54 21 102 21h334
c48 0 82 -7 102 -21s30 -42.333 30 -85v-510c0 -42.667 -10 -71 -30 -85s-54 -21 -102 -21zM535.999 405l-0.00195312 172c0 14 -2.5 22.5 -7.5 25.5s-16.5 4.5 -34.5 4.5h-258c-19.333 0 -31.166 -1.33301 -35.499 -4s-6.5 -11 -6.5 -25v-143c0 -14 2.33301 -22.5 7 -25.5
s16.334 -4.5 35.001 -4.5h300z" />
    <glyph glyph-name="colon" unicode=":" horiz-adv-x="266" 
d="M204 0h-126v121h126v-121zM204 270h-126v121h126v-121z" />
    <glyph glyph-name="semicolon" unicode=";" horiz-adv-x="264" 
d="M185 -100h-92l-17 221h127zM203 270h-126v121h126v-121z" />
    <glyph glyph-name="less" unicode="&#x3c;" horiz-adv-x="445" 
d="M406 61l-94 -64l-291 281l292 299l92 -70l-239 -229z" />
    <glyph glyph-name="equal" unicode="=" horiz-adv-x="618" 
d="M544 322h-470v120h470v-120zM544 92h-470v120h470v-120z" />
    <glyph glyph-name="greater" unicode="&#x3e;" horiz-adv-x="445" 
d="M132 -3l-93 64l240 217l-239 229l91 70l293 -299z" />
    <glyph glyph-name="question" unicode="?" horiz-adv-x="652" 
d="M467 269h-165.999v-84h-127v199h257c18 0 29.333 1.5 34 4.5s7 11.5 7 25.5v163c0 14 -2.33301 22.5 -7 25.5s-16 4.5 -34 4.5h-222c-18.667 0 -30.334 -1.5 -35.001 -4.5s-7 -11.5 -7 -25.5v-71h-128v110c0 42.667 10 71 30 85s54 21 102 21h296c48 0 82 -7 102 -21
s30 -42.333 30 -85v-241c0 -42.667 -10 -71 -30 -85s-54 -21 -102 -21zM301.001 0h-126v121h126v-121z" />
    <glyph glyph-name="at" unicode="@" horiz-adv-x="1169" 
d="M955 0h-528c-48 0 -82 7 -102 21s-30 42.333 -30 85v132c0 42.667 10 71 30 85s54 21 102 21h296v61c0 14 -2.33301 22.5 -7 25.5s-16 4.5 -34 4.5h-326v115h362c48 0 82 -7 102 -21s30 -42.333 30 -85v-329h68c18.667 0 30.334 1.5 35.001 4.5s7 11.5 7 25.5v432
c0 14 -2.33301 22.5 -7 25.5s-16.334 4.5 -35.001 4.5h-668c-18.667 0 -30.334 -1.5 -35.001 -4.5s-7 -11.5 -7 -25.5v-631c0 -14 2.33301 -22.5 7 -25.5s16.334 -4.5 35.001 -4.5h352v-115h-390c-48 0 -82 7 -102 21s-30 42.333 -30 85v709c0 42.667 10 71 30 85
s54 21 102 21h743c48 0 82 -7 102 -21s30 -42.333 30 -85v-510c0 -42.667 -10 -71 -30 -85s-54 -21 -102 -21zM723 145v84.001h-258c-18.667 0 -30.334 -1.5 -35.001 -4.5s-7 -11.5 -7 -25.5v-54c0 -14 2.33301 -22.5 7 -25.5s16.334 -4.5 35.001 -4.5h217
c10.667 0 18.5 0.5 23.5 1.5s9.16699 3.66699 12.5 8s5 11.166 5 20.499z" />
    <glyph glyph-name="A" unicode="A" horiz-adv-x="755" 
d="M676 0h-127v250h-343v-250h-128v616c0 42.667 10 71 30 85s54 21 102 21h334c48 0 82 -7 102 -21s30 -42.333 30 -85v-616zM549 365l0.000976562 212c0 14 -2.5 22.5 -7.5 25.5s-16.5 4.5 -34.5 4.5h-259c-18.667 0 -30.334 -1.5 -35.001 -4.5s-7 -11.5 -7 -25.5v-212
h343z" />
    <glyph glyph-name="B" unicode="B" horiz-adv-x="742" 
d="M535 0h-456v722h455c48 0 82 -7 102 -21s30 -42.333 30 -85v-164c0 -50 -16 -81.667 -48 -95c32.667 -12.667 49 -44 49 -94v-157c0 -42.667 -10 -71 -30 -85s-54 -21 -102 -21zM539 144l0.00195312 129c0 14 -2.33301 22.5 -7 25.5s-16.334 4.5 -35.001 4.5h-290v-188
h290c19.333 0 31.166 1.5 35.499 4.5s6.5 11.167 6.5 24.5zM539.002 447l0.00195312 130c0 14 -2.33301 22.5 -7 25.5s-16.334 4.5 -35.001 4.5h-290v-189h290c19.333 0 31.166 1.5 35.499 4.5s6.5 11.167 6.5 24.5z" />
    <glyph glyph-name="C" unicode="C" horiz-adv-x="732" 
d="M543 0h-333.999c-48 0 -82 7 -102 21s-30 42.333 -30 85v510c0 42.667 10 71 30 85s54 21 102 21h334c48 0 82 -7 102 -21s30 -42.333 30 -85v-109h-127v70c0 14 -2.5 22.5 -7.5 25.5s-16.5 4.5 -34.5 4.5h-259c-18.667 0 -30.334 -1.5 -35.001 -4.5s-7 -11.5 -7 -25.5
v-432c0 -14 2.33301 -22.5 7 -25.5s16.334 -4.5 35.001 -4.5h259c19.333 0 31.166 1.5 35.499 4.5s6.5 11.167 6.5 24.5v71h127v-109c0 -42.667 -10 -71 -30 -85s-54 -21 -102 -21z" />
    <glyph glyph-name="D" unicode="D" horiz-adv-x="774" 
d="M565 0h-486v722h486c48 0 82 -7 102 -21s30 -42.333 30 -85v-510c0 -42.667 -10 -71 -30 -85s-54 -21 -102 -21zM570 144l0.00195312 433c0 14 -2.33301 22.5 -7 25.5s-16.334 4.5 -35.001 4.5h-321v-492h321c19.333 0 31.166 1.5 35.499 4.5s6.5 11.167 6.5 24.5z" />
    <glyph glyph-name="E" unicode="E" horiz-adv-x="662" 
d="M619 0h-540v722h540v-115h-412v-188h334v-115h-334v-189h412v-115z" />
    <glyph glyph-name="F" unicode="F" horiz-adv-x="629" 
d="M207 0h-128v722h528v-115h-400v-188h322v-115h-322v-304z" />
    <glyph glyph-name="G" unicode="G" horiz-adv-x="756" 
d="M555 0h-345.999c-48 0 -82 7 -102 21s-30 42.333 -30 85v510c0 42.667 10 71 30 85s54 21 102 21h346c48 0 82 -7 102 -21s30 -42.333 30 -85v-109h-127v70c0 14 -2.5 22.5 -7.5 25.5s-16.5 4.5 -34.5 4.5h-271c-18.667 0 -30.334 -1.5 -35.001 -4.5s-7 -11.5 -7 -25.5
v-432c0 -14 2.33301 -22.5 7 -25.5s16.334 -4.5 35.001 -4.5h271c19.333 0 31.166 1.5 35.499 4.5s6.5 11.167 6.5 24.5v102h-175v115h302v-255c0 -42.667 -10 -71 -30 -85s-54 -21 -102 -21z" />
    <glyph glyph-name="H" unicode="H" horiz-adv-x="791" 
d="M711 0h-127v304h-377v-304h-128v722h128v-303h377v303h127v-722z" />
    <glyph glyph-name="I" unicode="I" horiz-adv-x="286" 
d="M207 0h-128v722h128v-722z" />
    <glyph glyph-name="J" unicode="J" horiz-adv-x="462" 
d="M252 0h-238.999v115h201c19.333 0 31.166 1.33301 35.499 4s6.5 11 6.5 25v578h128v-616c0 -42.667 -10 -71 -30 -85s-54 -21 -102 -21z" />
    <glyph glyph-name="K" unicode="K" horiz-adv-x="736" 
d="M735 0h-173l-355 313v-313h-128v722h128v-323l355 323h173l-416 -361z" />
    <glyph glyph-name="L" unicode="L" horiz-adv-x="607" 
d="M595 0h-516v722h128v-607h388v-115z" />
    <glyph glyph-name="M" unicode="M" horiz-adv-x="944" 
d="M865 0h-128v568l-192 -568h-137l-201 570v-570h-128v722h206l192 -553l182 553h206v-722z" />
    <glyph glyph-name="N" unicode="N" horiz-adv-x="764" 
d="M685 0h-157l-321 518v-518h-128v722h153l325 -524v524h128v-722z" />
    <glyph glyph-name="O" unicode="O" horiz-adv-x="788" 
d="M579 0h-370c-48 0 -82 7 -102 21s-30 42.333 -30 85v510c0 42.667 10 71 30 85s54 21 102 21h370c48 0 82 -7 102 -21s30 -42.333 30 -85v-510c0 -42.667 -10 -71 -30 -85s-54 -21 -102 -21zM584 144l0.000976562 433c0 14 -2.5 22.5 -7.5 25.5s-16.5 4.5 -34.5 4.5h-295
c-18.667 0 -30.334 -1.5 -35.001 -4.5s-7 -11.5 -7 -25.5v-432c0 -14 2.33301 -22.5 7 -25.5s16.334 -4.5 35.001 -4.5h295c19.333 0 31.166 1.5 35.499 4.5s6.5 11.167 6.5 24.5z" />
    <glyph glyph-name="P" unicode="P" horiz-adv-x="715" 
d="M207 0h-128v722h454c48 0 82 -7 102 -21s30 -42.333 30 -85v-233c0 -42.667 -10 -71 -30 -85s-54 -21 -102 -21h-326v-277zM538 421l0.000976562 156c0 14 -2.5 22.5 -7.5 25.5s-16.5 4.5 -34.5 4.5h-289v-215h289c19.333 0 31.166 1.5 35.499 4.5s6.5 11.167 6.5 24.5z
" />
    <glyph glyph-name="Q" unicode="Q" horiz-adv-x="788" 
d="M461 -138h-128v138h-124c-48 0 -82 7 -102 21s-30 42.333 -30 85v510c0 42.667 10 71 30 85s54 21 102 21h370c48 0 82 -7 102 -21s30 -42.333 30 -85v-510c0 -42.667 -10 -71 -30 -85s-54 -21 -102 -21h-118v-138zM584 144l0.000976562 433c0 14 -2.5 22.5 -7.5 25.5
s-16.5 4.5 -34.5 4.5h-295c-18.667 0 -30.334 -1.5 -35.001 -4.5s-7 -11.5 -7 -25.5v-432c0 -14 2.33301 -22.5 7 -25.5s16.334 -4.5 35.001 -4.5h295c19.333 0 31.166 1.5 35.499 4.5s6.5 11.167 6.5 24.5z" />
    <glyph glyph-name="R" unicode="R" horiz-adv-x="726" 
d="M661 0h-143l-194 277h-117v-277h-128v722h454c48 0 82 -7 102 -21s30 -42.333 30 -85v-233c0 -42.667 -10 -71 -30 -85s-54 -21 -102 -21h-66zM538 421l0.000976562 156c0 14 -2.5 22.5 -7.5 25.5s-16.5 4.5 -34.5 4.5h-289v-215h289c19.333 0 31.166 1.5 35.499 4.5
s6.5 11.167 6.5 24.5z" />
    <glyph glyph-name="S" unicode="S" horiz-adv-x="734" 
d="M534 0h-333.001c-48 0 -82 7 -102 21s-30 42.333 -30 85v109h127v-70c0 -14 2.33301 -22.5 7 -25.5s16.334 -4.5 35.001 -4.5h258c18 0 29.5 1.5 34.5 4.5s7.5 11.5 7.5 25.5v128c0 14 -2.5 22.5 -7.5 25.5s-16.5 4.5 -34.5 4.5h-296c-48 0 -82 7 -102 21
s-30 42.333 -30 85v207c0 42.667 10 71 30 85s54 21 102 21h332c48 0 82 -7 102 -21s30 -42.333 30 -85v-109h-128v70c0 14 -2.33301 22.5 -7 25.5s-16 4.5 -34 4.5h-258c-18.667 0 -30.334 -1.5 -35.001 -4.5s-7 -11.5 -7 -25.5v-129c0 -14 2.33301 -22.5 7 -25.5
s16.334 -4.5 35.001 -4.5h297c48 0 82 -7 102 -21s30 -42.333 30 -85v-206c0 -42.667 -10 -71 -30 -85s-54 -21 -102 -21z" />
    <glyph glyph-name="T" unicode="T" horiz-adv-x="620" 
d="M374 0h-128v607h-233v115h593v-115h-232v-607z" />
    <glyph glyph-name="U" unicode="U" horiz-adv-x="791" 
d="M580 0h-370c-48 0 -82 7 -102 21s-30 42.333 -30 85v616h128v-577c0 -14 2.33301 -22.5 7 -25.5s16.334 -4.5 35.001 -4.5h295c19.333 0 31.166 1.5 35.499 4.5s6.5 11.167 6.5 24.5v578h127v-616c0 -42.667 -10 -71 -30 -85s-54 -21 -102 -21z" />
    <glyph glyph-name="V" unicode="V" horiz-adv-x="684" 
d="M427 0h-170l-235 722h137l183 -563l184 563h136z" />
    <glyph glyph-name="W" unicode="W" horiz-adv-x="1120" 
d="M874 0h-171l-144 542l-142 -542h-171l-223 722h137l171 -563l143 563h172l143 -563l171 563h137z" />
    <glyph glyph-name="X" unicode="X" horiz-adv-x="673" 
d="M661 0h-139l-185 268l-187 -268h-138l255 360l-256 362h138l188 -261l186 261h139l-257 -362z" />
    <glyph glyph-name="Y" unicode="Y" horiz-adv-x="735" 
d="M434 0h-128v299h-124c-48 0 -82 7 -102 21s-30 42.333 -30 85v317h128v-278c0 -14 2.33301 -22.5 7 -25.5s16.334 -4.5 35.001 -4.5h295c19.333 0 31.166 1.5 35.499 4.5s6.5 11.167 6.5 24.5v279h127v-317c0 -42.667 -10 -71 -30 -85s-54 -21 -102 -21h-118v-299z" />
    <glyph glyph-name="Z" unicode="Z" horiz-adv-x="664" 
d="M620 0h-575v122l429 485h-429v115h576v-122l-425 -485h424v-115z" />
    <glyph glyph-name="bracketleft" unicode="[" horiz-adv-x="387" 
d="M352 -200h-272v922h272v-115h-142v-691h142v-116z" />
    <glyph glyph-name="backslash" unicode="\" horiz-adv-x="520" 
d="M498 -50h-135l-341 799h135z" />
    <glyph glyph-name="bracketright" unicode="]" horiz-adv-x="387" 
d="M307 -200h-272v116h142v691h-142v115h272v-922z" />
    <glyph glyph-name="asciicircum" unicode="^" horiz-adv-x="548" 
d="M517 407h-124l-121 157l-119 -157h-123l214 301h60z" />
    <glyph glyph-name="underscore" unicode="_" horiz-adv-x="735" 
d="M668 -58h-600v115h600v-115z" />
    <glyph glyph-name="grave" unicode="`" horiz-adv-x="390" 
d="M316 604l-211 107l72 92l192 -129z" />
    <glyph glyph-name="a" unicode="a" horiz-adv-x="677" 
d="M479 0h-292c-48 0 -82 7 -102 21s-30 42.333 -30 85v132c0 42.667 10 71 30 85s54 21 102 21h296v61c0 14 -2.5 22.5 -7.5 25.5s-16.5 4.5 -34.5 4.5h-373v115h411c48 0 82 -7 102 -21s30 -42.333 30 -85v-338c0 -42.667 -10 -71 -30 -85s-54 -21 -102 -21zM483 145v84
h-259c-18.667 0 -30.334 -1.5 -35.001 -4.5s-7 -11.5 -7 -25.5v-54c0 -14 2.33301 -22.5 7 -25.5s16.334 -4.5 35.001 -4.5h217c18 0 29.5 1.5 34.5 4.5s7.5 11.5 7.5 25.5z" />
    <glyph glyph-name="b" unicode="b" 
d="M491 0h-292c-48 0 -82 7 -102 21s-30 42.333 -30 85v694h128v-250h296c48 0 82 -7 102 -21s30 -42.333 30 -85v-338c0 -42.667 -10 -71 -30 -85s-54 -21 -102 -21zM496 145l-0.000976562 260c0 14 -2.5 22.5 -7.5 25.5s-16.5 4.5 -34.5 4.5h-259v-290
c0 -14 2.33301 -22.5 7 -25.5s16.334 -4.5 35.001 -4.5h217c18 0 29.5 1.5 34.5 4.5s7.5 11.5 7.5 25.5z" />
    <glyph glyph-name="c" unicode="c" horiz-adv-x="602" 
d="M559 0h-361c-48 0 -82 7 -102 21s-30 42.333 -30 85v338c0 42.667 10 71 30 85s54 21 102 21h361v-115h-323c-18.667 0 -30.334 -1.5 -35.001 -4.5s-7 -11.5 -7 -25.5v-260c0 -14 2.33301 -22.5 7 -25.5s16.334 -4.5 35.001 -4.5h323v-115z" />
    <glyph glyph-name="d" unicode="d" 
d="M490 0h-292c-48 0 -82 7 -102 21s-30 42.333 -30 85v338c0 42.667 10 71 30 85s54 21 102 21h297v250h127v-694c0 -42.667 -10 -71 -30 -85s-54 -21 -102 -21zM495 145v290h-259c-18.667 0 -30.334 -1.5 -35.001 -4.5s-7 -11.5 -7 -25.5v-260
c0 -14 2.33301 -22.5 7 -25.5s16.334 -4.5 35.001 -4.5h217c18 0 29.5 1.5 34.5 4.5s7.5 11.5 7.5 25.5z" />
    <glyph glyph-name="e" unicode="e" horiz-adv-x="673" 
d="M595 0h-397c-48 0 -82 7 -102 21s-30 42.333 -30 85v338c0 42.667 10 71 30 85s54 21 102 21h292c48 0 82 -7 102 -21s30 -42.333 30 -85v-125c0 -42.667 -10 -71 -30 -85s-54 -21 -102 -21h-296v-68c0 -14 3.33301 -22.5 10 -25.5s22.667 -4.5 48 -4.5h343v-115z
M495 358l0.000976562 47c0 14 -2.5 22.5 -7.5 25.5s-16.5 4.5 -34.5 4.5h-217c-18.667 0 -30.334 -1.5 -35.001 -4.5s-7 -11.5 -7 -25.5v-77h259c18 0 29.5 1.5 34.5 4.5s7.5 11.5 7.5 25.5z" />
    <glyph glyph-name="f" unicode="f" horiz-adv-x="460" 
d="M260 0h-127.999v436h-109v115h109v143c0 42.667 10 71 30 85s54 21 102 21h177v-115h-139c-18.667 0 -30.334 -1.5 -35.001 -4.5s-7 -11.5 -7 -25.5v-104h181v-115h-181v-436z" />
    <glyph glyph-name="g" unicode="g" 
d="M490 -200h-393v115h356c18 0 29.5 1.5 34.5 4.5s7.5 11.5 7.5 25.5v55h-297c-48 0 -82 7 -102 21s-30 42.333 -30 85v338c0 42.667 10 71 30 85s54 21 102 21h292c48 0 82 -7 102 -21s30 -42.333 30 -85v-538c0 -42.667 -10 -71 -30 -85s-54 -21 -102 -21zM495 115v290
c0 14 -2.5 22.5 -7.5 25.5s-16.5 4.5 -34.5 4.5h-217c-18.667 0 -30.334 -1.5 -35.001 -4.5s-7 -11.5 -7 -25.5v-260c0 -14 2.33301 -22.5 7 -25.5s16.334 -4.5 35.001 -4.5h259z" />
    <glyph glyph-name="h" unicode="h" horiz-adv-x="692" 
d="M624 0h-127v405c0 14 -2.5 22.5 -7.5 25.5s-16.5 4.5 -34.5 4.5h-259v-435h-128v800h128v-250h296c48 0 82 -7 102 -21s30 -42.333 30 -85v-444z" />
    <glyph glyph-name="i" unicode="i" horiz-adv-x="323" 
d="M254 0h-127v435h-115v115h242v-550zM254 607h-127v115h127v-115z" />
    <glyph glyph-name="j" unicode="j" horiz-adv-x="323" 
d="M123 -200h-192.001v115h154c18.667 0 30.334 1.5 35.001 4.5s7 11.5 7 25.5v490h-115v115h243v-644c0 -42.667 -10 -71 -30 -85s-54 -21 -102 -21zM254.999 607h-128v115h128v-115z" />
    <glyph glyph-name="k" unicode="k" horiz-adv-x="587" 
d="M570 0h-138l-163 215h-73v-215h-128v800h128v-470h71l170 220h138l-216 -277z" />
    <glyph glyph-name="l" unicode="l" horiz-adv-x="340" 
d="M327 0h-128.001c-48 0 -82 7 -102 21s-30 42.333 -30 85v694h128v-655c0 -14 2.33301 -22.5 7 -25.5s16.334 -4.5 35.001 -4.5h90v-115z" />
    <glyph glyph-name="m" unicode="m" horiz-adv-x="1053" 
d="M985 0h-126.995v405c0 14 -2.33301 22.5 -7 25.5s-16.334 4.5 -35.001 4.5h-183c-18.667 0 -30.334 -1.5 -35.001 -4.5s-7 -11.5 -7 -25.5v-405h-127v405c0 14 -2.33301 22.5 -7 25.5s-16.334 4.5 -35.001 4.5h-185c-18.667 0 -30.334 -1.5 -35.001 -4.5
s-7 -11.5 -7 -25.5v-405h-128v444c0 42.667 10 71 30 85s54 21 102 21h227c26 0 47 -2.66699 63 -8s29 -16 39 -32c10 16 22.667 26.667 38 32s35.666 8 60.999 8h226c48 0 82 -7 102 -21s30 -42.333 30 -85v-444z" />
    <glyph glyph-name="n" unicode="n" horiz-adv-x="691" 
d="M623 0h-126.999v405c0 14 -2.5 22.5 -7.5 25.5s-16.5 4.5 -34.5 4.5h-217c-18.667 0 -30.334 -1.5 -35.001 -4.5s-7 -11.5 -7 -25.5v-405h-128v444c0 42.667 10 71 30 85s54 21 102 21h292c48 0 82 -7 102 -21s30 -42.333 30 -85v-444z" />
    <glyph glyph-name="o" unicode="o" horiz-adv-x="689" 
d="M490 0h-292c-48 0 -82 7 -102 21s-30 42.333 -30 85v338c0 42.667 10 71 30 85s54 21 102 21h292c48 0 82 -7 102 -21s30 -42.333 30 -85v-338c0 -42.667 -10 -71 -30 -85s-54 -21 -102 -21zM495 145v260c0 14 -2.5 22.5 -7.5 25.5s-16.5 4.5 -34.5 4.5h-217
c-18.667 0 -30.334 -1.5 -35.001 -4.5s-7 -11.5 -7 -25.5v-260c0 -14 2.33301 -22.5 7 -25.5s16.334 -4.5 35.001 -4.5h217c18 0 29.5 1.5 34.5 4.5s7.5 11.5 7.5 25.5z" />
    <glyph glyph-name="p" unicode="p" 
d="M491 0h-296v-200h-128v644c0 42.667 10 71 30 85s54 21 102 21h292c48 0 82 -7 102 -21s30 -42.333 30 -85v-338c0 -42.667 -10 -71 -30 -85s-54 -21 -102 -21zM496 145l0.000976562 260c0 14 -2.5 22.5 -7.5 25.5s-16.5 4.5 -34.5 4.5h-217
c-18.667 0 -30.334 -1.5 -35.001 -4.5s-7 -11.5 -7 -25.5v-290h259c18 0 29.5 1.5 34.5 4.5s7.5 11.5 7.5 25.5z" />
    <glyph glyph-name="q" unicode="q" 
d="M622 -200h-127v200h-297c-48 0 -82 7 -102 21s-30 42.333 -30 85v338c0 42.667 10 71 30 85s54 21 102 21h292c48 0 82 -7 102 -21s30 -42.333 30 -85v-644zM495 115v290c0 14 -2.5 22.5 -7.5 25.5s-16.5 4.5 -34.5 4.5h-217c-18.667 0 -30.334 -1.5 -35.001 -4.5
s-7 -11.5 -7 -25.5v-260c0 -14 2.33301 -22.5 7 -25.5s16.334 -4.5 35.001 -4.5h259z" />
    <glyph glyph-name="r" unicode="r" horiz-adv-x="487" 
d="M195 0h-127.999v444c0 42.667 10 71 30 85s54 21 102 21h270v-115h-232c-18.667 0 -30.334 -1.5 -35.001 -4.5s-7 -11.5 -7 -25.5v-405z" />
    <glyph glyph-name="s" unicode="s" horiz-adv-x="622" 
d="M441 0h-362.999v115h325c18.667 0 30.334 1.5 35.001 4.5s7 11.5 7 25.5v40c0 14 -2.33301 22.5 -7 25.5s-16.334 4.5 -35.001 4.5h-221c-48 0 -82 7 -102 21s-30 42.333 -30 85v123c0 42.667 10 71 30 85s54 21 102 21h361v-115h-324
c-18.667 0 -30.334 -1.5 -35.001 -4.5s-7 -11.5 -7 -25.5v-45c0 -12 2 -20 6 -24s12 -6 24 -6h234c48 0 82 -7 102 -21s30 -42.333 30 -85v-118c0 -42.667 -10 -71 -30 -85s-54 -21 -102 -21z" />
    <glyph glyph-name="t" unicode="t" horiz-adv-x="417" 
d="M393 0h-129.001c-48 0 -82 7 -102 21s-30 42.333 -30 85v329h-109v115h109v206h128v-206h133v-115h-133v-290c0 -14 2.33301 -22.5 7 -25.5s16.334 -4.5 35.001 -4.5h91v-115z" />
    <glyph glyph-name="u" unicode="u" horiz-adv-x="691" 
d="M491 0h-292.001c-48 0 -82 7 -102 21s-30 42.333 -30 85v444h128v-405c0 -14 2.33301 -22.5 7 -25.5s16.334 -4.5 35.001 -4.5h217c18 0 29.5 1.5 34.5 4.5s7.5 11.5 7.5 25.5v405h127v-444c0 -42.667 -10 -71 -30 -85s-54 -21 -102 -21z" />
    <glyph glyph-name="v" unicode="v" horiz-adv-x="590" 
d="M374 0h-157l-209 550h135l152 -415l154 415h132z" />
    <glyph glyph-name="w" unicode="w" horiz-adv-x="904" 
d="M718 0h-167l-100 407l-98 -407h-164l-175 550h135l121 -415l102 415h160l102 -415l122 415h133z" />
    <glyph glyph-name="x" unicode="x" horiz-adv-x="553" 
d="M535 0h-134l-125 185l-126 -185h-134l194 273l-195 277h134l128 -185l129 185h134l-197 -277z" />
    <glyph glyph-name="y" unicode="y" horiz-adv-x="585" 
d="M286 -200h-117l73 209l-243 541h135l167 -383l142 383h129z" />
    <glyph glyph-name="z" unicode="z" horiz-adv-x="596" 
d="M550 0h-504v123l339 312h-339v115h504v-123l-339 -312h339v-115z" />
    <glyph glyph-name="braceleft" unicode="{" horiz-adv-x="339" 
d="M295 -200h-63c-48 0 -82 7 -102 21s-30 42.333 -30 85v265c0 12.667 -2.5 21 -7.5 25s-16.167 6 -33.5 6h-29v120h29c17.333 0 28.5 2 33.5 6s7.5 12.333 7.5 25v263c0 42.667 10 71 30 85s54 21 102 21h63v-115h-27c-18 0 -29.333 -1.5 -34 -4.5s-7 -11.5 -7 -25.5v-230
c0 -22 -3.16699 -39.667 -9.5 -53s-19.833 -24 -40.5 -32c20 -8 33.333 -18.667 40 -32s10 -31 10 -53v-232c0 -14 2.33301 -22.5 7 -25.5s16 -4.5 34 -4.5h27v-115z" />
    <glyph glyph-name="bar" unicode="|" horiz-adv-x="288" 
d="M208 -200h-128v922h128v-922z" />
    <glyph glyph-name="braceright" unicode="}" horiz-adv-x="339" 
d="M107 -200h-64v115h27c18 0 29.5 1.5 34.5 4.5s7.5 11.5 7.5 25.5v232c0 22 3.16699 39.667 9.5 53s19.5 24 39.5 32c-20 8 -33.167 18.667 -39.5 32s-9.5 31 -9.5 53v230c0 14 -2.5 22.5 -7.5 25.5s-16.5 4.5 -34.5 4.5h-27v115h64c48 0 82 -7 102 -21s30 -42.333 30 -85
v-263c0 -12.667 2.5 -21 7.5 -25s16.167 -6 33.5 -6h29v-120h-29c-17.333 0 -28.5 -2 -33.5 -6s-7.5 -12.333 -7.5 -25v-265c0 -42.667 -10 -71 -30 -85s-54 -21 -102 -21z" />
    <glyph glyph-name="asciitilde" unicode="~" horiz-adv-x="645" 
d="M547 681l65.001 -31c-16.667 -41.333 -41.334 -77.333 -74.001 -108s-66 -46 -100 -46c-29.333 0 -70.333 12 -123 36s-93.667 36 -123 36c-22.667 0 -41.167 -4.33301 -55.5 -13s-30.5 -26 -48.5 -52l-53 43c20.667 42.667 46.167 76.167 76.5 100.5
s58.5 36.5 84.5 36.5c30 0 72.333 -11.333 127 -34s96.667 -34 126 -34c22 0 40 4.5 54 13.5s28.667 26.5 44 52.5z" />
    <glyph glyph-name="nonbreakingspace" unicode="&#xa0;" horiz-adv-x="231" 
 />
    <glyph glyph-name="exclamdown" unicode="&#xa1;" horiz-adv-x="281" 
d="M204 -172h-127v537h127v-537zM204 430h-127v120h127v-120z" />
    <glyph glyph-name="cent" unicode="&#xa2;" horiz-adv-x="609" 
d="M554 86h-135v-86h-108v86h-118c-48 0 -82 7 -102 21s-30 42.333 -30 85v338c0 42.667 10 71 30 85s54 21 102 21h118v86h108v-86h135v-115h-135v-320h135v-115zM311 201v320h-80c-18.667 0 -30.334 -1.5 -35.001 -4.5s-7 -11.5 -7 -25.5v-260
c0 -14 2.33301 -22.5 7 -25.5s16.334 -4.5 35.001 -4.5h80z" />
    <glyph glyph-name="sterling" unicode="&#xa3;" horiz-adv-x="694" 
d="M659 0h-599.999v115h78v75h-78v100h78v60h-78v100h78v166c0 42.667 10 71 30 85s54 21 102 21h190c48 0 82 -7 102 -21s30 -42.333 30 -85v-109h-128v70c0 14 -2.5 22.5 -7.5 25.5s-16.5 4.5 -34.5 4.5h-115c-18.667 0 -30.334 -1.5 -35.001 -4.5s-7 -11.5 -7 -25.5v-127
h271v-100h-271v-60h271v-100h-271v-75h395v-115z" />
    <glyph glyph-name="yen" unicode="&#xa5;" horiz-adv-x="762" 
d="M694 89h-248v-89h-127v89h-249v120h249v90h-124c-48 0 -82 7 -102 21s-30 42.333 -30 85v317h128v-278c0 -14 2.33301 -22.5 7 -25.5s16.334 -4.5 35.001 -4.5h295c19.333 0 31.166 1.5 35.499 4.5s6.5 11.167 6.5 24.5v279h127v-317c0 -42.667 -10 -71 -30 -85
s-54 -21 -102 -21h-119v-90h248v-120z" />
    <glyph glyph-name="brokenbar" unicode="&#xa6;" horiz-adv-x="266" 
d="M197 -200h-128v362h128v-362zM197 360h-128v362h128v-362z" />
    <glyph glyph-name="section" unicode="&#xa7;" horiz-adv-x="642" 
d="M368 -141l-242.999 0.00195312v115h225c14.667 0 22 3.33301 22 10v91c0 6.66699 -7.33301 10 -22 10h-169c-48 0 -82 7 -102 21s-30 42.333 -30 85v148c0 41.333 9.66699 69 29 83s53.666 21.667 102.999 23c-8 15.333 -12 41.666 -12 78.999v35c0 42.667 10 71 30 85
s54 21 102 21h217v-115h-199c-15.333 0 -23 -3.33301 -23 -10v-65c0 -11.333 1.83301 -19.166 5.5 -23.499s10.5 -6.5 20.5 -6.5h142c48 0 82 -7 102 -21s30 -42.333 30 -85v-148c0 -40.667 -8.5 -68.334 -25.5 -83.001s-44.5 -22.334 -82.5 -23.001
c8 -11.333 12 -42.333 12 -93v-27c0 -42.667 -10 -71 -30 -85s-54 -21 -102 -21zM468.001 230.002l0.000976562 70c0 14 -2.33301 22.5 -7 25.5s-16.334 4.5 -35.001 4.5h-208c-18.667 0 -30.334 -1.5 -35.001 -4.5s-7 -11.5 -7 -25.5v-70c0 -12 2 -20 6 -24s12 -6 24 -6
h220c18.667 0 30.334 1.5 35.001 4.5s7 11.5 7 25.5z" />
    <glyph glyph-name="dieresis" unicode="&#xa8;" horiz-adv-x="601" 
d="M265 600h-127v121h127v-121zM463 600h-127v121h127v-121z" />
    <glyph glyph-name="copyright" unicode="&#xa9;" horiz-adv-x="892" 
d="M446 -7c-112 0 -207.999 33.333 -287.999 100s-120 146.667 -120 240c0 95.333 40 176 120 242s177.667 99 293 99c109.333 0 203.666 -33.667 282.999 -101s119 -147.333 119 -240c0 -93.333 -39.833 -173.333 -119.5 -240s-175.5 -100 -287.5 -100zM446.001 77
c87.333 0 161.833 25 223.5 75s92.5 110.333 92.5 181c0 70 -30.667 130.333 -92 181s-135 76 -221 76c-89.333 0 -165 -25 -227 -75s-93 -110.667 -93 -182c0 -70.667 31 -131 93 -181s136.667 -75 224 -75zM505.001 140h-116.998c-48 0 -82 7 -102 21s-30 42.333 -30 85
v180c0 42.667 10 71 30 85s54 21 102 21h117c48 0 82 -7 102 -21s30 -42.333 30 -85v-49h-108v30c0 14 -2.33301 22.5 -7 25.5s-16.334 4.5 -35.001 4.5h-80c-18.667 0 -30.334 -1.5 -35.001 -4.5s-7 -11.5 -7 -25.5v-142c0 -14 2.33301 -22.5 7 -25.5
s16.334 -4.5 35.001 -4.5h80c19.333 0 31.166 1.33301 35.499 4s6.5 11 6.5 25v31h108v-49c0 -42.667 -10 -71 -30 -85s-54 -21 -102 -21z" />
    <glyph glyph-name="ordfeminine" unicode="&#xaa;" horiz-adv-x="459" 
d="M388 154h-319v100h319v-100zM279 333h-100c-48 0 -82 7 -102 21s-30 42.333 -30 85v32c0 42.667 10 71 30 85s54 21 102 21h123v21c0 14 -3.66699 22.5 -11 25.5s-27 4.5 -59 4.5h-124v94h171c48 0 82 -7 102 -21s30 -42.333 30 -85v-177c0 -42.667 -10 -71 -30 -85
s-54 -21 -102 -21zM302 457l-0.000976562 35.001h-92c-30 0 -48.167 -1.33301 -54.5 -4s-9.5 -11.334 -9.5 -26.001v-5c0 -14 2.33301 -22.5 7 -25.5s17.334 -4.5 38.001 -4.5h44c30 0 48.667 1.5 56 4.5s11 11.5 11 25.5z" />
    <glyph glyph-name="guillemotleft" unicode="&#xab;" horiz-adv-x="562" 
d="M525 86l-99 -58l-159 250l143 247l102 -56l-112 -191zM284 86l-100 -58l-158 250l143 247l103 -56l-112 -191z" />
    <glyph glyph-name="logicalnot" unicode="&#xac;" horiz-adv-x="710" 
d="M637 100h-128v172h-456v115h584v-287z" />
    <glyph glyph-name="uni00AD" unicode="&#xad;" horiz-adv-x="446" 
d="M383 212h-319v115h319v-115z" />
    <glyph glyph-name="registered" unicode="&#xae;" horiz-adv-x="892" 
d="M446 -7c-112 0 -207.999 33.333 -287.999 100s-120 146.667 -120 240c0 95.333 40 176 120 242s177.667 99 293 99c109.333 0 203.666 -33.667 282.999 -101s119 -147.333 119 -240c0 -93.333 -39.833 -173.333 -119.5 -240s-175.5 -100 -287.5 -100zM446.001 77
c87.333 0 161.833 25 223.5 75s92.5 110.333 92.5 181c0 70 -30.667 130.333 -92 181s-135 76 -221 76c-89.333 0 -165 -25 -227 -75s-93 -110.667 -93 -182c0 -70.667 31 -131 93 -181s136.667 -75 224 -75zM630.001 147h-113l-82 115h-59v-115h-109v380h234
c48 0 82 -7 102 -21s30 -42.333 30 -85v-53c0 -32.667 -6.66699 -56.667 -20 -72s-35 -25.333 -65 -30zM526.001 386l0.00195312 16c0 14 -2.33301 22.5 -7 25.5s-16.334 4.5 -35.001 4.5h-108v-75h108c19.333 0 31.166 1.5 35.499 4.5s6.5 11.167 6.5 24.5z" />
    <glyph glyph-name="macron" unicode="&#xaf;" horiz-adv-x="600" 
d="M481 610h-362v110h362v-110z" />
    <glyph glyph-name="degree" unicode="&#xb0;" horiz-adv-x="329" 
d="M286 645c0 -36 -9.66699 -60.833 -29 -74.5s-49.333 -20.5 -90 -20.5c-44 0 -75.833 6.83301 -95.5 20.5s-29.5 38.5 -29.5 74.5s10 60.833 30 74.5s51.667 20.5 95 20.5c40.667 0 70.667 -6.83301 90 -20.5s29 -38.5 29 -74.5zM201 645
c0 8.66699 -2.83301 14.5 -8.5 17.5s-15.167 4.5 -28.5 4.5s-22.833 -1.5 -28.5 -4.5s-8.5 -8.83301 -8.5 -17.5s2.66699 -14.5 8 -17.5s15 -4.5 29 -4.5c13.333 0 22.833 1.5 28.5 4.5s8.5 8.83301 8.5 17.5z" />
    <glyph glyph-name="plusminus" unicode="&#xb1;" horiz-adv-x="592" 
d="M360 155h-127v136h-172v120h172v136h127v-136h171v-120h-171v-136zM531 0h-470v120h470v-120z" />
    <glyph glyph-name="twosuperior" unicode="&#xb2;" horiz-adv-x="363" 
d="M322 478l-282 0.00195312v88l157 119c21.333 16 32 34.667 32 56v24c0 7.33301 -1.83301 11.833 -5.5 13.5s-11.5 2.5 -23.5 2.5h-53c-12.667 0 -20.5 -0.833008 -23.5 -2.5s-4.5 -6.16699 -4.5 -13.5v-36h-84v28c0 41.333 4.83301 69.166 14.5 83.499
s30.167 21.5 61.5 21.5h88c55.333 0 89.333 -5.33301 102 -16s19 -40.334 19 -89.001c0 -34 -4.16699 -59.5 -12.5 -76.5s-27.833 -36.167 -58.5 -57.5l-93 -64h166v-81z" />
    <glyph glyph-name="threesuperior" unicode="&#xb3;" horiz-adv-x="385" 
d="M236 478l-95 0.00292969c-31.333 0 -56.666 5.33301 -75.999 16s-29 27.334 -29 50.001v49h95v-14c0 -7.33301 1.66699 -11.833 5 -13.5s11.333 -2.5 24 -2.5h53c12.667 0 20.667 0.833008 24 2.5s5 6.16699 5 13.5v33c0 5.33301 -1 9.16602 -3 11.499
s-4.83301 3.66602 -8.5 3.99902s-10.834 0.5 -21.501 0.5h-71v82h75c12.667 0 20.667 0.833008 24 2.5s5 6.16699 5 13.5v34c0 7.33301 -1.66699 11.833 -5 13.5s-11.333 2.5 -24 2.5h-53c-12.667 0 -20.667 -0.833008 -24 -2.5s-5 -6.16699 -5 -13.5v-13h-95v39
c0 22.667 13 41 39 55s56 21 90 21h57c30.667 0 57.5 -7 80.5 -21s34.5 -32.333 34.5 -55v-68c0 -14.667 -2.83301 -25.834 -8.5 -33.501s-16.167 -13.167 -31.5 -16.5c26.667 -6.66699 40 -23.334 40 -50.001v-64c0 -23.333 -9 -41.833 -27 -55.5s-42.667 -20.5 -74 -20.5z
" />
    <glyph glyph-name="acute" unicode="&#xb4;" horiz-adv-x="417" 
d="M402 711l-212 -107l-52 70l192 129z" />
    <glyph glyph-name="micro" unicode="&#xb5;" horiz-adv-x="714" 
d="M502 0h-296v-200h-128v750h128v-435h259c18 0 29.5 1.5 34.5 4.5s7.5 11.5 7.5 25.5v405h127v-444c0 -42.667 -10 -71 -30 -85s-54 -21 -102 -21z" />
    <glyph glyph-name="paragraph" unicode="&#xb6;" horiz-adv-x="713" 
d="M633 -172h-127v607h-93v-607h-128v277h-106c-48 0 -82 7 -102 21s-30 42.333 -30 85v233c0 42.667 10 71 30 85s54 21 102 21h454v-722z" />
    <glyph glyph-name="periodcentered" unicode="&#xb7;" horiz-adv-x="254" 
d="M190 270h-126v121h126v-121z" />
    <glyph glyph-name="cedilla" unicode="&#xb8;" horiz-adv-x="677" 
d="M348 -203h-36.999c-36 0 -61.667 4.66699 -77 14s-23 28.333 -23 57v27h60v-4c0 -11.333 2.66699 -19.833 8 -25.5s16.666 -8.5 33.999 -8.5h32c27.333 0 41 9.33301 41 28c0 12 -2.5 20.667 -7.5 26s-16.167 8 -33.5 8h-61v90h60v-30h14c34.667 0 58 -6.33301 70 -19
s18 -36.667 18 -72c0 -33.333 -8.33301 -56.833 -25 -70.5s-41 -20.5 -73 -20.5z" />
    <glyph glyph-name="onesuperior" unicode="&#xb9;" horiz-adv-x="348" 
d="M332 478h-298v90h98v204h-98v90h200v-294h98v-90z" />
    <glyph glyph-name="ordmasculine" unicode="&#xba;" horiz-adv-x="460" 
d="M280 332h-100c-48 0 -82 7 -102 21s-30 42.333 -30 85v178c0 42.667 10 71 30 85s54 21 102 21h100c48 0 82 -7 102 -21s30 -42.333 30 -85v-178c0 -42.667 -10 -71 -30 -85s-54 -21 -102 -21zM303 457v140c0 14 -2.33301 22.5 -7 25.5s-16.334 4.5 -35.001 4.5h-63
c-18.667 0 -30.334 -1.5 -35.001 -4.5s-7 -11.5 -7 -25.5v-140c0 -14 2.33301 -22.5 7 -25.5s16.334 -4.5 35.001 -4.5h63c18.667 0 30.334 1.5 35.001 4.5s7 11.5 7 25.5zM389 153h-319v100h319v-100z" />
    <glyph glyph-name="guillemotright" unicode="&#xbb;" horiz-adv-x="562" 
d="M136 28l-99 58l125 192l-112 191l102 56l143 -247zM378 28l-100 58l124 192l-112 191l103 56l143 -247z" />
    <glyph glyph-name="onequarter" unicode="&#xbc;" horiz-adv-x="883" 
d="M346 338h-298v90h98v204h-98v90h200v-294h98v-90zM823 0h-92v98h-236v86l151 200h108l-156 -205h133v85h92v-264zM249 0h-128l586 722h131z" />
    <glyph glyph-name="onehalf" unicode="&#xbd;" horiz-adv-x="947" 
d="M346 338h-298v90h98v204h-98v90h200v-294h98v-90zM257 0h-128l585 722h132zM898 0l-282 0.00195312v88l157 119c21.333 16 32 34.667 32 56v24c0 7.33301 -1.83301 11.833 -5.5 13.5s-11.5 2.5 -23.5 2.5h-53c-12.667 0 -20.5 -0.833008 -23.5 -2.5
s-4.5 -6.16699 -4.5 -13.5v-36h-84v28c0 41.333 4.83301 69.166 14.5 83.499s30.167 21.5 61.5 21.5h88c55.333 0 89.333 -5.33301 102 -16s19 -40.334 19 -89.001c0 -34 -4.16699 -59.5 -12.5 -76.5s-27.833 -36.167 -58.5 -57.5l-93 -64h166v-81z" />
    <glyph glyph-name="threequarters" unicode="&#xbe;" horiz-adv-x="880" 
d="M821 0h-92v98h-236v86l152 200h106l-156 -205h134v85h92v-264zM247 338l-89.999 0.000976562c-37.333 0 -65 5.5 -83 16.5s-27 32.833 -27 65.5v33h95v-14c0 -7.33301 1.66699 -11.833 5 -13.5s11.333 -2.5 24 -2.5h53c12.667 0 20.667 0.833008 24 2.5s5 6.16699 5 13.5
v33c0 5.33301 -1 9.16602 -3 11.499s-4.83301 3.66602 -8.5 3.99902s-10.834 0.5 -21.501 0.5h-71v82h75c12.667 0 20.667 0.833008 24 2.5s5 6.16699 5 13.5v34c0 7.33301 -1.66699 11.833 -5 13.5s-11.333 2.5 -24 2.5h-53c-12.667 0 -20.667 -0.833008 -24 -2.5
s-5 -6.16699 -5 -13.5v-13h-95v39c0 17.333 3.83301 31.333 11.5 42s19 18.334 34 23.001s29.167 7.66699 42.5 9s30 2 50 2h43c80 0 120 -25.333 120 -76v-34c0 -28.667 -2.5 -48.334 -7.5 -59.001s-15.833 -19 -32.5 -25c14.667 -5.33301 25 -12.666 31 -21.999
s9 -24 9 -44v-32c0 -28.667 -8.83301 -51.167 -26.5 -67.5s-42.5 -24.5 -74.5 -24.5zM246.001 0.000976562h-127l586 722h130z" />
    <glyph glyph-name="questiondown" unicode="&#xbf;" horiz-adv-x="650" 
d="M479 -172h-297c-48 0 -82 7 -102 21s-30 42.333 -30 85v241c0 42.667 10 71 30 85s54 21 102 21h167v84h128v-199h-257c-18.667 0 -30.334 -1.5 -35.001 -4.5s-7 -11.5 -7 -25.5v-163c0 -14 2.33301 -22.5 7 -25.5s16.334 -4.5 35.001 -4.5h222c18 0 29.333 1.5 34 4.5
s7 11.5 7 25.5v71h128v-110c0 -42.667 -10 -71 -30 -85s-54 -21 -102 -21zM476 429h-127v121h127v-121z" />
    <glyph glyph-name="Agrave" unicode="&#xc0;" horiz-adv-x="755" 
d="M676 0h-127v250h-343v-250h-128v616c0 42.667 10 71 30 85s54 21 102 21h334c48 0 82 -7 102 -21s30 -42.333 30 -85v-616zM549 365l0.000976562 212c0 14 -2.5 22.5 -7.5 25.5s-16.5 4.5 -34.5 4.5h-259c-18.667 0 -30.334 -1.5 -35.001 -4.5s-7 -11.5 -7 -25.5v-212
h343zM434.001 776l-212 107l72 92l193 -129z" />
    <glyph glyph-name="Aacute" unicode="&#xc1;" horiz-adv-x="755" 
d="M676 0h-127v250h-343v-250h-128v616c0 42.667 10 71 30 85s54 21 102 21h334c48 0 82 -7 102 -21s30 -42.333 30 -85v-616zM549 365l0.000976562 212c0 14 -2.5 22.5 -7.5 25.5s-16.5 4.5 -34.5 4.5h-259c-18.667 0 -30.334 -1.5 -35.001 -4.5s-7 -11.5 -7 -25.5v-212
h343zM573.001 883l-212 -107l-52 70l192 129z" />
    <glyph glyph-name="Acircumflex" unicode="&#xc2;" horiz-adv-x="755" 
d="M676 0h-127v250h-343v-250h-128v616c0 42.667 10 71 30 85s54 21 102 21h334c48 0 82 -7 102 -21s30 -42.333 30 -85v-616zM549 365l0.000976562 212c0 14 -2.5 22.5 -7.5 25.5s-16.5 4.5 -34.5 4.5h-259c-18.667 0 -30.334 -1.5 -35.001 -4.5s-7 -11.5 -7 -25.5v-212
h343zM493.001 776l-117 66l-118 -66l-53 70l158 103h25l158 -103z" />
    <glyph glyph-name="Atilde" unicode="&#xc3;" horiz-adv-x="755" 
d="M676 0h-127v250h-343v-250h-128v616c0 42.667 10 71 30 85s54 21 102 21h334c48 0 82 -7 102 -21s30 -42.333 30 -85v-616zM549 365l0.000976562 212c0 14 -2.5 22.5 -7.5 25.5s-16.5 4.5 -34.5 4.5h-259c-18.667 0 -30.334 -1.5 -35.001 -4.5s-7 -11.5 -7 -25.5v-212
h343zM507.001 912l64.999 -52c-13.333 -33.333 -31.666 -57 -54.999 -71s-46 -21 -68 -21c-16.667 0 -40.667 7.83301 -72 23.5s-54.333 23.5 -69 23.5c-20 0 -37.667 -13.333 -53 -40l-75 36c16.667 34.667 37.5 60.667 62.5 78s48.5 26 70.5 26s46.5 -8 73.5 -24
s48.167 -24 63.5 -24c14.667 0 33.667 15 57 45z" />
    <glyph glyph-name="Adieresis" unicode="&#xc4;" horiz-adv-x="755" 
d="M676 0h-127v250h-343v-250h-128v616c0 42.667 10 71 30 85s54 21 102 21h334c48 0 82 -7 102 -21s30 -42.333 30 -85v-616zM549 365l0.000976562 212c0 14 -2.5 22.5 -7.5 25.5s-16.5 4.5 -34.5 4.5h-259c-18.667 0 -30.334 -1.5 -35.001 -4.5s-7 -11.5 -7 -25.5v-212
h343zM340.001 772h-126v121h126v-121zM538.001 772h-126v121h126v-121z" />
    <glyph glyph-name="Aring" unicode="&#xc5;" horiz-adv-x="755" 
d="M676 0h-127v250h-343v-250h-128v616c0 42.667 10 71 30 85s54 21 102 21h334c48 0 82 -7 102 -21s30 -42.333 30 -85v-616zM549 365l0.000976562 212c0 14 -2.5 22.5 -7.5 25.5s-16.5 4.5 -34.5 4.5h-259c-18.667 0 -30.334 -1.5 -35.001 -4.5s-7 -11.5 -7 -25.5v-212
h343zM377.001 752c-30.667 0 -55.333 7.83301 -74 23.5s-28 36.834 -28 63.501c0 26 9.5 46.833 28.5 62.5s43.833 23.5 74.5 23.5c29.333 0 53.333 -8 72 -24s28 -36.667 28 -62c0 -26.667 -9.33301 -47.834 -28 -63.501s-43 -23.5 -73 -23.5zM377.002 815
c21.333 0 32 8 32 24c0 6.66699 -3 12.167 -9 16.5s-13.667 6.5 -23 6.5c-10 0 -18.167 -2.16699 -24.5 -6.5s-9.5 -9.83301 -9.5 -16.5c0 -16 11.333 -24 34 -24z" />
    <glyph glyph-name="AE" unicode="&#xc6;" horiz-adv-x="1132" 
d="M1089 0h-540v304h-343v-304h-128v616c0 42.667 10 71 30 85s54 21 102 21h879v-115h-413v-188h335v-115h-335v-189h413v-115zM549 419l0.000976562 188h-301c-18.667 0 -30.334 -1.5 -35.001 -4.5s-7 -11.5 -7 -25.5v-158h343z" />
    <glyph glyph-name="Ccedilla" unicode="&#xc7;" horiz-adv-x="732" 
d="M390 -203h-47.9971c-32 0 -54.833 4.66699 -68.5 14s-20.5 28.333 -20.5 57v27h60v-4c0 -11.333 2.66699 -19.833 8 -25.5s16.666 -8.5 33.999 -8.5h33c16.667 0 27.667 2.83301 33 8.5s8 14.167 8 25.5c0 18.667 -13.667 28 -41 28h-63v81h-116c-48 0 -82 7 -102 21
s-30 42.333 -30 85v510c0 42.667 10 71 30 85s54 21 102 21h334c48 0 82 -7 102 -21s30 -42.333 30 -85v-109h-127v70c0 14 -3 22.5 -9 25.5s-20.333 4.5 -43 4.5h-249c-18.667 0 -30.334 -1.5 -35.001 -4.5s-7 -11.5 -7 -25.5v-432c0 -14 2.83301 -22.5 8.5 -25.5
s19.5 -4.5 41.5 -4.5h251c19.333 0 31.166 1.5 35.499 4.5s6.5 11.167 6.5 24.5v71h127v-109c0 -42.667 -10 -71 -30 -85s-54 -21 -102 -21h-158v-21h15c34.667 0 58.167 -6.33301 70.5 -19s18.5 -36.667 18.5 -72c0 -33.333 -8.5 -56.833 -25.5 -70.5
s-41.5 -20.5 -73.5 -20.5z" />
    <glyph glyph-name="Egrave" unicode="&#xc8;" horiz-adv-x="662" 
d="M619 0h-540v722h540v-115h-412v-188h334v-115h-334v-189h412v-115zM410 776l-211 107l73 92l192 -129z" />
    <glyph glyph-name="Eacute" unicode="&#xc9;" horiz-adv-x="662" 
d="M619 0h-540v722h540v-115h-412v-188h334v-115h-334v-189h412v-115zM524 883l-212 -107l-52 70l192 129z" />
    <glyph glyph-name="Ecircumflex" unicode="&#xca;" horiz-adv-x="662" 
d="M619 0h-540v722h540v-115h-412v-188h334v-115h-334v-189h412v-115zM487 776l-118 66l-117 -66l-53 70l160 103h23l158 -103z" />
    <glyph glyph-name="Edieresis" unicode="&#xcb;" horiz-adv-x="662" 
d="M619 0h-540v722h540v-115h-412v-188h334v-115h-334v-189h412v-115zM326 772h-125v121h125v-121zM524 772h-125v121h125v-121z" />
    <glyph glyph-name="Igrave" unicode="&#xcc;" horiz-adv-x="286" 
d="M207 0h-128v722h128v-722zM175 776l-211 107l72 92l193 -129z" />
    <glyph glyph-name="Iacute" unicode="&#xcd;" horiz-adv-x="286" 
d="M207 0h-128v722h128v-722zM315 883l-212 -107l-52 70l192 129z" />
    <glyph glyph-name="Icircumflex" unicode="&#xce;" horiz-adv-x="286" 
d="M207 0h-128v722h128v-722zM260 776l-116 66l-118 -66l-53 70l157 103h26l158 -103z" />
    <glyph glyph-name="Idieresis" unicode="&#xcf;" horiz-adv-x="286" 
d="M207 0h-128v722h128v-722zM107 772h-126v121h126v-121zM305 772h-126v121h126v-121z" />
    <glyph glyph-name="Eth" unicode="&#xd0;" horiz-adv-x="789" 
d="M580 0h-486v310h-78v110h78v302h486c48 0 82 -7 102 -21s30 -42.333 30 -85v-510c0 -42.667 -10 -71 -30 -85s-54 -21 -102 -21zM584 144l0.00195312 433c0 14 -2.33301 22.5 -7 25.5s-16.334 4.5 -35.001 4.5h-321v-187h162v-110h-162v-195h321
c19.333 0 31.166 1.33301 35.499 4s6.5 11 6.5 25z" />
    <glyph glyph-name="Ntilde" unicode="&#xd1;" horiz-adv-x="764" 
d="M513 912l64.999 -52c-13.333 -33.333 -31.666 -57 -54.999 -71s-46 -21 -68 -21c-18 0 -42.667 7.83301 -74 23.5s-54 23.5 -68 23.5c-20.667 0 -38 -13.333 -52 -40l-76 36c17.333 34.667 38.5 60.667 63.5 78s48.5 26 70.5 26s46.5 -8 73.5 -24s48.167 -24 63.5 -24
c14.667 0 33.667 15 57 45zM684.999 0h-157l-321 518v-518h-128v722h153l325 -524v524h128v-722z" />
    <glyph glyph-name="Ograve" unicode="&#xd2;" horiz-adv-x="788" 
d="M579 0h-370c-48 0 -82 7 -102 21s-30 42.333 -30 85v510c0 42.667 10 71 30 85s54 21 102 21h370c48 0 82 -7 102 -21s30 -42.333 30 -85v-510c0 -42.667 -10 -71 -30 -85s-54 -21 -102 -21zM584 144l0.000976562 433c0 14 -2.5 22.5 -7.5 25.5s-16.5 4.5 -34.5 4.5h-295
c-18.667 0 -30.334 -1.5 -35.001 -4.5s-7 -11.5 -7 -25.5v-432c0 -14 2.33301 -22.5 7 -25.5s16.334 -4.5 35.001 -4.5h295c19.333 0 31.166 1.5 35.499 4.5s6.5 11.167 6.5 24.5zM448.001 776l-211 107l73 92l192 -129z" />
    <glyph glyph-name="Oacute" unicode="&#xd3;" horiz-adv-x="788" 
d="M579 0h-370c-48 0 -82 7 -102 21s-30 42.333 -30 85v510c0 42.667 10 71 30 85s54 21 102 21h370c48 0 82 -7 102 -21s30 -42.333 30 -85v-510c0 -42.667 -10 -71 -30 -85s-54 -21 -102 -21zM584 144l0.000976562 433c0 14 -2.5 22.5 -7.5 25.5s-16.5 4.5 -34.5 4.5h-295
c-18.667 0 -30.334 -1.5 -35.001 -4.5s-7 -11.5 -7 -25.5v-432c0 -14 2.33301 -22.5 7 -25.5s16.334 -4.5 35.001 -4.5h295c19.333 0 31.166 1.5 35.499 4.5s6.5 11.167 6.5 24.5zM587.001 883l-211 -107l-53 70l193 129z" />
    <glyph glyph-name="Ocircumflex" unicode="&#xd4;" horiz-adv-x="788" 
d="M579 0h-370c-48 0 -82 7 -102 21s-30 42.333 -30 85v510c0 42.667 10 71 30 85s54 21 102 21h370c48 0 82 -7 102 -21s30 -42.333 30 -85v-510c0 -42.667 -10 -71 -30 -85s-54 -21 -102 -21zM584 144l0.000976562 433c0 14 -2.5 22.5 -7.5 25.5s-16.5 4.5 -34.5 4.5h-295
c-18.667 0 -30.334 -1.5 -35.001 -4.5s-7 -11.5 -7 -25.5v-432c0 -14 2.33301 -22.5 7 -25.5s16.334 -4.5 35.001 -4.5h295c19.333 0 31.166 1.5 35.499 4.5s6.5 11.167 6.5 24.5zM511.001 776l-117 56l-118 -56l-53 70l157 103h27l158 -103z" />
    <glyph glyph-name="Otilde" unicode="&#xd5;" horiz-adv-x="788" 
d="M579 0h-370c-48 0 -82 7 -102 21s-30 42.333 -30 85v510c0 42.667 10 71 30 85s54 21 102 21h370c48 0 82 -7 102 -21s30 -42.333 30 -85v-510c0 -42.667 -10 -71 -30 -85s-54 -21 -102 -21zM584 144l0.000976562 433c0 14 -2.5 22.5 -7.5 25.5s-16.5 4.5 -34.5 4.5h-295
c-18.667 0 -30.334 -1.5 -35.001 -4.5s-7 -11.5 -7 -25.5v-432c0 -14 2.33301 -22.5 7 -25.5s16.334 -4.5 35.001 -4.5h295c19.333 0 31.166 1.5 35.499 4.5s6.5 11.167 6.5 24.5zM526.001 912l64 -52c-13.333 -33.333 -31.666 -57 -54.999 -71s-46 -21 -68 -21
c-16.667 0 -40.667 7.83301 -72 23.5s-54.333 23.5 -69 23.5c-20 0 -37.667 -13.333 -53 -40l-75 36c17.333 34.667 38.5 60.667 63.5 78s48.5 26 70.5 26s46.333 -8 73 -24s47.667 -24 63 -24s34.666 15 57.999 45z" />
    <glyph glyph-name="Odieresis" unicode="&#xd6;" horiz-adv-x="788" 
d="M579 0h-370c-48 0 -82 7 -102 21s-30 42.333 -30 85v510c0 42.667 10 71 30 85s54 21 102 21h370c48 0 82 -7 102 -21s30 -42.333 30 -85v-510c0 -42.667 -10 -71 -30 -85s-54 -21 -102 -21zM584 144l0.000976562 433c0 14 -2.5 22.5 -7.5 25.5s-16.5 4.5 -34.5 4.5h-295
c-18.667 0 -30.334 -1.5 -35.001 -4.5s-7 -11.5 -7 -25.5v-432c0 -14 2.33301 -22.5 7 -25.5s16.334 -4.5 35.001 -4.5h295c19.333 0 31.166 1.5 35.499 4.5s6.5 11.167 6.5 24.5zM358.001 772h-126v121h126v-121zM556.001 772h-126v121h126v-121z" />
    <glyph glyph-name="multiply" unicode="&#xd7;" horiz-adv-x="517" 
d="M379 86l-120 96l-121 -96l-91 85l121 96l-121 96l91 85l121 -96l120 96l91 -85l-122 -96l122 -96z" />
    <glyph glyph-name="Oslash" unicode="&#xd8;" horiz-adv-x="788" 
d="M579 0h-229l-19 -72h-105l19 72h-36c-48 0 -82 7 -102 21s-30 42.333 -30 85v510c0 42.667 10 71 30 85s54 21 102 21h227l19 73h105l-20 -73h39c48 0 82 -7 102 -21s30 -42.333 30 -85v-510c0 -42.667 -10 -71 -30 -85s-54 -21 -102 -21zM584 144l0.000976562 433
c0 14 -2.5 22.5 -7.5 25.5s-16.5 4.5 -34.5 4.5h-32l-130 -492h162c19.333 0 31.166 1.5 35.499 4.5s6.5 11.167 6.5 24.5zM205.001 145c0 -14 2.33301 -22.5 7 -25.5s16.334 -4.5 35.001 -4.5h28l130 492h-158c-18.667 0 -30.334 -1.5 -35.001 -4.5s-7 -11.5 -7 -25.5v-432
z" />
    <glyph glyph-name="Ugrave" unicode="&#xd9;" horiz-adv-x="791" 
d="M580 0h-370c-48 0 -82 7 -102 21s-30 42.333 -30 85v616h128v-577c0 -14 2.33301 -22.5 7 -25.5s16.334 -4.5 35.001 -4.5h295c19.333 0 31.166 1.5 35.499 4.5s6.5 11.167 6.5 24.5v578h127v-616c0 -42.667 -10 -71 -30 -85s-54 -21 -102 -21zM435 776l-211 107l71 92
l192 -129z" />
    <glyph glyph-name="Uacute" unicode="&#xda;" horiz-adv-x="791" 
d="M580 0h-370c-48 0 -82 7 -102 21s-30 42.333 -30 85v616h128v-577c0 -14 2.33301 -22.5 7 -25.5s16.334 -4.5 35.001 -4.5h295c19.333 0 31.166 1.5 35.499 4.5s6.5 11.167 6.5 24.5v578h127v-616c0 -42.667 -10 -71 -30 -85s-54 -21 -102 -21zM603 883l-212 -107l-52 70
l192 129z" />
    <glyph glyph-name="Ucircumflex" unicode="&#xdb;" horiz-adv-x="791" 
d="M580 0h-369.999c-48 0 -82 7 -102 21s-30 42.333 -30 85v616h128v-577c0 -14 3.66699 -22.5 11 -25.5s24 -4.5 50 -4.5h276c19.333 0 31.166 1.5 35.499 4.5s6.5 11.167 6.5 24.5v578h127v-616c0 -42.667 -10 -71 -30 -85s-54 -21 -102 -21zM511.001 776l-117 66
l-118 -66l-53 70l157 103h26l158 -103z" />
    <glyph glyph-name="Udieresis" unicode="&#xdc;" horiz-adv-x="791" 
d="M580 0h-370c-48 0 -82 7 -102 21s-30 42.333 -30 85v616h128v-577c0 -14 2.33301 -22.5 7 -25.5s16.334 -4.5 35.001 -4.5h295c19.333 0 31.166 1.5 35.499 4.5s6.5 11.167 6.5 24.5v578h127v-616c0 -42.667 -10 -71 -30 -85s-54 -21 -102 -21zM358 772h-126v121h126
v-121zM556 772h-126v121h126v-121z" />
    <glyph glyph-name="Yacute" unicode="&#xdd;" horiz-adv-x="735" 
d="M434 0h-128v299h-124c-48 0 -82 7 -102 21s-30 42.333 -30 85v317h128v-278c0 -14 2.33301 -22.5 7 -25.5s16.334 -4.5 35.001 -4.5h295c19.333 0 31.166 1.5 35.499 4.5s6.5 11.167 6.5 24.5v279h127v-317c0 -42.667 -10 -71 -30 -85s-54 -21 -102 -21h-118v-299z
M565 883l-212 -107l-52 70l192 129z" />
    <glyph glyph-name="Thorn" unicode="&#xde;" horiz-adv-x="717" 
d="M533 138h-326v-138h-128v722h128v-139h326c48 0 82 -7 102 -21s30 -42.333 30 -85v-233c0 -42.667 -10 -71 -30 -85s-54 -21 -102 -21zM538 282l0.000976562 156c0 14 -2.5 22.5 -7.5 25.5s-16.5 4.5 -34.5 4.5h-289v-215h289c19.333 0 31.166 1.5 35.499 4.5
s6.5 11.167 6.5 24.5z" />
    <glyph glyph-name="germandbls" unicode="&#xdf;" horiz-adv-x="641" 
d="M451 0l-185.999 0.000976562v115h149c18.667 0 30.334 1.5 35.001 4.5s7 11.5 7 25.5v168c0 12.667 -2.5 21 -7.5 25s-16.167 6 -33.5 6h-150v120h102c17.333 0 28.5 2 33.5 6s7.5 12.333 7.5 25v160c0 14 -2.33301 22.5 -7 25.5s-16.334 4.5 -35.001 4.5h-128
c-18.667 0 -30.334 -1.5 -35.001 -4.5s-7 -11.5 -7 -25.5v-855h-128v894c0 42.667 10 71 30 85s54 21 102 21h203c48 0 82 -7 102 -21s30 -42.333 30 -85v-205c0 -20.667 -1.66699 -35.834 -5 -45.501s-11 -19.834 -23 -30.501c14.667 -2 27 -5.66699 37 -11
s17.5 -10.5 22.5 -15.5s8.83301 -12.167 11.5 -21.5s4.16699 -16.666 4.5 -21.999s0.5 -13.333 0.5 -24v-213c0 -42.667 -10 -71 -30 -85s-54 -21 -102 -21z" />
    <glyph glyph-name="agrave" unicode="&#xe0;" horiz-adv-x="677" 
d="M479 0h-292c-48 0 -82 7 -102 21s-30 42.333 -30 85v132c0 42.667 10 71 30 85s54 21 102 21h296v61c0 14 -2.5 22.5 -7.5 25.5s-16.5 4.5 -34.5 4.5h-373v115h411c48 0 82 -7 102 -21s30 -42.333 30 -85v-338c0 -42.667 -10 -71 -30 -85s-54 -21 -102 -21zM483 145v84
h-259c-18.667 0 -30.334 -1.5 -35.001 -4.5s-7 -11.5 -7 -25.5v-54c0 -14 2.33301 -22.5 7 -25.5s16.334 -4.5 35.001 -4.5h217c18 0 29.5 1.5 34.5 4.5s7.5 11.5 7.5 25.5zM377 604l-212 107l72 92l192 -129z" />
    <glyph glyph-name="aacute" unicode="&#xe1;" horiz-adv-x="677" 
d="M479 0h-292c-48 0 -82 7 -102 21s-30 42.333 -30 85v132c0 42.667 10 71 30 85s54 21 102 21h296v61c0 14 -2.5 22.5 -7.5 25.5s-16.5 4.5 -34.5 4.5h-373v115h411c48 0 82 -7 102 -21s30 -42.333 30 -85v-338c0 -42.667 -10 -71 -30 -85s-54 -21 -102 -21zM483 145v84
h-259c-18.667 0 -30.334 -1.5 -35.001 -4.5s-7 -11.5 -7 -25.5v-54c0 -14 2.33301 -22.5 7 -25.5s16.334 -4.5 35.001 -4.5h217c18 0 29.5 1.5 34.5 4.5s7.5 11.5 7.5 25.5zM518 711l-210 -107l-54 70l193 129z" />
    <glyph glyph-name="acircumflex" unicode="&#xe2;" horiz-adv-x="677" 
d="M479 0h-292c-48 0 -82 7 -102 21s-30 42.333 -30 85v132c0 42.667 10 71 30 85s54 21 102 21h296v61c0 14 -3.16699 22.5 -9.5 25.5s-21.833 4.5 -46.5 4.5h-359v115h411c48 0 82 -7 102 -21s30 -42.333 30 -85v-338c0 -42.667 -10 -71 -30 -85s-54 -21 -102 -21z
M483 145v84h-259c-18.667 0 -30.334 -1.5 -35.001 -4.5s-7 -11.5 -7 -25.5v-54c0 -14 2.33301 -22.5 7 -25.5s16.334 -4.5 35.001 -4.5h217c18 0 29.5 1.5 34.5 4.5s7.5 11.5 7.5 25.5zM456 604l-118 66l-117 -66l-54 70l158 103h26l158 -103z" />
    <glyph glyph-name="atilde" unicode="&#xe3;" horiz-adv-x="677" 
d="M479 0h-292c-48 0 -82 7 -102 21s-30 42.333 -30 85v132c0 42.667 10 71 30 85s54 21 102 21h296v61c0 14 -3.16699 22.5 -9.5 25.5s-21.833 4.5 -46.5 4.5h-359v115h411c48 0 82 -7 102 -21s30 -42.333 30 -85v-338c0 -42.667 -10 -71 -30 -85s-54 -21 -102 -21z
M483 145v84h-259c-18.667 0 -30.334 -1.5 -35.001 -4.5s-7 -11.5 -7 -25.5v-54c0 -14 2.33301 -22.5 7 -25.5s16.334 -4.5 35.001 -4.5h217c18 0 29.5 1.5 34.5 4.5s7.5 11.5 7.5 25.5zM470 740l63.999 -52c-13.333 -33.333 -31.5 -57 -54.5 -71s-45.5 -21 -67.5 -21
c-17.333 0 -41.666 7.83301 -72.999 23.5s-54.333 23.5 -69 23.5c-20 0 -37.667 -13.333 -53 -40l-75 36c16.667 34.667 37.667 60.667 63 78s49 26 71 26s46.5 -8 73.5 -24s48.167 -24 63.5 -24c13.333 0 32.333 15 57 45z" />
    <glyph glyph-name="adieresis" unicode="&#xe4;" horiz-adv-x="677" 
d="M479 0h-292c-48 0 -82 7 -102 21s-30 42.333 -30 85v132c0 42.667 10 71 30 85s54 21 102 21h296v61c0 14 -3.16699 22.5 -9.5 25.5s-21.833 4.5 -46.5 4.5h-359v115h411c48 0 82 -7 102 -21s30 -42.333 30 -85v-338c0 -42.667 -10 -71 -30 -85s-54 -21 -102 -21z
M483 145v84h-259c-18.667 0 -30.334 -1.5 -35.001 -4.5s-7 -11.5 -7 -25.5v-54c0 -14 2.33301 -22.5 7 -25.5s16.334 -4.5 35.001 -4.5h217c18 0 29.5 1.5 34.5 4.5s7.5 11.5 7.5 25.5zM302 600h-126v121h126v-121zM500 600h-126v121h126v-121z" />
    <glyph glyph-name="aring" unicode="&#xe5;" horiz-adv-x="677" 
d="M479 0h-292c-48 0 -82 7 -102 21s-30 42.333 -30 85v132c0 42.667 10 71 30 85s54 21 102 21h296v61c0 14 -3.16699 22.5 -9.5 25.5s-21.833 4.5 -46.5 4.5h-359v115h411c48 0 82 -7 102 -21s30 -42.333 30 -85v-338c0 -42.667 -10 -71 -30 -85s-54 -21 -102 -21z
M483 145v84h-259c-18.667 0 -30.334 -1.5 -35.001 -4.5s-7 -11.5 -7 -25.5v-54c0 -14 2.33301 -22.5 7 -25.5s16.334 -4.5 35.001 -4.5h217c18 0 29.5 1.5 34.5 4.5s7.5 11.5 7.5 25.5zM339 580c-30.667 0 -55.332 7.83301 -73.999 23.5s-28 36.834 -28 63.501
c0 26 9.5 46.833 28.5 62.5s44.167 23.5 75.5 23.5c29.333 0 53.166 -8 71.499 -24s27.5 -36.667 27.5 -62c0 -26.667 -9.33301 -47.834 -28 -63.501s-43 -23.5 -73 -23.5zM339.002 643c22 0 32.999 8 32.999 24c0 6.66699 -3.16699 12.167 -9.5 16.5
s-14.166 6.5 -23.499 6.5c-22 0 -33 -7.66699 -33 -23c0 -16 11 -24 33 -24z" />
    <glyph glyph-name="ae" unicode="&#xe6;" horiz-adv-x="1089" 
d="M1012 0h-397.001c-33.333 0 -56.333 4.66699 -69 14c-12.667 -9.33301 -35 -14 -67 -14h-292c-48 0 -82 7 -102 21s-30 42.333 -30 85v132c0 42.667 10 71 30 85s54 21 102 21h296v61c0 14 -2.5 22.5 -7.5 25.5s-16.5 4.5 -34.5 4.5h-373v115h411c30.667 0 53 -5 67 -15
c14 10 37 15 69 15h291c48 0 82 -7 102 -21s30 -42.333 30 -85v-125c0 -42.667 -10 -71 -30 -85s-54 -21 -102 -21h-295v-68c0 -14 2.33301 -22.5 7 -25.5s16.334 -4.5 35.001 -4.5h359v-115zM482.999 145v84h-259c-18.667 0 -30.334 -1.5 -35.001 -4.5s-7 -11.5 -7 -25.5
v-54c0 -14 2.33301 -22.5 7 -25.5s16.334 -4.5 35.001 -4.5h217c18 0 29.5 1.5 34.5 4.5s7.5 11.5 7.5 25.5zM910.999 358l0.000976562 47c0 14 -2.33301 22.5 -7 25.5s-16.334 4.5 -35.001 4.5h-216c-18.667 0 -30.334 -1.5 -35.001 -4.5s-7 -11.5 -7 -25.5v-77h258
c18.667 0 30.334 1.5 35.001 4.5s7 11.5 7 25.5z" />
    <glyph glyph-name="ccedilla" unicode="&#xe7;" horiz-adv-x="602" 
d="M352 -203h-47.999c-32 0 -54.667 4.66699 -68 14s-20 28.333 -20 57v27h60v-4c0 -11.333 2.66699 -19.833 8 -25.5s16.666 -8.5 33.999 -8.5h32c16.667 0 27.667 2.83301 33 8.5s8 14.167 8 25.5c0 18.667 -13.667 28 -41 28h-63v81h-89c-48 0 -82 7 -102 21
s-30 42.333 -30 85v338c0 42.667 10 71 30 85s54 21 102 21h361v-115h-323c-18.667 0 -30.334 -1.5 -35.001 -4.5s-7 -11.5 -7 -25.5v-260c0 -14 2.83301 -22.5 8.5 -25.5s19.834 -4.5 42.501 -4.5h314v-115h-212v-21h15c34.667 0 58.167 -6.33301 70.5 -19
s18.5 -36.667 18.5 -72c0 -33.333 -8.5 -56.833 -25.5 -70.5s-41.5 -20.5 -73.5 -20.5z" />
    <glyph glyph-name="egrave" unicode="&#xe8;" horiz-adv-x="673" 
d="M595 0h-397.001c-48 0 -82 7 -102 21s-30 42.333 -30 85v338c0 42.667 10 71 30 85s54 21 102 21h292c48 0 82 -7 102 -21s30 -42.333 30 -85v-125c0 -42.667 -10 -71 -30 -85s-54 -21 -102 -21h-296v-68c0 -14 2.33301 -22.5 7 -25.5s16.334 -4.5 35.001 -4.5h359v-115z
M494.999 358l0.000976562 47c0 14 -2.5 22.5 -7.5 25.5s-16.5 4.5 -34.5 4.5h-217c-18.667 0 -30.334 -1.5 -35.001 -4.5s-7 -11.5 -7 -25.5v-77h259c18 0 29.5 1.5 34.5 4.5s7.5 11.5 7.5 25.5zM409 604l-211 107l71 92l192 -129z" />
    <glyph glyph-name="eacute" unicode="&#xe9;" horiz-adv-x="673" 
d="M595 0h-397c-48 0 -82 7 -102 21s-30 42.333 -30 85v338c0 42.667 10 71 30 85s54 21 102 21h292c48 0 82 -7 102 -21s30 -42.333 30 -85v-125c0 -42.667 -10 -71 -30 -85s-54 -21 -102 -21h-296v-68c0 -14 3.33301 -22.5 10 -25.5s22.667 -4.5 48 -4.5h343v-115z
M495 358l0.000976562 47c0 14 -2.5 22.5 -7.5 25.5s-16.5 4.5 -34.5 4.5h-217c-18.667 0 -30.334 -1.5 -35.001 -4.5s-7 -11.5 -7 -25.5v-77h259c18 0 29.5 1.5 34.5 4.5s7.5 11.5 7.5 25.5zM522.001 711l-211 -107l-53 70l192 129z" />
    <glyph glyph-name="ecircumflex" unicode="&#xea;" horiz-adv-x="673" 
d="M595 0h-397c-48 0 -82 7 -102 21s-30 42.333 -30 85v338c0 42.667 10 71 30 85s54 21 102 21h292c48 0 82 -7 102 -21s30 -42.333 30 -85v-125c0 -42.667 -10 -71 -30 -85s-54 -21 -102 -21h-296v-68c0 -14 3.33301 -22.5 10 -25.5s22.667 -4.5 48 -4.5h343v-115z
M495 358l0.000976562 47c0 14 -2.5 22.5 -7.5 25.5s-16.5 4.5 -34.5 4.5h-217c-18.667 0 -30.334 -1.5 -35.001 -4.5s-7 -11.5 -7 -25.5v-77h259c18 0 29.5 1.5 34.5 4.5s7.5 11.5 7.5 25.5zM455.001 604l-118 66l-117 -66l-54 70l161 103h23l158 -103z" />
    <glyph glyph-name="edieresis" unicode="&#xeb;" horiz-adv-x="673" 
d="M595 0h-397.001c-48 0 -82 7 -102 21s-30 42.333 -30 85v338c0 42.667 10 71 30 85s54 21 102 21h292c48 0 82 -7 102 -21s30 -42.333 30 -85v-125c0 -42.667 -10 -71 -30 -85s-54 -21 -102 -21h-296v-68c0 -14 2.33301 -22.5 7 -25.5s16.334 -4.5 35.001 -4.5h359v-115z
M494.999 358l0.000976562 47c0 14 -2.5 22.5 -7.5 25.5s-16.5 4.5 -34.5 4.5h-217c-18.667 0 -30.334 -1.5 -35.001 -4.5s-7 -11.5 -7 -25.5v-77h259c18 0 29.5 1.5 34.5 4.5s7.5 11.5 7.5 25.5zM302 600h-126v121h126v-121zM500 600h-126v121h126v-121z" />
    <glyph glyph-name="igrave" unicode="&#xec;" horiz-adv-x="323" 
d="M254 0h-127v435h-115v115h242v-550zM192 604l-211 107l72 92l192 -129z" />
    <glyph glyph-name="iacute" unicode="&#xed;" horiz-adv-x="323" 
d="M254 0h-127v435h-115v115h242v-550zM339 711l-211 -107l-53 70l192 129z" />
    <glyph glyph-name="icircumflex" unicode="&#xee;" horiz-adv-x="323" 
d="M254 0h-127v435h-115v115h242v-550zM278 604l-117 66l-118 -66l-53 70l157 103h26l158 -103z" />
    <glyph glyph-name="idieresis" unicode="&#xef;" horiz-adv-x="323" 
d="M254 0h-127v435h-115v115h242v-550zM125 600h-127v121h127v-121zM323 600h-127v121h127v-121z" />
    <glyph glyph-name="eth" unicode="&#xf0;" 
d="M490 0h-292c-48 0 -82 7 -102 21s-30 42.333 -30 85v338c0 42.667 10 71 30 85s54 21 102 21h289l-86 81l-62 -39l-55 72l58 35l-95 101h135l45 -43l71 45l55 -71l-66 -43l106 -108c13.333 -14 21.5 -27 24.5 -39s4.5 -38.333 4.5 -79v-356c0 -42.667 -10 -71 -30 -85
s-54 -21 -102 -21zM495 145l-0.000976562 260c0 14 -2.66699 22.5 -8 25.5s-17.666 4.5 -36.999 4.5h-214c-18.667 0 -30.334 -1.5 -35.001 -4.5s-7 -11.5 -7 -25.5v-260c0 -14 2.33301 -22.5 7 -25.5s16.334 -4.5 35.001 -4.5h217c18 0 29.5 1.5 34.5 4.5
s7.5 11.5 7.5 25.5z" />
    <glyph glyph-name="ntilde" unicode="&#xf1;" horiz-adv-x="691" 
d="M623 0h-126.998v405c0 14 -3.33301 22.5 -10 25.5s-22.334 4.5 -47.001 4.5h-202c-18.667 0 -30.334 -1.5 -35.001 -4.5s-7 -11.5 -7 -25.5v-405h-128v444c0 42.667 10 71 30 85s54 21 102 21h292c48 0 82 -7 102 -21s30 -42.333 30 -85v-444zM476.002 740l64.998 -52
c-13.333 -33.333 -31.666 -57 -54.999 -71s-46 -21 -68 -21c-17.333 0 -41.666 7.83301 -72.999 23.5s-54 23.5 -68 23.5c-20 0 -37.667 -13.333 -53 -40l-76 36c17.333 34.667 38.5 60.667 63.5 78s48.5 26 70.5 26s46.5 -8 73.5 -24s48.167 -24 63.5 -24
c14.667 0 33.667 15 57 45z" />
    <glyph glyph-name="ograve" unicode="&#xf2;" horiz-adv-x="689" 
d="M490 0h-292c-48 0 -82 7 -102 21s-30 42.333 -30 85v338c0 42.667 10 71 30 85s54 21 102 21h292c48 0 82 -7 102 -21s30 -42.333 30 -85v-338c0 -42.667 -10 -71 -30 -85s-54 -21 -102 -21zM495 145v260c0 14 -2.5 22.5 -7.5 25.5s-16.5 4.5 -34.5 4.5h-217
c-18.667 0 -30.334 -1.5 -35.001 -4.5s-7 -11.5 -7 -25.5v-260c0 -14 2.33301 -22.5 7 -25.5s16.334 -4.5 35.001 -4.5h217c18 0 29.5 1.5 34.5 4.5s7.5 11.5 7.5 25.5zM387 604l-212 107l73 92l192 -129z" />
    <glyph glyph-name="oacute" unicode="&#xf3;" horiz-adv-x="689" 
d="M490 0h-292c-48 0 -82 7 -102 21s-30 42.333 -30 85v338c0 42.667 10 71 30 85s54 21 102 21h292c48 0 82 -7 102 -21s30 -42.333 30 -85v-338c0 -42.667 -10 -71 -30 -85s-54 -21 -102 -21zM495 145v260c0 14 -2.5 22.5 -7.5 25.5s-16.5 4.5 -34.5 4.5h-217
c-18.667 0 -30.334 -1.5 -35.001 -4.5s-7 -11.5 -7 -25.5v-260c0 -14 2.33301 -22.5 7 -25.5s16.334 -4.5 35.001 -4.5h217c18 0 29.5 1.5 34.5 4.5s7.5 11.5 7.5 25.5zM530 711l-211 -107l-52 70l191 129z" />
    <glyph glyph-name="ocircumflex" unicode="&#xf4;" horiz-adv-x="689" 
d="M490 0h-292c-48 0 -82 7 -102 21s-30 42.333 -30 85v338c0 42.667 10 71 30 85s54 21 102 21h292c48 0 82 -7 102 -21s30 -42.333 30 -85v-338c0 -42.667 -10 -71 -30 -85s-54 -21 -102 -21zM495 145v260c0 14 -2.5 22.5 -7.5 25.5s-16.5 4.5 -34.5 4.5h-217
c-18.667 0 -30.334 -1.5 -35.001 -4.5s-7 -11.5 -7 -25.5v-260c0 -14 2.33301 -22.5 7 -25.5s16.334 -4.5 35.001 -4.5h217c18 0 29.5 1.5 34.5 4.5s7.5 11.5 7.5 25.5zM461 604l-118 66l-117 -66l-54 70l157 103h27l158 -103z" />
    <glyph glyph-name="otilde" unicode="&#xf5;" horiz-adv-x="689" 
d="M490 0h-292c-48 0 -82 7 -102 21s-30 42.333 -30 85v338c0 42.667 10 71 30 85s54 21 102 21h292c48 0 82 -7 102 -21s30 -42.333 30 -85v-338c0 -42.667 -10 -71 -30 -85s-54 -21 -102 -21zM495 145v260c0 14 -2.5 22.5 -7.5 25.5s-16.5 4.5 -34.5 4.5h-217
c-18.667 0 -30.334 -1.5 -35.001 -4.5s-7 -11.5 -7 -25.5v-260c0 -14 2.33301 -22.5 7 -25.5s16.334 -4.5 35.001 -4.5h217c18 0 29.5 1.5 34.5 4.5s7.5 11.5 7.5 25.5zM475 740l64.998 -52c-13.333 -33.333 -31.666 -57 -54.999 -71s-46 -21 -68 -21
c-17.333 0 -41.666 7.83301 -72.999 23.5s-54 23.5 -68 23.5c-20 0 -37.667 -13.333 -53 -40l-76 36c17.333 34.667 38.5 60.667 63.5 78s48.5 26 70.5 26s46.5 -8 73.5 -24s48.167 -24 63.5 -24c14.667 0 33.667 15 57 45z" />
    <glyph glyph-name="odieresis" unicode="&#xf6;" horiz-adv-x="689" 
d="M490 0h-292c-48 0 -82 7 -102 21s-30 42.333 -30 85v338c0 42.667 10 71 30 85s54 21 102 21h292c48 0 82 -7 102 -21s30 -42.333 30 -85v-338c0 -42.667 -10 -71 -30 -85s-54 -21 -102 -21zM495 145v260c0 14 -2.5 22.5 -7.5 25.5s-16.5 4.5 -34.5 4.5h-217
c-18.667 0 -30.334 -1.5 -35.001 -4.5s-7 -11.5 -7 -25.5v-260c0 -14 2.33301 -22.5 7 -25.5s16.334 -4.5 35.001 -4.5h217c18 0 29.5 1.5 34.5 4.5s7.5 11.5 7.5 25.5zM308 600h-126v121h126v-121zM506 600h-126v121h126v-121z" />
    <glyph glyph-name="divide" unicode="&#xf7;" horiz-adv-x="570" 
d="M536 207h-470v120h470v-120zM365 41h-126v121h126v-121zM365 371h-126v121h126v-121z" />
    <glyph glyph-name="oslash" unicode="&#xf8;" horiz-adv-x="689" 
d="M490 0h-159l-17 -72h-105l17 72h-28c-48 0 -82 7 -102 21s-30 42.333 -30 85v338c0 42.667 10 71 30 85s54 21 102 21h158l17 71h105l-17 -71h29c48 0 82 -7 102 -21s30 -42.333 30 -85v-338c0 -42.667 -10 -71 -30 -85s-54 -21 -102 -21zM495 145v260
c0 14 -2.5 22.5 -7.5 25.5s-16.5 4.5 -34.5 4.5h-19l-76 -320h95c18 0 29.5 1.5 34.5 4.5s7.5 11.5 7.5 25.5zM194 145c0 -14 2.33301 -22.5 7 -25.5s16.334 -4.5 35.001 -4.5h17l76 320h-93c-18.667 0 -30.334 -1.5 -35.001 -4.5s-7 -11.5 -7 -25.5v-260z" />
    <glyph glyph-name="ugrave" unicode="&#xf9;" horiz-adv-x="691" 
d="M491 0h-292.001c-48 0 -82 7 -102 21s-30 42.333 -30 85v444h128v-405c0 -14 2.33301 -22.5 7 -25.5s16.334 -4.5 35.001 -4.5h217c18 0 29.5 1.5 34.5 4.5s7.5 11.5 7.5 25.5v405h127v-444c0 -42.667 -10 -71 -30 -85s-54 -21 -102 -21zM373.999 604l-211 107l72 92
l193 -129z" />
    <glyph glyph-name="uacute" unicode="&#xfa;" horiz-adv-x="691" 
d="M491 0h-292.001c-48 0 -82 7 -102 21s-30 42.333 -30 85v444h128v-405c0 -14 2.33301 -22.5 7 -25.5s16.334 -4.5 35.001 -4.5h217c18 0 29.5 1.5 34.5 4.5s7.5 11.5 7.5 25.5v405h127v-444c0 -42.667 -10 -71 -30 -85s-54 -21 -102 -21zM532.999 711l-212 -107l-52 70
l192 129z" />
    <glyph glyph-name="ucircumflex" unicode="&#xfb;" horiz-adv-x="691" 
d="M491 0h-291.999c-48 0 -82 7 -102 21s-30 42.333 -30 85v444h128v-405c0 -14 3.16699 -22.5 9.5 -25.5s22.166 -4.5 47.499 -4.5h202c18 0 29.5 1.5 34.5 4.5s7.5 11.5 7.5 25.5v405h127v-444c0 -42.667 -10 -71 -30 -85s-54 -21 -102 -21zM462.001 604l-118 66l-117 -66
l-54 70l157 103h27l158 -103z" />
    <glyph glyph-name="udieresis" unicode="&#xfc;" horiz-adv-x="691" 
d="M491 0h-292.001c-48 0 -82 7 -102 21s-30 42.333 -30 85v444h128v-405c0 -14 2.33301 -22.5 7 -25.5s16.334 -4.5 35.001 -4.5h217c18 0 29.5 1.5 34.5 4.5s7.5 11.5 7.5 25.5v405h127v-444c0 -42.667 -10 -71 -30 -85s-54 -21 -102 -21zM308.999 600h-126v121h126v-121z
M506.999 600h-126v121h126v-121z" />
    <glyph glyph-name="yacute" unicode="&#xfd;" horiz-adv-x="585" 
d="M487 711l-210 -107l-53 70l192 129zM286 -200h-117l73 209l-243 541h135l167 -383l142 383h129z" />
    <glyph glyph-name="thorn" unicode="&#xfe;" horiz-adv-x="691" 
d="M492 0h-296v-200h-128v999h128v-249h296c48 0 82 -7 102 -21s30 -42.333 30 -85v-338c0 -42.667 -10 -71 -30 -85s-54 -21 -102 -21zM497 145v260c0 14 -2.5 22.5 -7.5 25.5s-16.5 4.5 -34.5 4.5h-259v-320h259c18 0 29.5 1.5 34.5 4.5s7.5 11.5 7.5 25.5z" />
    <glyph glyph-name="ydieresis" unicode="&#xff;" horiz-adv-x="585" 
d="M249 600h-126v121h126v-121zM447 600h-126v121h126v-121zM286 -200h-117l73 209l-243 541h135l167 -383l142 383h129z" />
    <glyph glyph-name="Amacron" unicode="&#x100;" horiz-adv-x="755" 
d="M676 0h-127v250h-343v-250h-128v616c0 42.667 10 71 30 85s54 21 102 21h334c48 0 82 -7 102 -21s30 -42.333 30 -85v-616zM549 365l0.000976562 212c0 14 -2.5 22.5 -7.5 25.5s-16.5 4.5 -34.5 4.5h-259c-18.667 0 -30.334 -1.5 -35.001 -4.5s-7 -11.5 -7 -25.5v-212
h343zM558.001 782h-363v110h363v-110z" />
    <glyph glyph-name="amacron" unicode="&#x101;" horiz-adv-x="677" 
d="M479 0h-292c-48 0 -82 7 -102 21s-30 42.333 -30 85v132c0 42.667 10 71 30 85s54 21 102 21h296v61c0 14 -2.5 22.5 -7.5 25.5s-16.5 4.5 -34.5 4.5h-373v115h411c48 0 82 -7 102 -21s30 -42.333 30 -85v-338c0 -42.667 -10 -71 -30 -85s-54 -21 -102 -21zM483 145v84
h-259c-18.667 0 -30.334 -1.5 -35.001 -4.5s-7 -11.5 -7 -25.5v-54c0 -14 2.33301 -22.5 7 -25.5s16.334 -4.5 35.001 -4.5h217c18 0 29.5 1.5 34.5 4.5s7.5 11.5 7.5 25.5zM519 610h-363v110h363v-110z" />
    <glyph glyph-name="Abreve" unicode="&#x102;" horiz-adv-x="755" 
d="M676 0h-127v250h-343v-250h-128v616c0 42.667 10 71 30 85s54 21 102 21h334c48 0 82 -7 102 -21s30 -42.333 30 -85v-616zM549 365l0.000976562 212c0 14 -2.5 22.5 -7.5 25.5s-16.5 4.5 -34.5 4.5h-259c-18.667 0 -30.334 -1.5 -35.001 -4.5s-7 -11.5 -7 -25.5v-212
h343zM462.001 904h103.999c-7.33301 -37.333 -26.833 -70.333 -58.5 -99s-75.167 -43 -130.5 -43c-53.333 0 -96.166 14 -128.499 42s-52.833 61.333 -61.5 100h105c10.667 -36 39 -54 85 -54c42.667 0 71 18 85 54z" />
    <glyph glyph-name="abreve" unicode="&#x103;" horiz-adv-x="677" 
d="M479 0h-292c-48 0 -82 7 -102 21s-30 42.333 -30 85v132c0 42.667 10 71 30 85s54 21 102 21h296v61c0 14 -2.5 22.5 -7.5 25.5s-16.5 4.5 -34.5 4.5h-373v115h411c48 0 82 -7 102 -21s30 -42.333 30 -85v-338c0 -42.667 -10 -71 -30 -85s-54 -21 -102 -21zM483 145v84
h-259c-18.667 0 -30.334 -1.5 -35.001 -4.5s-7 -11.5 -7 -25.5v-54c0 -14 2.33301 -22.5 7 -25.5s16.334 -4.5 35.001 -4.5h217c18 0 29.5 1.5 34.5 4.5s7.5 11.5 7.5 25.5zM425 732h103c-7.33301 -37.333 -26.833 -70.333 -58.5 -99s-75.167 -43 -130.5 -43
c-54 0 -97.167 14 -129.5 42s-52.5 61.333 -60.5 100h105c12 -36 40.333 -54 85 -54c44 0 72.667 18 86 54z" />
    <glyph glyph-name="Aogonek" unicode="&#x104;" horiz-adv-x="755" 
d="M672 -109v-74c-16 -12 -40 -18 -72 -18c-37.333 0 -66.833 8.5 -88.5 25.5s-32.5 37.5 -32.5 61.5c0 19.333 6.33301 39.5 19 60.5s29.667 37.5 51 49.5v254h-343v-250h-128v616c0 42.667 10 71 30 85s54 21 102 21h334c48 0 82 -7 102 -21s30 -42.333 30 -85v-616
c-28.667 -8 -53.5 -22.333 -74.5 -43s-31.5 -39 -31.5 -55c0 -18.667 16 -28 48 -28c18 0 36 5.66699 54 17zM549 365l0.000976562 212c0 14 -2.5 22.5 -7.5 25.5s-16.5 4.5 -34.5 4.5h-259c-18.667 0 -30.334 -1.5 -35.001 -4.5s-7 -11.5 -7 -25.5v-212h343z" />
    <glyph glyph-name="aogonek" unicode="&#x105;" horiz-adv-x="677" 
d="M478 -100v-74c-16 -12 -40 -18 -72 -18c-37.333 0 -66.833 8.5 -88.5 25.5s-32.5 37.5 -32.5 61.5c0 17.333 7 36 21 56s32.333 36.333 55 49h-175c-48 0 -82 7 -102 21s-30 42.333 -30 85v132c0 42.667 10 71 30 85s54 21 102 21h297v61c0 14 -2.5 22.5 -7.5 25.5
s-16.5 4.5 -34.5 4.5h-371v115h408c48 0 82 -7 102 -21s30 -42.333 30 -85v-338c0 -42.667 -10 -71 -30 -85s-54 -21 -102 -21h-23c-22 -10.667 -40.667 -25 -56 -43s-23 -33.333 -23 -46c0 -18.667 16 -28 48 -28c18 0 36 5.66699 54 17zM483 145v84h-259
c-18.667 0 -30.334 -1.5 -35.001 -4.5s-7 -11.5 -7 -25.5v-54c0 -14 2.33301 -22.5 7 -25.5s16.334 -4.5 35.001 -4.5h217c18 0 29.5 1.5 34.5 4.5s7.5 11.5 7.5 25.5z" />
    <glyph glyph-name="Cacute" unicode="&#x106;" horiz-adv-x="732" 
d="M543 0h-333.999c-48 0 -82 7 -102 21s-30 42.333 -30 85v510c0 42.667 10 71 30 85s54 21 102 21h334c48 0 82 -7 102 -21s30 -42.333 30 -85v-109h-127v70c0 14 -2.5 22.5 -7.5 25.5s-16.5 4.5 -34.5 4.5h-259c-18.667 0 -30.334 -1.5 -35.001 -4.5s-7 -11.5 -7 -25.5
v-432c0 -14 2.33301 -22.5 7 -25.5s16.334 -4.5 35.001 -4.5h259c19.333 0 31.166 1.5 35.499 4.5s6.5 11.167 6.5 24.5v71h127v-109c0 -42.667 -10 -71 -30 -85s-54 -21 -102 -21zM566.001 883l-212 -107l-52 70l192 129z" />
    <glyph glyph-name="cacute" unicode="&#x107;" horiz-adv-x="602" 
d="M559 0h-361c-48 0 -82 7 -102 21s-30 42.333 -30 85v338c0 42.667 10 71 30 85s54 21 102 21h361v-115h-323c-18.667 0 -30.334 -1.5 -35.001 -4.5s-7 -11.5 -7 -25.5v-260c0 -14 2.33301 -22.5 7 -25.5s16.334 -4.5 35.001 -4.5h323v-115zM502 711l-212 -107l-52 70
l192 129z" />
    <glyph glyph-name="Ccircumflex" unicode="&#x108;" horiz-adv-x="732" 
d="M543 0l-333.999 0.000976562c-48 0 -82 7 -102 21s-30 42.333 -30 85v510c0 42.667 10 71 30 85s54 21 102 21h334c48 0 82 -7 102 -21s30 -42.333 30 -85v-109h-127v70c0 14 -3.16699 22.5 -9.5 25.5s-21.833 4.5 -46.5 4.5h-245c-20.667 0 -32.834 -1.33301 -36.501 -4
s-5.5 -11.334 -5.5 -26.001v-432c0 -14 2.33301 -22.5 7 -25.5s16.334 -4.5 35.001 -4.5h259c19.333 0 31.166 1.5 35.499 4.5s6.5 11.167 6.5 24.5v71h127v-109c0 -42.667 -10 -71 -30 -85s-54 -21 -102 -21zM494.001 776.001l-118 66l-117 -66l-53 70l158 103h25l158 -103
z" />
    <glyph glyph-name="ccircumflex" unicode="&#x109;" horiz-adv-x="602" 
d="M559 0h-361c-48 0 -82 7 -102 21s-30 42.333 -30 85v338c0 42.667 10 71 30 85s54 21 102 21h361v-115h-323c-18.667 0 -30.334 -1.5 -35.001 -4.5s-7 -11.5 -7 -25.5v-260c0 -14 2.33301 -22.5 7 -25.5s16.334 -4.5 35.001 -4.5h323v-115zM451 604l-117 66l-118 -66
l-53 70l158 103h25l158 -103z" />
    <glyph glyph-name="Cdotaccent" unicode="&#x10a;" horiz-adv-x="732" 
d="M543 0h-333.999c-48 0 -82 7 -102 21s-30 42.333 -30 85v510c0 42.667 10 71 30 85s54 21 102 21h334c48 0 82 -7 102 -21s30 -42.333 30 -85v-109h-127v70c0 14 -2.5 22.5 -7.5 25.5s-16.5 4.5 -34.5 4.5h-259c-18.667 0 -30.334 -1.5 -35.001 -4.5s-7 -11.5 -7 -25.5
v-432c0 -14 2.33301 -22.5 7 -25.5s16.334 -4.5 35.001 -4.5h259c19.333 0 31.166 1.5 35.499 4.5s6.5 11.167 6.5 24.5v71h127v-109c0 -42.667 -10 -71 -30 -85s-54 -21 -102 -21zM440.001 772h-127v120h127v-120z" />
    <glyph glyph-name="cdotaccent" unicode="&#x10b;" horiz-adv-x="602" 
d="M559 0h-361c-48 0 -82 7 -102 21s-30 42.333 -30 85v338c0 42.667 10 71 30 85s54 21 102 21h361v-115h-323c-18.667 0 -30.334 -1.5 -35.001 -4.5s-7 -11.5 -7 -25.5v-260c0 -14 2.33301 -22.5 7 -25.5s16.334 -4.5 35.001 -4.5h323v-115zM407 600h-128v120h128v-120z
" />
    <glyph glyph-name="Ccaron" unicode="&#x10c;" horiz-adv-x="732" 
d="M543 0l-333.999 0.000976562c-48 0 -82 7 -102 21s-30 42.333 -30 85v510c0 42.667 10 71 30 85s54 21 102 21h334c48 0 82 -7 102 -21s30 -42.333 30 -85v-109h-127v70c0 14 -3.16699 22.5 -9.5 25.5s-21.833 4.5 -46.5 4.5h-245c-20.667 0 -32.834 -1.33301 -36.501 -4
s-5.5 -11.334 -5.5 -26.001v-432c0 -14 2.33301 -22.5 7 -25.5s16.334 -4.5 35.001 -4.5h259c19.333 0 31.166 1.5 35.499 4.5s6.5 11.167 6.5 24.5v71h127v-109c0 -42.667 -10 -71 -30 -85s-54 -21 -102 -21zM555.001 879.001l-158 -103h-27l-157 103l54 70l117 -66l117 66
z" />
    <glyph glyph-name="ccaron" unicode="&#x10d;" horiz-adv-x="602" 
d="M559 0h-361c-48 0 -82 7 -102 21s-30 42.333 -30 85v338c0 42.667 10 71 30 85s54 21 102 21h361v-115h-323c-18.667 0 -30.334 -1.5 -35.001 -4.5s-7 -11.5 -7 -25.5v-260c0 -14 2.33301 -22.5 7 -25.5s16.334 -4.5 35.001 -4.5h323v-115zM506 707l-158 -103h-26
l-158 103l53 70l118 -66l116 66z" />
    <glyph glyph-name="Dcaron" unicode="&#x10e;" horiz-adv-x="774" 
d="M565 0h-486v722h486c48 0 82 -7 102 -21s30 -42.333 30 -85v-510c0 -42.667 -10 -71 -30 -85s-54 -21 -102 -21zM570 144l0.00195312 433c0 14 -2.33301 22.5 -7 25.5s-16.334 4.5 -35.001 4.5h-321v-492h321c19.333 0 31.166 1.5 35.499 4.5s6.5 11.167 6.5 24.5z
M558.002 879l-158 -103h-26l-157 103l54 70l116 -66l118 66z" />
    <glyph glyph-name="dcaron" unicode="&#x10f;" horiz-adv-x="750" 
d="M490 0h-292c-48 0 -82 7 -102 21s-30 42.333 -30 85v338c0 42.667 10 71 30 85s54 21 102 21h297v250h127v-694c0 -42.667 -10 -71 -30 -85s-54 -21 -102 -21zM495 145v290h-259c-18.667 0 -30.334 -1.5 -35.001 -4.5s-7 -11.5 -7 -25.5v-260
c0 -14 2.33301 -22.5 7 -25.5s16.334 -4.5 35.001 -4.5h217c18 0 29.5 1.5 34.5 4.5s7.5 11.5 7.5 25.5zM746 491h-86l69 231h139z" />
    <glyph glyph-name="Dcroat" unicode="&#x110;" horiz-adv-x="789" 
d="M580 0h-486v310h-78v110h78v302h486c48 0 82 -7 102 -21s30 -42.333 30 -85v-510c0 -42.667 -10 -71 -30 -85s-54 -21 -102 -21zM584 144l0.00195312 433c0 14 -2.33301 22.5 -7 25.5s-16.334 4.5 -35.001 4.5h-321v-187h162v-110h-162v-195h321
c19.333 0 31.166 1.33301 35.499 4s6.5 11 6.5 25z" />
    <glyph glyph-name="dcroat" unicode="&#x111;" horiz-adv-x="689" 
d="M490 0h-292c-48 0 -82 7 -102 21s-30 42.333 -30 85v338c0 42.667 10 71 30 85s54 21 102 21h297v82h-233v100h233v68h127v-68h68v-100h-68v-526c0 -42.667 -10 -71 -30 -85s-54 -21 -102 -21zM495 145v290h-259c-18.667 0 -30.334 -1.5 -35.001 -4.5s-7 -11.5 -7 -25.5
v-260c0 -14 2.33301 -22.5 7 -25.5s16.334 -4.5 35.001 -4.5h217c18 0 29.5 1.5 34.5 4.5s7.5 11.5 7.5 25.5z" />
    <glyph glyph-name="Emacron" unicode="&#x112;" horiz-adv-x="662" 
d="M619 0h-540v722h540v-115h-412v-188h334v-115h-334v-189h412v-115zM537 782h-363v110h363v-110z" />
    <glyph glyph-name="emacron" unicode="&#x113;" horiz-adv-x="673" 
d="M595 0h-397c-48 0 -82 7 -102 21s-30 42.333 -30 85v338c0 42.667 10 71 30 85s54 21 102 21h292c48 0 82 -7 102 -21s30 -42.333 30 -85v-125c0 -42.667 -10 -71 -30 -85s-54 -21 -102 -21h-296v-68c0 -14 3.33301 -22.5 10 -25.5s22.667 -4.5 48 -4.5h343v-115z
M495 358l0.000976562 47c0 14 -2.5 22.5 -7.5 25.5s-16.5 4.5 -34.5 4.5h-217c-18.667 0 -30.334 -1.5 -35.001 -4.5s-7 -11.5 -7 -25.5v-77h259c18 0 29.5 1.5 34.5 4.5s7.5 11.5 7.5 25.5zM528.001 610h-362v110h362v-110z" />
    <glyph glyph-name="Ebreve" unicode="&#x114;" horiz-adv-x="662" 
d="M619 0h-540v722h540v-115h-412v-188h334v-115h-334v-189h412v-115zM444 904h104.001c-7.33301 -37.333 -26.833 -70.333 -58.5 -99s-75.167 -43 -130.5 -43c-54 0 -97.167 14 -129.5 42s-52.5 61.333 -60.5 100h105c12 -36 40.333 -54 85 -54
c43.333 0 71.666 18 84.999 54z" />
    <glyph glyph-name="ebreve" unicode="&#x115;" horiz-adv-x="673" 
d="M595 0h-397.001c-48 0 -82 7 -102 21s-30 42.333 -30 85v338c0 42.667 10 71 30 85s54 21 102 21h292c48 0 82 -7 102 -21s30 -42.333 30 -85v-125c0 -42.667 -10 -71 -30 -85s-54 -21 -102 -21h-296v-68c0 -14 2.33301 -22.5 7 -25.5s16.334 -4.5 35.001 -4.5h359v-115z
M494.999 358l0.000976562 47c0 14 -2.5 22.5 -7.5 25.5s-16.5 4.5 -34.5 4.5h-217c-18.667 0 -30.334 -1.5 -35.001 -4.5s-7 -11.5 -7 -25.5v-77h259c18 0 29.5 1.5 34.5 4.5s7.5 11.5 7.5 25.5zM424 732h103.999c-7.33301 -37.333 -26.833 -70.333 -58.5 -99
s-75.5 -43 -131.5 -43c-53.333 0 -96.166 14 -128.499 42s-52.5 61.333 -60.5 100h104c12 -36 40.333 -54 85 -54c44 0 72.667 18 86 54z" />
    <glyph glyph-name="Edotaccent" unicode="&#x116;" horiz-adv-x="662" 
d="M619 0h-540v722h540v-115h-412v-188h334v-115h-334v-189h412v-115zM439 772h-128v120h128v-120z" />
    <glyph glyph-name="edotaccent" unicode="&#x117;" horiz-adv-x="673" 
d="M595 0h-397c-48 0 -82 7 -102 21s-30 42.333 -30 85v338c0 42.667 10 71 30 85s54 21 102 21h292c48 0 82 -7 102 -21s30 -42.333 30 -85v-125c0 -42.667 -10 -71 -30 -85s-54 -21 -102 -21h-296v-68c0 -14 3.33301 -22.5 10 -25.5s22.667 -4.5 48 -4.5h343v-115z
M495 358l0.000976562 47c0 14 -2.5 22.5 -7.5 25.5s-16.5 4.5 -34.5 4.5h-217c-18.667 0 -30.334 -1.5 -35.001 -4.5s-7 -11.5 -7 -25.5v-77h259c18 0 29.5 1.5 34.5 4.5s7.5 11.5 7.5 25.5zM402.001 600h-128v120h128v-120z" />
    <glyph glyph-name="Eogonek" unicode="&#x118;" horiz-adv-x="662" 
d="M559 -100v-74c-16 -12 -40 -18 -72 -18c-37.333 0 -67 8.5 -89 25.5s-33 37.5 -33 61.5c0 18 7.33301 36.833 22 56.5s34 35.834 58 48.501h-366v722h540v-115h-412v-188h334v-115h-334v-189h412v-115h-79c-23.333 -10.667 -43 -24.834 -59 -42.501
s-24 -33.167 -24 -46.5c0 -18.667 16 -28 48 -28c18 0 36 5.66699 54 17z" />
    <glyph glyph-name="eogonek" unicode="&#x119;" horiz-adv-x="673" 
d="M527 -100l0.000976562 -73.999c-16 -12 -40.333 -18 -73 -18c-37.333 0 -67 8.5 -89 25.5s-33 37.5 -33 61.5c0 17.333 7.33301 36 22 56s34 36.333 58 49h-214c-48 0 -82 7 -102 21s-30 42.333 -30 85v338c0 42.667 10 71 30 85s54 21 102 21h292c48 0 82 -7 102 -21
s30 -42.333 30 -85v-125c0 -42.667 -10 -71 -30 -85s-54 -21 -102 -21h-296v-68c0 -14 3 -22.5 9 -25.5s20.667 -4.5 44 -4.5h348v-115h-88c-23.333 -10.667 -43 -24.834 -59 -42.501s-24 -33.167 -24 -46.5c0 -18.667 16 -28 48 -28c17.333 0 35.666 5.66699 54.999 17z
M495.001 358.001l0.000976562 47c0 14 -2.5 22.5 -7.5 25.5s-16.5 4.5 -34.5 4.5h-217c-18.667 0 -30.334 -1.5 -35.001 -4.5s-7 -11.5 -7 -25.5v-77h259c18 0 29.5 1.5 34.5 4.5s7.5 11.5 7.5 25.5z" />
    <glyph glyph-name="Ecaron" unicode="&#x11a;" horiz-adv-x="662" 
d="M619 0h-540v722h540v-115h-412v-188h334v-115h-334v-189h412v-115zM532 879l-158 -103h-26l-157 103l53 70l117 -66l118 66z" />
    <glyph glyph-name="ecaron" unicode="&#x11b;" horiz-adv-x="673" 
d="M595 0h-397c-48 0 -82 7 -102 21s-30 42.333 -30 85v338c0 42.667 10 71 30 85s54 21 102 21h292c48 0 82 -7 102 -21s30 -42.333 30 -85v-125c0 -42.667 -10 -71 -30 -85s-54 -21 -102 -21h-296v-68c0 -14 3.33301 -22.5 10 -25.5s22.667 -4.5 48 -4.5h343v-115z
M495 358l0.000976562 47c0 14 -2.5 22.5 -7.5 25.5s-16.5 4.5 -34.5 4.5h-217c-18.667 0 -30.334 -1.5 -35.001 -4.5s-7 -11.5 -7 -25.5v-77h259c18 0 29.5 1.5 34.5 4.5s7.5 11.5 7.5 25.5zM508.001 707l-158 -103h-27l-157 103l55 70l116 -66l118 66z" />
    <glyph glyph-name="Gcircumflex" unicode="&#x11c;" horiz-adv-x="756" 
d="M555 0h-345.998c-48 0 -82 7 -102 21s-30 42.333 -30 85v510c0 42.667 10 71 30 85s54 21 102 21h346c48 0 82 -7 102 -21s30 -42.333 30 -85v-109h-127v70c0 14 -3.16699 22.5 -9.5 25.5s-21.833 4.5 -46.5 4.5h-257c-18.667 0 -30.334 -1.5 -35.001 -4.5
s-7 -11.5 -7 -25.5v-432c0 -14 3.16699 -22.5 9.5 -25.5s21.833 -4.5 46.5 -4.5h257c19.333 0 31.166 1.5 35.499 4.5s6.5 11.167 6.5 24.5v102h-175v115h302v-255c0 -42.667 -10 -71 -30 -85s-54 -21 -102 -21zM507.002 776l-117 66l-118 -66l-53 70l157 103h27l157 -103z
" />
    <glyph glyph-name="gcircumflex" unicode="&#x11d;" 
d="M490 -200h-393v115h356c18 0 29.5 1.5 34.5 4.5s7.5 11.5 7.5 25.5v55h-297c-48 0 -82 7 -102 21s-30 42.333 -30 85v338c0 42.667 10 71 30 85s54 21 102 21h292c48 0 82 -7 102 -21s30 -42.333 30 -85v-538c0 -42.667 -10 -71 -30 -85s-54 -21 -102 -21zM495 115v290
c0 14 -2.5 22.5 -7.5 25.5s-16.5 4.5 -34.5 4.5h-217c-18.667 0 -30.334 -1.5 -35.001 -4.5s-7 -11.5 -7 -25.5v-260c0 -14 2.33301 -22.5 7 -25.5s16.334 -4.5 35.001 -4.5h259zM461 604l-118 66l-117 -66l-54 70l157 103h27l158 -103z" />
    <glyph glyph-name="Gbreve" unicode="&#x11e;" horiz-adv-x="756" 
d="M555 0h-345.999c-48 0 -82 7 -102 21s-30 42.333 -30 85v510c0 42.667 10 71 30 85s54 21 102 21h346c48 0 82 -7 102 -21s30 -42.333 30 -85v-109h-127v70c0 14 -2.5 22.5 -7.5 25.5s-16.5 4.5 -34.5 4.5h-271c-18.667 0 -30.334 -1.5 -35.001 -4.5s-7 -11.5 -7 -25.5
v-432c0 -14 2.33301 -22.5 7 -25.5s16.334 -4.5 35.001 -4.5h271c19.333 0 31.166 1.5 35.499 4.5s6.5 11.167 6.5 24.5v102h-175v115h302v-255c0 -42.667 -10 -71 -30 -85s-54 -21 -102 -21zM472.001 904h102.999c-7.33301 -37.333 -26.666 -70.333 -57.999 -99
s-74.666 -43 -129.999 -43c-54 0 -97.167 14 -129.5 42s-52.5 61.333 -60.5 100h105c12 -36 40.333 -54 85 -54c43.333 0 71.666 18 84.999 54z" />
    <glyph glyph-name="gbreve" unicode="&#x11f;" 
d="M490 -200h-393v115h356c18 0 29.5 1.5 34.5 4.5s7.5 11.5 7.5 25.5v55h-297c-48 0 -82 7 -102 21s-30 42.333 -30 85v338c0 42.667 10 71 30 85s54 21 102 21h292c48 0 82 -7 102 -21s30 -42.333 30 -85v-538c0 -42.667 -10 -71 -30 -85s-54 -21 -102 -21zM495 115v290
c0 14 -2.5 22.5 -7.5 25.5s-16.5 4.5 -34.5 4.5h-217c-18.667 0 -30.334 -1.5 -35.001 -4.5s-7 -11.5 -7 -25.5v-260c0 -14 2.33301 -22.5 7 -25.5s16.334 -4.5 35.001 -4.5h259zM430 732h103.999c-7.33301 -37.333 -26.833 -70.333 -58.5 -99s-75.5 -43 -131.5 -43
c-53.333 0 -96.166 14 -128.499 42s-52.5 61.333 -60.5 100h104c12 -36 40.333 -54 85 -54c44 0 72.667 18 86 54z" />
    <glyph glyph-name="Gdotaccent" unicode="&#x120;" horiz-adv-x="756" 
d="M555 0h-345.999c-48 0 -82 7 -102 21s-30 42.333 -30 85v510c0 42.667 10 71 30 85s54 21 102 21h346c48 0 82 -7 102 -21s30 -42.333 30 -85v-109h-127v70c0 14 -2.5 22.5 -7.5 25.5s-16.5 4.5 -34.5 4.5h-271c-18.667 0 -30.334 -1.5 -35.001 -4.5s-7 -11.5 -7 -25.5
v-432c0 -14 2.33301 -22.5 7 -25.5s16.334 -4.5 35.001 -4.5h271c19.333 0 31.166 1.5 35.499 4.5s6.5 11.167 6.5 24.5v102h-175v115h302v-255c0 -42.667 -10 -71 -30 -85s-54 -21 -102 -21zM451.001 772h-128v120h128v-120z" />
    <glyph glyph-name="gdotaccent" unicode="&#x121;" 
d="M490 -200h-393v115h356c18 0 29.5 1.5 34.5 4.5s7.5 11.5 7.5 25.5v55h-297c-48 0 -82 7 -102 21s-30 42.333 -30 85v338c0 42.667 10 71 30 85s54 21 102 21h292c48 0 82 -7 102 -21s30 -42.333 30 -85v-538c0 -42.667 -10 -71 -30 -85s-54 -21 -102 -21zM495 115v290
c0 14 -2.5 22.5 -7.5 25.5s-16.5 4.5 -34.5 4.5h-217c-18.667 0 -30.334 -1.5 -35.001 -4.5s-7 -11.5 -7 -25.5v-260c0 -14 2.33301 -22.5 7 -25.5s16.334 -4.5 35.001 -4.5h259zM408 600h-128v120h128v-120z" />
    <glyph glyph-name="Gcommaaccent" unicode="&#x122;" horiz-adv-x="756" 
d="M555 0h-345.999c-48 0 -82 7 -102 21s-30 42.333 -30 85v510c0 42.667 10 71 30 85s54 21 102 21h346c48 0 82 -7 102 -21s30 -42.333 30 -85v-109h-127v70c0 14 -2.5 22.5 -7.5 25.5s-16.5 4.5 -34.5 4.5h-271c-18.667 0 -30.334 -1.5 -35.001 -4.5s-7 -11.5 -7 -25.5
v-432c0 -14 2.33301 -22.5 7 -25.5s16.334 -4.5 35.001 -4.5h271c19.333 0 31.166 1.5 35.499 4.5s6.5 11.167 6.5 24.5v102h-175v115h302v-255c0 -42.667 -10 -71 -30 -85s-54 -21 -102 -21zM422.001 -271h-92l-18 221h127z" />
    <glyph glyph-name="gcommaaccent" unicode="&#x123;" 
d="M490 -200h-393v115h356c18 0 29.5 1.5 34.5 4.5s7.5 11.5 7.5 25.5v55h-297c-48 0 -82 7 -102 21s-30 42.333 -30 85v338c0 42.667 10 71 30 85s54 21 102 21h292c48 0 82 -7 102 -21s30 -42.333 30 -85v-538c0 -42.667 -10 -71 -30 -85s-54 -21 -102 -21zM495 115v290
c0 14 -2.5 22.5 -7.5 25.5s-16.5 4.5 -34.5 4.5h-217c-18.667 0 -30.334 -1.5 -35.001 -4.5s-7 -11.5 -7 -25.5v-260c0 -14 2.33301 -22.5 7 -25.5s16.334 -4.5 35.001 -4.5h259zM422 630h-134l23 231h90z" />
    <glyph glyph-name="Hcircumflex" unicode="&#x124;" horiz-adv-x="791" 
d="M711 0h-127v304h-377v-304h-128v722h128v-303h377v303h127v-722zM512 776l-117 66l-118 -66l-53 70l158 103h25l158 -103z" />
    <glyph glyph-name="hcircumflex" unicode="&#x125;" horiz-adv-x="691" 
d="M251 850l-117 66l-118 -66l-53 70l157 103h26l158 -103zM624 0h-127v405c0 14 -2.5 22.5 -7.5 25.5s-16.5 4.5 -34.5 4.5h-259v-435h-128v800h128v-250h296c48 0 82 -7 102 -21s30 -42.333 30 -85v-444z" />
    <glyph glyph-name="Hbar" unicode="&#x126;" horiz-adv-x="811" 
d="M722 0h-128v304h-377v-304h-127v515h-72v110h72v97h127v-97h377v97h128v-97h71v-110h-71v-515zM594 419v96h-377v-96h377z" />
    <glyph glyph-name="hbar" unicode="&#x127;" horiz-adv-x="692" 
d="M624 0h-126.999v405c0 14 -2.33301 22.5 -7 25.5s-16.334 4.5 -35.001 4.5h-259v-435h-128v629h-68v110h68v61h128v-61h338v-110h-338v-79h296c48 0 82 -7 102 -21s30 -42.333 30 -85v-444z" />
    <glyph glyph-name="Itilde" unicode="&#x128;" horiz-adv-x="286" 
d="M207 0h-128v722h128v-722zM275 912l64 -52c-13.333 -33.333 -31.5 -57 -54.5 -71s-45.5 -21 -67.5 -21c-16.667 0 -40.667 7.83301 -72 23.5s-54.666 23.5 -69.999 23.5c-20 0 -37.667 -13.333 -53 -40l-75 36c17.333 34.667 38.666 60.667 63.999 78s49 26 71 26
s46.333 -8 73 -24s47.667 -24 63 -24c14.667 0 33.667 15 57 45z" />
    <glyph glyph-name="itilde" unicode="&#x129;" horiz-adv-x="323" 
d="M254 0h-127v435h-115v115h242v-550zM292 740l64 -52c-13.333 -33.333 -31.5 -57 -54.5 -71s-45.5 -21 -67.5 -21c-17.333 0 -41.666 7.83301 -72.999 23.5s-54.333 23.5 -69 23.5c-20 0 -37.667 -13.333 -53 -40l-75 36c17.333 34.667 38.666 60.667 63.999 78
s49 26 71 26s46.333 -8 73 -24s47.667 -24 63 -24c14.667 0 33.667 15 57 45z" />
    <glyph glyph-name="Imacron" unicode="&#x12a;" horiz-adv-x="285" 
d="M207 0h-128v722h128v-722zM324 782h-363v110h363v-110z" />
    <glyph glyph-name="imacron" unicode="&#x12b;" horiz-adv-x="324" 
d="M255 0h-127v435h-116v115h243v-550zM342 610h-362v110h362v-110z" />
    <glyph glyph-name="Ibreve" unicode="&#x12c;" horiz-adv-x="286" 
d="M207 0h-128v722h128v-722zM230 904h103c-7.33301 -37.333 -26.833 -70.333 -58.5 -99s-75.167 -43 -130.5 -43c-54 0 -97.167 14 -129.5 42s-52.5 61.333 -60.5 100h105c12 -36 40.333 -54 85 -54c44 0 72.667 18 86 54z" />
    <glyph glyph-name="ibreve" unicode="&#x12d;" horiz-adv-x="324" 
d="M255 0h-127v435h-115v115h242v-550zM248 732h103c-7.33301 -37.333 -26.833 -70.333 -58.5 -99s-75.167 -43 -130.5 -43c-54 0 -97.167 14 -129.5 42s-52.5 61.333 -60.5 100h105c12 -36 40.333 -54 85 -54c44 0 72.667 18 86 54z" />
    <glyph glyph-name="Iogonek" unicode="&#x12e;" horiz-adv-x="285" 
d="M223 -100l-0.000976562 -73.999c-16 -12 -39.667 -18 -71 -18c-38 0 -67.833 8.5 -89.5 25.5s-32.5 37.5 -32.5 61.5c0 16.667 4.33301 34.167 13 52.5s20.667 33.833 36 46.5v728h128v-722c-24.667 -10.667 -45 -24.834 -61 -42.501s-24 -33.167 -24 -46.5
c0 -18.667 16 -28 48 -28c18.667 0 36.334 5.66699 53.001 17z" />
    <glyph glyph-name="iogonek" unicode="&#x12f;" horiz-adv-x="323" 
d="M249 -109l-0.000976562 -74c-6.66699 -4.66699 -18.5 -8.83398 -35.5 -12.501s-32.833 -5.5 -47.5 -5.5c-34.667 0 -61.667 8.33301 -81 25s-29 37.334 -29 62.001c0 19.333 6.5 39.5 19.5 60.5s30.167 37.5 51.5 49.5v439h-115v115h242v-550
c-28.667 -8 -53.5 -22.5 -74.5 -43.5s-31.5 -39.167 -31.5 -54.5c0 -18.667 16 -28 48 -28c18.667 0 36.334 5.66699 53.001 17zM253.999 607h-127v115h127v-115z" />
    <glyph glyph-name="Idotaccent" unicode="&#x130;" horiz-adv-x="286" 
d="M207 0h-128v722h128v-722zM207 772h-128v120h128v-120z" />
    <glyph glyph-name="dotlessi" unicode="&#x131;" horiz-adv-x="323" 
d="M254 0h-127v435h-115v115h242v-550z" />
    <glyph glyph-name="Jcircumflex" unicode="&#x134;" horiz-adv-x="461" 
d="M252 0h-238.999v115h201c19.333 0 31.166 1.33301 35.499 4s6.5 11 6.5 25v578h128v-616c0 -42.667 -10 -71 -30 -85s-54 -21 -102 -21zM437.001 776l-116 66l-118 -66l-53 70l157 103h25l159 -103z" />
    <glyph glyph-name="jcircumflex" unicode="&#x135;" horiz-adv-x="323" 
d="M123 -200h-192.001v115h154c18.667 0 30.334 1.5 35.001 4.5s7 11.5 7 25.5v490h-115v115h243v-644c0 -42.667 -10 -71 -30 -85s-54 -21 -102 -21zM291.999 604l-117 66l-117 -66l-54 70l157 103h27l158 -103z" />
    <glyph glyph-name="Kcommaaccent" unicode="&#x136;" horiz-adv-x="736" 
d="M411 -271h-93l-17 221h126zM735 0h-173l-355 313v-313h-128v722h128v-323l355 323h173l-416 -361z" />
    <glyph glyph-name="kcommaaccent" unicode="&#x137;" horiz-adv-x="587" 
d="M335 -271h-92l-18 221h127zM570 0h-138l-163 215h-73v-215h-128v800h128v-470h71l170 220h138l-216 -277z" />
    <glyph glyph-name="kgreenlandic" unicode="&#x138;" horiz-adv-x="587" 
d="M570 0h-138l-163 215h-73v-215h-128v550h128v-220h71l170 220h138l-216 -277z" />
    <glyph glyph-name="Lacute" unicode="&#x139;" horiz-adv-x="607" 
d="M595 0h-516v722h128v-607h388v-115zM347 883l-212 -107l-52 70l192 129z" />
    <glyph glyph-name="lacute" unicode="&#x13a;" horiz-adv-x="341" 
d="M328 0h-129c-48 0 -82 7 -102 21s-30 42.333 -30 85v694h128v-655c0 -14 2.5 -22.5 7.5 -25.5s16.5 -4.5 34.5 -4.5h91v-115zM307 959l-212 -107l-52 70l192 129z" />
    <glyph glyph-name="Lcommaaccent" unicode="&#x13b;" horiz-adv-x="607" 
d="M595 0h-516v722h128v-607h388v-115zM399 -271h-93l-17 221h127z" />
    <glyph glyph-name="lcommaaccent" unicode="&#x13c;" horiz-adv-x="340" 
d="M327 0h-128.001c-48 0 -82 7 -102 21s-30 42.333 -30 85v694h128v-655c0 -14 2.33301 -22.5 7 -25.5s16.334 -4.5 35.001 -4.5h90v-115zM243.999 -271h-93l-16 221h126z" />
    <glyph glyph-name="Lcaron" unicode="&#x13d;" horiz-adv-x="614" 
d="M595 0h-516v722h128v-607h388v-115zM462 491h-85l69 231h139z" />
    <glyph glyph-name="lcaron" unicode="&#x13e;" horiz-adv-x="346" 
d="M327 0h-128.001c-48 0 -82 7 -102 21s-30 42.333 -30 85v694h128v-655c0 -14 2.33301 -22.5 7 -25.5s16.334 -4.5 35.001 -4.5h90v-115zM322.999 491h-85l68 231h140z" />
    <glyph glyph-name="Ldot" unicode="&#x13f;" horiz-adv-x="608" 
d="M595 0h-516v722h128v-607h388v-115zM506 429h-127v121h127v-121z" />
    <glyph glyph-name="ldot" unicode="&#x140;" horiz-adv-x="402" 
d="M327 0h-128.001c-48 0 -82 7 -102 21s-30 42.333 -30 85v694h128v-655c0 -14 2.33301 -22.5 7 -25.5s16.334 -4.5 35.001 -4.5h90v-115zM403.999 430h-127v121h127v-121z" />
    <glyph glyph-name="Lslash" unicode="&#x141;" horiz-adv-x="618" 
d="M607 0h-516v230l-73 -37v120l73 37v372h127v-301l166 83v-120l-166 -83v-186h389v-115z" />
    <glyph glyph-name="lslash" unicode="&#x142;" horiz-adv-x="374" 
d="M359 0h-129.001c-48 0 -82 7 -102 21s-30 42.333 -30 85v124l-73 -37v120l73 37v450h127v-379l94 46v-120l-94 -46v-156c0 -14 2.33301 -22.5 7 -25.5s16.334 -4.5 35.001 -4.5h92v-115z" />
    <glyph glyph-name="Nacute" unicode="&#x143;" horiz-adv-x="764" 
d="M596 883l-211 -107l-53 70l192 129zM685 0h-157l-321 518v-518h-128v722h153l325 -524v524h128v-722z" />
    <glyph glyph-name="nacute" unicode="&#x144;" horiz-adv-x="691" 
d="M623 0h-126.999v405c0 14 -2.5 22.5 -7.5 25.5s-16.5 4.5 -34.5 4.5h-217c-18.667 0 -30.334 -1.5 -35.001 -4.5s-7 -11.5 -7 -25.5v-405h-128v444c0 42.667 10 71 30 85s54 21 102 21h292c48 0 82 -7 102 -21s30 -42.333 30 -85v-444zM537.001 711l-212 -107l-52 70
l192 129z" />
    <glyph glyph-name="Ncommaaccent" unicode="&#x145;" horiz-adv-x="764" 
d="M428 -271h-93l-16 221h126zM685 0h-157l-321 518v-518h-128v722h153l325 -524v524h128v-722z" />
    <glyph glyph-name="ncommaaccent" unicode="&#x146;" horiz-adv-x="691" 
d="M623 0h-126.999v405c0 14 -2.5 22.5 -7.5 25.5s-16.5 4.5 -34.5 4.5h-217c-18.667 0 -30.334 -1.5 -35.001 -4.5s-7 -11.5 -7 -25.5v-405h-128v444c0 42.667 10 71 30 85s54 21 102 21h292c48 0 82 -7 102 -21s30 -42.333 30 -85v-444zM396.001 -271h-92l-17 221h127z
" />
    <glyph glyph-name="Ncaron" unicode="&#x147;" horiz-adv-x="764" 
d="M567 879l-158 -103h-26l-157 103l53 70l118 -66l117 66zM685 0h-157l-321 518v-518h-128v722h153l325 -524v524h128v-722z" />
    <glyph glyph-name="ncaron" unicode="&#x148;" horiz-adv-x="691" 
d="M623 0h-126.998v405c0 14 -3.33301 22.5 -10 25.5s-22.334 4.5 -47.001 4.5h-202c-18.667 0 -30.334 -1.5 -35.001 -4.5s-7 -11.5 -7 -25.5v-405h-128v444c0 42.667 10 71 30 85s54 21 102 21h292c48 0 82 -7 102 -21s30 -42.333 30 -85v-444zM515.002 707l-158 -103h-27
l-157 103l55 70l116 -66l118 66z" />
    <glyph glyph-name="Eng" unicode="&#x14a;" horiz-adv-x="765" 
d="M553 -200h-238.999v115h202c19.333 0 31.166 1.5 35.499 4.5s6.5 11.167 6.5 24.5v56h-30l-321 518v-518h-128v722h153l325 -524v524h128v-816c0 -42.667 -10 -71 -30 -85s-54 -21 -102 -21z" />
    <glyph glyph-name="eng" unicode="&#x14b;" horiz-adv-x="691" 
d="M491 -200h-143.999v115h107c18 0 29.5 1.5 34.5 4.5s7.5 11.5 7.5 25.5v460c0 14 -2.5 22.5 -7.5 25.5s-16.5 4.5 -34.5 4.5h-217c-18.667 0 -30.334 -1.5 -35.001 -4.5s-7 -11.5 -7 -25.5v-405h-128v444c0 42.667 10 71 30 85s54 21 102 21h292c48 0 82 -7 102 -21
s30 -42.333 30 -85v-538c0 -42.667 -10 -71 -30 -85s-54 -21 -102 -21z" />
    <glyph glyph-name="Omacron" unicode="&#x14c;" horiz-adv-x="788" 
d="M579 0h-370c-48 0 -82 7 -102 21s-30 42.333 -30 85v510c0 42.667 10 71 30 85s54 21 102 21h370c48 0 82 -7 102 -21s30 -42.333 30 -85v-510c0 -42.667 -10 -71 -30 -85s-54 -21 -102 -21zM584 144l0.000976562 433c0 14 -2.5 22.5 -7.5 25.5s-16.5 4.5 -34.5 4.5h-295
c-18.667 0 -30.334 -1.5 -35.001 -4.5s-7 -11.5 -7 -25.5v-432c0 -14 2.33301 -22.5 7 -25.5s16.334 -4.5 35.001 -4.5h295c19.333 0 31.166 1.5 35.499 4.5s6.5 11.167 6.5 24.5zM576.001 782h-363v110h363v-110z" />
    <glyph glyph-name="omacron" unicode="&#x14d;" horiz-adv-x="689" 
d="M490 0h-292c-48 0 -82 7 -102 21s-30 42.333 -30 85v338c0 42.667 10 71 30 85s54 21 102 21h292c48 0 82 -7 102 -21s30 -42.333 30 -85v-338c0 -42.667 -10 -71 -30 -85s-54 -21 -102 -21zM495 145v260c0 14 -2.5 22.5 -7.5 25.5s-16.5 4.5 -34.5 4.5h-217
c-18.667 0 -30.334 -1.5 -35.001 -4.5s-7 -11.5 -7 -25.5v-260c0 -14 2.33301 -22.5 7 -25.5s16.334 -4.5 35.001 -4.5h217c18 0 29.5 1.5 34.5 4.5s7.5 11.5 7.5 25.5zM525 610h-363v110h363v-110z" />
    <glyph glyph-name="Obreve" unicode="&#x14e;" horiz-adv-x="788" 
d="M579 0h-370c-48 0 -82 7 -102 21s-30 42.333 -30 85v510c0 42.667 10 71 30 85s54 21 102 21h370c48 0 82 -7 102 -21s30 -42.333 30 -85v-510c0 -42.667 -10 -71 -30 -85s-54 -21 -102 -21zM584 144l0.000976562 433c0 14 -2.5 22.5 -7.5 25.5s-16.5 4.5 -34.5 4.5h-295
c-18.667 0 -30.334 -1.5 -35.001 -4.5s-7 -11.5 -7 -25.5v-432c0 -14 2.33301 -22.5 7 -25.5s16.334 -4.5 35.001 -4.5h295c19.333 0 31.166 1.5 35.499 4.5s6.5 11.167 6.5 24.5zM479.001 904h104c-7.33301 -37.333 -26.833 -70.333 -58.5 -99s-75.167 -43 -130.5 -43
c-53.333 0 -96.166 14 -128.499 42s-52.833 61.333 -61.5 100h105c10.667 -36 39 -54 85 -54c43.333 0 71.666 18 84.999 54z" />
    <glyph glyph-name="obreve" unicode="&#x14f;" horiz-adv-x="689" 
d="M490 0h-292c-48 0 -82 7 -102 21s-30 42.333 -30 85v338c0 42.667 10 71 30 85s54 21 102 21h292c48 0 82 -7 102 -21s30 -42.333 30 -85v-338c0 -42.667 -10 -71 -30 -85s-54 -21 -102 -21zM495 145v260c0 14 -2.5 22.5 -7.5 25.5s-16.5 4.5 -34.5 4.5h-217
c-18.667 0 -30.334 -1.5 -35.001 -4.5s-7 -11.5 -7 -25.5v-260c0 -14 2.33301 -22.5 7 -25.5s16.334 -4.5 35.001 -4.5h217c18 0 29.5 1.5 34.5 4.5s7.5 11.5 7.5 25.5zM430 732h103.999c-7.33301 -37.333 -26.833 -70.333 -58.5 -99s-75.5 -43 -131.5 -43
c-53.333 0 -96.166 14 -128.499 42s-52.5 61.333 -60.5 100h104c12 -36 40.333 -54 85 -54c44 0 72.667 18 86 54z" />
    <glyph glyph-name="Ohungarumlaut" unicode="&#x150;" horiz-adv-x="788" 
d="M579 0h-370c-48 0 -82 7 -102 21s-30 42.333 -30 85v510c0 42.667 10 71 30 85s54 21 102 21h370c48 0 82 -7 102 -21s30 -42.333 30 -85v-510c0 -42.667 -10 -71 -30 -85s-54 -21 -102 -21zM584 144l0.000976562 433c0 14 -2.5 22.5 -7.5 25.5s-16.5 4.5 -34.5 4.5h-295
c-18.667 0 -30.334 -1.5 -35.001 -4.5s-7 -11.5 -7 -25.5v-432c0 -14 2.33301 -22.5 7 -25.5s16.334 -4.5 35.001 -4.5h295c19.333 0 31.166 1.5 35.499 4.5s6.5 11.167 6.5 24.5zM685.001 907l-181 -143l-69 59l159 160zM467.001 907l-181 -143l-68 59l158 160z" />
    <glyph glyph-name="ohungarumlaut" unicode="&#x151;" horiz-adv-x="689" 
d="M490 0h-292c-48 0 -82 7 -102 21s-30 42.333 -30 85v338c0 42.667 10 71 30 85s54 21 102 21h292c48 0 82 -7 102 -21s30 -42.333 30 -85v-338c0 -42.667 -10 -71 -30 -85s-54 -21 -102 -21zM495 145v260c0 14 -2.5 22.5 -7.5 25.5s-16.5 4.5 -34.5 4.5h-217
c-18.667 0 -30.334 -1.5 -35.001 -4.5s-7 -11.5 -7 -25.5v-260c0 -14 2.33301 -22.5 7 -25.5s16.334 -4.5 35.001 -4.5h217c18 0 29.5 1.5 34.5 4.5s7.5 11.5 7.5 25.5zM623 735l-181 -143l-69 59l159 160zM405 735l-181 -143l-68 59l158 160z" />
    <glyph glyph-name="OE" unicode="&#x152;" horiz-adv-x="1167" 
d="M1124 0h-915c-48 0 -82 7 -102 21s-30 42.333 -30 85v510c0 42.667 10 71 30 85s54 21 102 21h915v-115h-413v-188h335v-115h-335v-189h413v-115zM205 145c0 -14 2.33301 -22.5 7 -25.5s16.334 -4.5 35.001 -4.5h337v492h-337c-18.667 0 -30.334 -1.5 -35.001 -4.5
s-7 -11.5 -7 -25.5v-432z" />
    <glyph glyph-name="oe" unicode="&#x153;" horiz-adv-x="1101" 
d="M1024 0h-397c-33.333 0 -56.333 4.66699 -69 14c-12.667 -9.33301 -35.334 -14 -68.001 -14h-292c-48 0 -82 7 -102 21s-30 42.333 -30 85v338c0 42.667 10 71 30 85s54 21 102 21h292c31.333 0 54 -5 68 -15c14 10 37 15 69 15h291c48 0 82 -7 102 -21
s30 -42.333 30 -85v-125c0 -42.667 -10 -71 -30 -85s-54 -21 -102 -21h-296v-68c0 -14 2.33301 -22.5 7 -25.5s16.334 -4.5 35.001 -4.5h360v-115zM495 145v260c0 14 -2.5 22.5 -7.5 25.5s-16.5 4.5 -34.5 4.5h-217c-18.667 0 -30.334 -1.5 -35.001 -4.5s-7 -11.5 -7 -25.5
v-260c0 -14 2.33301 -22.5 7 -25.5s16.334 -4.5 35.001 -4.5h217c18 0 29.5 1.5 34.5 4.5s7.5 11.5 7.5 25.5zM922 358l-0.000976562 47c0 14 -2.33301 22.5 -7 25.5s-16.334 4.5 -35.001 4.5h-216c-17.333 0 -28.666 -1.16699 -33.999 -3.5s-8 -8.5 -8 -18.5v-85h258
c18.667 0 30.334 1.5 35.001 4.5s7 11.5 7 25.5z" />
    <glyph glyph-name="Racute" unicode="&#x154;" horiz-adv-x="726" 
d="M661 0h-143l-194 277h-117v-277h-128v722h454c48 0 82 -7 102 -21s30 -42.333 30 -85v-233c0 -42.667 -10 -71 -30 -85s-54 -21 -102 -21h-66zM538 421l0.000976562 156c0 14 -2.5 22.5 -7.5 25.5s-16.5 4.5 -34.5 4.5h-289v-215h289c19.333 0 31.166 1.5 35.499 4.5
s6.5 11.167 6.5 24.5zM544.001 883l-211 -107l-52 70l192 129z" />
    <glyph glyph-name="racute" unicode="&#x155;" horiz-adv-x="487" 
d="M195 0h-127.999v444c0 42.667 10 71 30 85s54 21 102 21h270v-115h-232c-18.667 0 -30.334 -1.5 -35.001 -4.5s-7 -11.5 -7 -25.5v-405zM455.001 711l-211 -107l-52 70l192 129z" />
    <glyph glyph-name="Rcommaaccent" unicode="&#x156;" horiz-adv-x="726" 
d="M661 0h-143l-194 277h-117v-277h-128v722h454c48 0 82 -7 102 -21s30 -42.333 30 -85v-233c0 -42.667 -10 -71 -30 -85s-54 -21 -102 -21h-66zM538 421l0.000976562 156c0 14 -2.5 22.5 -7.5 25.5s-16.5 4.5 -34.5 4.5h-289v-215h289c19.333 0 31.166 1.5 35.499 4.5
s6.5 11.167 6.5 24.5zM412.001 -271h-92l-18 221h127z" />
    <glyph glyph-name="rcommaaccent" unicode="&#x157;" horiz-adv-x="487" 
d="M195 0h-127.999v444c0 42.667 10 71 30 85s54 21 102 21h270v-115h-232c-18.667 0 -30.334 -1.5 -35.001 -4.5s-7 -11.5 -7 -25.5v-405zM179.001 -271h-93l-17 221h126z" />
    <glyph glyph-name="Rcaron" unicode="&#x158;" horiz-adv-x="726" 
d="M661 0h-143l-194 277h-117v-277h-128v722h454c48 0 82 -7 102 -21s30 -42.333 30 -85v-233c0 -42.667 -10 -71 -30 -85s-54 -21 -102 -21h-66zM538 421l0.000976562 156c0 14 -2.5 22.5 -7.5 25.5s-16.5 4.5 -34.5 4.5h-289v-215h289c19.333 0 31.166 1.5 35.499 4.5
s6.5 11.167 6.5 24.5zM537.001 879l-158 -103h-27l-157 103l54 70l117 -66l117 66z" />
    <glyph glyph-name="rcaron" unicode="&#x159;" horiz-adv-x="487" 
d="M195 0l-127.999 0.000976562v444c0 42.667 10 71 30 85s54 21 102 21h270v-115h-232c-20.667 0 -32.834 -1.33301 -36.501 -4s-5.5 -11.334 -5.5 -26.001v-405zM465.001 707.001l-158 -103h-26l-157 103l53 70l117 -66l118 66z" />
    <glyph glyph-name="Sacute" unicode="&#x15a;" horiz-adv-x="734" 
d="M534 0h-333.001c-48 0 -82 7 -102 21s-30 42.333 -30 85v109h127v-70c0 -14 2.33301 -22.5 7 -25.5s16.334 -4.5 35.001 -4.5h258c18 0 29.5 1.5 34.5 4.5s7.5 11.5 7.5 25.5v128c0 14 -2.5 22.5 -7.5 25.5s-16.5 4.5 -34.5 4.5h-296c-48 0 -82 7 -102 21
s-30 42.333 -30 85v207c0 42.667 10 71 30 85s54 21 102 21h332c48 0 82 -7 102 -21s30 -42.333 30 -85v-109h-128v70c0 14 -2.33301 22.5 -7 25.5s-16 4.5 -34 4.5h-258c-18.667 0 -30.334 -1.5 -35.001 -4.5s-7 -11.5 -7 -25.5v-129c0 -14 2.33301 -22.5 7 -25.5
s16.334 -4.5 35.001 -4.5h297c48 0 82 -7 102 -21s30 -42.333 30 -85v-206c0 -42.667 -10 -71 -30 -85s-54 -21 -102 -21zM555.999 883l-211 -107l-52 70l191 129z" />
    <glyph glyph-name="sacute" unicode="&#x15b;" horiz-adv-x="622" 
d="M441 0h-362.999v115h325c18.667 0 30.334 1.5 35.001 4.5s7 11.5 7 25.5v40c0 14 -2.33301 22.5 -7 25.5s-16.334 4.5 -35.001 4.5h-221c-48 0 -82 7 -102 21s-30 42.333 -30 85v123c0 42.667 10 71 30 85s54 21 102 21h361v-115h-324
c-18.667 0 -30.334 -1.5 -35.001 -4.5s-7 -11.5 -7 -25.5v-45c0 -12 2 -20 6 -24s12 -6 24 -6h234c48 0 82 -7 102 -21s30 -42.333 30 -85v-118c0 -42.667 -10 -71 -30 -85s-54 -21 -102 -21zM501.001 711l-210 -107l-53 70l192 129z" />
    <glyph glyph-name="Scircumflex" unicode="&#x15c;" horiz-adv-x="734" 
d="M534 0h-332.998c-48 0 -82 7 -102 21s-30 42.333 -30 85v109h127v-70c0 -14 3.16699 -22.5 9.5 -25.5s21.166 -4.5 44.499 -4.5h246c18 0 29.5 1.5 34.5 4.5s7.5 11.5 7.5 25.5v128c0 14 -3 22.5 -9 25.5s-21 4.5 -45 4.5h-284c-52 0 -87 6.83301 -105 20.5
s-27 42.167 -27 85.5v207c0 42.667 10 71 30 85s54 21 102 21h332c48 0 82 -7 102 -21s30 -42.333 30 -85v-109h-128v70c0 14 -3 22.5 -9 25.5s-20.667 4.5 -44 4.5h-246c-18.667 0 -30.334 -1.5 -35.001 -4.5s-7 -11.5 -7 -25.5v-129c0 -14 3 -22.5 9 -25.5
s20.667 -4.5 44 -4.5h286c52 0 87 -6.83301 105 -20.5s27 -42.167 27 -85.5v-206c0 -42.667 -10 -71 -30 -85s-54 -21 -102 -21zM484.002 776l-117 66l-118 -66l-53 70l157 103h27l158 -103z" />
    <glyph glyph-name="scircumflex" unicode="&#x15d;" horiz-adv-x="622" 
d="M441 0l-362.998 -0.000976562v115h325c20 0 32 1.33301 36 4s6 11.334 6 26.001v40c0 14 -2.83301 22.5 -8.5 25.5s-20.167 4.5 -43.5 4.5h-211c-52 0 -87 6.83301 -105 20.5s-27 42.167 -27 85.5v123c0 42.667 10 71 30 85s54 21 102 21h361v-115h-324
c-18.667 0 -30.334 -1.5 -35.001 -4.5s-7 -11.5 -7 -25.5v-45c0 -12 2.66699 -20 8 -24s16.666 -6 33.999 -6h222c52 0 87 -6.83301 105 -20.5s27 -42.167 27 -85.5v-118c0 -42.667 -10 -71 -30 -85s-54 -21 -102 -21zM429.002 603.999l-117 66l-118 -66l-53 70l157 103h26
l158 -103z" />
    <glyph glyph-name="Scedilla" unicode="&#x15e;" horiz-adv-x="734" 
d="M405 -203h-47.998c-32 0 -54.833 4.66699 -68.5 14s-20.5 28.333 -20.5 57v27h60v-4c0 -11.333 2.66699 -19.833 8 -25.5s16.666 -8.5 33.999 -8.5h33c16.667 0 27.667 2.83301 33 8.5s8 14.167 8 25.5c0 9.33301 -2.83301 16.333 -8.5 21s-16.5 7 -32.5 7h-63v81h-139
c-48 0 -82 7 -102 21s-30 42.333 -30 85v109h127v-70c0 -14 3 -22.5 9 -25.5s20.333 -4.5 43 -4.5h248c18 0 29.5 1.5 34.5 4.5s7.5 11.5 7.5 25.5v128c0 14 -3 22.5 -9 25.5s-20 4.5 -42 4.5h-287c-51.333 0 -86.166 6.83301 -104.499 20.5s-27.5 42.167 -27.5 85.5v207
c0 42.667 10 71 30 85s54 21 102 21h332c48 0 82 -7 102 -21s30 -42.333 30 -85v-109h-128v70c0 14 -2.83301 22.5 -8.5 25.5s-19.5 4.5 -41.5 4.5h-249c-18.667 0 -30.334 -1.5 -35.001 -4.5s-7 -11.5 -7 -25.5v-129c0 -14 3 -22.5 9 -25.5s19.667 -4.5 41 -4.5h289
c51.333 0 86.166 -6.83301 104.499 -20.5s27.5 -42.167 27.5 -85.5v-206c0 -42.667 -10 -71 -30 -85s-54 -21 -102 -21h-134v-21h15c34.667 0 58.167 -6.33301 70.5 -19s18.5 -36.667 18.5 -72c0 -33.333 -8.5 -56.833 -25.5 -70.5s-41.5 -20.5 -73.5 -20.5z" />
    <glyph glyph-name="scedilla" unicode="&#x15f;" horiz-adv-x="622" 
d="M330 -203h-47c-32 0 -54.833 4.66699 -68.5 14s-20.5 28.333 -20.5 57v27h60v-4c0 -11.333 2.66699 -19.833 8 -25.5s16.666 -8.5 33.999 -8.5h32c27.333 0 41 9.33301 41 28c0 12 -2.5 20.667 -7.5 26s-16.167 8 -33.5 8h-63v81h-187v115h325
c18.667 0 30.334 1.5 35.001 4.5s7 11.5 7 25.5v40c0 14 -2.83301 22.5 -8.5 25.5s-19.167 4.5 -40.5 4.5h-214c-51.333 0 -86.166 6.83301 -104.499 20.5s-27.5 42.167 -27.5 85.5v123c0 42.667 10 71 30 85s54 21 102 21h361v-115h-324
c-18.667 0 -30.334 -1.5 -35.001 -4.5s-7 -11.5 -7 -25.5v-45c0 -12 2.5 -20 7.5 -24s15.167 -6 30.5 -6h226c53.333 0 88.666 -6.66699 105.999 -20s26 -42 26 -86v-118c0 -42.667 -9.66699 -71 -29 -85s-53.666 -21 -102.999 -21h-115v-21h14
c34.667 0 58.167 -6.33301 70.5 -19s18.5 -36.667 18.5 -72c0 -33.333 -8.5 -56.833 -25.5 -70.5s-41.5 -20.5 -73.5 -20.5z" />
    <glyph glyph-name="Scaron" unicode="&#x160;" horiz-adv-x="734" 
d="M534 0h-332.998c-48 0 -82 7 -102 21s-30 42.333 -30 85v109h127v-70c0 -14 3.16699 -22.5 9.5 -25.5s21.166 -4.5 44.499 -4.5h246c18 0 29.5 1.5 34.5 4.5s7.5 11.5 7.5 25.5v128c0 14 -3 22.5 -9 25.5s-21 4.5 -45 4.5h-284c-52 0 -87 6.83301 -105 20.5
s-27 42.167 -27 85.5v207c0 42.667 10 71 30 85s54 21 102 21h332c48 0 82 -7 102 -21s30 -42.333 30 -85v-109h-128v70c0 14 -3 22.5 -9 25.5s-20.667 4.5 -44 4.5h-246c-18.667 0 -30.334 -1.5 -35.001 -4.5s-7 -11.5 -7 -25.5v-129c0 -14 3 -22.5 9 -25.5
s20.667 -4.5 44 -4.5h286c52 0 87 -6.83301 105 -20.5s27 -42.167 27 -85.5v-206c0 -42.667 -10 -71 -30 -85s-54 -21 -102 -21zM538.002 879l-158 -103h-27l-157 103l53 70l118 -66l117 66z" />
    <glyph glyph-name="scaron" unicode="&#x161;" horiz-adv-x="622" 
d="M441 0l-362.998 -0.000976562v115h325c20 0 32 1.33301 36 4s6 11.334 6 26.001v40c0 14 -2.83301 22.5 -8.5 25.5s-20.167 4.5 -43.5 4.5h-211c-52 0 -87 6.83301 -105 20.5s-27 42.167 -27 85.5v123c0 42.667 10 71 30 85s54 21 102 21h361v-115h-324
c-18.667 0 -30.334 -1.5 -35.001 -4.5s-7 -11.5 -7 -25.5v-45c0 -12 2.66699 -20 8 -24s16.666 -6 33.999 -6h222c52 0 87 -6.83301 105 -20.5s27 -42.167 27 -85.5v-118c0 -42.667 -10 -71 -30 -85s-54 -21 -102 -21zM482.002 706.999l-158 -103h-26l-157 103l53 70
l118 -66l117 66z" />
    <glyph glyph-name="Tcommaaccent" unicode="&#x162;" horiz-adv-x="620" 
d="M374 0h-128v607h-233v115h593v-115h-232v-607zM355 -271h-92l-17 221h127z" />
    <glyph glyph-name="tcommaaccent" unicode="&#x163;" horiz-adv-x="417" 
d="M393 0h-129.001c-48 0 -82 7 -102 21s-30 42.333 -30 85v329h-109v115h109v206h128v-206h133v-115h-133v-290c0 -14 2.33301 -22.5 7 -25.5s16.334 -4.5 35.001 -4.5h91v-115zM294.999 -271h-93l-16 221h126z" />
    <glyph glyph-name="Tcaron" unicode="&#x164;" horiz-adv-x="620" 
d="M374 0h-128v607h-233v115h593v-115h-232v-607zM480 879l-158 -103h-26l-157 103l54 70l116 -66l118 66z" />
    <glyph glyph-name="tcaron" unicode="&#x165;" horiz-adv-x="416" 
d="M393 0h-129.001c-48 0 -82 7 -102 21s-30 42.333 -30 85v329h-109v115h109v206h128v-206h133v-115h-133v-290c0 -14 2.33301 -22.5 7 -25.5s16.334 -4.5 35.001 -4.5h91v-115zM419.999 624h-86l69 231h139z" />
    <glyph glyph-name="Tbar" unicode="&#x166;" horiz-adv-x="637" 
d="M382 0h-127v382h-175v120h175v105h-233v115h593v-115h-233v-105h175v-120h-175v-382z" />
    <glyph glyph-name="tbar" unicode="&#x167;" horiz-adv-x="421" 
d="M396 0h-129.001c-48 0 -82 7 -102 21s-30 42.333 -30 85v154h-98v90h98v85h-109v115h109v206h127v-206h134v-115h-134v-85h110v-90h-110v-115c0 -14 2.33301 -22.5 7 -25.5s16.334 -4.5 35.001 -4.5h92v-115z" />
    <glyph glyph-name="Utilde" unicode="&#x168;" horiz-adv-x="791" 
d="M580 0h-369.999c-48 0 -82 7 -102 21s-30 42.333 -30 85v616h128v-577c0 -14 3.66699 -22.5 11 -25.5s24 -4.5 50 -4.5h276c19.333 0 31.166 1.5 35.499 4.5s6.5 11.167 6.5 24.5v578h127v-616c0 -42.667 -10 -71 -30 -85s-54 -21 -102 -21zM526.001 912l63.999 -52
c-13.333 -33.333 -31.5 -57 -54.5 -71s-45.5 -21 -67.5 -21c-17.333 0 -41.666 7.83301 -72.999 23.5s-54.333 23.5 -69 23.5c-20 0 -37.667 -13.333 -53 -40l-75 36c16.667 34.667 37.667 60.667 63 78s49 26 71 26s46.5 -8 73.5 -24s48.167 -24 63.5 -24
c13.333 0 32.333 15 57 45z" />
    <glyph glyph-name="utilde" unicode="&#x169;" horiz-adv-x="691" 
d="M491 0h-291.999c-48 0 -82 7 -102 21s-30 42.333 -30 85v444h128v-405c0 -14 3.16699 -22.5 9.5 -25.5s22.166 -4.5 47.499 -4.5h202c18 0 29.5 1.5 34.5 4.5s7.5 11.5 7.5 25.5v405h127v-444c0 -42.667 -10 -71 -30 -85s-54 -21 -102 -21zM477.001 740l64 -52
c-13.333 -33.333 -31.5 -57 -54.5 -71s-45.5 -21 -67.5 -21c-17.333 0 -41.666 7.83301 -72.999 23.5s-54.333 23.5 -69 23.5c-20 0 -37.667 -13.333 -53 -40l-76 36c17.333 34.667 38.666 60.667 63.999 78s49 26 71 26s46.5 -8 73.5 -24s48.167 -24 63.5 -24
c13.333 0 32.333 15 57 45z" />
    <glyph glyph-name="Umacron" unicode="&#x16a;" horiz-adv-x="791" 
d="M580 0h-370c-48 0 -82 7 -102 21s-30 42.333 -30 85v616h128v-577c0 -14 2.33301 -22.5 7 -25.5s16.334 -4.5 35.001 -4.5h295c19.333 0 31.166 1.5 35.499 4.5s6.5 11.167 6.5 24.5v578h127v-616c0 -42.667 -10 -71 -30 -85s-54 -21 -102 -21zM576 782h-363v110h363
v-110z" />
    <glyph glyph-name="umacron" unicode="&#x16b;" horiz-adv-x="691" 
d="M491 0h-292.001c-48 0 -82 7 -102 21s-30 42.333 -30 85v444h128v-405c0 -14 2.33301 -22.5 7 -25.5s16.334 -4.5 35.001 -4.5h217c18 0 29.5 1.5 34.5 4.5s7.5 11.5 7.5 25.5v405h127v-444c0 -42.667 -10 -71 -30 -85s-54 -21 -102 -21zM525.999 610h-363v110h363v-110z
" />
    <glyph glyph-name="Ubreve" unicode="&#x16c;" horiz-adv-x="791" 
d="M580 0h-370c-48 0 -82 7 -102 21s-30 42.333 -30 85v616h128v-577c0 -14 2.33301 -22.5 7 -25.5s16.334 -4.5 35.001 -4.5h295c19.333 0 31.166 1.5 35.499 4.5s6.5 11.167 6.5 24.5v578h127v-616c0 -42.667 -10 -71 -30 -85s-54 -21 -102 -21zM480 904h104
c-7.33301 -37.333 -26.833 -70.333 -58.5 -99s-75.167 -43 -130.5 -43c-53.333 0 -96.166 14 -128.499 42s-52.833 61.333 -61.5 100h105c10.667 -36 39 -54 85 -54c43.333 0 71.666 18 84.999 54z" />
    <glyph glyph-name="ubreve" unicode="&#x16d;" horiz-adv-x="691" 
d="M491 0h-292.001c-48 0 -82 7 -102 21s-30 42.333 -30 85v444h128v-405c0 -14 2.33301 -22.5 7 -25.5s16.334 -4.5 35.001 -4.5h217c18 0 29.5 1.5 34.5 4.5s7.5 11.5 7.5 25.5v405h127v-444c0 -42.667 -10 -71 -30 -85s-54 -21 -102 -21zM430.999 732h103.999
c-7.33301 -37.333 -26.833 -70.333 -58.5 -99s-75.5 -43 -131.5 -43c-53.333 0 -96.166 14 -128.499 42s-52.5 61.333 -60.5 100h104c12 -36 40.333 -54 85 -54c44 0 72.667 18 86 54z" />
    <glyph glyph-name="Uring" unicode="&#x16e;" horiz-adv-x="791" 
d="M580 0h-370c-48 0 -82 7 -102 21s-30 42.333 -30 85v616h128v-577c0 -14 2.33301 -22.5 7 -25.5s16.334 -4.5 35.001 -4.5h295c19.333 0 31.166 1.5 35.499 4.5s6.5 11.167 6.5 24.5v578h127v-616c0 -42.667 -10 -71 -30 -85s-54 -21 -102 -21zM395 752
c-30.667 0 -55.333 7.83301 -74 23.5s-28 36.834 -28 63.501c0 26 9.5 46.833 28.5 62.5s43.833 23.5 74.5 23.5c29.333 0 53.333 -8 72 -24s28 -36.667 28 -62c0 -26.667 -9.33301 -47.834 -28 -63.501s-43 -23.5 -73 -23.5zM395.001 815c21.333 0 32 8 32 24
c0 6.66699 -3 12.167 -9 16.5s-13.667 6.5 -23 6.5c-10 0 -18.167 -2.16699 -24.5 -6.5s-9.5 -9.83301 -9.5 -16.5c0 -16 11.333 -24 34 -24z" />
    <glyph glyph-name="uring" unicode="&#x16f;" horiz-adv-x="691" 
d="M491 0h-292.001c-48 0 -82 7 -102 21s-30 42.333 -30 85v444h128v-405c0 -14 2.33301 -22.5 7 -25.5s16.334 -4.5 35.001 -4.5h217c18 0 29.5 1.5 34.5 4.5s7.5 11.5 7.5 25.5v405h127v-444c0 -42.667 -10 -71 -30 -85s-54 -21 -102 -21zM344.999 580
c-30 0 -54.332 7.83301 -72.999 23.5s-28 36.834 -28 63.501c0 26 9.5 46.833 28.5 62.5s43.833 23.5 74.5 23.5c29.333 0 53.333 -8 72 -24s28 -36.667 28 -62c0 -26.667 -9.33301 -47.834 -28 -63.501s-43.334 -23.5 -74.001 -23.5zM345 643c22 0 32.999 8 32.999 24
c0 6.66699 -3 12.167 -9 16.5s-14 6.5 -24 6.5c-9.33301 0 -17.166 -2.16699 -23.499 -6.5s-9.5 -9.83301 -9.5 -16.5c0 -16 11 -24 33 -24z" />
    <glyph glyph-name="Uhungarumlaut" unicode="&#x170;" horiz-adv-x="791" 
d="M580 0h-370c-48 0 -82 7 -102 21s-30 42.333 -30 85v616h128v-577c0 -14 2.33301 -22.5 7 -25.5s16.334 -4.5 35.001 -4.5h295c19.333 0 31.166 1.5 35.499 4.5s6.5 11.167 6.5 24.5v578h127v-616c0 -42.667 -10 -71 -30 -85s-54 -21 -102 -21zM685 907l-181 -143l-69 59
l159 160zM467 907l-181 -143l-68 59l158 160z" />
    <glyph glyph-name="uhungarumlaut" unicode="&#x171;" horiz-adv-x="691" 
d="M491 0h-292.001c-48 0 -82 7 -102 21s-30 42.333 -30 85v444h128v-405c0 -14 2.33301 -22.5 7 -25.5s16.334 -4.5 35.001 -4.5h217c18 0 29.5 1.5 34.5 4.5s7.5 11.5 7.5 25.5v405h127v-444c0 -42.667 -10 -71 -30 -85s-54 -21 -102 -21zM632.999 735l-181 -143l-69 59
l159 160zM414.999 735l-181 -143l-68 59l158 160z" />
    <glyph glyph-name="Uogonek" unicode="&#x172;" horiz-adv-x="791" 
d="M516 -100l0.000976562 -73.999c-16 -12 -40 -18 -72 -18c-37.333 0 -66.833 8.5 -88.5 25.5s-32.5 37.5 -32.5 61.5c0 17.333 7.16699 36 21.5 56s33.5 36.333 57.5 49h-192c-48 0 -82 7 -102 21s-30 42.333 -30 85v616h128v-577c0 -14 2.33301 -22.5 7 -25.5
s16.334 -4.5 35.001 -4.5h295c19.333 0 31.166 1.5 35.499 4.5s6.5 11.167 6.5 24.5v578h127v-616c0 -42.667 -10 -71 -30 -85s-54 -21 -102 -21h-84c-22.667 -10.667 -41.834 -24.834 -57.501 -42.501s-23.5 -33.167 -23.5 -46.5c0 -18.667 16 -28 48 -28
c17.333 0 35 5.66699 53 17z" />
    <glyph glyph-name="uogonek" unicode="&#x173;" horiz-adv-x="691" 
d="M455 -100l-0.00195312 -74c-16 -12 -39.667 -18 -71 -18c-38 0 -67.833 8.5 -89.5 25.5s-32.5 37.5 -32.5 61.5c0 18 7.33301 36.833 22 56.5s34 35.834 58 48.501h-143c-48 0 -82 7 -102 21s-30 42.333 -30 85v444h128v-405c0 -14 2.33301 -22.5 7 -25.5
s16.334 -4.5 35.001 -4.5h217c18 0 29.5 1.5 34.5 4.5s7.5 11.5 7.5 25.5v405h127v-444c0 -42.667 -10 -71 -30 -85s-54 -21 -102 -21h-54c-23.333 -10.667 -43 -24.834 -59 -42.501s-24 -33.167 -24 -46.5c0 -18.667 16 -28 48 -28c18.667 0 36.334 5.66699 53.001 17z" />
    <glyph glyph-name="Wcircumflex" unicode="&#x174;" horiz-adv-x="1120" 
d="M874 0h-171l-144 542l-142 -542h-171l-223 722h137l171 -563l143 563h172l143 -563l171 563h137zM677 776l-118 66l-117 -66l-53 70l158 103h25l158 -103z" />
    <glyph glyph-name="wcircumflex" unicode="&#x175;" horiz-adv-x="904" 
d="M718 0h-167l-100 407l-98 -407h-164l-175 550h135l121 -415l102 415h160l102 -415l122 415h133zM569 604l-118 66l-117 -66l-53 70l157 103h26l158 -103z" />
    <glyph glyph-name="Ycircumflex" unicode="&#x176;" horiz-adv-x="735" 
d="M434 0h-128v299h-124c-48 0 -82 7 -102 21s-30 42.333 -30 85v317h128v-278c0 -14 2.33301 -22.5 7 -25.5s16.334 -4.5 35.001 -4.5h295c19.333 0 31.166 1.5 35.499 4.5s6.5 11.167 6.5 24.5v279h127v-317c0 -42.667 -10 -71 -30 -85s-54 -21 -102 -21h-118v-299z
M484 776l-117 66l-118 -66l-53 70l157 103h27l158 -103z" />
    <glyph glyph-name="ycircumflex" unicode="&#x177;" horiz-adv-x="585" 
d="M402 604l-116 66l-118 -66l-53 70l157 103h25l159 -103zM286 -200h-117l73 209l-243 541h135l167 -383l142 383h129z" />
    <glyph glyph-name="Ydieresis" unicode="&#x178;" horiz-adv-x="735" 
d="M434 0h-128v299h-124c-48 0 -82 7 -102 21s-30 42.333 -30 85v317h128v-278c0 -14 2.33301 -22.5 7 -25.5s16.334 -4.5 35.001 -4.5h295c19.333 0 31.166 1.5 35.499 4.5s6.5 11.167 6.5 24.5v279h127v-317c0 -42.667 -10 -71 -30 -85s-54 -21 -102 -21h-118v-299z
M331 772h-126v121h126v-121zM529 772h-126v121h126v-121z" />
    <glyph glyph-name="Zacute" unicode="&#x179;" horiz-adv-x="664" 
d="M620 0h-575v122l429 485h-429v115h576v-122l-425 -485h424v-115zM510 883l-211 -107l-53 70l192 129z" />
    <glyph glyph-name="zacute" unicode="&#x17a;" horiz-adv-x="596" 
d="M550 0h-504v123l339 312h-339v115h504v-123l-339 -312h339v-115zM477 711l-212 -107l-52 70l192 129z" />
    <glyph glyph-name="Zdotaccent" unicode="&#x17b;" horiz-adv-x="664" 
d="M620 0h-575v122l429 485h-429v115h576v-122l-425 -485h424v-115zM396 772h-127v120h127v-120z" />
    <glyph glyph-name="zdotaccent" unicode="&#x17c;" horiz-adv-x="596" 
d="M550 0h-504v123l339 312h-339v115h504v-123l-339 -312h339v-115zM361 600h-126v120h126v-120z" />
    <glyph glyph-name="Zcaron" unicode="&#x17d;" horiz-adv-x="664" 
d="M620 0h-575v122l429 485h-429v115h576v-122l-425 -485h424v-115zM504 879l-159 -103h-26l-157 103l54 70l117 -56l117 56z" />
    <glyph glyph-name="zcaron" unicode="&#x17e;" horiz-adv-x="596" 
d="M550 0h-504v123l339 312h-339v115h504v-123l-339 -312h339v-115zM469 707l-158 -103h-27l-157 103l54 70l117 -66l117 66z" />
    <glyph glyph-name="florin" unicode="&#x192;" horiz-adv-x="382" 
d="M103 -200h-114v115h77c18.667 0 30.334 1.5 35.001 4.5s7 11.5 7 25.5v425h-76v115h76v209c0 42.667 10 71 30 85s54 21 102 21h114v-115h-77c-18.667 0 -30.334 -1.5 -35.001 -4.5s-7 -11.5 -7 -25.5v-170h119v-115h-119v-464c0 -42.667 -10 -71 -30 -85
s-54 -21 -102 -21z" />
    <glyph glyph-name="AEacute" unicode="&#x1fc;" horiz-adv-x="1132" 
d="M1089 0h-540v304h-343v-304h-128v616c0 42.667 10 71 30 85s54 21 102 21h879v-115h-413v-188h335v-115h-335v-189h413v-115zM549 419l0.000976562 188h-301c-18.667 0 -30.334 -1.5 -35.001 -4.5s-7 -11.5 -7 -25.5v-158h343zM837.001 883l-211 -107l-52 70l191 129z
" />
    <glyph glyph-name="aeacute" unicode="&#x1fd;" horiz-adv-x="1089" 
d="M1012 0h-397.001c-33.333 0 -56.333 4.66699 -69 14c-12.667 -9.33301 -35 -14 -67 -14h-292c-48 0 -82 7 -102 21s-30 42.333 -30 85v132c0 42.667 10 71 30 85s54 21 102 21h296v61c0 14 -2.5 22.5 -7.5 25.5s-16.5 4.5 -34.5 4.5h-373v115h411c30.667 0 53 -5 67 -15
c14 10 37 15 69 15h291c48 0 82 -7 102 -21s30 -42.333 30 -85v-125c0 -42.667 -10 -71 -30 -85s-54 -21 -102 -21h-295v-68c0 -14 2.33301 -22.5 7 -25.5s16.334 -4.5 35.001 -4.5h359v-115zM482.999 145v84h-259c-18.667 0 -30.334 -1.5 -35.001 -4.5s-7 -11.5 -7 -25.5
v-54c0 -14 2.33301 -22.5 7 -25.5s16.334 -4.5 35.001 -4.5h217c18 0 29.5 1.5 34.5 4.5s7.5 11.5 7.5 25.5zM910.999 358l0.000976562 47c0 14 -2.33301 22.5 -7 25.5s-16.334 4.5 -35.001 4.5h-216c-18.667 0 -30.334 -1.5 -35.001 -4.5s-7 -11.5 -7 -25.5v-77h258
c18.667 0 30.334 1.5 35.001 4.5s7 11.5 7 25.5zM746 711l-212 -107l-52 70l192 129z" />
    <glyph glyph-name="Oslashacute" unicode="&#x1fe;" horiz-adv-x="788" 
d="M543 883l-210 -107l-53 70l192 129zM579 0h-229l-19 -72h-105l19 72h-36c-48 0 -82 7 -102 21s-30 42.333 -30 85v510c0 42.667 10 71 30 85s54 21 102 21h227l19 73h105l-20 -73h39c48 0 82 -7 102 -21s30 -42.333 30 -85v-510c0 -42.667 -10 -71 -30 -85
s-54 -21 -102 -21zM584 144l0.000976562 433c0 14 -2.5 22.5 -7.5 25.5s-16.5 4.5 -34.5 4.5h-32l-130 -492h162c19.333 0 31.166 1.5 35.499 4.5s6.5 11.167 6.5 24.5zM205.001 145c0 -14 2.33301 -22.5 7 -25.5s16.334 -4.5 35.001 -4.5h28l130 492h-158
c-18.667 0 -30.334 -1.5 -35.001 -4.5s-7 -11.5 -7 -25.5v-432z" />
    <glyph glyph-name="oslashacute" unicode="&#x1ff;" horiz-adv-x="689" 
d="M487 711l-211 -107l-53 70l192 129zM490 0h-159l-17 -72h-105l17 72h-28c-48 0 -82 7 -102 21s-30 42.333 -30 85v338c0 42.667 10 71 30 85s54 21 102 21h158l17 71h105l-17 -71h29c48 0 82 -7 102 -21s30 -42.333 30 -85v-338c0 -42.667 -10 -71 -30 -85
s-54 -21 -102 -21zM495 145v260c0 14 -2.5 22.5 -7.5 25.5s-16.5 4.5 -34.5 4.5h-19l-76 -320h95c18 0 29.5 1.5 34.5 4.5s7.5 11.5 7.5 25.5zM194 145c0 -14 2.33301 -22.5 7 -25.5s16.334 -4.5 35.001 -4.5h17l76 320h-93c-18.667 0 -30.334 -1.5 -35.001 -4.5
s-7 -11.5 -7 -25.5v-260z" />
    <glyph glyph-name="Scommaaccent" unicode="&#x218;" horiz-adv-x="734" 
d="M534 0h-333.001c-48 0 -82 7 -102 21s-30 42.333 -30 85v109h127v-70c0 -14 2.33301 -22.5 7 -25.5s16.334 -4.5 35.001 -4.5h258c18 0 29.5 1.5 34.5 4.5s7.5 11.5 7.5 25.5v128c0 14 -2.5 22.5 -7.5 25.5s-16.5 4.5 -34.5 4.5h-296c-48 0 -82 7 -102 21
s-30 42.333 -30 85v207c0 42.667 10 71 30 85s54 21 102 21h332c48 0 82 -7 102 -21s30 -42.333 30 -85v-109h-128v70c0 14 -2.33301 22.5 -7 25.5s-16 4.5 -34 4.5h-258c-18.667 0 -30.334 -1.5 -35.001 -4.5s-7 -11.5 -7 -25.5v-129c0 -14 2.33301 -22.5 7 -25.5
s16.334 -4.5 35.001 -4.5h297c48 0 82 -7 102 -21s30 -42.333 30 -85v-206c0 -42.667 -10 -71 -30 -85s-54 -21 -102 -21zM422.999 -271h-93l-16 221h125z" />
    <glyph glyph-name="scommaaccent" unicode="&#x219;" horiz-adv-x="622" 
d="M441 0h-362.999v115h325c18.667 0 30.334 1.5 35.001 4.5s7 11.5 7 25.5v40c0 14 -2.33301 22.5 -7 25.5s-16.334 4.5 -35.001 4.5h-221c-48 0 -82 7 -102 21s-30 42.333 -30 85v123c0 42.667 10 71 30 85s54 21 102 21h361v-115h-324
c-18.667 0 -30.334 -1.5 -35.001 -4.5s-7 -11.5 -7 -25.5v-45c0 -12 2 -20 6 -24s12 -6 24 -6h234c48 0 82 -7 102 -21s30 -42.333 30 -85v-118c0 -42.667 -10 -71 -30 -85s-54 -21 -102 -21zM358.001 -271h-94l-16 221h126z" />
    <glyph glyph-name="dotlessj" unicode="&#x237;" horiz-adv-x="323" 
d="M123 -200h-192.001v115h154c18.667 0 30.334 1.5 35.001 4.5s7 11.5 7 25.5v490h-115v115h243v-644c0 -42.667 -10 -71 -30 -85s-54 -21 -102 -21z" />
    <glyph glyph-name="circumflex" unicode="&#x2c6;" horiz-adv-x="432" 
d="M334 604l-117 66l-118 -66l-53 70l158 103h25l158 -103z" />
    <glyph glyph-name="caron" unicode="&#x2c7;" horiz-adv-x="432" 
d="M387 707l-158 -103h-25l-158 103l53 70l118 -66l117 66z" />
    <glyph glyph-name="breve" unicode="&#x2d8;" horiz-adv-x="601" 
d="M386 732h102.999c-7.33301 -37.333 -26.833 -70.333 -58.5 -99s-75.167 -43 -130.5 -43c-53.333 0 -96.166 14 -128.499 42s-52.5 61.333 -60.5 100h104c12 -36 40.333 -54 85 -54c44 0 72.667 18 86 54z" />
    <glyph glyph-name="dotaccent" unicode="&#x2d9;" horiz-adv-x="601" 
d="M364 600h-127v120h127v-120z" />
    <glyph glyph-name="ring" unicode="&#x2da;" horiz-adv-x="600" 
d="M300 580c-31.333 0 -56.332 7.83203 -74.999 23.499s-28 36.834 -28 63.501c0 26 9.5 46.833 28.5 62.5s44.167 23.5 75.5 23.5c29.333 0 53.166 -8 71.499 -24s27.5 -36.667 27.5 -62c0 -26 -9.16699 -47 -27.5 -63s-42.5 -24 -72.5 -24zM300.001 642.999
c21.333 0 32 8 32 24c0 6.66699 -3 12.167 -9 16.5s-13.667 6.5 -23 6.5c-22.667 0 -34 -7.66699 -34 -23c0 -16 11.333 -24 34 -24z" />
    <glyph glyph-name="ogonek" unicode="&#x2db;" horiz-adv-x="600" 
d="M480 -100v-74c-18.667 -12 -44.667 -18 -78 -18c-36 0 -64.167 8.5 -84.5 25.5s-30.5 37.5 -30.5 61.5c0 20.667 9.16699 42.167 27.5 64.5s41.833 39.166 70.5 50.499h98c-28.667 -7.33301 -53.167 -21.666 -73.5 -42.999s-30.5 -40 -30.5 -56c2 -18.667 18 -28 48 -28
c18 0 35.667 5.66699 53 17z" />
    <glyph glyph-name="tilde" unicode="&#x2dc;" horiz-adv-x="599" 
d="M427 740l64 -52c-13.333 -33.333 -31.5 -57 -54.5 -71s-45.5 -21 -67.5 -21c-16.667 0 -40.667 7.83301 -72 23.5s-54.666 23.5 -69.999 23.5c-20 0 -37.667 -13.333 -53 -40l-75 36c17.333 34.667 38.666 60.667 63.999 78s49 26 71 26s46.333 -8 73 -24
s47.667 -24 63 -24c14.667 0 33.667 15 57 45z" />
    <glyph glyph-name="hungarumlaut" unicode="&#x2dd;" horiz-adv-x="599" 
d="M405 735l-181 -143l-68 59l159 160zM622 735l-181 -143l-68 59l158 160z" />
    <glyph glyph-name="tonos" unicode="&#x384;" horiz-adv-x="589" 
d="M323 586h-114l115 186h129z" />
    <glyph glyph-name="dieresistonos" unicode="&#x385;" horiz-adv-x="744" 
d="M372 585h-85l93 200h130zM625 610h-126v121h126v-121zM273 610h-126v121h126v-121z" />
    <glyph glyph-name="Alphatonos" unicode="&#x386;" horiz-adv-x="745" 
d="M129 566h-114l115 186h128zM722 0h-136l-43 142h-281l-43 -142h-137l235 722h170zM506 259l-104 340l-104 -340h208z" />
    <glyph glyph-name="Epsilontonos" unicode="&#x388;" horiz-adv-x="856" 
d="M813 0h-540v722h540v-115h-412v-188h334v-115h-334v-189h412v-115zM112 566h-114l115 186h129z" />
    <glyph glyph-name="Etatonos" unicode="&#x389;" horiz-adv-x="985" 
d="M905 0h-127v304h-378v-304h-127v722h127v-303h378v303h127v-722zM113 566h-115l115 186h129z" />
    <glyph glyph-name="Iotatonos" unicode="&#x38a;" horiz-adv-x="704" 
d="M662 0h-400v115h136v492h-136v115h400v-115h-137v-492h137v-115zM113 566h-114l115 186h129z" />
    <glyph glyph-name="Omicrontonos" unicode="&#x38c;" horiz-adv-x="979" 
d="M770 0h-369c-48 0 -82 7 -102 21s-30 42.333 -30 85v510c0 42.667 10 71 30 85s54 21 102 21h369c48 0 82 -7 102 -21s30 -42.333 30 -85v-510c0 -42.667 -10 -71 -30 -85s-54 -21 -102 -21zM774 144l0.00195312 433c0 14 -2.33301 22.5 -7 25.5s-16.334 4.5 -35.001 4.5
h-294c-18.667 0 -30.334 -1.5 -35.001 -4.5s-7 -11.5 -7 -25.5v-432c0 -14 2.33301 -22.5 7 -25.5s16.334 -4.5 35.001 -4.5h294c19.333 0 31.166 1.33301 35.499 4s6.5 11 6.5 25zM113.002 566h-115l115 186h129z" />
    <glyph glyph-name="Upsilontonos" unicode="&#x38e;" horiz-adv-x="983" 
d="M121 566h-114l115 186h129zM688 0h-127v321l-296 401h137l223 -302l221 302h138l-296 -401v-321z" />
    <glyph glyph-name="Omegatonos" unicode="&#x38f;" horiz-adv-x="1032" 
d="M112 566h-114l115 186h129zM960 0h-134c-40.667 0 -71.334 1.66699 -92.001 5s-37.167 11.333 -49.5 24s-19.833 28.167 -22.5 46.5s-4 46.166 -4 83.499c0 65.333 6.33301 107.166 19 125.499s44 27.5 94 27.5h5c28.667 0 46 1.33301 52 4s9 11.334 9 26.001v235
c0 14 -2.33301 22.5 -7 25.5s-16.334 4.5 -35.001 4.5h-372c-20 0 -32 -1.33301 -36 -4s-6 -11.334 -6 -26.001v-235c0 -14 3.16699 -22.5 9.5 -25.5s23.5 -4.5 51.5 -4.5h5c50 0 81.333 -9.33301 94 -28s19 -61 19 -127c0 -24.667 -0.5 -44.167 -1.5 -58.5
s-3.66699 -28.166 -8 -41.499s-10 -23.166 -17 -29.499s-17.167 -11.833 -30.5 -16.5s-28.666 -7.66699 -45.999 -9s-39.333 -2 -66 -2h-134v115h152c18.667 0 30.334 1.5 35.001 4.5s7 11.5 7 25.5v22c0 14 -2.33301 22.5 -7 25.5s-16.334 4.5 -35.001 4.5h-24
c-49.333 0 -83.666 7 -102.999 21s-29 42.333 -29 85v313c0 42.667 10 71 30 85s54 21 102 21h447c48 0 82 -7 102 -21s30 -42.333 30 -85v-313c0 -42.667 -10 -71 -30 -85s-54 -21 -102 -21h-24c-18.667 0 -30.334 -1.5 -35.001 -4.5s-7 -11.5 -7 -25.5v-22
c0 -14 2.33301 -22.5 7 -25.5s16.334 -4.5 35.001 -4.5h152v-115z" />
    <glyph glyph-name="iotadieresistonos" unicode="&#x390;" horiz-adv-x="304" 
d="M286 0h-56.998c-58.667 0 -100.334 7.16699 -125.001 21.5s-37 42.5 -37 84.5v444h128v-401c0 -14.667 2.66699 -24 8 -28s16.666 -6 33.999 -6h49v-115zM121.002 585h-85l93 200h130zM374.002 610h-126v121h126v-121zM22.002 610h-126v121h126v-121z" />
    <glyph glyph-name="Alpha" unicode="&#x391;" horiz-adv-x="686" 
d="M663 0h-136l-43 142h-281l-43 -142h-137l235 722h170zM447 259l-104 340l-104 -340h208z" />
    <glyph glyph-name="Beta" unicode="&#x392;" horiz-adv-x="742" 
d="M535 0h-456v722h455c48 0 82 -7 102 -21s30 -42.333 30 -85v-164c0 -50 -16 -81.667 -48 -95c32.667 -12.667 49 -44 49 -94v-157c0 -42.667 -10 -71 -30 -85s-54 -21 -102 -21zM539 144l0.00195312 129c0 14 -2.33301 22.5 -7 25.5s-16.334 4.5 -35.001 4.5h-290v-188
h290c19.333 0 31.166 1.5 35.499 4.5s6.5 11.167 6.5 24.5zM539.002 447l0.00195312 130c0 14 -2.33301 22.5 -7 25.5s-16.334 4.5 -35.001 4.5h-290v-189h290c19.333 0 31.166 1.5 35.499 4.5s6.5 11.167 6.5 24.5z" />
    <glyph glyph-name="Gamma" unicode="&#x393;" horiz-adv-x="607" 
d="M207 0h-128v722h516v-115h-388v-607z" />
    <glyph glyph-name="uni0394" unicode="&#x394;" horiz-adv-x="686" 
d="M663 0h-640l235 722h170zM491 120l-148 479l-147 -479h295z" />
    <glyph glyph-name="Epsilon" unicode="&#x395;" horiz-adv-x="662" 
d="M619 0h-540v722h540v-115h-412v-188h334v-115h-334v-189h412v-115z" />
    <glyph glyph-name="Zeta" unicode="&#x396;" horiz-adv-x="664" 
d="M620 0h-575v122l429 485h-429v115h576v-122l-425 -485h424v-115z" />
    <glyph glyph-name="Eta" unicode="&#x397;" horiz-adv-x="791" 
d="M711 0h-127v304h-377v-304h-128v722h128v-303h377v303h127v-722z" />
    <glyph glyph-name="Theta" unicode="&#x398;" horiz-adv-x="788" 
d="M505 301h-223v120h223v-120zM579 0h-370c-48 0 -82 7 -102 21s-30 42.333 -30 85v510c0 42.667 10 71 30 85s54 21 102 21h370c48 0 82 -7 102 -21s30 -42.333 30 -85v-510c0 -42.667 -10 -71 -30 -85s-54 -21 -102 -21zM584 144l0.000976562 433
c0 14 -2.5 22.5 -7.5 25.5s-16.5 4.5 -34.5 4.5h-295c-18.667 0 -30.334 -1.5 -35.001 -4.5s-7 -11.5 -7 -25.5v-432c0 -14 2.33301 -22.5 7 -25.5s16.334 -4.5 35.001 -4.5h295c19.333 0 31.166 1.5 35.499 4.5s6.5 11.167 6.5 24.5z" />
    <glyph glyph-name="Iota" unicode="&#x399;" horiz-adv-x="486" 
d="M443 0h-401v115h137v492h-137v115h401v-115h-136v-492h136v-115z" />
    <glyph glyph-name="Kappa" unicode="&#x39a;" horiz-adv-x="736" 
d="M735 0h-173l-355 313v-313h-128v722h128v-323l355 323h173l-416 -361z" />
    <glyph glyph-name="Lambda" unicode="&#x39b;" horiz-adv-x="686" 
d="M663 0h-136l-184 599l-183 -599h-137l235 722h170z" />
    <glyph glyph-name="Mu" unicode="&#x39c;" horiz-adv-x="944" 
d="M865 0h-128v568l-192 -568h-137l-201 570v-570h-128v722h206l192 -553l182 553h206v-722z" />
    <glyph glyph-name="Nu" unicode="&#x39d;" horiz-adv-x="764" 
d="M685 0h-157l-321 518v-518h-128v722h153l325 -524v524h128v-722z" />
    <glyph glyph-name="Xi" unicode="&#x39e;" horiz-adv-x="630" 
d="M585 607h-540v115h540v-115zM585 0h-540v115h540v-115zM517 304h-404v115h404v-115z" />
    <glyph glyph-name="Omicron" unicode="&#x39f;" horiz-adv-x="788" 
d="M579 0h-370c-48 0 -82 7 -102 21s-30 42.333 -30 85v510c0 42.667 10 71 30 85s54 21 102 21h370c48 0 82 -7 102 -21s30 -42.333 30 -85v-510c0 -42.667 -10 -71 -30 -85s-54 -21 -102 -21zM584 144l0.000976562 433c0 14 -2.5 22.5 -7.5 25.5s-16.5 4.5 -34.5 4.5h-295
c-18.667 0 -30.334 -1.5 -35.001 -4.5s-7 -11.5 -7 -25.5v-432c0 -14 2.33301 -22.5 7 -25.5s16.334 -4.5 35.001 -4.5h295c19.333 0 31.166 1.5 35.499 4.5s6.5 11.167 6.5 24.5z" />
    <glyph glyph-name="Pi" unicode="&#x3a0;" horiz-adv-x="791" 
d="M711 0h-127v607h-377v-607h-128v722h632v-722z" />
    <glyph glyph-name="Rho" unicode="&#x3a1;" horiz-adv-x="715" 
d="M207 0h-128v722h454c48 0 82 -7 102 -21s30 -42.333 30 -85v-233c0 -42.667 -10 -71 -30 -85s-54 -21 -102 -21h-326v-277zM538 421l0.000976562 156c0 14 -2.5 22.5 -7.5 25.5s-16.5 4.5 -34.5 4.5h-289v-215h289c19.333 0 31.166 1.5 35.499 4.5s6.5 11.167 6.5 24.5z
" />
    <glyph glyph-name="Sigma" unicode="&#x3a3;" horiz-adv-x="634" 
d="M592 0h-551v120l257 241l-257 241v120h551v-115h-403l259 -231v-31l-258 -230h402v-115z" />
    <glyph glyph-name="Tau" unicode="&#x3a4;" horiz-adv-x="619" 
d="M373 0h-127v607h-233v115h593v-115h-233v-607z" />
    <glyph glyph-name="Upsilon" unicode="&#x3a5;" horiz-adv-x="716" 
d="M421 0h-127v321l-296 401h137l223 -302l221 302h138l-296 -401v-321z" />
    <glyph glyph-name="Phi" unicode="&#x3a6;" horiz-adv-x="752" 
d="M442 0h-127v100h-124c-48 0 -82 7 -102 21s-30 42.333 -30 85v310c0 42.667 10 71 30 85s54 21 102 21h124v100h127v-100h119c48 0 82 -7 102 -21s30 -42.333 30 -85v-310c0 -42.667 -10 -71 -30 -85s-54 -21 -102 -21h-119v-100zM315 215v292h-86
c-18.667 0 -30.334 -1.5 -35.001 -4.5s-7 -11.5 -7 -25.5v-232c0 -14 2.33301 -22.5 7 -25.5s16.334 -4.5 35.001 -4.5h86zM566 245l-0.000976562 232c0 14 -3.16699 22.5 -9.5 25.5s-21.166 4.5 -44.499 4.5h-70v-292h82c18 0 29.5 1.5 34.5 4.5s7.5 11.5 7.5 25.5z" />
    <glyph glyph-name="Chi" unicode="&#x3a7;" horiz-adv-x="673" 
d="M661 0h-139l-185 268l-187 -268h-138l255 360l-256 362h138l188 -261l186 261h139l-257 -362z" />
    <glyph glyph-name="Psi" unicode="&#x3a8;" horiz-adv-x="782" 
d="M457 0h-127.002v251h-143c-48 0 -82 7 -102 21s-30 42.333 -30 85v365h127v-326c0 -14 2.33301 -22.5 7 -25.5s16.334 -4.5 35.001 -4.5h106v356h127v-356h100c18.667 0 30.334 1.5 35.001 4.5s7 11.5 7 25.5v326h128v-365c0 -42.667 -10 -71 -30 -85s-54 -21 -102 -21
h-138v-251z" />
    <glyph glyph-name="uni03A9" unicode="&#x3a9;" horiz-adv-x="847" 
d="M774 0h-134c-40.667 0 -71.334 1.66699 -92.001 5s-37.167 11.333 -49.5 24s-19.833 28.167 -22.5 46.5s-4 46.166 -4 83.499c0 65.333 6.33301 107.166 19 125.499s44 27.5 94 27.5h5c28.667 0 46 1.33301 52 4s9 11.334 9 26.001v235c0 14 -2.33301 22.5 -7 25.5
s-16.334 4.5 -35.001 4.5h-372c-20 0 -32 -1.33301 -36 -4s-6 -11.334 -6 -26.001v-235c0 -14 3.16699 -22.5 9.5 -25.5s23.5 -4.5 51.5 -4.5h5c50 0 81.333 -9.33301 94 -28s19 -61 19 -127c0 -24.667 -0.5 -44.167 -1.5 -58.5s-3.66699 -28.166 -8 -41.499
s-10 -23.166 -17 -29.499s-17.167 -11.833 -30.5 -16.5s-28.666 -7.66699 -45.999 -9s-39.333 -2 -66 -2h-134v115h152c18.667 0 30.334 1.5 35.001 4.5s7 11.5 7 25.5v22c0 14 -2.33301 22.5 -7 25.5s-16.334 4.5 -35.001 4.5h-24c-49.333 0 -83.666 7 -102.999 21
s-29 42.333 -29 85v313c0 42.667 10 71 30 85s54 21 102 21h447c48 0 82 -7 102 -21s30 -42.333 30 -85v-313c0 -42.667 -10 -71 -30 -85s-54 -21 -102 -21h-24c-18.667 0 -30.334 -1.5 -35.001 -4.5s-7 -11.5 -7 -25.5v-22c0 -14 2.33301 -22.5 7 -25.5
s16.334 -4.5 35.001 -4.5h152v-115z" />
    <glyph glyph-name="Iotadieresis" unicode="&#x3aa;" horiz-adv-x="486" 
d="M443 0h-401v115h137v492h-137v115h401v-115h-136v-492h136v-115zM207 772h-126v121h126v-121zM405 772h-126v121h126v-121z" />
    <glyph glyph-name="Upsilondieresis" unicode="&#x3ab;" horiz-adv-x="716" 
d="M321 772h-127v121h127v-121zM519 772h-127v121h127v-121zM421 0h-127v321l-296 401h137l223 -302l221 302h138l-296 -401v-321z" />
    <glyph glyph-name="alphatonos" unicode="&#x3ac;" horiz-adv-x="799" 
d="M784 0l-135 -0.000976562l-84 144l-25 -39l-21 -33.5c-9.33301 -15 -15.5 -24.5 -18.5 -28.5s-8.16699 -10.167 -15.5 -18.5s-14 -13.5 -20 -15.5s-14 -4 -24 -6s-21.667 -3 -35 -3h-208c-48 0 -82 7 -102 21s-30 42.333 -30 85v338c0 42.667 10 71 30 85s54 21 102 21
h208c10.667 0 20.167 -0.5 28.5 -1.5s15.333 -2 21 -3s11.5 -3.66699 17.5 -8s10.5 -7.5 13.5 -9.5s7.16699 -7.16699 12.5 -15.5l11 -17.5c2 -3.33301 6.33301 -11.166 13 -23.499l15 -27.5l27 -41l86 147h133l-154 -276zM436 164.999l65.001 107.998l-66 112
c-8 12.667 -13.667 21.334 -17 26.001s-10.333 9.83398 -21 15.501s-23.667 8.5 -39 8.5h-122c-18.667 0 -30.334 -1.5 -35.001 -4.5s-7 -11.5 -7 -25.5v-260c0 -14 2.33301 -22.5 7 -25.5s16.334 -4.5 35.001 -4.5h134c12 0 22.5 2.83301 31.5 8.5s15.167 11 18.5 16
s8.66602 13.5 15.999 25.5zM367.001 585.997h-115l115 186h129z" />
    <glyph glyph-name="epsilontonos" unicode="&#x3ad;" horiz-adv-x="626" 
d="M445 0l-249 -0.000976562c-48 0 -82 7 -102 21s-30 42.333 -30 85v84c0 39.333 9.33301 67 28 83c-19.333 14 -29 42 -29 84v87c0 42.667 10 71 30 85s54 21 102 21h248c48 0 82 -7 102 -21s30 -42.333 30 -85v-49h-127v10c0 14 -2.33301 22.5 -7 25.5s-16 4.5 -34 4.5
h-174c-18.667 0 -30.334 -1.5 -35.001 -4.5s-7 -11.5 -7 -25.5v-44c0 -14 2.33301 -22.5 7 -25.5s16 -4.5 34 -4.5h216v-115h-218c-16 0 -26.333 -1.66699 -31 -5s-7 -11.666 -7 -24.999v-41c0 -14 2.33301 -22.5 7 -25.5s16.334 -4.5 35.001 -4.5h174
c18 0 29.5 1.5 34.5 4.5s7.5 11.5 7.5 25.5v13h127v-52c0 -42.667 -10 -71 -30 -85s-54 -21 -102 -21zM357 585.999h-114l115 186h128z" />
    <glyph glyph-name="etatonos" unicode="&#x3ae;" horiz-adv-x="691" 
d="M623 -200h-126.999v605c0 14 -2.5 22.5 -7.5 25.5s-16.5 4.5 -34.5 4.5h-217c-18.667 0 -30.334 -1.5 -35.001 -4.5s-7 -11.5 -7 -25.5v-405h-128v444c0 42.667 10 71 30 85s54 21 102 21h292c48 0 82 -7 102 -21s30 -42.333 30 -85v-644zM377.001 586h-114l115 186h128z
" />
    <glyph glyph-name="iotatonos" unicode="&#x3af;" horiz-adv-x="303" 
d="M286 0h-86.999c-48 0 -82 7 -102 21s-30 42.333 -30 85v444h128v-401c0 -14.667 2.66699 -24 8 -28s16.666 -6 33.999 -6h49v-115zM188.001 586h-114l96 186h129z" />
    <glyph glyph-name="upsilondieresistonos" unicode="&#x3b0;" 
d="M491 0h-292.001c-48 0 -82 7 -102 21s-30 42.333 -30 85v444h128v-405c0 -14 3 -22.5 9 -25.5s21 -4.5 45 -4.5h205c18 0 29.5 1.5 34.5 4.5s7.5 11.5 7.5 25.5v255c0 14.667 -2.66699 24.167 -8 28.5s-16.666 6.5 -33.999 6.5h-24v115h61c48 0 82 -7 102 -21
s30 -42.333 30 -85v-338c0 -42.667 -10 -71 -30 -85s-54 -21 -102 -21zM316.999 585h-86l93 200h131zM567.999 610h-125v121h125v-121zM216.999 610h-127v121h127v-121z" />
    <glyph glyph-name="alpha" unicode="&#x3b1;" horiz-adv-x="799" 
d="M784 0l-135 -0.000976562l-84 144l-25 -39l-21 -33.5c-9.33301 -15 -15.5 -24.5 -18.5 -28.5s-8.16699 -10.167 -15.5 -18.5s-14 -13.5 -20 -15.5s-14 -4 -24 -6s-21.667 -3 -35 -3h-208c-48 0 -82 7 -102 21s-30 42.333 -30 85v338c0 42.667 10 71 30 85s54 21 102 21
h208c10.667 0 20.167 -0.5 28.5 -1.5s15.333 -2 21 -3s11.5 -3.66699 17.5 -8s10.5 -7.5 13.5 -9.5s7.16699 -7.16699 12.5 -15.5l11 -17.5c2 -3.33301 6.33301 -11.166 13 -23.499l15 -27.5l27 -41l86 147h133l-154 -276zM436 164.999l65.001 107.998l-66 112
c-8 12.667 -13.667 21.334 -17 26.001s-10.333 9.83398 -21 15.501s-23.667 8.5 -39 8.5h-122c-18.667 0 -30.334 -1.5 -35.001 -4.5s-7 -11.5 -7 -25.5v-260c0 -14 2.33301 -22.5 7 -25.5s16.334 -4.5 35.001 -4.5h134c12 0 22.5 2.83301 31.5 8.5s15.167 11 18.5 16
s8.66602 13.5 15.999 25.5z" />
    <glyph glyph-name="beta" unicode="&#x3b2;" horiz-adv-x="640" 
d="M451 0l-189.999 0.000976562v115h153c18.667 0 30.334 1.5 35.001 4.5s7 11.5 7 25.5v168c0 12.667 -2.5 21 -7.5 25s-16.167 6 -33.5 6h-145v120h97c17.333 0 28.5 2 33.5 6s7.5 12.333 7.5 25v160c0 14 -2.33301 22.5 -7 25.5s-16.334 4.5 -35.001 4.5h-128
c-18.667 0 -30.334 -1.5 -35.001 -4.5s-7 -11.5 -7 -25.5v-855h-128v894c0 42.667 10 71 30 85s54 21 102 21h203c48 0 82 -7 102 -21s30 -42.333 30 -85v-205c0 -20.667 -1.66699 -35.834 -5 -45.501s-11 -19.834 -23 -30.501c14.667 -2 27 -5.66699 37 -11
s17.5 -10.5 22.5 -15.5s8.83301 -12.167 11.5 -21.5s4.16699 -16.666 4.5 -21.999s0.5 -13.333 0.5 -24v-213c0 -42.667 -10 -71 -30 -85s-54 -21 -102 -21z" />
    <glyph glyph-name="gamma" unicode="&#x3b3;" horiz-adv-x="610" 
d="M370 -200h-128v200l-238 550h135l166 -415l168 415h133l-236 -550v-200z" />
    <glyph glyph-name="delta" unicode="&#x3b4;" horiz-adv-x="678" 
d="M490 0h-292c-48 0 -82 7 -102 21s-30 42.333 -30 85v338c0 42.667 10 71 30 85s54 21 102 21h58c-40 22 -82.667 44.333 -128 67h-27v105h485v-105h-284c213.333 -96.667 320 -216 320 -358v-153c0 -42.667 -10 -71 -30 -85s-54 -21 -102 -21zM495 145v95
c0 37.333 -6.83301 71.333 -20.5 102s-40.167 61.667 -79.5 93h-159c-18.667 0 -30.334 -1.5 -35.001 -4.5s-7 -11.5 -7 -25.5v-260c0 -14 2.33301 -22.5 7 -25.5s16.334 -4.5 35.001 -4.5h217c18 0 29.5 1.5 34.5 4.5s7.5 11.5 7.5 25.5z" />
    <glyph glyph-name="epsilon" unicode="&#x3b5;" horiz-adv-x="626" 
d="M445 0l-249 -0.000976562c-48 0 -82 7 -102 21s-30 42.333 -30 85v84c0 39.333 9.33301 67 28 83c-19.333 14 -29 42 -29 84v87c0 42.667 10 71 30 85s54 21 102 21h248c48 0 82 -7 102 -21s30 -42.333 30 -85v-49h-127v10c0 14 -2.33301 22.5 -7 25.5s-16 4.5 -34 4.5
h-174c-18.667 0 -30.334 -1.5 -35.001 -4.5s-7 -11.5 -7 -25.5v-44c0 -14 2.33301 -22.5 7 -25.5s16 -4.5 34 -4.5h216v-115h-218c-16 0 -26.333 -1.66699 -31 -5s-7 -11.666 -7 -24.999v-41c0 -14 2.33301 -22.5 7 -25.5s16.334 -4.5 35.001 -4.5h174
c18 0 29.5 1.5 34.5 4.5s7.5 11.5 7.5 25.5v13h127v-52c0 -42.667 -10 -71 -30 -85s-54 -21 -102 -21z" />
    <glyph glyph-name="zeta" unicode="&#x3b6;" horiz-adv-x="556" 
d="M414 -200h-74v115h46c18.667 0 30.334 1.5 35.001 4.5s7 11.5 7 25.5v25c0 14 -2.33301 22.5 -7 25.5s-16.334 4.5 -35.001 4.5h-212c-22.667 -0 -39.5 0.333008 -50.5 1s-23.667 2.83398 -38 6.50098s-24.5 9.16699 -30.5 16.5s-11.333 18 -16 32s-7 31.333 -7 52
c0 64 30.5 143 91.5 237s144.833 181.333 251.5 262h-326v115h494v-115h-14c-102.667 -74.667 -188.334 -157.834 -257.001 -249.501s-103 -159.167 -103 -202.5c0 -18.667 2.33301 -30 7 -34s16.334 -6 35.001 -6h203c48 0 82 -7 102 -21s30 -42.333 30 -85v-103
c0 -42.667 -10 -71 -30 -85s-54 -21 -102 -21z" />
    <glyph glyph-name="eta" unicode="&#x3b7;" horiz-adv-x="691" 
d="M623 -200h-126.999v605c0 14 -2.5 22.5 -7.5 25.5s-16.5 4.5 -34.5 4.5h-217c-18.667 0 -30.334 -1.5 -35.001 -4.5s-7 -11.5 -7 -25.5v-405h-128v444c0 42.667 10 71 30 85s54 21 102 21h292c48 0 82 -7 102 -21s30 -42.333 30 -85v-644z" />
    <glyph glyph-name="theta" unicode="&#x3b8;" horiz-adv-x="604" 
d="M405 0h-206c-48 0 -82 7 -102 21s-30 42.333 -30 85v510c0 42.667 10 71 30 85s54 21 102 21h206c48 0 82 -7 102 -21s30 -42.333 30 -85v-510c0 -42.667 -10 -71 -30 -85s-54 -21 -102 -21zM409 421l0.00195312 156c0 14 -2.33301 22.5 -7 25.5s-16.334 4.5 -35.001 4.5
h-130c-18.667 0 -30.334 -1.5 -35.001 -4.5s-7 -11.5 -7 -25.5v-156h214zM409.002 145l-0.00195312 156h-214v-156c0 -14 2.33301 -22.5 7 -25.5s16.334 -4.5 35.001 -4.5h130c18.667 0 30.334 1.5 35.001 4.5s7 11.5 7 25.5z" />
    <glyph glyph-name="iota" unicode="&#x3b9;" horiz-adv-x="303" 
d="M286 0h-86.999c-48 0 -82 7 -102 21s-30 42.333 -30 85v444h128v-401c0 -14.667 2.66699 -24 8 -28s16.666 -6 33.999 -6h49v-115z" />
    <glyph glyph-name="kappa" unicode="&#x3ba;" horiz-adv-x="585" 
d="M578 0h-158l-224 199v-199h-128v550h128v-200l225 200h157l-317 -275z" />
    <glyph glyph-name="lambda" unicode="&#x3bb;" horiz-adv-x="613" 
d="M605 0h-128l-168 404l-170 -404h-132l239 551l-74 171h121z" />
    <glyph glyph-name="uni03BC" unicode="&#x3bc;" horiz-adv-x="692" 
d="M492 0h-296v-200h-128v750h128v-435h259c18 0 29.5 1.5 34.5 4.5s7.5 11.5 7.5 25.5v405h127v-444c0 -42.667 -10 -71 -30 -85s-54 -21 -102 -21z" />
    <glyph glyph-name="nu" unicode="&#x3bd;" horiz-adv-x="589" 
d="M374 0h-157l-209 550h135l152 -415l154 415h132z" />
    <glyph glyph-name="xi" unicode="&#x3be;" horiz-adv-x="571" 
d="M435 -200l-82.001 -0.000976562v115h45c18.667 0 30.334 1.5 35.001 4.5s7 11.5 7 25.5v25c0 14 -2.33301 22.5 -7 25.5s-16.334 4.5 -35.001 4.5h-211c-48 0 -82 7 -102 21s-30 42.333 -30 85v157c0 10.667 0.166992 18.667 0.5 24s1.83301 12.666 4.5 21.999
s6.5 16.5 11.5 21.5s12.333 10.167 22 15.5s21.834 9 36.501 11c-12 10.667 -19.5 20.834 -22.5 30.501s-4.5 24.834 -4.5 45.501v174h-82v115h436v-115h-226v-178c0 -12.667 2.33301 -21 7 -25s15.667 -6 33 -6h187v-110h-235c-17.333 0 -28.333 -2 -33 -6
s-7 -12.333 -7 -25v-112c0 -14 2.33301 -22.5 7 -25.5s16 -4.5 34 -4.5h211c48 0 82 -7 102 -21s30 -42.333 30 -85v-103c0 -42.667 -10 -71 -30 -85s-54 -21 -102 -21z" />
    <glyph glyph-name="omicron" unicode="&#x3bf;" horiz-adv-x="689" 
d="M490 0h-292c-48 0 -82 7 -102 21s-30 42.333 -30 85v338c0 42.667 10 71 30 85s54 21 102 21h292c48 0 82 -7 102 -21s30 -42.333 30 -85v-338c0 -42.667 -10 -71 -30 -85s-54 -21 -102 -21zM495 145v260c0 14 -2.5 22.5 -7.5 25.5s-16.5 4.5 -34.5 4.5h-217
c-18.667 0 -30.334 -1.5 -35.001 -4.5s-7 -11.5 -7 -25.5v-260c0 -14 2.33301 -22.5 7 -25.5s16.334 -4.5 35.001 -4.5h217c18 0 29.5 1.5 34.5 4.5s7.5 11.5 7.5 25.5z" />
    <glyph glyph-name="pi" unicode="&#x3c0;" horiz-adv-x="705" 
d="M660 0h-79.001c-48 0 -82 7 -102 21s-30 42.333 -30 85v329h-205v-435h-127v435h-92v115h635v-115h-83v-290c0 -14 2.33301 -22.5 7 -25.5s16.334 -4.5 35.001 -4.5h41v-115z" />
    <glyph glyph-name="rho" unicode="&#x3c1;" 
d="M491 0h-296v-200h-128v644c0 42.667 10 71 30 85s54 21 102 21h292c48 0 82 -7 102 -21s30 -42.333 30 -85v-338c0 -42.667 -10 -71 -30 -85s-54 -21 -102 -21zM496 145l0.000976562 260c0 14 -2.5 22.5 -7.5 25.5s-16.5 4.5 -34.5 4.5h-217
c-18.667 0 -30.334 -1.5 -35.001 -4.5s-7 -11.5 -7 -25.5v-290h259c18 0 29.5 1.5 34.5 4.5s7.5 11.5 7.5 25.5z" />
    <glyph glyph-name="sigma1" unicode="&#x3c2;" horiz-adv-x="618" 
d="M447 -200h-83v115h46c18 0 29.333 1.5 34 4.5s7 11.5 7 25.5v25c0 14 -2.33301 22.5 -7 25.5s-16 4.5 -34 4.5h-212c-48 0 -82 7 -102 21s-30 42.333 -30 85v338c0 42.667 10 71 30 85s54 21 102 21h248c48 0 82 -7 102 -21s30 -42.333 30 -85v-49h-127v10
c0 14 -2.33301 22.5 -7 25.5s-16 4.5 -34 4.5h-174c-18.667 0 -30.334 -1.5 -35.001 -4.5s-7 -11.5 -7 -25.5v-260c0 -14 2.33301 -22.5 7 -25.5s16.334 -4.5 35.001 -4.5h211c48 0 82 -7 102 -21s30 -42.333 30 -85v-103c0 -42.667 -10 -71 -30 -85s-54 -21 -102 -21z" />
    <glyph glyph-name="sigma" unicode="&#x3c3;" horiz-adv-x="705" 
d="M490 0h-292c-48 0 -82 7 -102 21s-30 42.333 -30 85v338c0 42.667 10 71 30 85s54 21 102 21h479v-115h-55v-329c0 -42.667 -10 -71 -30 -85s-54 -21 -102 -21zM495 145v290h-259c-18.667 0 -30.334 -1.5 -35.001 -4.5s-7 -11.5 -7 -25.5v-260
c0 -14 2.33301 -22.5 7 -25.5s16.334 -4.5 35.001 -4.5h217c18 0 29.5 1.5 34.5 4.5s7.5 11.5 7.5 25.5z" />
    <glyph glyph-name="tau" unicode="&#x3c4;" horiz-adv-x="493" 
d="M386 0h-72.001c-48 0 -82 7 -102 21s-30 42.333 -30 85v329h-163v115h452v-115h-162v-290c0 -14 2.33301 -22.5 7 -25.5s16.334 -4.5 35.001 -4.5h35v-115z" />
    <glyph glyph-name="upsilon" unicode="&#x3c5;" 
d="M491 0h-292.002c-48 0 -82 7 -102 21s-30 42.333 -30 85v444h128v-405c0 -14 2.33301 -22.5 7 -25.5s16.334 -4.5 35.001 -4.5h217c18 0 29.5 1.5 34.5 4.5s7.5 11.5 7.5 25.5v255c0 14.667 -2.66699 24.167 -8 28.5s-16.666 6.5 -33.999 6.5h-24v115h61
c48 0 82 -7 102 -21s30 -42.333 30 -85v-338c0 -42.667 -10 -71 -30 -85s-54 -21 -102 -21z" />
    <glyph glyph-name="phi" unicode="&#x3c6;" horiz-adv-x="778" 
d="M454 -200h-128v200h-128c-48 0 -82 7 -102 21s-30 42.333 -30 85v338c0 42.667 10 71 30 85s54 21 102 21h60v-115h-22c-18.667 0 -30.334 -1.5 -35.001 -4.5s-7 -11.5 -7 -25.5v-260c0 -14 2.33301 -22.5 7 -25.5s16.334 -4.5 35.001 -4.5h90v329c0 42.667 10 71 30 85
s54 21 102 21h121c48 0 82 -7 102 -21s30 -42.333 30 -85v-338c0 -42.667 -10 -71 -30 -85s-54 -21 -102 -21h-125v-200zM584 145l0.000976562 260c0 14 -2.33301 22.5 -7 25.5s-16 4.5 -34 4.5h-47c-18.667 0 -30.334 -1.5 -35.001 -4.5s-7 -11.5 -7 -25.5v-290h89
c18 0 29.333 1.5 34 4.5s7 11.5 7 25.5z" />
    <glyph glyph-name="chi" unicode="&#x3c7;" horiz-adv-x="575" 
d="M571 -200h-139l-146 257l-145 -257h-139l215 373l-216 377h139l146 -256l149 256h138l-217 -377z" />
    <glyph glyph-name="psi" unicode="&#x3c8;" horiz-adv-x="729" 
d="M431 -200h-127.002v200h-105c-48 0 -82 7 -102 21s-30 42.333 -30 85v444h128v-405c0 -14 2.33301 -22.5 7 -25.5s16.334 -4.5 35.001 -4.5h67v607h127v-607h61c18.667 0 30.334 1.5 35.001 4.5s7 11.5 7 25.5v405h127v-444c0 -42.667 -10 -71 -30 -85s-54 -21 -102 -21
h-98v-200z" />
    <glyph glyph-name="omega" unicode="&#x3c9;" horiz-adv-x="800" 
d="M601 0h-99.002c-50.667 0 -84.667 7 -102 21c-18 -14 -52 -21 -102 -21h-100c-48 0 -82 7 -102 21s-30 42.333 -30 85v338c0 42.667 10 71 30 85s54 21 102 21h65v-115h-27c-18.667 0 -30.334 -1.5 -35.001 -4.5s-7 -11.5 -7 -25.5v-260c0 -14 2.33301 -22.5 7 -25.5
s16.334 -4.5 35.001 -4.5h58c18.667 0 30.334 1.5 35.001 4.5s7 11.5 7 25.5v245h128v-245c0 -14 2.33301 -22.5 7 -25.5s16.334 -4.5 35.001 -4.5h58c18.667 0 30.334 1.5 35.001 4.5s7 11.5 7 25.5v260c0 14 -2.33301 22.5 -7 25.5s-16.334 4.5 -35.001 4.5h-28v115h65
c48 0 82 -7 102 -21s30 -42.333 30 -85v-338c0 -42.667 -10 -71 -30 -85s-54 -21 -102 -21z" />
    <glyph glyph-name="iotadieresis" unicode="&#x3ca;" horiz-adv-x="303" 
d="M286 0h-86.999c-48 0 -82 7 -102 21s-30 42.333 -30 85v444h127v-401c0 -14 2.66699 -23.167 8 -27.5s16.666 -6.5 33.999 -6.5h50v-115zM97.001 600h-126v121h126v-121zM295.001 600h-126v121h126v-121z" />
    <glyph glyph-name="upsilondieresis" unicode="&#x3cb;" 
d="M491 0h-292.002c-48 0 -82 7 -102 21s-30 42.333 -30 85v444h128v-405c0 -14 2.33301 -22.5 7 -25.5s16.334 -4.5 35.001 -4.5h217c18 0 29.5 1.5 34.5 4.5s7.5 11.5 7.5 25.5v255c0 14.667 -2.66699 24.167 -8 28.5s-16.666 6.5 -33.999 6.5h-24v115h61
c48 0 82 -7 102 -21s30 -42.333 30 -85v-338c0 -42.667 -10 -71 -30 -85s-54 -21 -102 -21zM292.998 600h-126v121h126v-121zM490.998 600h-126v121h126v-121z" />
    <glyph glyph-name="omicrontonos" unicode="&#x3cc;" horiz-adv-x="689" 
d="M490 0h-292c-48 0 -82 7 -102 21s-30 42.333 -30 85v338c0 42.667 10 71 30 85s54 21 102 21h292c48 0 82 -7 102 -21s30 -42.333 30 -85v-338c0 -42.667 -10 -71 -30 -85s-54 -21 -102 -21zM495 145v260c0 14 -2.5 22.5 -7.5 25.5s-16.5 4.5 -34.5 4.5h-217
c-18.667 0 -30.334 -1.5 -35.001 -4.5s-7 -11.5 -7 -25.5v-260c0 -14 2.33301 -22.5 7 -25.5s16.334 -4.5 35.001 -4.5h217c18 0 29.5 1.5 34.5 4.5s7.5 11.5 7.5 25.5zM379 586h-115l115 186h129z" />
    <glyph glyph-name="upsilontonos" unicode="&#x3cd;" 
d="M491 0h-292.002c-48 0 -82 7 -102 21s-30 42.333 -30 85v444h128v-405c0 -14 2.33301 -22.5 7 -25.5s16.334 -4.5 35.001 -4.5h217c18 0 29.5 1.5 34.5 4.5s7.5 11.5 7.5 25.5v255c0 14.667 -2.66699 24.167 -8 28.5s-16.666 6.5 -33.999 6.5h-24v115h61
c48 0 82 -7 102 -21s30 -42.333 30 -85v-338c0 -42.667 -10 -71 -30 -85s-54 -21 -102 -21zM342.998 586h-114l115 186h128z" />
    <glyph glyph-name="omegatonos" unicode="&#x3ce;" horiz-adv-x="800" 
d="M601 0h-99.002c-50.667 0 -84.667 7 -102 21c-18 -14 -52 -21 -102 -21h-100c-48 0 -82 7 -102 21s-30 42.333 -30 85v338c0 42.667 10 71 30 85s54 21 102 21h65v-115h-27c-18.667 0 -30.334 -1.5 -35.001 -4.5s-7 -11.5 -7 -25.5v-260c0 -14 2.33301 -22.5 7 -25.5
s16.334 -4.5 35.001 -4.5h58c18.667 0 30.334 1.5 35.001 4.5s7 11.5 7 25.5v245h128v-245c0 -14 2.33301 -22.5 7 -25.5s16.334 -4.5 35.001 -4.5h58c18.667 0 30.334 1.5 35.001 4.5s7 11.5 7 25.5v260c0 14 -2.33301 22.5 -7 25.5s-16.334 4.5 -35.001 4.5h-28v115h65
c48 0 82 -7 102 -21s30 -42.333 30 -85v-338c0 -42.667 -10 -71 -30 -85s-54 -21 -102 -21zM435.998 586h-114l115 186h128z" />
    <glyph glyph-name="uni0400" unicode="&#x400;" horiz-adv-x="662" 
d="M619 0h-540v722h540v-115h-412v-188h334v-115h-334v-189h412v-115zM410 776l-211 107l73 92l192 -129z" />
    <glyph glyph-name="uni0401" unicode="&#x401;" horiz-adv-x="662" 
d="M619 0h-540v722h540v-115h-412v-188h334v-115h-334v-189h412v-115zM326 772h-125v121h125v-121zM524 772h-125v121h125v-121z" />
    <glyph glyph-name="uni0402" unicode="&#x402;" horiz-adv-x="886" 
d="M703 0h-186v115h149c18.667 0 30.334 1.5 35.001 4.5s7 11.5 7 25.5v155c0 14 -2.33301 22.5 -7 25.5s-16.334 4.5 -35.001 4.5h-293v-330h-127v607h-233v115h593v-115h-233v-162h330c48 0 82 -7 102 -21s30 -42.333 30 -85v-233c0 -42.667 -10 -71 -30 -85
s-54 -21 -102 -21z" />
    <glyph glyph-name="uni0403" unicode="&#x403;" horiz-adv-x="607" 
d="M207 0h-128v722h516v-115h-388v-607zM533 883l-211 -107l-53 70l193 129z" />
    <glyph glyph-name="uni0404" unicode="&#x404;" horiz-adv-x="732" 
d="M543 0h-333.999c-48 0 -82 7 -102 21s-30 42.333 -30 85v510c0 42.667 10 71 30 85s54 21 102 21h334c48 0 82 -7 102 -21s30 -42.333 30 -85v-109h-127v70c0 14 -2.5 22.5 -7.5 25.5s-16.5 4.5 -34.5 4.5h-259c-18.667 0 -30.334 -1.5 -35.001 -4.5s-7 -11.5 -7 -25.5
v-158h334v-115h-334v-159c0 -14 2.33301 -22.5 7 -25.5s16.334 -4.5 35.001 -4.5h259c19.333 0 31.166 1.5 35.499 4.5s6.5 11.167 6.5 24.5v71h127v-109c0 -42.667 -10 -71 -30 -85s-54 -21 -102 -21z" />
    <glyph glyph-name="uni0405" unicode="&#x405;" horiz-adv-x="734" 
d="M534 0h-333.001c-48 0 -82 7 -102 21s-30 42.333 -30 85v109h127v-70c0 -14 2.33301 -22.5 7 -25.5s16.334 -4.5 35.001 -4.5h258c18 0 29.5 1.5 34.5 4.5s7.5 11.5 7.5 25.5v128c0 14 -2.5 22.5 -7.5 25.5s-16.5 4.5 -34.5 4.5h-296c-48 0 -82 7 -102 21
s-30 42.333 -30 85v207c0 42.667 10 71 30 85s54 21 102 21h332c48 0 82 -7 102 -21s30 -42.333 30 -85v-109h-128v70c0 14 -2.33301 22.5 -7 25.5s-16 4.5 -34 4.5h-258c-18.667 0 -30.334 -1.5 -35.001 -4.5s-7 -11.5 -7 -25.5v-129c0 -14 2.33301 -22.5 7 -25.5
s16.334 -4.5 35.001 -4.5h297c48 0 82 -7 102 -21s30 -42.333 30 -85v-206c0 -42.667 -10 -71 -30 -85s-54 -21 -102 -21z" />
    <glyph glyph-name="uni0406" unicode="&#x406;" horiz-adv-x="486" 
d="M443 0h-401v115h137v492h-137v115h401v-115h-136v-492h136v-115z" />
    <glyph glyph-name="uni0407" unicode="&#x407;" horiz-adv-x="486" 
d="M443 0h-401v115h137v492h-137v115h401v-115h-136v-492h136v-115zM207 772h-126v121h126v-121zM405 772h-126v121h126v-121z" />
    <glyph glyph-name="uni0408" unicode="&#x408;" horiz-adv-x="462" 
d="M252 0h-238.999v115h201c19.333 0 31.166 1.33301 35.499 4s6.5 11 6.5 25v578h128v-616c0 -42.667 -10 -71 -30 -85s-54 -21 -102 -21z" />
    <glyph glyph-name="uni0409" unicode="&#x409;" horiz-adv-x="1217" 
d="M1034 0h-454v607h-270l-83 -501c-7.33301 -43.333 -19.833 -71.833 -37.5 -85.5s-49.167 -20.5 -94.5 -20.5h-86v115h38c12.667 0 23 1 31 3s14 5.83301 18 11.5s6.5 10.5 7.5 14.5s2.5 11 4.5 21l87 557h512v-277h327c48 0 82 -7 102 -21s30 -42.333 30 -85v-233
c0 -42.667 -10 -71 -30 -85s-54 -21 -102 -21zM1038 145v155c0 14 -2.33301 22.5 -7 25.5s-16.334 4.5 -35.001 4.5h-289v-215h289c18.667 0 30.334 1.5 35.001 4.5s7 11.5 7 25.5z" />
    <glyph glyph-name="uni040A" unicode="&#x40a;" horiz-adv-x="1221" 
d="M1038 0h-454v330h-377v-330h-128v722h128v-277h377v277h127v-277h327c48 0 82 -7 102 -21s30 -42.333 30 -85v-233c0 -42.667 -10 -71 -30 -85s-54 -21 -102 -21zM1042 145v155c0 14 -2.33301 22.5 -7 25.5s-16.334 4.5 -35.001 4.5h-289v-215h289
c18.667 0 30.334 1.5 35.001 4.5s7 11.5 7 25.5z" />
    <glyph glyph-name="uni040B" unicode="&#x40b;" horiz-adv-x="888" 
d="M835 0h-126.999v300c0 14 -2.33301 22.5 -7 25.5s-16.334 4.5 -35.001 4.5h-293v-330h-127v607h-233v115h593v-115h-233v-162h330c48 0 82 -7 102 -21s30 -42.333 30 -85v-339z" />
    <glyph glyph-name="uni040C" unicode="&#x40c;" horiz-adv-x="698" 
d="M688 0h-156l-224 303h-101v-303h-128v722h128v-304h100l225 304h155l-279 -362zM546 883l-211 -107l-53 70l192 129z" />
    <glyph glyph-name="uni040D" unicode="&#x40d;" horiz-adv-x="764" 
d="M453 846l-53 -70l-211 107l71 92zM236 0h-157v722h128v-524l325 524h153v-722h-128v518z" />
    <glyph glyph-name="uni040E" unicode="&#x40e;" horiz-adv-x="731" 
d="M207 0h-143l231 312l-304 410h143l233 -312l232 312h143zM452 864h104c-7.33301 -37.333 -26.833 -70.333 -58.5 -99s-75.167 -43 -130.5 -43c-53.333 0 -96.166 14 -128.499 42s-52.833 61.333 -61.5 100h105c10.667 -36 39 -54 85 -54c43.333 0 71.666 18 84.999 54z
" />
    <glyph glyph-name="uni040F" unicode="&#x40f;" horiz-adv-x="791" 
d="M711 0h-248v-138h-128v138h-256v722h128v-607h377v607h127v-722z" />
    <glyph glyph-name="uni0410" unicode="&#x410;" horiz-adv-x="686" 
d="M663 0h-136l-43 142h-281l-43 -142h-137l235 722h170zM447 259l-104 340l-104 -340h208z" />
    <glyph glyph-name="uni0411" unicode="&#x411;" horiz-adv-x="727" 
d="M533 0h-454v722h566v-115h-438v-162h326c48 0 82 -7 102 -21s30 -42.333 30 -85v-233c0 -42.667 -10 -71 -30 -85s-54 -21 -102 -21zM538 145l-0.000976562 156c0 13.333 -2.16699 21.5 -6.5 24.5s-16.166 4.5 -35.499 4.5h-289v-215h289c18 0 29.5 1.5 34.5 4.5
s7.5 11.5 7.5 25.5z" />
    <glyph glyph-name="uni0412" unicode="&#x412;" horiz-adv-x="742" 
d="M535 0h-456v722h455c48 0 82 -7 102 -21s30 -42.333 30 -85v-164c0 -50 -16 -81.667 -48 -95c32.667 -12.667 49 -44 49 -94v-157c0 -42.667 -10 -71 -30 -85s-54 -21 -102 -21zM539 144l0.00195312 129c0 14 -2.33301 22.5 -7 25.5s-16.334 4.5 -35.001 4.5h-290v-188
h290c19.333 0 31.166 1.5 35.499 4.5s6.5 11.167 6.5 24.5zM539.002 447l0.00195312 130c0 14 -2.33301 22.5 -7 25.5s-16.334 4.5 -35.001 4.5h-290v-189h290c19.333 0 31.166 1.5 35.499 4.5s6.5 11.167 6.5 24.5z" />
    <glyph glyph-name="uni0413" unicode="&#x413;" horiz-adv-x="607" 
d="M207 0h-128v722h516v-115h-388v-607z" />
    <glyph glyph-name="uni0414" unicode="&#x414;" horiz-adv-x="814" 
d="M784 -139h-128v139h-521v-139h-127v254h37c12.667 0 23 1 31 3s14 6 18 12s6.5 11 7.5 15s2.5 11 4.5 21l88 556h512v-607h78v-254zM578 115v492.001h-271l-73 -430c-5.33301 -28.667 -11.333 -49.334 -18 -62.001h362z" />
    <glyph glyph-name="uni0415" unicode="&#x415;" horiz-adv-x="662" 
d="M619 0h-540v722h540v-115h-412v-188h334v-115h-334v-189h412v-115z" />
    <glyph glyph-name="uni0416" unicode="&#x416;" horiz-adv-x="928" 
d="M917 0h-133l-228 298h-29v-298h-127v298h-29l-227 -298h-134l277 360l-278 362h134l233 -309h24v309h127v-309h23l235 309h133l-279 -362z" />
    <glyph glyph-name="uni0417" unicode="&#x417;" horiz-adv-x="723" 
d="M515 0h-325.998c-48 0 -82 7 -102 21s-30 42.333 -30 85v110h128v-72c0 -14 2.16699 -22.333 6.5 -25s16.166 -4 35.499 -4h252c18.667 0 30.167 1.33301 34.5 4s6.5 11 6.5 25v129c0 14 -2.33301 22.5 -7 25.5s-16 4.5 -34 4.5h-177v115h176
c18.667 0 30.167 1.33301 34.5 4s6.5 11 6.5 25v130c0 14 -2.33301 22.5 -7 25.5s-16 4.5 -34 4.5h-251c-18.667 0 -30.334 -1.5 -35.001 -4.5s-7 -11.5 -7 -25.5v-71h-128v110c0 42.667 10 71 30 85s54 21 102 21h326c48 0 82 -7 102 -21s30 -42.333 30 -85v-164
c0 -50 -15.667 -81.667 -47 -95c31.333 -12.667 47 -44 47 -94v-157c0 -42.667 -10 -71 -30 -85s-54 -21 -102 -21z" />
    <glyph glyph-name="uni0418" unicode="&#x418;" horiz-adv-x="764" 
d="M236 0h-157v722h128v-524l325 524h153v-722h-128v518z" />
    <glyph glyph-name="uni0419" unicode="&#x419;" horiz-adv-x="764" 
d="M450 879h104c-7.33301 -37.333 -26.833 -70.333 -58.5 -99s-75.167 -43 -130.5 -43c-53.333 0 -96.166 14 -128.499 42s-52.833 61.333 -61.5 100h104c12 -36 40.667 -54 86 -54c43.333 0 71.666 18 84.999 54zM236 0h-157v722h128v-524l325 524h153v-722h-128v518z" />
    <glyph glyph-name="uni041A" unicode="&#x41a;" horiz-adv-x="698" 
d="M688 0h-156l-224 303h-101v-303h-128v722h128v-304h100l225 304h155l-274 -361z" />
    <glyph glyph-name="uni041B" unicode="&#x41b;" horiz-adv-x="787" 
d="M707 0h-126.999v607h-272l-81 -501c-6.66699 -43.333 -18.834 -71.833 -36.501 -85.5s-49.5 -20.5 -95.5 -20.5h-86v115h38c12.667 0 23 1 31 3s14 5.83301 18 11.5s6.5 10.5 7.5 14.5s2.5 11 4.5 21l87 557h512v-722z" />
    <glyph glyph-name="uni041C" unicode="&#x41c;" horiz-adv-x="944" 
d="M865 0h-128v568l-192 -568h-137l-201 570v-570h-128v722h206l192 -553l182 553h206v-722z" />
    <glyph glyph-name="uni041D" unicode="&#x41d;" horiz-adv-x="791" 
d="M711 0h-127v304h-377v-304h-128v722h128v-303h377v303h127v-722z" />
    <glyph glyph-name="uni041E" unicode="&#x41e;" horiz-adv-x="788" 
d="M579 0h-370c-48 0 -82 7 -102 21s-30 42.333 -30 85v510c0 42.667 10 71 30 85s54 21 102 21h370c48 0 82 -7 102 -21s30 -42.333 30 -85v-510c0 -42.667 -10 -71 -30 -85s-54 -21 -102 -21zM584 144l0.000976562 433c0 14 -2.5 22.5 -7.5 25.5s-16.5 4.5 -34.5 4.5h-295
c-18.667 0 -30.334 -1.5 -35.001 -4.5s-7 -11.5 -7 -25.5v-432c0 -14 2.33301 -22.5 7 -25.5s16.334 -4.5 35.001 -4.5h295c19.333 0 31.166 1.5 35.499 4.5s6.5 11.167 6.5 24.5z" />
    <glyph glyph-name="uni041F" unicode="&#x41f;" horiz-adv-x="791" 
d="M711 0h-127v607h-377v-607h-128v722h632v-722z" />
    <glyph glyph-name="uni0420" unicode="&#x420;" horiz-adv-x="715" 
d="M207 0h-128v722h454c48 0 82 -7 102 -21s30 -42.333 30 -85v-233c0 -42.667 -10 -71 -30 -85s-54 -21 -102 -21h-326v-277zM538 421l0.000976562 156c0 14 -2.5 22.5 -7.5 25.5s-16.5 4.5 -34.5 4.5h-289v-215h289c19.333 0 31.166 1.5 35.499 4.5s6.5 11.167 6.5 24.5z
" />
    <glyph glyph-name="uni0421" unicode="&#x421;" horiz-adv-x="732" 
d="M543 0h-333.999c-48 0 -82 7 -102 21s-30 42.333 -30 85v510c0 42.667 10 71 30 85s54 21 102 21h334c48 0 82 -7 102 -21s30 -42.333 30 -85v-109h-127v70c0 14 -2.5 22.5 -7.5 25.5s-16.5 4.5 -34.5 4.5h-259c-18.667 0 -30.334 -1.5 -35.001 -4.5s-7 -11.5 -7 -25.5
v-432c0 -14 2.33301 -22.5 7 -25.5s16.334 -4.5 35.001 -4.5h259c19.333 0 31.166 1.5 35.499 4.5s6.5 11.167 6.5 24.5v71h127v-109c0 -42.667 -10 -71 -30 -85s-54 -21 -102 -21z" />
    <glyph glyph-name="uni0422" unicode="&#x422;" horiz-adv-x="619" 
d="M373 0h-127v607h-233v115h593v-115h-233v-607z" />
    <glyph glyph-name="uni0423" unicode="&#x423;" horiz-adv-x="731" 
d="M207 0h-143l231 312l-304 410h143l233 -312l232 312h143z" />
    <glyph glyph-name="uni0424" unicode="&#x424;" horiz-adv-x="752" 
d="M442 0h-127v100h-124c-48 0 -82 7 -102 21s-30 42.333 -30 85v310c0 42.667 10 71 30 85s54 21 102 21h124v100h127v-100h119c48 0 82 -7 102 -21s30 -42.333 30 -85v-310c0 -42.667 -10 -71 -30 -85s-54 -21 -102 -21h-119v-100zM315 215v292h-86
c-18.667 0 -30.334 -1.5 -35.001 -4.5s-7 -11.5 -7 -25.5v-232c0 -14 2.33301 -22.5 7 -25.5s16.334 -4.5 35.001 -4.5h86zM566 245l-0.000976562 232c0 14 -3.16699 22.5 -9.5 25.5s-21.166 4.5 -44.499 4.5h-70v-292h82c18 0 29.5 1.5 34.5 4.5s7.5 11.5 7.5 25.5z" />
    <glyph glyph-name="uni0425" unicode="&#x425;" horiz-adv-x="673" 
d="M661 0h-139l-185 268l-187 -268h-138l255 360l-256 362h138l188 -261l186 261h139l-257 -362z" />
    <glyph glyph-name="uni0426" unicode="&#x426;" horiz-adv-x="813" 
d="M771 -138h-127v138h-565v722h128v-607h377v607h127v-607h60v-253z" />
    <glyph glyph-name="uni0427" unicode="&#x427;" horiz-adv-x="721" 
d="M641 0h-127.001v242h-327c-48 0 -82 7 -102 21s-30 42.333 -30 85v374h128v-335c0 -14 2.33301 -22.5 7 -25.5s16.334 -4.5 35.001 -4.5h289v365h127v-722z" />
    <glyph glyph-name="uni0428" unicode="&#x428;" horiz-adv-x="937" 
d="M857 0h-778v722h128v-607h200v607h128v-607h195v607h127v-722z" />
    <glyph glyph-name="uni0429" unicode="&#x429;" horiz-adv-x="959" 
d="M917 -138h-127v138h-711v722h128v-607h200v607h128v-607h195v607h127v-607h60v-253z" />
    <glyph glyph-name="uni042A" unicode="&#x42a;" horiz-adv-x="1009" 
d="M827 0h-454v607h-366v115h494v-277h326c48 0 82 -7 102 -21s30 -42.333 30 -85v-233c0 -42.667 -10 -71 -30 -85s-54 -21 -102 -21zM832 145l-0.000976562 156c0 13.333 -2.16699 21.5 -6.5 24.5s-16.166 4.5 -35.499 4.5h-289v-215h289c18 0 29.5 1.5 34.5 4.5
s7.5 11.5 7.5 25.5z" />
    <glyph glyph-name="uni042B" unicode="&#x42b;" horiz-adv-x="988" 
d="M533 0h-454v722h128v-277h326c48 0 82 -7 102 -21s30 -42.333 30 -85v-233c0 -42.667 -10 -71 -30 -85s-54 -21 -102 -21zM538 145l-0.000976562 156c0 13.333 -2.16699 21.5 -6.5 24.5s-16.166 4.5 -35.499 4.5h-289v-215h289c18 0 29.5 1.5 34.5 4.5s7.5 11.5 7.5 25.5
zM908.999 0h-128v722h128v-722z" />
    <glyph glyph-name="uni042C" unicode="&#x42c;" horiz-adv-x="715" 
d="M533 0h-454v722h128v-277h326c48 0 82 -7 102 -21s30 -42.333 30 -85v-233c0 -42.667 -10 -71 -30 -85s-54 -21 -102 -21zM538 145l-0.000976562 156c0 13.333 -2.16699 21.5 -6.5 24.5s-16.166 4.5 -35.499 4.5h-289v-215h289c18 0 29.5 1.5 34.5 4.5s7.5 11.5 7.5 25.5
z" />
    <glyph glyph-name="uni042D" unicode="&#x42d;" horiz-adv-x="732" 
d="M523 0h-333.998c-48 0 -82 7 -102 21s-30 42.333 -30 85v109h128v-71c0 -14 2.16699 -22.333 6.5 -25s16.166 -4 35.499 -4h258c18 0 29.5 1.5 34.5 4.5s7.5 11.5 7.5 25.5v159h-334v115h334v158c0 14 -2.5 22.5 -7.5 25.5s-16.5 4.5 -34.5 4.5h-258
c-18.667 0 -30.334 -1.5 -35.001 -4.5s-7 -11.5 -7 -25.5v-70h-128v109c0 42.667 10 71 30 85s54 21 102 21h334c48 0 82 -7 102 -21s30 -42.333 30 -85v-510c0 -42.667 -10 -71 -30 -85s-54 -21 -102 -21z" />
    <glyph glyph-name="uni042E" unicode="&#x42e;" horiz-adv-x="1057" 
d="M848 0h-360c-48 0 -82 7 -102 21s-30 42.333 -30 85v194h-149v-300h-128v722h128v-302h149v196c0 42.667 10 71 30 85s54 21 102 21h360c48 0 82 -7 102 -21s30 -42.333 30 -85v-510c0 -42.667 -10 -71 -30 -85s-54 -21 -102 -21zM853 144v433
c0 14 -2.33301 22.5 -7 25.5s-16 4.5 -34 4.5h-286c-18.667 0 -30.334 -1.5 -35.001 -4.5s-7 -11.5 -7 -25.5v-432c0 -14 2.33301 -22.5 7 -25.5s16.334 -4.5 35.001 -4.5h286c18.667 0 30.167 1.33301 34.5 4s6.5 11 6.5 25z" />
    <glyph glyph-name="uni042F" unicode="&#x42f;" horiz-adv-x="726" 
d="M646 0h-127v277h-118l-193 -277h-144l193 277h-65c-48 0 -82 7 -102 21s-30 42.333 -30 85v233c0 42.667 10 71 30 85s54 21 102 21h454v-722zM519 392l0.00195312 215h-289c-18.667 0 -30.334 -1.5 -35.001 -4.5s-7 -11.5 -7 -25.5v-156c0 -14 2.16699 -22.333 6.5 -25
s16.166 -4 35.499 -4h289z" />
    <glyph glyph-name="uni0430" unicode="&#x430;" horiz-adv-x="677" 
d="M479 0h-292c-48 0 -82 7 -102 21s-30 42.333 -30 85v132c0 42.667 10 71 30 85s54 21 102 21h296v61c0 14 -2.5 22.5 -7.5 25.5s-16.5 4.5 -34.5 4.5h-373v115h411c48 0 82 -7 102 -21s30 -42.333 30 -85v-338c0 -42.667 -10 -71 -30 -85s-54 -21 -102 -21zM483 145v84
h-259c-18.667 0 -30.334 -1.5 -35.001 -4.5s-7 -11.5 -7 -25.5v-54c0 -14 2.33301 -22.5 7 -25.5s16.334 -4.5 35.001 -4.5h217c18 0 29.5 1.5 34.5 4.5s7.5 11.5 7.5 25.5z" />
    <glyph glyph-name="uni0431" unicode="&#x431;" 
d="M491 0h-291.999c-48 0 -82 7 -102 21s-30 42.333 -30 85v510c0 42.667 10 71 30 85s54 21 102 21h362v-115h-324c-18.667 0 -30.334 -1.5 -35.001 -4.5s-7 -11.5 -7 -25.5v-28h296c48 0 82 -7 102 -21s30 -42.333 30 -85v-337c0 -42.667 -10 -71 -30 -85
s-54 -21 -102 -21zM496.001 145l-0.000976562 259c0 14 -2.5 22.5 -7.5 25.5s-16.5 4.5 -34.5 4.5h-259v-289c0 -14 2.33301 -22.5 7 -25.5s16.334 -4.5 35.001 -4.5h217c18 0 29.5 1.5 34.5 4.5s7.5 11.5 7.5 25.5z" />
    <glyph glyph-name="uni0432" unicode="&#x432;" horiz-adv-x="640" 
d="M444 0h-376.001v550h374c48 0 82 -7 102 -21s30 -42.333 30 -85v-87c0 -22 -3.66699 -39.5 -11 -52.5s-21 -23.167 -41 -30.5c20.667 -7.33301 34.834 -17.5 42.501 -30.5s11.5 -30.833 11.5 -53.5v-84c0 -42.667 -10 -71 -30 -85s-54 -21 -102 -21zM446.999 361v44
c0 14 -2.33301 22.5 -7 25.5s-16 4.5 -34 4.5h-210v-104h208c18.667 0 30.5 1.5 35.5 4.5s7.5 11.5 7.5 25.5zM448.999 145v41c0 14 -2.5 22.5 -7.5 25.5s-16.5 4.5 -34.5 4.5h-211v-101h211c18 0 29.5 1.5 34.5 4.5s7.5 11.5 7.5 25.5z" />
    <glyph glyph-name="uni0433" unicode="&#x433;" horiz-adv-x="483" 
d="M196 0h-128v550h397v-115h-269v-435z" />
    <glyph glyph-name="uni0434" unicode="&#x434;" horiz-adv-x="725" 
d="M696 -82h-127.002v82h-435v-82h-128v197h50c20.667 0 35.334 4.16699 44.001 12.5s14.334 20.833 17.001 37.5l63 385h442v-435h74v-197zM494.998 115l-0.000976562 320h-203l-47 -259c-5.33301 -28.667 -12.666 -49 -21.999 -61h272z" />
    <glyph glyph-name="uni0435" unicode="&#x435;" horiz-adv-x="673" 
d="M595 0h-397c-48 0 -82 7 -102 21s-30 42.333 -30 85v338c0 42.667 10 71 30 85s54 21 102 21h292c48 0 82 -7 102 -21s30 -42.333 30 -85v-125c0 -42.667 -10 -71 -30 -85s-54 -21 -102 -21h-296v-68c0 -14 3.33301 -22.5 10 -25.5s22.667 -4.5 48 -4.5h343v-115z
M495 358l0.000976562 47c0 14 -2.5 22.5 -7.5 25.5s-16.5 4.5 -34.5 4.5h-217c-18.667 0 -30.334 -1.5 -35.001 -4.5s-7 -11.5 -7 -25.5v-77h259c18 0 29.5 1.5 34.5 4.5s7.5 11.5 7.5 25.5z" />
    <glyph glyph-name="uni0436" unicode="&#x436;" horiz-adv-x="797" 
d="M779 0h-133l-162 215h-21v-215h-127v215h-25l-160 -215h-134l211 273l-216 277h134l168 -220h22v220h127v-220h19l169 220h133l-216 -277z" />
    <glyph glyph-name="uni0437" unicode="&#x437;" horiz-adv-x="626" 
d="M428 0l-248 0.000976562c-48 0 -82 7 -102 21s-30 42.333 -30 85v52h128v-13c0 -14 2.33301 -22.5 7 -25.5s16.334 -4.5 35.001 -4.5h174c18 0 29.333 1.5 34 4.5s7 11.5 7 25.5v41c0 13.333 -2.33301 21.666 -7 24.999s-15 5 -31 5h-219v115h217c18 0 29.5 1.5 34.5 4.5
s7.5 11.5 7.5 25.5v44c0 14 -2.5 22.5 -7.5 25.5s-16.5 4.5 -34.5 4.5h-174c-18.667 0 -30.334 -1.5 -35.001 -4.5s-7 -11.5 -7 -25.5v-10h-128v49c0 42.667 10 71 30 85s54 21 102 21h249c48 0 82 -7 102 -21s30 -42.333 30 -85v-87c0 -41.333 -9.66699 -69.333 -29 -84
c18 -15.333 27 -43 27 -83v-84c0 -42.667 -10 -71 -30 -85s-54 -21 -102 -21z" />
    <glyph glyph-name="uni0438" unicode="&#x438;" horiz-adv-x="640" 
d="M231 0h-163v550h128v-382l216 382h160v-550h-128v377z" />
    <glyph glyph-name="uni0439" unicode="&#x439;" horiz-adv-x="640" 
d="M406 732h102.999c-7.33301 -37.333 -26.666 -70.333 -57.999 -99s-74.666 -43 -129.999 -43c-54 0 -97.167 14 -129.5 42s-52.833 61.333 -61.5 100h106c10.667 -36 39 -54 85 -54c43.333 0 71.666 18 84.999 54zM230.999 0h-163v550h128v-382l216 382h160v-550h-128v377
z" />
    <glyph glyph-name="uni043A" unicode="&#x43a;" horiz-adv-x="587" 
d="M570 0h-138l-163 215h-73v-215h-128v550h128v-220h71l170 220h138l-216 -277z" />
    <glyph glyph-name="uni043B" unicode="&#x43b;" horiz-adv-x="671" 
d="M602 0h-126.999v435h-202l-57 -329c-7.33301 -43.333 -20 -71.833 -38 -85.5s-49.333 -20.5 -94 -20.5h-74v115h27c21.333 0 36.166 4.16699 44.499 12.5s13.833 20.833 16.5 37.5l62 385h442v-550z" />
    <glyph glyph-name="uni043C" unicode="&#x43c;" horiz-adv-x="751" 
d="M683 0h-128v356l-124 -356h-98l-137 358v-358h-128v550h176l138 -372l125 372h176v-550z" />
    <glyph glyph-name="uni043D" unicode="&#x43d;" horiz-adv-x="645" 
d="M576 0h-127v216h-253v-216h-128v550h128v-219h253v219h127v-550z" />
    <glyph glyph-name="uni043E" unicode="&#x43e;" horiz-adv-x="689" 
d="M490 0h-292c-48 0 -82 7 -102 21s-30 42.333 -30 85v338c0 42.667 10 71 30 85s54 21 102 21h292c48 0 82 -7 102 -21s30 -42.333 30 -85v-338c0 -42.667 -10 -71 -30 -85s-54 -21 -102 -21zM495 145v260c0 14 -2.5 22.5 -7.5 25.5s-16.5 4.5 -34.5 4.5h-217
c-18.667 0 -30.334 -1.5 -35.001 -4.5s-7 -11.5 -7 -25.5v-260c0 -14 2.33301 -22.5 7 -25.5s16.334 -4.5 35.001 -4.5h217c18 0 29.5 1.5 34.5 4.5s7.5 11.5 7.5 25.5z" />
    <glyph glyph-name="uni043F" unicode="&#x43f;" horiz-adv-x="693" 
d="M624 0h-127v435h-301v-435h-128v550h556v-550z" />
    <glyph glyph-name="uni0440" unicode="&#x440;" 
d="M491 0h-296v-200h-128v644c0 42.667 10 71 30 85s54 21 102 21h292c48 0 82 -7 102 -21s30 -42.333 30 -85v-338c0 -42.667 -10 -71 -30 -85s-54 -21 -102 -21zM496 145l0.000976562 260c0 14 -2.5 22.5 -7.5 25.5s-16.5 4.5 -34.5 4.5h-217
c-18.667 0 -30.334 -1.5 -35.001 -4.5s-7 -11.5 -7 -25.5v-290h259c18 0 29.5 1.5 34.5 4.5s7.5 11.5 7.5 25.5z" />
    <glyph glyph-name="uni0441" unicode="&#x441;" horiz-adv-x="602" 
d="M559 0h-361c-48 0 -82 7 -102 21s-30 42.333 -30 85v338c0 42.667 10 71 30 85s54 21 102 21h361v-115h-323c-18.667 0 -30.334 -1.5 -35.001 -4.5s-7 -11.5 -7 -25.5v-260c0 -14 2.33301 -22.5 7 -25.5s16.334 -4.5 35.001 -4.5h323v-115z" />
    <glyph glyph-name="uni0442" unicode="&#x442;" horiz-adv-x="490" 
d="M309 0h-127v436h-163v114h452v-114h-162v-436z" />
    <glyph glyph-name="uni0443" unicode="&#x443;" horiz-adv-x="585" 
d="M286 -200h-117l73 209l-243 541h135l167 -383l142 383h129z" />
    <glyph glyph-name="uni0444" unicode="&#x444;" horiz-adv-x="689" 
d="M402 -200h-116v200h-88c-48 0 -82 7 -102 21s-30 42.333 -30 85v338c0 42.667 10 71 30 85s54 21 102 21h88v172h116v-172h88c48 0 82 -7 102 -21s30 -42.333 30 -85v-338c0 -42.667 -10 -71 -30 -85s-54 -21 -102 -21h-88v-200zM286 115v320h-50
c-18.667 0 -30.334 -1.5 -35.001 -4.5s-7 -11.5 -7 -25.5v-260c0 -14 2.33301 -22.5 7 -25.5s16.334 -4.5 35.001 -4.5h50zM495 145v260c0 14 -2.5 22.5 -7.5 25.5s-16.5 4.5 -34.5 4.5h-51v-320h51c18 0 29.5 1.5 34.5 4.5s7.5 11.5 7.5 25.5z" />
    <glyph glyph-name="uni0445" unicode="&#x445;" horiz-adv-x="553" 
d="M535 0h-134l-125 185l-126 -185h-134l194 273l-195 277h134l128 -185l129 185h134l-197 -277z" />
    <glyph glyph-name="uni0446" unicode="&#x446;" horiz-adv-x="718" 
d="M684 -82h-127v82h-489v550h128v-435h301v435h127v-435h60v-197z" />
    <glyph glyph-name="uni0447" unicode="&#x447;" horiz-adv-x="625" 
d="M557 0h-128.001v170h-248c-48 0 -82 7 -102 21s-30 42.333 -30 85v274h127v-235c0 -14 2.33301 -22.5 7 -25.5s16.334 -4.5 35.001 -4.5h211v265h128v-550z" />
    <glyph glyph-name="uni0448" unicode="&#x448;" horiz-adv-x="802" 
d="M733 0h-665v550h128v-435h141v435h128v-435h141v435h127v-550z" />
    <glyph glyph-name="uni0449" unicode="&#x449;" horiz-adv-x="827" 
d="M793 -82h-127v82h-598v550h128v-435h141v435h128v-435h141v435h127v-435h60v-197z" />
    <glyph glyph-name="uni044A" unicode="&#x44a;" horiz-adv-x="852" 
d="M676 0h-376v435h-283v115h411v-205h248c48 0 82 -7 102 -21s30 -42.333 30 -85v-133c0 -42.667 -10 -71 -30 -85s-54 -21 -102 -21zM681 145v55c0 14 -2.33301 22.5 -7 25.5s-16.334 4.5 -35.001 4.5h-211v-115h211c18.667 0 30.334 1.5 35.001 4.5s7 11.5 7 25.5z" />
    <glyph glyph-name="uni044B" unicode="&#x44b;" horiz-adv-x="876" 
d="M444 0h-376v550h128v-205h248c48 0 82 -7 102 -21s30 -42.333 30 -85v-133c0 -42.667 -10 -71 -30 -85s-54 -21 -102 -21zM808 0h-128v550h128v-550zM449 145v55c0 14 -2.5 22.5 -7.5 25.5s-16.5 4.5 -34.5 4.5h-211v-115h211c18 0 29.5 1.5 34.5 4.5s7.5 11.5 7.5 25.5z
" />
    <glyph glyph-name="uni044C" unicode="&#x44c;" horiz-adv-x="620" 
d="M444 0h-376v550h128v-205h248c48 0 82 -7 102 -21s30 -42.333 30 -85v-133c0 -42.667 -10 -71 -30 -85s-54 -21 -102 -21zM449 145v55c0 14 -2.5 22.5 -7.5 25.5s-16.5 4.5 -34.5 4.5h-211v-115h211c18 0 29.5 1.5 34.5 4.5s7.5 11.5 7.5 25.5z" />
    <glyph glyph-name="uni044D" unicode="&#x44d;" horiz-adv-x="624" 
d="M425 0h-244c-48 0 -82 7 -102 21s-30 42.333 -30 85v49h128v-10c0 -14 2.33301 -22.5 7 -25.5s16.334 -4.5 35.001 -4.5h169c18 0 29.5 1.5 34.5 4.5s7.5 11.5 7.5 25.5v71h-238v115h238v74c0 14 -2.5 22.5 -7.5 25.5s-16.5 4.5 -34.5 4.5h-169
c-18.667 0 -30.334 -1.5 -35.001 -4.5s-7 -11.5 -7 -25.5v-10h-128v49c0 42.667 10 71 30 85s54 21 102 21h244c48 0 82 -7 102 -21s30 -42.333 30 -85v-338c0 -42.667 -10 -71 -30 -85s-54 -21 -102 -21z" />
    <glyph glyph-name="uni044E" unicode="&#x44e;" horiz-adv-x="944" 
d="M746 0h-287c-48 0 -82 7 -102 21s-30 42.333 -30 85v103h-131v-209h-128v550h128v-221h131v115c0 42.667 10 71 30 85s54 21 102 21h287c48 0 82 -7 102 -21s30 -42.333 30 -85v-338c0 -42.667 -10 -71 -30 -85s-54 -21 -102 -21zM750 145v260c0 14 -2.5 22.5 -7.5 25.5
s-16.5 4.5 -34.5 4.5h-212c-18.667 0 -30.334 -1.5 -35.001 -4.5s-7 -11.5 -7 -25.5v-260c0 -14 2.33301 -22.5 7 -25.5s16.334 -4.5 35.001 -4.5h212c18 0 29.5 1.5 34.5 4.5s7.5 11.5 7.5 25.5z" />
    <glyph glyph-name="uni044F" unicode="&#x44f;" horiz-adv-x="628" 
d="M559 0h-127v205h-75l-166 -205h-136l165 205h-37c-48 0 -82 7 -102 21s-30 42.333 -30 85v133c0 42.667 10 71 30 85s54 21 102 21h376v-550zM432 320v115h-211c-18.667 0 -30.334 -1.5 -35.001 -4.5s-7 -11.5 -7 -25.5v-55c0 -14 2.33301 -22.5 7 -25.5
s16.334 -4.5 35.001 -4.5h211z" />
    <glyph glyph-name="uni0450" unicode="&#x450;" horiz-adv-x="673" 
d="M595 0h-397.001c-48 0 -82 7 -102 21s-30 42.333 -30 85v338c0 42.667 10 71 30 85s54 21 102 21h292c48 0 82 -7 102 -21s30 -42.333 30 -85v-125c0 -42.667 -10 -71 -30 -85s-54 -21 -102 -21h-296v-68c0 -14 2.33301 -22.5 7 -25.5s16.334 -4.5 35.001 -4.5h359v-115z
M494.999 358l0.000976562 47c0 14 -2.5 22.5 -7.5 25.5s-16.5 4.5 -34.5 4.5h-217c-18.667 0 -30.334 -1.5 -35.001 -4.5s-7 -11.5 -7 -25.5v-77h259c18 0 29.5 1.5 34.5 4.5s7.5 11.5 7.5 25.5zM409 604l-211 107l71 92l192 -129z" />
    <glyph glyph-name="uni0451" unicode="&#x451;" horiz-adv-x="673" 
d="M595 0h-397c-48 0 -82 7 -102 21s-30 42.333 -30 85v338c0 42.667 10 71 30 85s54 21 102 21h292c48 0 82 -7 102 -21s30 -42.333 30 -85v-125c0 -42.667 -10 -71 -30 -85s-54 -21 -102 -21h-296v-68c0 -14 3.33301 -22.5 10 -25.5s22.667 -4.5 48 -4.5h343v-115z
M495 358l0.000976562 47c0 14 -2.5 22.5 -7.5 25.5s-16.5 4.5 -34.5 4.5h-217c-18.667 0 -30.334 -1.5 -35.001 -4.5s-7 -11.5 -7 -25.5v-77h259c18 0 29.5 1.5 34.5 4.5s7.5 11.5 7.5 25.5zM302.001 600h-126v121h126v-121zM500.001 600h-126v121h126v-121z" />
    <glyph glyph-name="uni0452" unicode="&#x452;" horiz-adv-x="692" 
d="M492 -160h-192v115h155c18.667 0 30.334 1.5 35.001 4.5s7 11.5 7 25.5v420c0 14 -2.33301 22.5 -7 25.5s-16.334 4.5 -35.001 4.5h-259v-435h-128v598h-74v85h74v39h128v-39h127v-85h-127v-48h296c48 0 82 -7 102 -21s30 -42.333 30 -85v-498c0 -42.667 -10 -71 -30 -85
s-54 -21 -102 -21z" />
    <glyph glyph-name="uni0453" unicode="&#x453;" horiz-adv-x="483" 
d="M196 0h-128v550h397v-115h-269v-435zM435 711l-212 -107l-52 70l192 129z" />
    <glyph glyph-name="uni0454" unicode="&#x454;" horiz-adv-x="624" 
d="M442 0h-244c-48 0 -82 7 -102 21s-30 42.333 -30 85v338c0 42.667 10 71 30 85s54 21 102 21h244c48 0 82 -7 102 -21s30 -42.333 30 -85v-49h-127v10c0 14 -2.5 22.5 -7.5 25.5s-16.5 4.5 -34.5 4.5h-169c-18.667 0 -30.334 -1.5 -35.001 -4.5s-7 -11.5 -7 -25.5v-74
h237v-115h-237v-71c0 -14 2.33301 -22.5 7 -25.5s16.334 -4.5 35.001 -4.5h169c18 0 29.5 1.5 34.5 4.5s7.5 11.5 7.5 25.5v10h127v-49c0 -42.667 -10 -71 -30 -85s-54 -21 -102 -21z" />
    <glyph glyph-name="uni0455" unicode="&#x455;" horiz-adv-x="622" 
d="M441 0h-362.999v115h325c18.667 0 30.334 1.5 35.001 4.5s7 11.5 7 25.5v40c0 14 -2.33301 22.5 -7 25.5s-16.334 4.5 -35.001 4.5h-221c-48 0 -82 7 -102 21s-30 42.333 -30 85v123c0 42.667 10 71 30 85s54 21 102 21h361v-115h-324
c-18.667 0 -30.334 -1.5 -35.001 -4.5s-7 -11.5 -7 -25.5v-45c0 -12 2 -20 6 -24s12 -6 24 -6h234c48 0 82 -7 102 -21s30 -42.333 30 -85v-118c0 -42.667 -10 -71 -30 -85s-54 -21 -102 -21z" />
    <glyph glyph-name="uni0456" unicode="&#x456;" horiz-adv-x="323" 
d="M254 0h-127v435h-115v115h242v-550zM254 607h-127v115h127v-115z" />
    <glyph glyph-name="uni0457" unicode="&#x457;" horiz-adv-x="323" 
d="M254 0h-127v435h-115v115h242v-550zM125 600h-127v121h127v-121zM323 600h-127v121h127v-121z" />
    <glyph glyph-name="uni0458" unicode="&#x458;" horiz-adv-x="323" 
d="M123 -200h-192.001v115h154c18.667 0 30.334 1.5 35.001 4.5s7 11.5 7 25.5v490h-115v115h243v-644c0 -42.667 -10 -71 -30 -85s-54 -21 -102 -21zM254.999 607h-128v115h128v-115z" />
    <glyph glyph-name="uni0459" unicode="&#x459;" horiz-adv-x="1025" 
d="M850 0h-374.999v435h-202l-57 -329c-7.33301 -43.333 -20 -71.833 -38 -85.5s-49.333 -20.5 -94 -20.5h-74v115h27c21.333 0 36.166 4.16699 44.499 12.5s13.833 20.833 16.5 37.5l62 385h442v-205h248c48 0 82 -7 102 -21s30 -42.333 30 -85v-133
c0 -42.667 -10 -71 -30 -85s-54 -21 -102 -21zM854.001 145v55c0 14 -2.33301 22.5 -7 25.5s-16.334 4.5 -35.001 4.5h-210v-115h210c18.667 0 30.334 1.5 35.001 4.5s7 11.5 7 25.5z" />
    <glyph glyph-name="uni045A" unicode="&#x45a;" horiz-adv-x="999" 
d="M824 0h-375v230h-253v-230h-128v550h128v-205h253v205h127v-205h248c48 0 82 -7 102 -21s30 -42.333 30 -85v-133c0 -42.667 -10 -71 -30 -85s-54 -21 -102 -21zM828 145v55c0 14 -2.33301 22.5 -7 25.5s-16.334 4.5 -35.001 4.5h-210v-115h210
c18.667 0 30.334 1.5 35.001 4.5s7 11.5 7 25.5z" />
    <glyph glyph-name="uni045B" unicode="&#x45b;" horiz-adv-x="692" 
d="M624 0h-126.999v405c0 14 -2.33301 22.5 -7 25.5s-16.334 4.5 -35.001 4.5h-259v-435h-128v598h-74v85h74v39h128v-39h127v-85h-127v-48h296c48 0 82 -7 102 -21s30 -42.333 30 -85v-444z" />
    <glyph glyph-name="uni045C" unicode="&#x45c;" horiz-adv-x="587" 
d="M570 0h-138l-163 215h-73v-215h-128v550h128v-220h71l170 220h138l-216 -277zM492 711l-210 -107l-53 70l192 129z" />
    <glyph glyph-name="uni045D" unicode="&#x45d;" horiz-adv-x="640" 
d="M344 604l-211 107l72 92l191 -129zM231 0h-163v550h128v-382l216 382h160v-550h-128v377z" />
    <glyph glyph-name="uni045E" unicode="&#x45e;" horiz-adv-x="585" 
d="M375 695h103c-7.33301 -37.333 -26.833 -70.333 -58.5 -99s-75.167 -43 -130.5 -43c-54 0 -97.167 14 -129.5 42s-52.5 61.333 -60.5 100h105c12 -36 40.333 -54 85 -54c44 0 72.667 18 86 54zM286 -200h-117l73 209l-243 541h135l167 -383l142 383h129z" />
    <glyph glyph-name="uni045F" unicode="&#x45f;" horiz-adv-x="693" 
d="M624 0h-214v-102h-128v102h-214v550h128v-435h301v435h127v-550z" />
    <glyph glyph-name="uni0490" unicode="&#x490;" horiz-adv-x="607" 
d="M207 0h-128v722h389v78h127v-193h-388v-607z" />
    <glyph glyph-name="uni0491" unicode="&#x491;" horiz-adv-x="483" 
d="M196 0h-128v550h270v88h127v-203h-269v-435z" />
    <glyph glyph-name="uni1E02" unicode="&#x1e02;" horiz-adv-x="742" 
d="M535 0h-456v722h455c48 0 82 -7 102 -21s30 -42.333 30 -85v-164c0 -50 -16 -81.667 -48 -95c32.667 -12.667 49 -44 49 -94v-157c0 -42.667 -10 -71 -30 -85s-54 -21 -102 -21zM539 144l0.00195312 129c0 14 -2.33301 22.5 -7 25.5s-16.334 4.5 -35.001 4.5h-290v-188
h290c19.333 0 31.166 1.5 35.499 4.5s6.5 11.167 6.5 24.5zM539.002 447l0.00195312 130c0 14 -2.33301 22.5 -7 25.5s-16.334 4.5 -35.001 4.5h-290v-189h290c19.333 0 31.166 1.5 35.499 4.5s6.5 11.167 6.5 24.5zM437.004 772h-127v120h127v-120z" />
    <glyph glyph-name="uni1E03" unicode="&#x1e03;" 
d="M491 0h-292c-48 0 -82 7 -102 21s-30 42.333 -30 85v694h128v-250h296c48 0 82 -7 102 -21s30 -42.333 30 -85v-338c0 -42.667 -10 -71 -30 -85s-54 -21 -102 -21zM496 145l-0.000976562 260c0 14 -2.5 22.5 -7.5 25.5s-16.5 4.5 -34.5 4.5h-259v-290
c0 -14 2.33301 -22.5 7 -25.5s16.334 -4.5 35.001 -4.5h217c18 0 29.5 1.5 34.5 4.5s7.5 11.5 7.5 25.5zM454.999 630h-127v120h127v-120z" />
    <glyph glyph-name="uni1E0A" unicode="&#x1e0a;" horiz-adv-x="774" 
d="M565 0h-486v722h486c48 0 82 -7 102 -21s30 -42.333 30 -85v-510c0 -42.667 -10 -71 -30 -85s-54 -21 -102 -21zM570 144l0.00195312 433c0 14 -2.33301 22.5 -7 25.5s-16.334 4.5 -35.001 4.5h-321v-492h321c19.333 0 31.166 1.5 35.499 4.5s6.5 11.167 6.5 24.5z
M452.002 772h-128v120h128v-120z" />
    <glyph glyph-name="uni1E0B" unicode="&#x1e0b;" 
d="M490 0h-292c-48 0 -82 7 -102 21s-30 42.333 -30 85v338c0 42.667 10 71 30 85s54 21 102 21h297v250h127v-694c0 -42.667 -10 -71 -30 -85s-54 -21 -102 -21zM495 145v290h-259c-18.667 0 -30.334 -1.5 -35.001 -4.5s-7 -11.5 -7 -25.5v-260
c0 -14 2.33301 -22.5 7 -25.5s16.334 -4.5 35.001 -4.5h217c18 0 29.5 1.5 34.5 4.5s7.5 11.5 7.5 25.5zM365 630h-127v120h127v-120z" />
    <glyph glyph-name="uni1E1E" unicode="&#x1e1e;" horiz-adv-x="629" 
d="M207 0h-128v722h528v-115h-400v-188h322v-115h-322v-304zM429 772h-128v120h128v-120z" />
    <glyph glyph-name="uni1E1F" unicode="&#x1e1f;" horiz-adv-x="460" 
d="M260 0h-127.999v436h-109v115h109v143c0 42.667 10 71 30 85s54 21 102 21h177v-115h-139c-18.667 0 -30.334 -1.5 -35.001 -4.5s-7 -11.5 -7 -25.5v-104h181v-115h-181v-436zM364.001 872h-128v120h128v-120z" />
    <glyph glyph-name="uni1E22" unicode="&#x1e22;" horiz-adv-x="791" 
d="M711 0h-127v304h-377v-304h-128v722h128v-303h377v303h127v-722zM459 772h-128v120h128v-120z" />
    <glyph glyph-name="uni1E23" unicode="&#x1e23;" horiz-adv-x="692" 
d="M624 0h-127v405c0 14 -2.5 22.5 -7.5 25.5s-16.5 4.5 -34.5 4.5h-259v-435h-128v800h128v-250h296c48 0 82 -7 102 -21s30 -42.333 30 -85v-444zM459 630h-128v120h128v-120z" />
    <glyph glyph-name="uni1E40" unicode="&#x1e40;" horiz-adv-x="944" 
d="M536 772h-128v120h128v-120zM865 0h-128v568l-192 -568h-137l-201 570v-570h-128v722h206l192 -553l182 553h206v-722z" />
    <glyph glyph-name="uni1E41" unicode="&#x1e41;" horiz-adv-x="1053" 
d="M985 0h-126.995v405c0 14 -2.33301 22.5 -7 25.5s-16.334 4.5 -35.001 4.5h-183c-18.667 0 -30.334 -1.5 -35.001 -4.5s-7 -11.5 -7 -25.5v-405h-127v405c0 14 -2.33301 22.5 -7 25.5s-16.334 4.5 -35.001 4.5h-185c-18.667 0 -30.334 -1.5 -35.001 -4.5
s-7 -11.5 -7 -25.5v-405h-128v444c0 42.667 10 71 30 85s54 21 102 21h227c26 0 47 -2.66699 63 -8s29 -16 39 -32c10 16 22.667 26.667 38 32s35.666 8 60.999 8h226c48 0 82 -7 102 -21s30 -42.333 30 -85v-444zM590.005 600h-127v120h127v-120z" />
    <glyph glyph-name="uni1E56" unicode="&#x1e56;" horiz-adv-x="715" 
d="M207 0h-128v722h454c48 0 82 -7 102 -21s30 -42.333 30 -85v-233c0 -42.667 -10 -71 -30 -85s-54 -21 -102 -21h-326v-277zM538 421l0.000976562 156c0 14 -2.5 22.5 -7.5 25.5s-16.5 4.5 -34.5 4.5h-289v-215h289c19.333 0 31.166 1.5 35.499 4.5s6.5 11.167 6.5 24.5z
M430.001 772h-128v120h128v-120z" />
    <glyph glyph-name="uni1E57" unicode="&#x1e57;" 
d="M491 0h-296v-200h-128v644c0 42.667 10 71 30 85s54 21 102 21h292c48 0 82 -7 102 -21s30 -42.333 30 -85v-338c0 -42.667 -10 -71 -30 -85s-54 -21 -102 -21zM496 145l0.000976562 260c0 14 -2.5 22.5 -7.5 25.5s-16.5 4.5 -34.5 4.5h-217
c-18.667 0 -30.334 -1.5 -35.001 -4.5s-7 -11.5 -7 -25.5v-290h259c18 0 29.5 1.5 34.5 4.5s7.5 11.5 7.5 25.5zM414.001 600h-127v120h127v-120z" />
    <glyph glyph-name="uni1E60" unicode="&#x1e60;" horiz-adv-x="734" 
d="M534 0h-333.001c-48 0 -82 7 -102 21s-30 42.333 -30 85v109h127v-70c0 -14 2.33301 -22.5 7 -25.5s16.334 -4.5 35.001 -4.5h258c18 0 29.5 1.5 34.5 4.5s7.5 11.5 7.5 25.5v128c0 14 -2.5 22.5 -7.5 25.5s-16.5 4.5 -34.5 4.5h-296c-48 0 -82 7 -102 21
s-30 42.333 -30 85v207c0 42.667 10 71 30 85s54 21 102 21h332c48 0 82 -7 102 -21s30 -42.333 30 -85v-109h-128v70c0 14 -2.33301 22.5 -7 25.5s-16 4.5 -34 4.5h-258c-18.667 0 -30.334 -1.5 -35.001 -4.5s-7 -11.5 -7 -25.5v-129c0 -14 2.33301 -22.5 7 -25.5
s16.334 -4.5 35.001 -4.5h297c48 0 82 -7 102 -21s30 -42.333 30 -85v-206c0 -42.667 -10 -71 -30 -85s-54 -21 -102 -21zM429.999 772h-127v120h127v-120z" />
    <glyph glyph-name="uni1E61" unicode="&#x1e61;" horiz-adv-x="622" 
d="M441 0h-362.999v115h325c18.667 0 30.334 1.5 35.001 4.5s7 11.5 7 25.5v40c0 14 -2.33301 22.5 -7 25.5s-16.334 4.5 -35.001 4.5h-221c-48 0 -82 7 -102 21s-30 42.333 -30 85v123c0 42.667 10 71 30 85s54 21 102 21h361v-115h-324
c-18.667 0 -30.334 -1.5 -35.001 -4.5s-7 -11.5 -7 -25.5v-45c0 -12 2 -20 6 -24s12 -6 24 -6h234c48 0 82 -7 102 -21s30 -42.333 30 -85v-118c0 -42.667 -10 -71 -30 -85s-54 -21 -102 -21zM394.001 600h-127v120h127v-120z" />
    <glyph glyph-name="uni1E6A" unicode="&#x1e6a;" horiz-adv-x="620" 
d="M374 0h-128v607h-233v115h593v-115h-232v-607zM374 772h-128v120h128v-120z" />
    <glyph glyph-name="uni1E6B" unicode="&#x1e6b;" horiz-adv-x="417" 
d="M393 0h-129.001c-48 0 -82 7 -102 21s-30 42.333 -30 85v329h-109v115h109v206h128v-206h133v-115h-133v-290c0 -14 2.33301 -22.5 7 -25.5s16.334 -4.5 35.001 -4.5h91v-115zM259.999 818h-128v120h128v-120z" />
    <glyph glyph-name="Wgrave" unicode="&#x1e80;" horiz-adv-x="1120" 
d="M874 0h-171l-144 542l-142 -542h-171l-223 722h137l171 -563l143 563h172l143 -563l171 563h137zM612 776l-211 107l71 92l192 -129z" />
    <glyph glyph-name="wgrave" unicode="&#x1e81;" horiz-adv-x="904" 
d="M718 0h-167l-100 407l-98 -407h-164l-175 550h135l121 -415l102 415h160l102 -415l122 415h133zM512 604l-212 107l72 92l192 -129z" />
    <glyph glyph-name="Wacute" unicode="&#x1e82;" horiz-adv-x="1120" 
d="M874 0h-171l-144 542l-142 -542h-171l-223 722h137l171 -563l143 563h172l143 -563l171 563h137zM736 883l-211 -107l-53 70l192 129z" />
    <glyph glyph-name="wacute" unicode="&#x1e83;" horiz-adv-x="904" 
d="M718 0h-167l-100 407l-98 -407h-164l-175 550h135l121 -415l102 415h160l102 -415l122 415h133zM618 711l-211 -107l-53 70l192 129z" />
    <glyph glyph-name="Wdieresis" unicode="&#x1e84;" horiz-adv-x="1120" 
d="M874 0h-171l-144 542l-142 -542h-171l-223 722h137l171 -563l143 563h172l143 -563l171 563h137zM524 772h-127v121h127v-121zM722 772h-127v121h127v-121z" />
    <glyph glyph-name="wdieresis" unicode="&#x1e85;" horiz-adv-x="904" 
d="M718 0h-167l-100 407l-98 -407h-164l-175 550h135l121 -415l102 415h160l102 -415l122 415h133zM416 600h-127v121h127v-121zM614 600h-127v121h127v-121z" />
    <glyph glyph-name="Ygrave" unicode="&#x1ef2;" horiz-adv-x="735" 
d="M434 0h-128v299h-124c-48 0 -82 7 -102 21s-30 42.333 -30 85v317h128v-278c0 -14 2.33301 -22.5 7 -25.5s16.334 -4.5 35.001 -4.5h295c19.333 0 31.166 1.5 35.499 4.5s6.5 11.167 6.5 24.5v279h127v-317c0 -42.667 -10 -71 -30 -85s-54 -21 -102 -21h-118v-299z
M406 776l-211 107l72 92l193 -129z" />
    <glyph glyph-name="ygrave" unicode="&#x1ef3;" horiz-adv-x="585" 
d="M319 604l-212 107l73 92l192 -129zM286 -200h-117l73 209l-243 541h135l167 -383l142 383h129z" />
    <glyph glyph-name="endash" unicode="&#x2013;" horiz-adv-x="599" 
d="M535 207h-470v120h470v-120z" />
    <glyph glyph-name="emdash" unicode="&#x2014;" horiz-adv-x="953" 
d="M889 207h-824v120h824v-120z" />
    <glyph glyph-name="afii00208" unicode="&#x2015;" horiz-adv-x="1329" 
d="M1265 207h-1200v120h1200v-120z" />
    <glyph glyph-name="quoteleft" unicode="&#x2018;" horiz-adv-x="258" 
d="M222 722l-51 -231h-140l106 231h85z" />
    <glyph glyph-name="quoteright" unicode="&#x2019;" horiz-adv-x="254" 
d="M234 722l-106 -231h-85l51 231h140z" />
    <glyph glyph-name="quotesinglbase" unicode="&#x201a;" horiz-adv-x="243" 
d="M205 98l-106 -231h-85l51 231h140z" />
    <glyph glyph-name="quotedblleft" unicode="&#x201c;" horiz-adv-x="443" 
d="M222 722l-51 -231h-140l106 231h85zM407 722l-52 -231h-139l106 231h85z" />
    <glyph glyph-name="quotedblright" unicode="&#x201d;" horiz-adv-x="440" 
d="M219 491l51 231h140l-106 -231h-85zM34 491l52 231h139l-106 -231h-85z" />
    <glyph glyph-name="quotedblbase" unicode="&#x201e;" horiz-adv-x="428" 
d="M205 98l-106 -231h-85l51 231h140zM390 98l-105 -231h-86l52 231h139z" />
    <glyph glyph-name="dagger" unicode="&#x2020;" horiz-adv-x="497" 
d="M312 -200h-127v589h-159v120h159v213h127v-213h159v-120h-159v-589z" />
    <glyph glyph-name="daggerdbl" unicode="&#x2021;" horiz-adv-x="530" 
d="M329 -200h-128v354h-158v120h158v115h-158v120h158v213h128v-213h158v-120h-158v-115h158v-120h-158v-354z" />
    <glyph glyph-name="bullet" unicode="&#x2022;" horiz-adv-x="500" 
d="M404 235h-308v270h308v-270z" />
    <glyph glyph-name="ellipsis" unicode="&#x2026;" horiz-adv-x="709" 
d="M181 0h-126v121h126v-121zM417 0h-125v121h125v-121zM654 0h-126v121h126v-121z" />
    <glyph glyph-name="perthousand" unicode="&#x2030;" horiz-adv-x="1292" 
d="M231 0h-127l586 722h130zM248 338h-94c-30 0 -54.667 5.5 -74 16.5s-29 27.5 -29 49.5v242c0 22.667 10 41 30 55s44.333 21 73 21h94c29.333 0 54 -7 74 -21s30 -32.333 30 -55v-232c0 -22.667 -10 -41 -30 -55s-44.667 -21 -74 -21zM256 439v181
c0 7.33301 -1.5 11.833 -4.5 13.5s-10.833 2.5 -23.5 2.5h-54c-12 0 -19.667 -0.833008 -23 -2.5s-5 -6.16699 -5 -13.5v-181c0 -7.33301 1.5 -11.833 4.5 -13.5s10.833 -2.5 23.5 -2.5h54c12.667 0 20.5 0.833008 23.5 2.5s4.5 6.16699 4.5 13.5zM767 0h-94
c-30 0 -54.667 5.5 -74 16.5s-29 27.5 -29 49.5v242c0 22.667 10 41 30 55s44.333 21 73 21h94c29.333 0 54 -7 74 -21s30 -32.333 30 -55v-232c0 -22.667 -10 -41 -30 -55s-44.667 -21 -74 -21zM774 101v181c0 7.33301 -1.5 11.833 -4.5 13.5s-10.833 2.5 -23.5 2.5h-53
c-12.667 0 -20.5 -0.833008 -23.5 -2.5s-4.5 -6.16699 -4.5 -13.5v-181c0 -7.33301 1.5 -11.833 4.5 -13.5s10.833 -2.5 23.5 -2.5h53c12.667 0 20.5 0.833008 23.5 2.5s4.5 6.16699 4.5 13.5zM1140 0h-93c-30.667 0 -55.667 5.5 -75 16.5s-29 27.5 -29 49.5v242
c0 22.667 10 41 30 55s44.667 21 74 21h93c29.333 0 54.166 -7 74.499 -21s30.5 -32.333 30.5 -55v-232c0 -22.667 -10.167 -41 -30.5 -55s-45.166 -21 -74.499 -21zM1149 101v181c0 7.33301 -1.66699 11.833 -5 13.5s-11.333 2.5 -24 2.5h-53
c-12.667 0 -20.667 -0.833008 -24 -2.5s-5 -6.16699 -5 -13.5v-181c0 -7.33301 1.5 -11.833 4.5 -13.5s11.167 -2.5 24.5 -2.5h53c12.667 0 20.667 0.833008 24 2.5s5 6.16699 5 13.5z" />
    <glyph glyph-name="guilsinglleft" unicode="&#x2039;" horiz-adv-x="321" 
d="M284 86l-100 -58l-158 250l143 247l102 -56l-111 -191z" />
    <glyph glyph-name="guilsinglright" unicode="&#x203a;" horiz-adv-x="321" 
d="M136 28l-99 58l124 192l-111 191l102 56l143 -247z" />
    <glyph glyph-name="fraction" unicode="&#x2044;" horiz-adv-x="231" 
d="M-115 0h-127l586 722h130z" />
    <glyph glyph-name="zerosuperior" unicode="&#x2070;" horiz-adv-x="403" 
d="M250 478l-81.002 -0.000976562c-30 0 -54.667 6.66699 -74 20s-32 32 -38 56c-4 14.667 -6 30 -6 46v186c0 23.333 10.667 41.833 32 55.5s50 20.5 86 20.5h65c38.667 0 68 -6.66699 88 -20s30 -32 30 -56v-186c0 -17.333 -1.33301 -32.666 -4 -45.999
c-5.33301 -23.333 -16.666 -41.833 -33.999 -55.5s-38.666 -20.5 -63.999 -20.5zM255.998 578.999v181c0 7.33301 -1.5 11.833 -4.5 13.5s-11.167 2.5 -24.5 2.5h-52c-13.333 0 -21.5 -0.833008 -24.5 -2.5s-4.5 -6.16699 -4.5 -13.5v-181c0 -7.33301 1.5 -11.833 4.5 -13.5
s11.167 -2.5 24.5 -2.5h53c12.667 0 20.5 0.833008 23.5 2.5s4.5 6.16699 4.5 13.5z" />
    <glyph glyph-name="foursuperior" unicode="&#x2074;" horiz-adv-x="388" 
d="M350 478h-92v98h-237v86l153 200h106l-155 -205h133v85h92v-264z" />
    <glyph glyph-name="fivesuperior" unicode="&#x2075;" horiz-adv-x="378" 
d="M240 478h-98.999c-28.667 0 -52.834 7 -72.501 21s-29.5 32.333 -29.5 55v34h96v-8c0 -7.33301 1.66699 -11.833 5 -13.5s11 -2.5 23 -2.5h54c12.667 0 20.5 0.833008 23.5 2.5s4.5 6.16699 4.5 13.5v54c0 7.33301 -1.5 11.833 -4.5 13.5s-10.833 2.5 -23.5 2.5h-177v212
h287v-85h-192v-45h114c28.667 0 51 -6.83301 67 -20.5s24 -32.167 24 -55.5v-102c0 -22.667 -9.5 -41 -28.5 -55s-42.833 -21 -71.5 -21z" />
    <glyph glyph-name="sixsuperior" unicode="&#x2076;" horiz-adv-x="393" 
d="M252 478h-98.999c-28.667 0 -52.834 7 -72.501 21s-29.5 32.333 -29.5 55v232c0 22.667 9.66699 41 29 55s43.333 21 72 21h96c29.333 0 54 -7 74 -21s30 -32.333 30 -55v-36h-95v11c0 7.33301 -1.5 11.833 -4.5 13.5s-10.833 2.5 -23.5 2.5h-54
c-12.667 0 -20.5 -0.833008 -23.5 -2.5s-4.5 -6.16699 -4.5 -13.5v-49h105c28.667 0 52.5 -7 71.5 -21s28.5 -32.333 28.5 -55v-82c0 -22.667 -9.5 -41 -28.5 -55s-42.833 -21 -71.5 -21zM257.001 580v34c0 7.33301 -1.5 11.833 -4.5 13.5s-10.833 2.5 -23.5 2.5h-82v-50
c0 -7.33301 1.5 -11.833 4.5 -13.5s10.833 -2.5 23.5 -2.5h54c12 0 19.667 0.833008 23 2.5s5 6.16699 5 13.5z" />
    <glyph glyph-name="sevensuperior" unicode="&#x2077;" horiz-adv-x="341" 
d="M127 478h-100l204 299h-207v85h302v-89z" />
    <glyph glyph-name="eightsuperior" unicode="&#x2078;" horiz-adv-x="396" 
d="M247 478l-75 -0.000976562c-43.333 0 -74.833 7.16699 -94.5 21.5s-29.5 39.5 -29.5 75.5v22c0 22.667 2.83301 38.834 8.5 48.501s16.167 17.167 31.5 22.5c-17.333 6.66699 -28.333 16 -33 28s-7 34.333 -7 67c0 38.667 10.167 64.834 30.5 78.501s51.5 20.5 93.5 20.5
h52c44.667 0 76.5 -7.33301 95.5 -22s28.5 -40.334 28.5 -77.001c0 -32.667 -2.33301 -55 -7 -67s-15.334 -21.333 -32.001 -28c14.667 -6 25 -13.833 31 -23.5s9 -25.5 9 -47.5v-22c0 -30.667 -8.66699 -54.5 -26 -71.5s-42.666 -25.5 -75.999 -25.5zM253 725.999v25.999
c0 11.333 -1.5 18.166 -4.5 20.499s-11.167 3.5 -24.5 3.5h-52c-13.333 0 -21.5 -1.16699 -24.5 -3.5s-4.5 -9.16602 -4.5 -20.499v-18c0 -11.333 1.33301 -18.166 4 -20.499s11 -3.5 25 -3.5h52c13.333 0 21.5 0.833008 24.5 2.5s4.5 6.16699 4.5 13.5zM253 578.998
l-0.000976562 21.998c0 13.333 -1.5 21.166 -4.5 23.499s-10.833 3.5 -23.5 3.5h-53c-9.33301 0 -15.666 -0.166992 -18.999 -0.5s-5.83301 -1.66602 -7.5 -3.99902s-2.5 -6.16602 -2.5 -11.499v-22c0 -13.333 1.33301 -21.166 4 -23.499s11 -3.5 25 -3.5h53
c12.667 0 20.5 0.833008 23.5 2.5s4.5 6.16699 4.5 13.5z" />
    <glyph glyph-name="ninesuperior" unicode="&#x2079;" horiz-adv-x="393" 
d="M241 478h-96c-29.333 0 -54 7 -74 21s-30 32.333 -30 55v36h95v-11c0 -7.33301 1.5 -11.833 4.5 -13.5s10.833 -2.5 23.5 -2.5h54c12.667 0 20.5 0.833008 23.5 2.5s4.5 6.16699 4.5 13.5v49h-105c-28 0 -51.667 7 -71 21s-29 32.333 -29 55v82
c0 22.667 9.66699 41 29 55s43 21 71 21h100c28.667 0 52.667 -7 72 -21s29 -32.333 29 -55v-232c0 -22.667 -9.66699 -41 -29 -55s-43.333 -21 -72 -21zM246 710v50c0 7.33301 -1.5 11.833 -4.5 13.5s-10.833 2.5 -23.5 2.5h-54c-12 0 -19.667 -0.833008 -23 -2.5
s-5 -6.16699 -5 -13.5v-34c0 -7.33301 1.5 -11.833 4.5 -13.5s10.833 -2.5 23.5 -2.5h82z" />
    <glyph glyph-name="zeroinferior" unicode="&#x2080;" horiz-adv-x="403" 
d="M250 -140h-81.002c-30 0 -54.667 6.66699 -74 20s-32 32 -38 56c-4 15.333 -6 30.666 -6 45.999v186c0 23.333 10.667 41.833 32 55.5s50 20.5 86 20.5h65c38.667 0 68 -6.66699 88 -20s30 -32 30 -56v-186c0 -17.333 -1.33301 -32.666 -4 -45.999
c-5.33301 -23.333 -16.666 -41.833 -33.999 -55.5s-38.666 -20.5 -63.999 -20.5zM255.998 -39v181c0 7.33301 -1.5 11.833 -4.5 13.5s-11.167 2.5 -24.5 2.5h-52c-13.333 0 -21.5 -0.833008 -24.5 -2.5s-4.5 -6.16699 -4.5 -13.5v-181c0 -7.33301 1.5 -11.833 4.5 -13.5
s11.167 -2.5 24.5 -2.5h53c12.667 0 20.5 0.833008 23.5 2.5s4.5 6.16699 4.5 13.5z" />
    <glyph glyph-name="oneinferior" unicode="&#x2081;" horiz-adv-x="348" 
d="M331 -140h-298v90h99v204h-99v90h201v-294h97v-90z" />
    <glyph glyph-name="twoinferior" unicode="&#x2082;" horiz-adv-x="363" 
d="M322 -140l-282 0.00195312v88l157 119c21.333 16 32 34.667 32 56v24c0 7.33301 -1.83301 11.833 -5.5 13.5s-11.5 2.5 -23.5 2.5h-53c-12.667 0 -20.5 -0.833008 -23.5 -2.5s-4.5 -6.16699 -4.5 -13.5v-36h-84v28c0 41.333 4.83301 69.166 14.5 83.499
s30.167 21.5 61.5 21.5h88c55.333 0 89.333 -5.33301 102 -16s19 -40.334 19 -89.001c0 -34 -4.16699 -59.5 -12.5 -76.5s-27.833 -36.167 -58.5 -57.5l-93 -64h166v-81z" />
    <glyph glyph-name="threeinferior" unicode="&#x2083;" horiz-adv-x="384" 
d="M235 -140l-95 0.00292969c-31.333 0 -56.666 5.33301 -75.999 16s-29 27.334 -29 50.001v49h95v-14c0 -7.33301 1.66699 -11.833 5 -13.5s11.333 -2.5 24 -2.5h53c12.667 0 20.667 0.833008 24 2.5s5 6.16699 5 13.5v33c0 5.33301 -1 9.16602 -3 11.499
s-4.83301 3.66602 -8.5 3.99902s-10.834 0.5 -21.501 0.5h-71v82h75c12.667 0 20.667 0.833008 24 2.5s5 6.16699 5 13.5v34c0 7.33301 -1.66699 11.833 -5 13.5s-11.333 2.5 -24 2.5h-53c-12.667 0 -20.667 -0.833008 -24 -2.5s-5 -6.16699 -5 -13.5v-13h-95v39
c0 22.667 13 41 39 55s56 21 90 21h57c30.667 0 57.5 -7 80.5 -21s34.5 -32.333 34.5 -55v-68c0 -14.667 -2.83301 -25.834 -8.5 -33.501s-16.167 -13.167 -31.5 -16.5c26.667 -6.66699 40 -23.334 40 -50.001v-64c0 -23.333 -9 -41.833 -27 -55.5s-42.667 -20.5 -74 -20.5z
" />
    <glyph glyph-name="fourinferior" unicode="&#x2084;" horiz-adv-x="388" 
d="M348 -140h-91v98h-237v86l152 200h107l-155 -205h133v85h91v-264z" />
    <glyph glyph-name="fiveinferior" unicode="&#x2085;" horiz-adv-x="378" 
d="M240 -140h-98.999c-28.667 0 -52.834 7 -72.501 21s-29.5 32.333 -29.5 55v34h96v-8c0 -7.33301 1.66699 -11.833 5 -13.5s11 -2.5 23 -2.5h54c12.667 0 20.5 0.833008 23.5 2.5s4.5 6.16699 4.5 13.5v54c0 7.33301 -1.5 11.833 -4.5 13.5s-10.833 2.5 -23.5 2.5h-177
v212h287v-85h-192v-45h114c28.667 0 51 -6.83301 67 -20.5s24 -32.167 24 -55.5v-102c0 -22.667 -9.5 -41 -28.5 -55s-42.833 -21 -71.5 -21z" />
    <glyph glyph-name="sixinferior" unicode="&#x2086;" horiz-adv-x="392" 
d="M252 -140h-98.999c-28.667 0 -52.834 7 -72.501 21s-29.5 32.333 -29.5 55v232c0 22.667 9.66699 41 29 55s43.333 21 72 21h96c29.333 0 54 -7 74 -21s30 -32.333 30 -55v-36h-95v11c0 7.33301 -1.5 11.833 -4.5 13.5s-10.833 2.5 -23.5 2.5h-54
c-12.667 0 -20.5 -0.833008 -23.5 -2.5s-4.5 -6.16699 -4.5 -13.5v-49h105c28.667 0 52.5 -7 71.5 -21s28.5 -32.333 28.5 -55v-82c0 -22.667 -9.5 -41 -28.5 -55s-42.833 -21 -71.5 -21zM257.001 -38v34c0 7.33301 -1.5 11.833 -4.5 13.5s-10.833 2.5 -23.5 2.5h-82v-50
c0 -7.33301 1.5 -11.833 4.5 -13.5s10.833 -2.5 23.5 -2.5h54c12 0 19.667 0.833008 23 2.5s5 6.16699 5 13.5z" />
    <glyph glyph-name="seveninferior" unicode="&#x2087;" horiz-adv-x="342" 
d="M128 -140h-101l204 299h-206v85h302v-89z" />
    <glyph glyph-name="eightinferior" unicode="&#x2088;" horiz-adv-x="396" 
d="M246 -140l-75 -0.000976562c-43.333 0 -74.833 7.16699 -94.5 21.5s-29.5 39.5 -29.5 75.5v22c0 22.667 2.83301 38.834 8.5 48.501s16.167 17.167 31.5 22.5c-17.333 6.66699 -28.333 16.167 -33 28.5s-7 34.5 -7 66.5c0 38.667 10.167 64.834 30.5 78.501
s51.5 20.5 93.5 20.5h53c44 0 75.667 -7.33301 95 -22s29 -40.334 29 -77.001c0 -32 -2.5 -54.167 -7.5 -66.5s-15.833 -21.833 -32.5 -28.5c15.333 -5.33301 25.833 -13 31.5 -23s8.5 -26 8.5 -48v-22c0 -30.667 -8.5 -54.5 -25.5 -71.5s-42.5 -25.5 -76.5 -25.5z
M252 107.999v26.001c0 11.333 -1.33301 18.166 -4 20.499s-10.667 3.5 -24 3.5h-53c-12.667 0 -20.5 -1.33301 -23.5 -4s-4.5 -9.33398 -4.5 -20.001v-18c0 -11.333 1.33301 -18.166 4 -20.499s11 -3.5 25 -3.5h52c12.667 0 20.5 0.833008 23.5 2.5s4.5 6.16699 4.5 13.5z
M253 -39v22c0 13.333 -1.5 21.166 -4.5 23.499s-11.167 3.5 -24.5 3.5h-53c-12.667 0 -20.5 -0.666992 -23.5 -2s-4.5 -6 -4.5 -14v-22c0 -13.333 1.33301 -21.166 4 -23.499s10.667 -3.5 24 -3.5h53c13.333 0 21.5 0.833008 24.5 2.5s4.5 6.16699 4.5 13.5z" />
    <glyph glyph-name="nineinferior" unicode="&#x2089;" horiz-adv-x="392" 
d="M240 -140h-96c-29.333 0 -54 7 -74 21s-30 32.333 -30 55v36h95v-11c0 -7.33301 1.66699 -11.833 5 -13.5s11.333 -2.5 24 -2.5h53c12.667 0 20.667 0.833008 24 2.5s5 6.16699 5 13.5v49h-105c-28.667 0 -52.667 7 -72 21s-29 32.333 -29 55v82
c0 22.667 9.66699 41 29 55s43.333 21 72 21h99c28.667 0 52.667 -7 72 -21s29 -32.333 29 -55v-232c0 -22.667 -9.66699 -41 -29 -55s-43.333 -21 -72 -21zM246 92v50c0 7.33301 -1.66699 11.833 -5 13.5s-11.333 2.5 -24 2.5h-53c-12.667 0 -20.667 -0.833008 -24 -2.5
s-5 -6.16699 -5 -13.5v-34c0 -7.33301 1.66699 -11.833 5 -13.5s11.333 -2.5 24 -2.5h82z" />
    <glyph glyph-name="Euro" unicode="&#x20ac;" horiz-adv-x="775" 
d="M581 0h-333.999c-48 0 -82 7 -102 21s-30 42.333 -30 85v116h-66v100h66v60h-66v100h66v134c0 42.667 10 71 30 85s54 21 102 21h334c48 0 82 -7 102 -21s30 -42.333 30 -85v-109h-127v70c0 14 -2.5 22.5 -7.5 25.5s-16.5 4.5 -34.5 4.5h-259
c-18.667 0 -30.334 -1.5 -35.001 -4.5s-7 -11.5 -7 -25.5v-95h282v-100h-282v-60h282v-100h-282v-77c0 -14 2.33301 -22.5 7 -25.5s16.334 -4.5 35.001 -4.5h259c19.333 0 31.166 1.5 35.499 4.5s6.5 11.167 6.5 24.5v71h127v-109c0 -42.667 -10 -71 -30 -85
s-54 -21 -102 -21z" />
    <glyph glyph-name="uni2116" unicode="&#x2116;" horiz-adv-x="1194" 
d="M1001 250h-99c-48 0 -82 7 -102 21s-30 42.333 -30 85v178c0 42.667 10 71 30 85s54 21 102 21h99c48 0 82 -7 102 -21s30 -42.333 30 -85v-178c0 -42.667 -10 -71 -30 -85s-54 -21 -102 -21zM1025 375v140c0 14 -2.5 22.5 -7.5 25.5s-16.5 4.5 -34.5 4.5h-64
c-18 0 -29.5 -1.5 -34.5 -4.5s-7.5 -11.5 -7.5 -25.5v-140c0 -14 2.5 -22.5 7.5 -25.5s16.5 -4.5 34.5 -4.5h64c18 0 29.5 1.5 34.5 4.5s7.5 11.5 7.5 25.5zM1110 71h-319v100h319v-100zM692 0h-157l-321 503v-503h-128v722h153l325 -509v509h128v-722z" />
    <glyph glyph-name="trademark" unicode="&#x2122;" horiz-adv-x="922" 
d="M257 408h-96v305h-104v85h305v-85h-105v-305zM851 408h-96v246l-91 -246h-65l-91 248v-248h-96v390h114l110 -241l101 241h114v-390z" />
    <glyph glyph-name="ohm" unicode="&#x2126;" horiz-adv-x="845" 
d="M774 0h-134c-40.667 0 -71.334 1.66699 -92.001 5s-37.167 11.333 -49.5 24s-19.833 28.167 -22.5 46.5s-4 46.166 -4 83.499c0 65.333 6.33301 107.166 19 125.499s44 27.5 94 27.5h5c28.667 0 46 1.33301 52 4s9 11.334 9 26.001v235c0 14 -2.33301 22.5 -7 25.5
s-16.334 4.5 -35.001 4.5h-372c-20 0 -32 -1.33301 -36 -4s-6 -11.334 -6 -26.001v-235c0 -14 3.16699 -22.5 9.5 -25.5s23.5 -4.5 51.5 -4.5h5c50 0 81.333 -9.33301 94 -28s19 -61 19 -127c0 -24.667 -0.5 -44.167 -1.5 -58.5s-3.66699 -28.166 -8 -41.499
s-10 -23.166 -17 -29.499s-17.167 -11.833 -30.5 -16.5s-28.666 -7.66699 -45.999 -9s-39.333 -2 -66 -2h-134v115h152c18.667 0 30.334 1.5 35.001 4.5s7 11.5 7 25.5v22c0 14 -2.33301 22.5 -7 25.5s-16.334 4.5 -35.001 4.5h-24c-49.333 0 -83.666 7 -102.999 21
s-29 42.333 -29 85v313c0 42.667 10 71 30 85s54 21 102 21h447c48 0 82 -7 102 -21s30 -42.333 30 -85v-313c0 -42.667 -10 -71 -30 -85s-54 -21 -102 -21h-24c-18.667 0 -30.334 -1.5 -35.001 -4.5s-7 -11.5 -7 -25.5v-22c0 -14 2.33301 -22.5 7 -25.5
s16.334 -4.5 35.001 -4.5h152v-115z" />
    <glyph glyph-name="partialdiff" unicode="&#x2202;" horiz-adv-x="732" 
d="M532 0h-334c-48 0 -82 7 -102 21s-30 42.333 -30 85v283c0 42.667 10 71 30 85s54 21 102 21h339v82c0 14 -2.5 22.5 -7.5 25.5s-16.5 4.5 -34.5 4.5h-147v115h184c48 0 82 -7 102 -21s30 -42.333 30 -85v-510c0 -42.667 -10 -71 -30 -85s-54 -21 -102 -21zM537 145v235
h-301c-18.667 0 -30.334 -1.5 -35.001 -4.5s-7 -11.5 -7 -25.5v-205c0 -14 2.33301 -22.5 7 -25.5s16.334 -4.5 35.001 -4.5h259c18 0 29.5 1.5 34.5 4.5s7.5 11.5 7.5 25.5z" />
    <glyph glyph-name="Delta" unicode="&#x2206;" horiz-adv-x="680" 
d="M660 0h-640l236 722h169zM491 120l-150 443l-152 -443h302z" />
    <glyph glyph-name="product" unicode="&#x220f;" horiz-adv-x="801" 
d="M716 -200h-127v807h-377v-807h-128v922h632v-922z" />
    <glyph glyph-name="summation" unicode="&#x2211;" horiz-adv-x="636" 
d="M593 -200h-551v120l298 342l-298 340v120h551v-115h-399l291 -330v-31l-291 -331h399v-115z" />
    <glyph glyph-name="minus" unicode="&#x2212;" horiz-adv-x="612" 
d="M541 207h-470v120h470v-120z" />
    <glyph glyph-name="radical" unicode="&#x221a;" horiz-adv-x="627" 
d="M352 0h-156l-184 300h152l102 -141l214 563h136z" />
    <glyph glyph-name="infinity" unicode="&#x221e;" horiz-adv-x="1220" 
d="M1012 0l-223.996 -0.00195312c-16.667 0 -30.334 1 -41.001 3s-20.5 6.5 -29.5 13.5s-15.833 13.167 -20.5 18.5s-12.5 15.833 -23.5 31.5s-20.5 28.5 -28.5 38.5l-35 45l-35 -45l-23.5 -32c-9.66699 -13.333 -16.5 -22.5 -20.5 -27.5s-9.83301 -11.5 -17.5 -19.5
s-14.834 -13.167 -21.501 -15.5s-15 -4.66602 -25 -6.99902s-21.667 -3.5 -35 -3.5h-225c-48 0 -82 7 -102 21s-30 42.333 -30 85v338c0 42.667 10 71 30 85s54 21 102 21h225c16.667 0 30.334 -1 41.001 -3s20.667 -6.66699 30 -14s16.166 -13.666 20.499 -18.999
s12.166 -16 23.499 -32s20.666 -28.667 27.999 -38l34 -44l35 45c6.66699 8 16.167 20.5 28.5 37.5s20.5 27.667 24.5 32s11 10.5 21 18.5s20.167 12.833 30.5 14.5s23.5 2.5 39.5 2.5h224c48 0 82 -7 102 -21s30 -42.333 30 -85v-338c0 -42.667 -10 -71 -30 -85
s-54 -21 -102 -21zM446.004 164.998l82 109.996l-82 110c-8 10.667 -14.667 18.834 -20 24.501s-13.833 11.334 -25.5 17.001s-24.834 8.5 -39.501 8.5h-116c-18.667 0 -30.334 -1.5 -35.001 -4.5s-7 -11.5 -7 -25.5v-260c0 -14 2.33301 -22.5 7 -25.5
s16.334 -4.5 35.001 -4.5h116c14.667 0 27.834 2.83301 39.501 8.5s20.167 11.334 25.5 17.001s12 13.834 20 24.501zM1017 144.994l0.000976562 260c0 14 -2.33301 22.5 -7 25.5s-16.334 4.5 -35.001 4.5h-116c-14.667 0 -28 -3 -40 -9s-20.5 -11.667 -25.5 -17
s-11.5 -13.333 -19.5 -24l-83 -110l83 -110c23.333 -33.333 51.666 -50 84.999 -50h116c18.667 0 30.334 1.5 35.001 4.5s7 11.5 7 25.5z" />
    <glyph glyph-name="integral" unicode="&#x222b;" horiz-adv-x="420" 
d="M142 0h-115v115h77c18.667 0 30.334 1.5 35.001 4.5s7 11.5 7 25.5v549c0 42.667 10 71 30 85s54 21 102 21h114v-115h-76c-18.667 0 -30.334 -1.5 -35.001 -4.5s-7 -11.5 -7 -25.5v-549c0 -42.667 -10 -71 -30 -85s-54 -21 -102 -21z" />
    </font>
</defs>
</svg>
